%TF.GenerationSoftware,KiCad,Pcbnew,8.0.6*%
%TF.CreationDate,2024-11-25T21:26:04+01:00*%
%TF.ProjectId,PCB,5043422e-6b69-4636-9164-5f7063625858,rev?*%
%TF.SameCoordinates,Original*%
%TF.FileFunction,Copper,L2,Bot*%
%TF.FilePolarity,Positive*%
%FSLAX46Y46*%
G04 Gerber Fmt 4.6, Leading zero omitted, Abs format (unit mm)*
G04 Created by KiCad (PCBNEW 8.0.6) date 2024-11-25 21:26:04*
%MOMM*%
%LPD*%
G01*
G04 APERTURE LIST*
%TA.AperFunction,ComponentPad*%
%ADD10R,2.000000X2.000000*%
%TD*%
%TA.AperFunction,ComponentPad*%
%ADD11O,2.000000X1.600000*%
%TD*%
%TA.AperFunction,ComponentPad*%
%ADD12R,1.500000X1.500000*%
%TD*%
%TA.AperFunction,ComponentPad*%
%ADD13C,1.500000*%
%TD*%
%TA.AperFunction,ComponentPad*%
%ADD14C,2.250000*%
%TD*%
%TA.AperFunction,ComponentPad*%
%ADD15R,1.950000X1.950000*%
%TD*%
%TA.AperFunction,ComponentPad*%
%ADD16C,1.950000*%
%TD*%
%TA.AperFunction,ComponentPad*%
%ADD17R,1.700000X1.700000*%
%TD*%
%TA.AperFunction,ComponentPad*%
%ADD18O,1.700000X1.700000*%
%TD*%
%TA.AperFunction,ComponentPad*%
%ADD19R,1.100000X1.100000*%
%TD*%
%TA.AperFunction,ComponentPad*%
%ADD20C,1.100000*%
%TD*%
%TA.AperFunction,ViaPad*%
%ADD21C,0.600000*%
%TD*%
%TA.AperFunction,Conductor*%
%ADD22C,0.600000*%
%TD*%
%TA.AperFunction,Conductor*%
%ADD23C,0.200000*%
%TD*%
G04 APERTURE END LIST*
D10*
%TO.P,U_WeMos_D1_Mini_Pro_1,1,~{RST}*%
%TO.N,unconnected-(U_WeMos_D1_Mini_Pro_1-~{RST}-Pad1)*%
X91290000Y-117710000D03*
D11*
%TO.P,U_WeMos_D1_Mini_Pro_1,2,A0*%
%TO.N,DOA*%
X91290000Y-120250000D03*
%TO.P,U_WeMos_D1_Mini_Pro_1,3,D0*%
%TO.N,DO0*%
X91290000Y-122790000D03*
%TO.P,U_WeMos_D1_Mini_Pro_1,4,SCK/D5*%
%TO.N,DO5*%
X91290000Y-125330000D03*
%TO.P,U_WeMos_D1_Mini_Pro_1,5,MISO/D6*%
%TO.N,DO6*%
X91290000Y-127870000D03*
%TO.P,U_WeMos_D1_Mini_Pro_1,6,MOSI/D7*%
%TO.N,DO7*%
X91290000Y-130410000D03*
%TO.P,U_WeMos_D1_Mini_Pro_1,7,CS/D8*%
%TO.N,DO8*%
X91290000Y-132950000D03*
%TO.P,U_WeMos_D1_Mini_Pro_1,8,3V3*%
%TO.N,MCU 3V3*%
X91290000Y-135490000D03*
%TO.P,U_WeMos_D1_Mini_Pro_1,9,5V*%
%TO.N,VCC*%
X114150000Y-135490000D03*
%TO.P,U_WeMos_D1_Mini_Pro_1,10,GND*%
%TO.N,GND*%
X114150000Y-132950000D03*
%TO.P,U_WeMos_D1_Mini_Pro_1,11,D4*%
%TO.N,Net-(SW_LocRem_1-A)*%
X114150000Y-130410000D03*
%TO.P,U_WeMos_D1_Mini_Pro_1,12,D3*%
%TO.N,DO3*%
X114150000Y-127870000D03*
%TO.P,U_WeMos_D1_Mini_Pro_1,13,SDA/D2*%
%TO.N,SDA*%
X114150000Y-125330000D03*
%TO.P,U_WeMos_D1_Mini_Pro_1,14,SCL/D1*%
%TO.N,SCL*%
X114150000Y-122790000D03*
%TO.P,U_WeMos_D1_Mini_Pro_1,15,RX*%
%TO.N,unconnected-(U_WeMos_D1_Mini_Pro_1-RX-Pad15)*%
X114150000Y-120250000D03*
%TO.P,U_WeMos_D1_Mini_Pro_1,16,TX*%
%TO.N,unconnected-(U_WeMos_D1_Mini_Pro_1-TX-Pad16)*%
X114150000Y-117710000D03*
%TD*%
D12*
%TO.P,PS_DCDC_24V5V_1,1,+VIN*%
%TO.N,Net-(PS_DCDC_24V5V_1-+VIN)*%
X77540000Y-188570000D03*
D13*
%TO.P,PS_DCDC_24V5V_1,2,-VIN*%
%TO.N,Net-(J_24Vin+GND_1-Pin_1)*%
X72460000Y-188570000D03*
%TO.P,PS_DCDC_24V5V_1,3,CTRL*%
%TO.N,unconnected-(PS_DCDC_24V5V_1-CTRL-Pad3)*%
X64840000Y-188570000D03*
%TO.P,PS_DCDC_24V5V_1,4,-VOUT*%
%TO.N,GND*%
X64840000Y-168250000D03*
%TO.P,PS_DCDC_24V5V_1,5,TRIM*%
%TO.N,unconnected-(PS_DCDC_24V5V_1-TRIM-Pad5)*%
X75000000Y-168250000D03*
%TO.P,PS_DCDC_24V5V_1,6,+VOUT*%
%TO.N,Net-(PS_DCDC_24V5V_1-+VOUT)*%
X85160000Y-168250000D03*
%TD*%
D14*
%TO.P,K_TypeCRel_5,1*%
%TO.N,VFD DI1*%
X100000000Y-197425000D03*
%TO.P,K_TypeCRel_5,2*%
%TO.N,Net-(D_sch_2-A)*%
X106000000Y-195425000D03*
%TO.P,K_TypeCRel_5,3*%
%TO.N,remote DI1*%
X106000000Y-183225000D03*
%TO.P,K_TypeCRel_5,4*%
%TO.N,local DI1*%
X94000000Y-183225000D03*
%TO.P,K_TypeCRel_5,5*%
%TO.N,VCC*%
X94000000Y-195425000D03*
%TD*%
D15*
%TO.P,J_24Vin+GND_1,1,Pin_1*%
%TO.N,Net-(J_24Vin+GND_1-Pin_1)*%
X80420000Y-215500000D03*
D16*
%TO.P,J_24Vin+GND_1,2,Pin_2*%
%TO.N,Net-(J_24Vin+GND_1-Pin_2)*%
X85500000Y-215500000D03*
%TD*%
D15*
%TO.P,J_VFDconnectors_3,1,Pin_1*%
%TO.N,J4 24V*%
X121500000Y-214500000D03*
D16*
%TO.P,J_VFDconnectors_3,2,Pin_2*%
%TO.N,unconnected-(J_VFDconnectors_3-Pin_2-Pad2)*%
X126500000Y-214500000D03*
%TO.P,J_VFDconnectors_3,3,Pin_3*%
%TO.N,unconnected-(J_VFDconnectors_3-Pin_3-Pad3)*%
X131500000Y-214500000D03*
%TO.P,J_VFDconnectors_3,4,Pin_4*%
%TO.N,VFD DI2*%
X136500000Y-214500000D03*
%TO.P,J_VFDconnectors_3,5,Pin_5*%
%TO.N,unconnected-(J_VFDconnectors_3-Pin_5-Pad5)*%
X141500000Y-214500000D03*
%TD*%
D14*
%TO.P,K_TypeARel_3,1,COM*%
%TO.N,J4 24V*%
X138000000Y-165925000D03*
%TO.P,K_TypeARel_3,2,COIL_1*%
%TO.N,Net-(D_sch_6-A)*%
X144000000Y-163925000D03*
%TO.P,K_TypeARel_3,3,NO*%
%TO.N,remote DI2*%
X144000000Y-151725000D03*
%TO.P,K_TypeARel_3,5,COIL_2*%
%TO.N,VCC*%
X132000000Y-163925000D03*
%TD*%
D17*
%TO.P,J_LCDconn_1,1,Pin_1*%
%TO.N,GND*%
X65500000Y-80460000D03*
D18*
%TO.P,J_LCDconn_1,2,Pin_2*%
%TO.N,VCC*%
X65500000Y-83000000D03*
%TO.P,J_LCDconn_1,3,Pin_3*%
%TO.N,SDA*%
X65500000Y-85540000D03*
%TO.P,J_LCDconn_1,4,Pin_4*%
%TO.N,SCL*%
X65500000Y-88080000D03*
%TD*%
D14*
%TO.P,K_TypeCRel_4,1*%
%TO.N,VFD DI0*%
X119000000Y-197450000D03*
%TO.P,K_TypeCRel_4,2*%
%TO.N,Net-(D_sch_1-A)*%
X125000000Y-195450000D03*
%TO.P,K_TypeCRel_4,3*%
%TO.N,remote DI0*%
X125000000Y-183250000D03*
%TO.P,K_TypeCRel_4,4*%
%TO.N,local DI0*%
X113000000Y-183250000D03*
%TO.P,K_TypeCRel_4,5*%
%TO.N,VCC*%
X113000000Y-195450000D03*
%TD*%
D15*
%TO.P,J_VFDconnectors_2,1,Pin_1*%
%TO.N,J3 24V*%
X93215000Y-214500000D03*
D16*
%TO.P,J_VFDconnectors_2,2,Pin_2*%
%TO.N,VFD DI1*%
X98215000Y-214500000D03*
%TO.P,J_VFDconnectors_2,3,Pin_3*%
%TO.N,unconnected-(J_VFDconnectors_2-Pin_3-Pad3)*%
X103215000Y-214500000D03*
%TO.P,J_VFDconnectors_2,4,Pin_4*%
%TO.N,VFD DI0*%
X108215000Y-214500000D03*
%TO.P,J_VFDconnectors_2,5,Pin_5*%
%TO.N,unconnected-(J_VFDconnectors_2-Pin_5-Pad5)*%
X113215000Y-214500000D03*
%TD*%
D14*
%TO.P,Fuse_1500mA_1,1,1*%
%TO.N,Net-(J_24Vin+GND_1-Pin_2)*%
X86550000Y-201000000D03*
%TO.P,Fuse_1500mA_1,2,2*%
%TO.N,Net-(PS_DCDC_24V5V_1-+VIN)*%
X63950000Y-201000000D03*
%TD*%
D16*
%TO.P,SW_IncSpeed_3,1,1*%
%TO.N,J3 24V*%
X70250000Y-151500000D03*
%TO.P,SW_IncSpeed_3,2,2*%
%TO.N,local DI1*%
X70250000Y-146500000D03*
%TO.P,SW_IncSpeed_3,3,3*%
%TO.N,MCU 3V3*%
X70250000Y-141500000D03*
%TO.P,SW_IncSpeed_3,4,4*%
%TO.N,DO0*%
X70250000Y-136500000D03*
%TD*%
%TO.P,SW_DecSpeed_4,1,1*%
%TO.N,J4 24V*%
X140750000Y-115250000D03*
%TO.P,SW_DecSpeed_4,2,2*%
%TO.N,local DI2*%
X135750000Y-115250000D03*
%TO.P,SW_DecSpeed_4,3,3*%
%TO.N,MCU 3V3*%
X130750000Y-115250000D03*
%TO.P,SW_DecSpeed_4,4,4*%
%TO.N,DO3*%
X125750000Y-115250000D03*
%TD*%
D15*
%TO.P,SW_LocRem_1,1,A*%
%TO.N,Net-(SW_LocRem_1-A)*%
X135000000Y-135815000D03*
D16*
%TO.P,SW_LocRem_1,2,B*%
%TO.N,GND*%
X135000000Y-140895000D03*
%TD*%
D14*
%TO.P,K_TypeARel_1,1,COM*%
%TO.N,J3 24V*%
X118500000Y-165875000D03*
%TO.P,K_TypeARel_1,2,COIL_1*%
%TO.N,Net-(D_sch_4-A)*%
X124500000Y-163875000D03*
%TO.P,K_TypeARel_1,3,NO*%
%TO.N,remote DI0*%
X124500000Y-151675000D03*
%TO.P,K_TypeARel_1,5,COIL_2*%
%TO.N,VCC*%
X112500000Y-163875000D03*
%TD*%
D16*
%TO.P,SW_OnOff_2,1,1*%
%TO.N,J3 24V*%
X70000000Y-129500000D03*
%TO.P,SW_OnOff_2,2,2*%
%TO.N,local DI0*%
X70000000Y-124500000D03*
%TO.P,SW_OnOff_2,3,3*%
%TO.N,MCU 3V3*%
X70000000Y-119500000D03*
%TO.P,SW_OnOff_2,4,4*%
%TO.N,DOA*%
X70000000Y-114500000D03*
%TD*%
D14*
%TO.P,K_TypeARel_2,1,COM*%
%TO.N,J3 24V*%
X99000000Y-165800000D03*
%TO.P,K_TypeARel_2,2,COIL_1*%
%TO.N,Net-(D_sch_5-A)*%
X105000000Y-163800000D03*
%TO.P,K_TypeARel_2,3,NO*%
%TO.N,remote DI1*%
X105000000Y-151600000D03*
%TO.P,K_TypeARel_2,5,COIL_2*%
%TO.N,VCC*%
X93000000Y-163800000D03*
%TD*%
%TO.P,K_TypeCRel_6,1*%
%TO.N,VFD DI2*%
X137000000Y-197450000D03*
%TO.P,K_TypeCRel_6,2*%
%TO.N,Net-(D_sch_3-A)*%
X143000000Y-195450000D03*
%TO.P,K_TypeCRel_6,3*%
%TO.N,remote DI2*%
X143000000Y-183250000D03*
%TO.P,K_TypeCRel_6,4*%
%TO.N,local DI2*%
X131000000Y-183250000D03*
%TO.P,K_TypeCRel_6,5*%
%TO.N,VCC*%
X131000000Y-195450000D03*
%TD*%
D19*
%TO.P,C_470uF_3,1,+*%
%TO.N,VCC*%
X120250000Y-135110000D03*
D20*
%TO.P,C_470uF_3,2,-*%
%TO.N,GND*%
X120250000Y-132610000D03*
%TD*%
D21*
%TO.N,GND*%
X124700000Y-167050000D03*
X144150000Y-167450000D03*
X129100000Y-201000000D03*
X111000000Y-166450000D03*
%TO.N,DO6*%
X125250000Y-161000000D03*
%TO.N,DO7*%
X112500000Y-174250000D03*
%TO.N,DO5*%
X120000000Y-139500000D03*
%TO.N,DO8*%
X108750000Y-169250000D03*
%TD*%
D22*
%TO.N,SDA*%
X116977000Y-122418000D02*
X114165000Y-125230000D01*
X65500000Y-85540000D02*
X67313000Y-87353000D01*
X116977000Y-108948866D02*
X116977000Y-122418000D01*
X67313000Y-87353000D02*
X95381134Y-87353000D01*
X95381134Y-87353000D02*
X116977000Y-108948866D01*
%TO.N,SCL*%
X95080000Y-88080000D02*
X116250000Y-109250000D01*
X116250000Y-109250000D02*
X116250000Y-120605000D01*
X116250000Y-120605000D02*
X114165000Y-122690000D01*
X65500000Y-88080000D02*
X95080000Y-88080000D01*
%TO.N,VFD DI0*%
X108215000Y-208235000D02*
X119000000Y-197450000D01*
X108215000Y-214500000D02*
X108215000Y-208235000D01*
%TO.N,J3 24V*%
X98250000Y-209465000D02*
X98250000Y-166550000D01*
X93215000Y-214500000D02*
X98250000Y-209465000D01*
X99000000Y-165800000D02*
X84700000Y-151500000D01*
X84700000Y-151500000D02*
X70250000Y-151500000D01*
X98250000Y-166550000D02*
X99000000Y-165800000D01*
%TO.N,VFD DI1*%
X100000000Y-212715000D02*
X100000000Y-197425000D01*
X98215000Y-214500000D02*
X100000000Y-212715000D01*
%TO.N,VFD DI2*%
X136500000Y-214500000D02*
X136500000Y-197950000D01*
X136500000Y-197950000D02*
X137000000Y-197450000D01*
%TO.N,J4 24V*%
X140750000Y-163175000D02*
X138000000Y-165925000D01*
X140750000Y-115250000D02*
X140750000Y-163175000D01*
X121500000Y-202651902D02*
X138000000Y-186151902D01*
X138000000Y-186151902D02*
X138000000Y-165925000D01*
X121500000Y-214500000D02*
X121500000Y-202651902D01*
D23*
%TO.N,DO6*%
X92020000Y-127770000D02*
X125250000Y-161000000D01*
X91305000Y-127770000D02*
X92020000Y-127770000D01*
D22*
%TO.N,remote DI1*%
X107125000Y-153725000D02*
X105000000Y-151600000D01*
X106000000Y-183225000D02*
X107125000Y-182100000D01*
X107125000Y-182100000D02*
X107125000Y-153725000D01*
D23*
%TO.N,DO7*%
X109077000Y-148082000D02*
X109077000Y-168577000D01*
X112500000Y-172000000D02*
X112500000Y-174250000D01*
X109077000Y-168577000D02*
X112500000Y-172000000D01*
X91305000Y-130310000D02*
X109077000Y-148082000D01*
D22*
%TO.N,remote DI2*%
X145625000Y-153350000D02*
X144000000Y-151725000D01*
X143000000Y-183250000D02*
X145625000Y-180625000D01*
X145625000Y-180625000D02*
X145625000Y-153350000D01*
%TO.N,local DI0*%
X111400000Y-184850000D02*
X105326902Y-184850000D01*
X104375000Y-183898098D02*
X104375000Y-165625000D01*
X105326902Y-184850000D02*
X104375000Y-183898098D01*
X104375000Y-165625000D02*
X71500000Y-132750000D01*
X113000000Y-183250000D02*
X111400000Y-184850000D01*
X71500000Y-132750000D02*
X71500000Y-126000000D01*
X71500000Y-126000000D02*
X70000000Y-124500000D01*
%TO.N,remote DI0*%
X126125000Y-153300000D02*
X124500000Y-151675000D01*
X125000000Y-183250000D02*
X126125000Y-182125000D01*
X126125000Y-182125000D02*
X126125000Y-153300000D01*
%TO.N,local DI1*%
X68775000Y-158000000D02*
X94000000Y-183225000D01*
X70250000Y-146500000D02*
X68775000Y-147975000D01*
X68775000Y-147975000D02*
X68775000Y-158000000D01*
%TO.N,local DI2*%
X131000000Y-170626902D02*
X131000000Y-183250000D01*
X136725000Y-164901902D02*
X131000000Y-170626902D01*
X135750000Y-115250000D02*
X136725000Y-116225000D01*
X136725000Y-116225000D02*
X136725000Y-164901902D01*
D23*
%TO.N,DO5*%
X120000000Y-139500000D02*
X105575000Y-139500000D01*
X105575000Y-139500000D02*
X91305000Y-125230000D01*
%TO.N,DO8*%
X108750000Y-150295000D02*
X108750000Y-169250000D01*
X91305000Y-132850000D02*
X108750000Y-150295000D01*
%TO.N,MCU 3V3*%
X68525000Y-139775000D02*
X70250000Y-141500000D01*
X68525000Y-120975000D02*
X68525000Y-139775000D01*
X70000000Y-119500000D02*
X68525000Y-120975000D01*
%TO.N,DOA*%
X70000000Y-114500000D02*
X75650000Y-120150000D01*
X75650000Y-120150000D02*
X91305000Y-120150000D01*
D22*
%TO.N,Net-(J_24Vin+GND_1-Pin_1)*%
X80420000Y-215500000D02*
X80420000Y-196530000D01*
X80420000Y-196530000D02*
X72460000Y-188570000D01*
%TD*%
%TA.AperFunction,Conductor*%
%TO.N,GND*%
G36*
X147942539Y-61920185D02*
G01*
X147988294Y-61972989D01*
X147999500Y-62024500D01*
X147999500Y-220875500D01*
X147979815Y-220942539D01*
X147927011Y-220988294D01*
X147875500Y-220999500D01*
X60124500Y-220999500D01*
X60057461Y-220979815D01*
X60011706Y-220927011D01*
X60000500Y-220875500D01*
X60000500Y-214135258D01*
X65499500Y-214135258D01*
X65499500Y-214364741D01*
X65517308Y-214500000D01*
X65529452Y-214592238D01*
X65529453Y-214592240D01*
X65588842Y-214813887D01*
X65676650Y-215025876D01*
X65676657Y-215025890D01*
X65791392Y-215224617D01*
X65931081Y-215406661D01*
X65931089Y-215406670D01*
X66093330Y-215568911D01*
X66093338Y-215568918D01*
X66275382Y-215708607D01*
X66275385Y-215708608D01*
X66275388Y-215708611D01*
X66474112Y-215823344D01*
X66474117Y-215823346D01*
X66474123Y-215823349D01*
X66565480Y-215861190D01*
X66686113Y-215911158D01*
X66907762Y-215970548D01*
X67135266Y-216000500D01*
X67135273Y-216000500D01*
X67364727Y-216000500D01*
X67364734Y-216000500D01*
X67592238Y-215970548D01*
X67813887Y-215911158D01*
X68025888Y-215823344D01*
X68224612Y-215708611D01*
X68406661Y-215568919D01*
X68406665Y-215568914D01*
X68406670Y-215568911D01*
X68568911Y-215406670D01*
X68568914Y-215406665D01*
X68568919Y-215406661D01*
X68708611Y-215224612D01*
X68823344Y-215025888D01*
X68911158Y-214813887D01*
X68970548Y-214592238D01*
X69000500Y-214364734D01*
X69000500Y-214135266D01*
X68970548Y-213907762D01*
X68911158Y-213686113D01*
X68861190Y-213565480D01*
X68823349Y-213474123D01*
X68823346Y-213474117D01*
X68823344Y-213474112D01*
X68708611Y-213275388D01*
X68708608Y-213275385D01*
X68708607Y-213275382D01*
X68607764Y-213143962D01*
X68568919Y-213093339D01*
X68568918Y-213093338D01*
X68568911Y-213093330D01*
X68406670Y-212931089D01*
X68406661Y-212931081D01*
X68224617Y-212791392D01*
X68025890Y-212676657D01*
X68025876Y-212676650D01*
X67813887Y-212588842D01*
X67592238Y-212529452D01*
X67554215Y-212524446D01*
X67364741Y-212499500D01*
X67364734Y-212499500D01*
X67135266Y-212499500D01*
X67135258Y-212499500D01*
X66918715Y-212528009D01*
X66907762Y-212529452D01*
X66814076Y-212554554D01*
X66686112Y-212588842D01*
X66474123Y-212676650D01*
X66474109Y-212676657D01*
X66275382Y-212791392D01*
X66093338Y-212931081D01*
X65931081Y-213093338D01*
X65791392Y-213275382D01*
X65676657Y-213474109D01*
X65676650Y-213474123D01*
X65588842Y-213686112D01*
X65529453Y-213907759D01*
X65529451Y-213907770D01*
X65499500Y-214135258D01*
X60000500Y-214135258D01*
X60000500Y-201000000D01*
X62319474Y-201000000D01*
X62339547Y-201255064D01*
X62399279Y-201503864D01*
X62497188Y-201740239D01*
X62497190Y-201740242D01*
X62630875Y-201958396D01*
X62630878Y-201958401D01*
X62692126Y-202030113D01*
X62797044Y-202152956D01*
X62921579Y-202259319D01*
X62991598Y-202319121D01*
X62991603Y-202319124D01*
X63209757Y-202452809D01*
X63209760Y-202452811D01*
X63446135Y-202550720D01*
X63446140Y-202550722D01*
X63694930Y-202610452D01*
X63950000Y-202630526D01*
X64205070Y-202610452D01*
X64453860Y-202550722D01*
X64572051Y-202501765D01*
X64690239Y-202452811D01*
X64690240Y-202452810D01*
X64690243Y-202452809D01*
X64908399Y-202319123D01*
X65102956Y-202152956D01*
X65269123Y-201958399D01*
X65402809Y-201740243D01*
X65500722Y-201503860D01*
X65560452Y-201255070D01*
X65580526Y-201000000D01*
X65560452Y-200744930D01*
X65500722Y-200496140D01*
X65500720Y-200496135D01*
X65402811Y-200259760D01*
X65402809Y-200259757D01*
X65269124Y-200041603D01*
X65269121Y-200041598D01*
X65209319Y-199971579D01*
X65102956Y-199847044D01*
X64996591Y-199756200D01*
X64908401Y-199680878D01*
X64908396Y-199680875D01*
X64690242Y-199547190D01*
X64690239Y-199547188D01*
X64453864Y-199449279D01*
X64453860Y-199449278D01*
X64205070Y-199389548D01*
X64205067Y-199389547D01*
X64205064Y-199389547D01*
X63950000Y-199369474D01*
X63694935Y-199389547D01*
X63694931Y-199389547D01*
X63694930Y-199389548D01*
X63570535Y-199419413D01*
X63446135Y-199449279D01*
X63209760Y-199547188D01*
X63209757Y-199547190D01*
X62991603Y-199680875D01*
X62991598Y-199680878D01*
X62797044Y-199847044D01*
X62630878Y-200041598D01*
X62630875Y-200041603D01*
X62497190Y-200259757D01*
X62497188Y-200259760D01*
X62399279Y-200496135D01*
X62339547Y-200744935D01*
X62319474Y-201000000D01*
X60000500Y-201000000D01*
X60000500Y-188569997D01*
X63584723Y-188569997D01*
X63584723Y-188570002D01*
X63603793Y-188787975D01*
X63603793Y-188787979D01*
X63660422Y-188999322D01*
X63660424Y-188999326D01*
X63660425Y-188999330D01*
X63706661Y-189098484D01*
X63752897Y-189197638D01*
X63752898Y-189197639D01*
X63878402Y-189376877D01*
X64033123Y-189531598D01*
X64212361Y-189657102D01*
X64410670Y-189749575D01*
X64622023Y-189806207D01*
X64804926Y-189822208D01*
X64839998Y-189825277D01*
X64840000Y-189825277D01*
X64840002Y-189825277D01*
X64868254Y-189822805D01*
X65057977Y-189806207D01*
X65269330Y-189749575D01*
X65467639Y-189657102D01*
X65646877Y-189531598D01*
X65801598Y-189376877D01*
X65927102Y-189197639D01*
X66019575Y-188999330D01*
X66076207Y-188787977D01*
X66095277Y-188570000D01*
X66095277Y-188569997D01*
X71204723Y-188569997D01*
X71204723Y-188570002D01*
X71223793Y-188787975D01*
X71223793Y-188787979D01*
X71280422Y-188999322D01*
X71280424Y-188999326D01*
X71280425Y-188999330D01*
X71326661Y-189098484D01*
X71372897Y-189197638D01*
X71372898Y-189197639D01*
X71498402Y-189376877D01*
X71653123Y-189531598D01*
X71832361Y-189657102D01*
X72030670Y-189749575D01*
X72242023Y-189806207D01*
X72424926Y-189822208D01*
X72459998Y-189825277D01*
X72459999Y-189825277D01*
X72459999Y-189825276D01*
X72460000Y-189825277D01*
X72515685Y-189820404D01*
X72584182Y-189834169D01*
X72614173Y-189856251D01*
X79583181Y-196825259D01*
X79616666Y-196886582D01*
X79619500Y-196912940D01*
X79619500Y-213900500D01*
X79599815Y-213967539D01*
X79547011Y-214013294D01*
X79495501Y-214024500D01*
X79397130Y-214024500D01*
X79397123Y-214024501D01*
X79337516Y-214030908D01*
X79202671Y-214081202D01*
X79202664Y-214081206D01*
X79087455Y-214167452D01*
X79087452Y-214167455D01*
X79001206Y-214282664D01*
X79001202Y-214282671D01*
X78950908Y-214417517D01*
X78944501Y-214477116D01*
X78944501Y-214477123D01*
X78944500Y-214477135D01*
X78944500Y-216522870D01*
X78944501Y-216522876D01*
X78950908Y-216582483D01*
X79001202Y-216717328D01*
X79001206Y-216717335D01*
X79087452Y-216832544D01*
X79087455Y-216832547D01*
X79202664Y-216918793D01*
X79202671Y-216918797D01*
X79337517Y-216969091D01*
X79337516Y-216969091D01*
X79344444Y-216969835D01*
X79397127Y-216975500D01*
X81442872Y-216975499D01*
X81502483Y-216969091D01*
X81637331Y-216918796D01*
X81752546Y-216832546D01*
X81838796Y-216717331D01*
X81889091Y-216582483D01*
X81895500Y-216522873D01*
X81895499Y-215499994D01*
X84019443Y-215499994D01*
X84019443Y-215500005D01*
X84039634Y-215743683D01*
X84039636Y-215743695D01*
X84099663Y-215980734D01*
X84197888Y-216204666D01*
X84331632Y-216409378D01*
X84497242Y-216589277D01*
X84497252Y-216589286D01*
X84690208Y-216739470D01*
X84690212Y-216739473D01*
X84862197Y-216832547D01*
X84905267Y-216855855D01*
X84905270Y-216855856D01*
X85136541Y-216935251D01*
X85136543Y-216935251D01*
X85136545Y-216935252D01*
X85377737Y-216975500D01*
X85377738Y-216975500D01*
X85622262Y-216975500D01*
X85622263Y-216975500D01*
X85863455Y-216935252D01*
X86094733Y-216855855D01*
X86309788Y-216739473D01*
X86502754Y-216589281D01*
X86668368Y-216409377D01*
X86802111Y-216204667D01*
X86900336Y-215980736D01*
X86960364Y-215743692D01*
X86962548Y-215717335D01*
X86980557Y-215500005D01*
X86980557Y-215499994D01*
X86960365Y-215256316D01*
X86960363Y-215256304D01*
X86900336Y-215019265D01*
X86810249Y-214813887D01*
X86802111Y-214795333D01*
X86768374Y-214743695D01*
X86668367Y-214590621D01*
X86502757Y-214410722D01*
X86502747Y-214410713D01*
X86309791Y-214260529D01*
X86309787Y-214260526D01*
X86094734Y-214144145D01*
X86094729Y-214144143D01*
X85863458Y-214064748D01*
X85660664Y-214030908D01*
X85622263Y-214024500D01*
X85377737Y-214024500D01*
X85339336Y-214030908D01*
X85136541Y-214064748D01*
X84905270Y-214144143D01*
X84905265Y-214144145D01*
X84690212Y-214260526D01*
X84690208Y-214260529D01*
X84497252Y-214410713D01*
X84497242Y-214410722D01*
X84331632Y-214590621D01*
X84197888Y-214795333D01*
X84099663Y-215019265D01*
X84039636Y-215256304D01*
X84039634Y-215256316D01*
X84019443Y-215499994D01*
X81895499Y-215499994D01*
X81895499Y-214477128D01*
X81889091Y-214417517D01*
X81886553Y-214410713D01*
X81838797Y-214282671D01*
X81838793Y-214282664D01*
X81752547Y-214167455D01*
X81752544Y-214167452D01*
X81637335Y-214081206D01*
X81637328Y-214081202D01*
X81502482Y-214030908D01*
X81502483Y-214030908D01*
X81442883Y-214024501D01*
X81442881Y-214024500D01*
X81442873Y-214024500D01*
X81442865Y-214024500D01*
X81344500Y-214024500D01*
X81277461Y-214004815D01*
X81231706Y-213952011D01*
X81220500Y-213900500D01*
X81220500Y-201000000D01*
X84919474Y-201000000D01*
X84939547Y-201255064D01*
X84999279Y-201503864D01*
X85097188Y-201740239D01*
X85097190Y-201740242D01*
X85230875Y-201958396D01*
X85230878Y-201958401D01*
X85292126Y-202030113D01*
X85397044Y-202152956D01*
X85521579Y-202259319D01*
X85591598Y-202319121D01*
X85591603Y-202319124D01*
X85809757Y-202452809D01*
X85809760Y-202452811D01*
X86046135Y-202550720D01*
X86046140Y-202550722D01*
X86294930Y-202610452D01*
X86550000Y-202630526D01*
X86805070Y-202610452D01*
X87053860Y-202550722D01*
X87172051Y-202501765D01*
X87290239Y-202452811D01*
X87290240Y-202452810D01*
X87290243Y-202452809D01*
X87508399Y-202319123D01*
X87702956Y-202152956D01*
X87869123Y-201958399D01*
X88002809Y-201740243D01*
X88100722Y-201503860D01*
X88160452Y-201255070D01*
X88180526Y-201000000D01*
X88160452Y-200744930D01*
X88100722Y-200496140D01*
X88100720Y-200496135D01*
X88002811Y-200259760D01*
X88002809Y-200259757D01*
X87869124Y-200041603D01*
X87869121Y-200041598D01*
X87809319Y-199971579D01*
X87702956Y-199847044D01*
X87596591Y-199756200D01*
X87508401Y-199680878D01*
X87508396Y-199680875D01*
X87290242Y-199547190D01*
X87290239Y-199547188D01*
X87053864Y-199449279D01*
X87053860Y-199449278D01*
X86805070Y-199389548D01*
X86805067Y-199389547D01*
X86805064Y-199389547D01*
X86550000Y-199369474D01*
X86294935Y-199389547D01*
X86294931Y-199389547D01*
X86294930Y-199389548D01*
X86170535Y-199419413D01*
X86046135Y-199449279D01*
X85809760Y-199547188D01*
X85809757Y-199547190D01*
X85591603Y-199680875D01*
X85591598Y-199680878D01*
X85397044Y-199847044D01*
X85230878Y-200041598D01*
X85230875Y-200041603D01*
X85097190Y-200259757D01*
X85097188Y-200259760D01*
X84999279Y-200496135D01*
X84939547Y-200744935D01*
X84919474Y-201000000D01*
X81220500Y-201000000D01*
X81220500Y-196451155D01*
X81220499Y-196451153D01*
X81207021Y-196383396D01*
X81189737Y-196296503D01*
X81179606Y-196272044D01*
X81129397Y-196150827D01*
X81129390Y-196150814D01*
X81041790Y-196019712D01*
X80989419Y-195967341D01*
X80930289Y-195908211D01*
X80447078Y-195425000D01*
X92369474Y-195425000D01*
X92389547Y-195680064D01*
X92389547Y-195680067D01*
X92389548Y-195680070D01*
X92427836Y-195839547D01*
X92449279Y-195928864D01*
X92547188Y-196165239D01*
X92547190Y-196165242D01*
X92680875Y-196383396D01*
X92680878Y-196383401D01*
X92742869Y-196455983D01*
X92847044Y-196577956D01*
X92971579Y-196684319D01*
X93041598Y-196744121D01*
X93041600Y-196744122D01*
X93041601Y-196744123D01*
X93082399Y-196769124D01*
X93259757Y-196877809D01*
X93259760Y-196877811D01*
X93496135Y-196975720D01*
X93496140Y-196975722D01*
X93744930Y-197035452D01*
X94000000Y-197055526D01*
X94255070Y-197035452D01*
X94503860Y-196975722D01*
X94679888Y-196902809D01*
X94740239Y-196877811D01*
X94740240Y-196877810D01*
X94740243Y-196877809D01*
X94958399Y-196744123D01*
X95152956Y-196577956D01*
X95319123Y-196383399D01*
X95452809Y-196165243D01*
X95458781Y-196150827D01*
X95522419Y-195997190D01*
X95550722Y-195928860D01*
X95610452Y-195680070D01*
X95630526Y-195425000D01*
X95610452Y-195169930D01*
X95550722Y-194921140D01*
X95463166Y-194709760D01*
X95452811Y-194684760D01*
X95452809Y-194684757D01*
X95319124Y-194466603D01*
X95319121Y-194466598D01*
X95259319Y-194396579D01*
X95152956Y-194272044D01*
X95046591Y-194181200D01*
X94958401Y-194105878D01*
X94958396Y-194105875D01*
X94740242Y-193972190D01*
X94740239Y-193972188D01*
X94503864Y-193874279D01*
X94503860Y-193874278D01*
X94255070Y-193814548D01*
X94255067Y-193814547D01*
X94255064Y-193814547D01*
X94000000Y-193794474D01*
X93744935Y-193814547D01*
X93744931Y-193814547D01*
X93744930Y-193814548D01*
X93700312Y-193825260D01*
X93496135Y-193874279D01*
X93259760Y-193972188D01*
X93259757Y-193972190D01*
X93041603Y-194105875D01*
X93041598Y-194105878D01*
X92847044Y-194272044D01*
X92680878Y-194466598D01*
X92680875Y-194466603D01*
X92547190Y-194684757D01*
X92547188Y-194684760D01*
X92449279Y-194921135D01*
X92389547Y-195169935D01*
X92369474Y-195425000D01*
X80447078Y-195425000D01*
X73746251Y-188724173D01*
X73712766Y-188662850D01*
X73710404Y-188625689D01*
X73715277Y-188570000D01*
X73696207Y-188352023D01*
X73639575Y-188140670D01*
X73547102Y-187942362D01*
X73547100Y-187942359D01*
X73547099Y-187942357D01*
X73427909Y-187772135D01*
X76289500Y-187772135D01*
X76289500Y-189367870D01*
X76289501Y-189367876D01*
X76295908Y-189427483D01*
X76346202Y-189562328D01*
X76346206Y-189562335D01*
X76432452Y-189677544D01*
X76432455Y-189677547D01*
X76547664Y-189763793D01*
X76547671Y-189763797D01*
X76682517Y-189814091D01*
X76682516Y-189814091D01*
X76689444Y-189814835D01*
X76742127Y-189820500D01*
X78337872Y-189820499D01*
X78397483Y-189814091D01*
X78532331Y-189763796D01*
X78647546Y-189677546D01*
X78733796Y-189562331D01*
X78784091Y-189427483D01*
X78790500Y-189367873D01*
X78790499Y-187772128D01*
X78784091Y-187712517D01*
X78733796Y-187577669D01*
X78733795Y-187577668D01*
X78733793Y-187577664D01*
X78647547Y-187462455D01*
X78647544Y-187462452D01*
X78532335Y-187376206D01*
X78532328Y-187376202D01*
X78397482Y-187325908D01*
X78397483Y-187325908D01*
X78337883Y-187319501D01*
X78337881Y-187319500D01*
X78337873Y-187319500D01*
X78337864Y-187319500D01*
X76742129Y-187319500D01*
X76742123Y-187319501D01*
X76682516Y-187325908D01*
X76547671Y-187376202D01*
X76547664Y-187376206D01*
X76432455Y-187462452D01*
X76432452Y-187462455D01*
X76346206Y-187577664D01*
X76346202Y-187577671D01*
X76295908Y-187712517D01*
X76290468Y-187763121D01*
X76289501Y-187772123D01*
X76289500Y-187772135D01*
X73427909Y-187772135D01*
X73421599Y-187763124D01*
X73370991Y-187712516D01*
X73266877Y-187608402D01*
X73087639Y-187482898D01*
X73087640Y-187482898D01*
X73087638Y-187482897D01*
X72988484Y-187436661D01*
X72889330Y-187390425D01*
X72889326Y-187390424D01*
X72889322Y-187390422D01*
X72677977Y-187333793D01*
X72460002Y-187314723D01*
X72459998Y-187314723D01*
X72332151Y-187325908D01*
X72242023Y-187333793D01*
X72242020Y-187333793D01*
X72030677Y-187390422D01*
X72030668Y-187390426D01*
X71832361Y-187482898D01*
X71832357Y-187482900D01*
X71653121Y-187608402D01*
X71498402Y-187763121D01*
X71372900Y-187942357D01*
X71372898Y-187942361D01*
X71280426Y-188140668D01*
X71280422Y-188140677D01*
X71223793Y-188352020D01*
X71223793Y-188352024D01*
X71204723Y-188569997D01*
X66095277Y-188569997D01*
X66076207Y-188352023D01*
X66019575Y-188140670D01*
X65927102Y-187942362D01*
X65927100Y-187942359D01*
X65927099Y-187942357D01*
X65801599Y-187763124D01*
X65750991Y-187712516D01*
X65646877Y-187608402D01*
X65467639Y-187482898D01*
X65467640Y-187482898D01*
X65467638Y-187482897D01*
X65368484Y-187436661D01*
X65269330Y-187390425D01*
X65269326Y-187390424D01*
X65269322Y-187390422D01*
X65057977Y-187333793D01*
X64840002Y-187314723D01*
X64839998Y-187314723D01*
X64712151Y-187325908D01*
X64622023Y-187333793D01*
X64622020Y-187333793D01*
X64410677Y-187390422D01*
X64410668Y-187390426D01*
X64212361Y-187482898D01*
X64212357Y-187482900D01*
X64033121Y-187608402D01*
X63878402Y-187763121D01*
X63752900Y-187942357D01*
X63752898Y-187942361D01*
X63660426Y-188140668D01*
X63660422Y-188140677D01*
X63603793Y-188352020D01*
X63603793Y-188352024D01*
X63584723Y-188569997D01*
X60000500Y-188569997D01*
X60000500Y-168249999D01*
X63585225Y-168249999D01*
X63585225Y-168250000D01*
X63604287Y-168467884D01*
X63604289Y-168467894D01*
X63660894Y-168679150D01*
X63660898Y-168679159D01*
X63753333Y-168877387D01*
X63796874Y-168939571D01*
X64357037Y-168379408D01*
X64374075Y-168442993D01*
X64439901Y-168557007D01*
X64532993Y-168650099D01*
X64647007Y-168715925D01*
X64710590Y-168732962D01*
X64150427Y-169293124D01*
X64212612Y-169336666D01*
X64410840Y-169429101D01*
X64410849Y-169429105D01*
X64622105Y-169485710D01*
X64622115Y-169485712D01*
X64839999Y-169504775D01*
X64840001Y-169504775D01*
X65057884Y-169485712D01*
X65057894Y-169485710D01*
X65269150Y-169429105D01*
X65269164Y-169429100D01*
X65467383Y-169336669D01*
X65467385Y-169336668D01*
X65529571Y-169293124D01*
X64969410Y-168732962D01*
X65032993Y-168715925D01*
X65147007Y-168650099D01*
X65240099Y-168557007D01*
X65305925Y-168442993D01*
X65322962Y-168379409D01*
X65883124Y-168939570D01*
X65926668Y-168877385D01*
X65926669Y-168877383D01*
X66019100Y-168679164D01*
X66019105Y-168679150D01*
X66075710Y-168467894D01*
X66075712Y-168467884D01*
X66094775Y-168250000D01*
X66094775Y-168249999D01*
X66094775Y-168249997D01*
X73744723Y-168249997D01*
X73744723Y-168250002D01*
X73763793Y-168467975D01*
X73763793Y-168467979D01*
X73820422Y-168679322D01*
X73820424Y-168679326D01*
X73820425Y-168679330D01*
X73837490Y-168715925D01*
X73912897Y-168877638D01*
X73912898Y-168877639D01*
X74038402Y-169056877D01*
X74193123Y-169211598D01*
X74372361Y-169337102D01*
X74570670Y-169429575D01*
X74782023Y-169486207D01*
X74964926Y-169502208D01*
X74999998Y-169505277D01*
X75000000Y-169505277D01*
X75000002Y-169505277D01*
X75028254Y-169502805D01*
X75217977Y-169486207D01*
X75429330Y-169429575D01*
X75627639Y-169337102D01*
X75806877Y-169211598D01*
X75961598Y-169056877D01*
X76087102Y-168877639D01*
X76179575Y-168679330D01*
X76236207Y-168467977D01*
X76255277Y-168250000D01*
X76236207Y-168032023D01*
X76199879Y-167896446D01*
X76179577Y-167820677D01*
X76179576Y-167820676D01*
X76179575Y-167820670D01*
X76087102Y-167622362D01*
X76087100Y-167622359D01*
X76087099Y-167622357D01*
X75961599Y-167443124D01*
X75928802Y-167410327D01*
X75806877Y-167288402D01*
X75668978Y-167191844D01*
X75627638Y-167162897D01*
X75528484Y-167116661D01*
X75429330Y-167070425D01*
X75429326Y-167070424D01*
X75429322Y-167070422D01*
X75217977Y-167013793D01*
X75000002Y-166994723D01*
X74999998Y-166994723D01*
X74854682Y-167007436D01*
X74782023Y-167013793D01*
X74782020Y-167013793D01*
X74570677Y-167070422D01*
X74570668Y-167070426D01*
X74372361Y-167162898D01*
X74372357Y-167162900D01*
X74193121Y-167288402D01*
X74038402Y-167443121D01*
X73912900Y-167622357D01*
X73912898Y-167622361D01*
X73820426Y-167820668D01*
X73820422Y-167820677D01*
X73763793Y-168032020D01*
X73763793Y-168032024D01*
X73744723Y-168249997D01*
X66094775Y-168249997D01*
X66075712Y-168032115D01*
X66075710Y-168032105D01*
X66019105Y-167820849D01*
X66019101Y-167820840D01*
X65926667Y-167622614D01*
X65926666Y-167622612D01*
X65883124Y-167560428D01*
X65883124Y-167560427D01*
X65322962Y-168120589D01*
X65305925Y-168057007D01*
X65240099Y-167942993D01*
X65147007Y-167849901D01*
X65032993Y-167784075D01*
X64969409Y-167767037D01*
X65529571Y-167206874D01*
X65467387Y-167163333D01*
X65269159Y-167070898D01*
X65269150Y-167070894D01*
X65057894Y-167014289D01*
X65057884Y-167014287D01*
X64840001Y-166995225D01*
X64839999Y-166995225D01*
X64622115Y-167014287D01*
X64622105Y-167014289D01*
X64410849Y-167070894D01*
X64410840Y-167070898D01*
X64212613Y-167163333D01*
X64150428Y-167206874D01*
X64710591Y-167767037D01*
X64647007Y-167784075D01*
X64532993Y-167849901D01*
X64439901Y-167942993D01*
X64374075Y-168057007D01*
X64357037Y-168120591D01*
X63796874Y-167560428D01*
X63753333Y-167622613D01*
X63660898Y-167820840D01*
X63660894Y-167820849D01*
X63604289Y-168032105D01*
X63604287Y-168032115D01*
X63585225Y-168249999D01*
X60000500Y-168249999D01*
X60000500Y-147896153D01*
X67974500Y-147896153D01*
X67974500Y-158078846D01*
X68005261Y-158233489D01*
X68005264Y-158233501D01*
X68065602Y-158379172D01*
X68065609Y-158379185D01*
X68153210Y-158510288D01*
X68153213Y-158510292D01*
X92383675Y-182740753D01*
X92417160Y-182802076D01*
X92416568Y-182857380D01*
X92389547Y-182969930D01*
X92389547Y-182969933D01*
X92369474Y-183225000D01*
X92389547Y-183480064D01*
X92449279Y-183728864D01*
X92547188Y-183965239D01*
X92547190Y-183965242D01*
X92680875Y-184183396D01*
X92680878Y-184183401D01*
X92756200Y-184271591D01*
X92847044Y-184377956D01*
X92971579Y-184484319D01*
X93041598Y-184544121D01*
X93041600Y-184544122D01*
X93041601Y-184544123D01*
X93082399Y-184569124D01*
X93259757Y-184677809D01*
X93259760Y-184677811D01*
X93496135Y-184775720D01*
X93496140Y-184775722D01*
X93744930Y-184835452D01*
X94000000Y-184855526D01*
X94255070Y-184835452D01*
X94503860Y-184775722D01*
X94679888Y-184702809D01*
X94740239Y-184677811D01*
X94740240Y-184677810D01*
X94740243Y-184677809D01*
X94958399Y-184544123D01*
X95152956Y-184377956D01*
X95319123Y-184183399D01*
X95452809Y-183965243D01*
X95550722Y-183728860D01*
X95610452Y-183480070D01*
X95630526Y-183225000D01*
X95610452Y-182969930D01*
X95550722Y-182721140D01*
X95515163Y-182635292D01*
X95452811Y-182484760D01*
X95452809Y-182484757D01*
X95319124Y-182266603D01*
X95319121Y-182266598D01*
X95244171Y-182178843D01*
X95152956Y-182072044D01*
X94987673Y-181930879D01*
X94958401Y-181905878D01*
X94958396Y-181905875D01*
X94740242Y-181772190D01*
X94740239Y-181772188D01*
X94503864Y-181674279D01*
X94503860Y-181674278D01*
X94255070Y-181614548D01*
X94255067Y-181614547D01*
X94255064Y-181614547D01*
X94000000Y-181594474D01*
X93744933Y-181614547D01*
X93744930Y-181614547D01*
X93632380Y-181641568D01*
X93562598Y-181638077D01*
X93515753Y-181608675D01*
X80157075Y-168249997D01*
X83904723Y-168249997D01*
X83904723Y-168250002D01*
X83923793Y-168467975D01*
X83923793Y-168467979D01*
X83980422Y-168679322D01*
X83980424Y-168679326D01*
X83980425Y-168679330D01*
X83997490Y-168715925D01*
X84072897Y-168877638D01*
X84072898Y-168877639D01*
X84198402Y-169056877D01*
X84353123Y-169211598D01*
X84532361Y-169337102D01*
X84730670Y-169429575D01*
X84942023Y-169486207D01*
X85124926Y-169502208D01*
X85159998Y-169505277D01*
X85160000Y-169505277D01*
X85160002Y-169505277D01*
X85188254Y-169502805D01*
X85377977Y-169486207D01*
X85589330Y-169429575D01*
X85787639Y-169337102D01*
X85966877Y-169211598D01*
X86121598Y-169056877D01*
X86247102Y-168877639D01*
X86339575Y-168679330D01*
X86396207Y-168467977D01*
X86415277Y-168250000D01*
X86396207Y-168032023D01*
X86359879Y-167896446D01*
X86339577Y-167820677D01*
X86339576Y-167820676D01*
X86339575Y-167820670D01*
X86247102Y-167622362D01*
X86247100Y-167622359D01*
X86247099Y-167622357D01*
X86121599Y-167443124D01*
X86088802Y-167410327D01*
X85966877Y-167288402D01*
X85828978Y-167191844D01*
X85787638Y-167162897D01*
X85688484Y-167116661D01*
X85589330Y-167070425D01*
X85589326Y-167070424D01*
X85589322Y-167070422D01*
X85377977Y-167013793D01*
X85160002Y-166994723D01*
X85159998Y-166994723D01*
X85014682Y-167007436D01*
X84942023Y-167013793D01*
X84942020Y-167013793D01*
X84730677Y-167070422D01*
X84730668Y-167070426D01*
X84532361Y-167162898D01*
X84532357Y-167162900D01*
X84353121Y-167288402D01*
X84198402Y-167443121D01*
X84072900Y-167622357D01*
X84072898Y-167622361D01*
X83980426Y-167820668D01*
X83980422Y-167820677D01*
X83923793Y-168032020D01*
X83923793Y-168032024D01*
X83904723Y-168249997D01*
X80157075Y-168249997D01*
X75707078Y-163800000D01*
X91369474Y-163800000D01*
X91389547Y-164055064D01*
X91389547Y-164055067D01*
X91389548Y-164055070D01*
X91436174Y-164249278D01*
X91449279Y-164303864D01*
X91547188Y-164540239D01*
X91547190Y-164540242D01*
X91680875Y-164758396D01*
X91680878Y-164758401D01*
X91744930Y-164833396D01*
X91847044Y-164952956D01*
X91880032Y-164981130D01*
X92041598Y-165119121D01*
X92041600Y-165119122D01*
X92041601Y-165119123D01*
X92163987Y-165194121D01*
X92259757Y-165252809D01*
X92259760Y-165252811D01*
X92496135Y-165350720D01*
X92496140Y-165350722D01*
X92744930Y-165410452D01*
X93000000Y-165430526D01*
X93255070Y-165410452D01*
X93503860Y-165350722D01*
X93683830Y-165276176D01*
X93740239Y-165252811D01*
X93740240Y-165252810D01*
X93740243Y-165252809D01*
X93958399Y-165119123D01*
X94152956Y-164952956D01*
X94319123Y-164758399D01*
X94452809Y-164540243D01*
X94550722Y-164303860D01*
X94610452Y-164055070D01*
X94630526Y-163800000D01*
X94610452Y-163544930D01*
X94550722Y-163296140D01*
X94533203Y-163253846D01*
X94452811Y-163059760D01*
X94452809Y-163059757D01*
X94329846Y-162859099D01*
X94319123Y-162841601D01*
X94319122Y-162841600D01*
X94319121Y-162841598D01*
X94217012Y-162722044D01*
X94152956Y-162647044D01*
X94009568Y-162524579D01*
X93958401Y-162480878D01*
X93958396Y-162480875D01*
X93740242Y-162347190D01*
X93740239Y-162347188D01*
X93503864Y-162249279D01*
X93483850Y-162244474D01*
X93255070Y-162189548D01*
X93255067Y-162189547D01*
X93255064Y-162189547D01*
X93000000Y-162169474D01*
X92744935Y-162189547D01*
X92744931Y-162189547D01*
X92744930Y-162189548D01*
X92620535Y-162219413D01*
X92496135Y-162249279D01*
X92259760Y-162347188D01*
X92259757Y-162347190D01*
X92041603Y-162480875D01*
X92041598Y-162480878D01*
X91847044Y-162647044D01*
X91680878Y-162841598D01*
X91680875Y-162841603D01*
X91547190Y-163059757D01*
X91547188Y-163059760D01*
X91449279Y-163296135D01*
X91422305Y-163408489D01*
X91396801Y-163514722D01*
X91389547Y-163544935D01*
X91369474Y-163800000D01*
X75707078Y-163800000D01*
X69874564Y-157967486D01*
X80299500Y-157967486D01*
X80299500Y-158262513D01*
X80314860Y-158379179D01*
X80338007Y-158554993D01*
X80338008Y-158554995D01*
X80414361Y-158839951D01*
X80414364Y-158839961D01*
X80527254Y-159112500D01*
X80527258Y-159112510D01*
X80674761Y-159367993D01*
X80854352Y-159602040D01*
X80854358Y-159602047D01*
X81062952Y-159810641D01*
X81062959Y-159810647D01*
X81297006Y-159990238D01*
X81552489Y-160137741D01*
X81552490Y-160137741D01*
X81552493Y-160137743D01*
X81825048Y-160250639D01*
X82110007Y-160326993D01*
X82402494Y-160365500D01*
X82402501Y-160365500D01*
X82697499Y-160365500D01*
X82697506Y-160365500D01*
X82989993Y-160326993D01*
X83274952Y-160250639D01*
X83547507Y-160137743D01*
X83802994Y-159990238D01*
X84037042Y-159810646D01*
X84245646Y-159602042D01*
X84425238Y-159367994D01*
X84572743Y-159112507D01*
X84685639Y-158839952D01*
X84761993Y-158554993D01*
X84800500Y-158262506D01*
X84800500Y-157967494D01*
X84761993Y-157675007D01*
X84685639Y-157390048D01*
X84572743Y-157117493D01*
X84425238Y-156862006D01*
X84245646Y-156627958D01*
X84245641Y-156627952D01*
X84037047Y-156419358D01*
X84037040Y-156419352D01*
X83802993Y-156239761D01*
X83547510Y-156092258D01*
X83547500Y-156092254D01*
X83274961Y-155979364D01*
X83274954Y-155979362D01*
X83274952Y-155979361D01*
X82989993Y-155903007D01*
X82941113Y-155896571D01*
X82697513Y-155864500D01*
X82697506Y-155864500D01*
X82402494Y-155864500D01*
X82402486Y-155864500D01*
X82124085Y-155901153D01*
X82110007Y-155903007D01*
X81825048Y-155979361D01*
X81825038Y-155979364D01*
X81552499Y-156092254D01*
X81552489Y-156092258D01*
X81297006Y-156239761D01*
X81062959Y-156419352D01*
X81062952Y-156419358D01*
X80854358Y-156627952D01*
X80854352Y-156627959D01*
X80674761Y-156862006D01*
X80527258Y-157117489D01*
X80527254Y-157117499D01*
X80414364Y-157390038D01*
X80414361Y-157390048D01*
X80339772Y-157668422D01*
X80338008Y-157675004D01*
X80338006Y-157675015D01*
X80299500Y-157967486D01*
X69874564Y-157967486D01*
X69611819Y-157704741D01*
X69578334Y-157643418D01*
X69575500Y-157617060D01*
X69575500Y-153002143D01*
X69595185Y-152935104D01*
X69647989Y-152889349D01*
X69717147Y-152879405D01*
X69739760Y-152884861D01*
X69752833Y-152889349D01*
X69886541Y-152935251D01*
X69886543Y-152935251D01*
X69886545Y-152935252D01*
X70127737Y-152975500D01*
X70127738Y-152975500D01*
X70372262Y-152975500D01*
X70372263Y-152975500D01*
X70613455Y-152935252D01*
X70844733Y-152855855D01*
X71059788Y-152739473D01*
X71252754Y-152589281D01*
X71418368Y-152409377D01*
X71452798Y-152356677D01*
X71505944Y-152311322D01*
X71556606Y-152300500D01*
X84317060Y-152300500D01*
X84384099Y-152320185D01*
X84404741Y-152336819D01*
X97383675Y-165315753D01*
X97417160Y-165377076D01*
X97416568Y-165432380D01*
X97389547Y-165544930D01*
X97389547Y-165544933D01*
X97369474Y-165800000D01*
X97389547Y-166055064D01*
X97389547Y-166055067D01*
X97389548Y-166055070D01*
X97449278Y-166303860D01*
X97449279Y-166303863D01*
X97449280Y-166303866D01*
X97457514Y-166323744D01*
X97464983Y-166393214D01*
X97464571Y-166395387D01*
X97449500Y-166471159D01*
X97449500Y-209082059D01*
X97429815Y-209149098D01*
X97413181Y-209169740D01*
X93594739Y-212988181D01*
X93533416Y-213021666D01*
X93507058Y-213024500D01*
X92192129Y-213024500D01*
X92192123Y-213024501D01*
X92132516Y-213030908D01*
X91997671Y-213081202D01*
X91997664Y-213081206D01*
X91882455Y-213167452D01*
X91882452Y-213167455D01*
X91796206Y-213282664D01*
X91796202Y-213282671D01*
X91745908Y-213417517D01*
X91739824Y-213474109D01*
X91739501Y-213477123D01*
X91739500Y-213477135D01*
X91739500Y-215522870D01*
X91739501Y-215522876D01*
X91745908Y-215582483D01*
X91796202Y-215717328D01*
X91796206Y-215717335D01*
X91882452Y-215832544D01*
X91882455Y-215832547D01*
X91997664Y-215918793D01*
X91997671Y-215918797D01*
X92132517Y-215969091D01*
X92132516Y-215969091D01*
X92139444Y-215969835D01*
X92192127Y-215975500D01*
X94237872Y-215975499D01*
X94297483Y-215969091D01*
X94432331Y-215918796D01*
X94547546Y-215832546D01*
X94633796Y-215717331D01*
X94684091Y-215582483D01*
X94690500Y-215522873D01*
X94690499Y-214207938D01*
X94710184Y-214140900D01*
X94726813Y-214120263D01*
X98760286Y-210086790D01*
X98760289Y-210086789D01*
X98871789Y-209975289D01*
X98959394Y-209844179D01*
X98960938Y-209840450D01*
X99004778Y-209786047D01*
X99071072Y-209763981D01*
X99138771Y-209781259D01*
X99186383Y-209832395D01*
X99199500Y-209887902D01*
X99199500Y-212332059D01*
X99179815Y-212399098D01*
X99163181Y-212419740D01*
X98571927Y-213010993D01*
X98510604Y-213044478D01*
X98463837Y-213045621D01*
X98337263Y-213024500D01*
X98092737Y-213024500D01*
X98054336Y-213030908D01*
X97851541Y-213064748D01*
X97620270Y-213144143D01*
X97620265Y-213144145D01*
X97405212Y-213260526D01*
X97405208Y-213260529D01*
X97212252Y-213410713D01*
X97212242Y-213410722D01*
X97046632Y-213590621D01*
X96912888Y-213795333D01*
X96814663Y-214019265D01*
X96754636Y-214256304D01*
X96754634Y-214256316D01*
X96734443Y-214499994D01*
X96734443Y-214500005D01*
X96754634Y-214743683D01*
X96754636Y-214743695D01*
X96814663Y-214980734D01*
X96912888Y-215204666D01*
X97046632Y-215409378D01*
X97212242Y-215589277D01*
X97212252Y-215589286D01*
X97405208Y-215739470D01*
X97405212Y-215739473D01*
X97577197Y-215832547D01*
X97620267Y-215855855D01*
X97620270Y-215855856D01*
X97851541Y-215935251D01*
X97851543Y-215935251D01*
X97851545Y-215935252D01*
X98092737Y-215975500D01*
X98092738Y-215975500D01*
X98337262Y-215975500D01*
X98337263Y-215975500D01*
X98578455Y-215935252D01*
X98809733Y-215855855D01*
X99024788Y-215739473D01*
X99217754Y-215589281D01*
X99383368Y-215409377D01*
X99517111Y-215204667D01*
X99615336Y-214980736D01*
X99675364Y-214743692D01*
X99695557Y-214500000D01*
X99695557Y-214499994D01*
X101734443Y-214499994D01*
X101734443Y-214500005D01*
X101754634Y-214743683D01*
X101754636Y-214743695D01*
X101814663Y-214980734D01*
X101912888Y-215204666D01*
X102046632Y-215409378D01*
X102212242Y-215589277D01*
X102212252Y-215589286D01*
X102405208Y-215739470D01*
X102405212Y-215739473D01*
X102577197Y-215832547D01*
X102620267Y-215855855D01*
X102620270Y-215855856D01*
X102851541Y-215935251D01*
X102851543Y-215935251D01*
X102851545Y-215935252D01*
X103092737Y-215975500D01*
X103092738Y-215975500D01*
X103337262Y-215975500D01*
X103337263Y-215975500D01*
X103578455Y-215935252D01*
X103809733Y-215855855D01*
X104024788Y-215739473D01*
X104217754Y-215589281D01*
X104383368Y-215409377D01*
X104517111Y-215204667D01*
X104615336Y-214980736D01*
X104675364Y-214743692D01*
X104695557Y-214500000D01*
X104695557Y-214499994D01*
X106734443Y-214499994D01*
X106734443Y-214500005D01*
X106754634Y-214743683D01*
X106754636Y-214743695D01*
X106814663Y-214980734D01*
X106912888Y-215204666D01*
X107046632Y-215409378D01*
X107212242Y-215589277D01*
X107212252Y-215589286D01*
X107405208Y-215739470D01*
X107405212Y-215739473D01*
X107577197Y-215832547D01*
X107620267Y-215855855D01*
X107620270Y-215855856D01*
X107851541Y-215935251D01*
X107851543Y-215935251D01*
X107851545Y-215935252D01*
X108092737Y-215975500D01*
X108092738Y-215975500D01*
X108337262Y-215975500D01*
X108337263Y-215975500D01*
X108578455Y-215935252D01*
X108809733Y-215855855D01*
X109024788Y-215739473D01*
X109217754Y-215589281D01*
X109383368Y-215409377D01*
X109517111Y-215204667D01*
X109615336Y-214980736D01*
X109675364Y-214743692D01*
X109695557Y-214500000D01*
X109695557Y-214499994D01*
X111734443Y-214499994D01*
X111734443Y-214500005D01*
X111754634Y-214743683D01*
X111754636Y-214743695D01*
X111814663Y-214980734D01*
X111912888Y-215204666D01*
X112046632Y-215409378D01*
X112212242Y-215589277D01*
X112212252Y-215589286D01*
X112405208Y-215739470D01*
X112405212Y-215739473D01*
X112577197Y-215832547D01*
X112620267Y-215855855D01*
X112620270Y-215855856D01*
X112851541Y-215935251D01*
X112851543Y-215935251D01*
X112851545Y-215935252D01*
X113092737Y-215975500D01*
X113092738Y-215975500D01*
X113337262Y-215975500D01*
X113337263Y-215975500D01*
X113578455Y-215935252D01*
X113809733Y-215855855D01*
X114024788Y-215739473D01*
X114217754Y-215589281D01*
X114383368Y-215409377D01*
X114517111Y-215204667D01*
X114615336Y-214980736D01*
X114675364Y-214743692D01*
X114695557Y-214500000D01*
X114693662Y-214477135D01*
X114675365Y-214256316D01*
X114675363Y-214256304D01*
X114646960Y-214144143D01*
X114615336Y-214019264D01*
X114517111Y-213795333D01*
X114383367Y-213590621D01*
X114278895Y-213477135D01*
X120024500Y-213477135D01*
X120024500Y-215522870D01*
X120024501Y-215522876D01*
X120030908Y-215582483D01*
X120081202Y-215717328D01*
X120081206Y-215717335D01*
X120167452Y-215832544D01*
X120167455Y-215832547D01*
X120282664Y-215918793D01*
X120282671Y-215918797D01*
X120417517Y-215969091D01*
X120417516Y-215969091D01*
X120424444Y-215969835D01*
X120477127Y-215975500D01*
X122522872Y-215975499D01*
X122582483Y-215969091D01*
X122717331Y-215918796D01*
X122832546Y-215832546D01*
X122918796Y-215717331D01*
X122969091Y-215582483D01*
X122975500Y-215522873D01*
X122975499Y-214499994D01*
X125019443Y-214499994D01*
X125019443Y-214500005D01*
X125039634Y-214743683D01*
X125039636Y-214743695D01*
X125099663Y-214980734D01*
X125197888Y-215204666D01*
X125331632Y-215409378D01*
X125497242Y-215589277D01*
X125497252Y-215589286D01*
X125690208Y-215739470D01*
X125690212Y-215739473D01*
X125862197Y-215832547D01*
X125905267Y-215855855D01*
X125905270Y-215855856D01*
X126136541Y-215935251D01*
X126136543Y-215935251D01*
X126136545Y-215935252D01*
X126377737Y-215975500D01*
X126377738Y-215975500D01*
X126622262Y-215975500D01*
X126622263Y-215975500D01*
X126863455Y-215935252D01*
X127094733Y-215855855D01*
X127309788Y-215739473D01*
X127502754Y-215589281D01*
X127668368Y-215409377D01*
X127802111Y-215204667D01*
X127900336Y-214980736D01*
X127960364Y-214743692D01*
X127980557Y-214500000D01*
X127980557Y-214499994D01*
X130019443Y-214499994D01*
X130019443Y-214500005D01*
X130039634Y-214743683D01*
X130039636Y-214743695D01*
X130099663Y-214980734D01*
X130197888Y-215204666D01*
X130331632Y-215409378D01*
X130497242Y-215589277D01*
X130497252Y-215589286D01*
X130690208Y-215739470D01*
X130690212Y-215739473D01*
X130862197Y-215832547D01*
X130905267Y-215855855D01*
X130905270Y-215855856D01*
X131136541Y-215935251D01*
X131136543Y-215935251D01*
X131136545Y-215935252D01*
X131377737Y-215975500D01*
X131377738Y-215975500D01*
X131622262Y-215975500D01*
X131622263Y-215975500D01*
X131863455Y-215935252D01*
X132094733Y-215855855D01*
X132309788Y-215739473D01*
X132502754Y-215589281D01*
X132668368Y-215409377D01*
X132802111Y-215204667D01*
X132900336Y-214980736D01*
X132960364Y-214743692D01*
X132980557Y-214500000D01*
X132980557Y-214499994D01*
X135019443Y-214499994D01*
X135019443Y-214500005D01*
X135039634Y-214743683D01*
X135039636Y-214743695D01*
X135099663Y-214980734D01*
X135197888Y-215204666D01*
X135331632Y-215409378D01*
X135497242Y-215589277D01*
X135497252Y-215589286D01*
X135690208Y-215739470D01*
X135690212Y-215739473D01*
X135862197Y-215832547D01*
X135905267Y-215855855D01*
X135905270Y-215855856D01*
X136136541Y-215935251D01*
X136136543Y-215935251D01*
X136136545Y-215935252D01*
X136377737Y-215975500D01*
X136377738Y-215975500D01*
X136622262Y-215975500D01*
X136622263Y-215975500D01*
X136863455Y-215935252D01*
X137094733Y-215855855D01*
X137309788Y-215739473D01*
X137502754Y-215589281D01*
X137668368Y-215409377D01*
X137802111Y-215204667D01*
X137900336Y-214980736D01*
X137960364Y-214743692D01*
X137980557Y-214500000D01*
X137980557Y-214499994D01*
X140019443Y-214499994D01*
X140019443Y-214500005D01*
X140039634Y-214743683D01*
X140039636Y-214743695D01*
X140099663Y-214980734D01*
X140197888Y-215204666D01*
X140331632Y-215409378D01*
X140497242Y-215589277D01*
X140497252Y-215589286D01*
X140690208Y-215739470D01*
X140690212Y-215739473D01*
X140862197Y-215832547D01*
X140905267Y-215855855D01*
X140905270Y-215855856D01*
X141136541Y-215935251D01*
X141136543Y-215935251D01*
X141136545Y-215935252D01*
X141377737Y-215975500D01*
X141377738Y-215975500D01*
X141622262Y-215975500D01*
X141622263Y-215975500D01*
X141863455Y-215935252D01*
X142094733Y-215855855D01*
X142309788Y-215739473D01*
X142502754Y-215589281D01*
X142668368Y-215409377D01*
X142802111Y-215204667D01*
X142900336Y-214980736D01*
X142960364Y-214743692D01*
X142980557Y-214500000D01*
X142978662Y-214477135D01*
X142960365Y-214256316D01*
X142960363Y-214256304D01*
X142931960Y-214144143D01*
X142900336Y-214019264D01*
X142802111Y-213795333D01*
X142668367Y-213590621D01*
X142502757Y-213410722D01*
X142502747Y-213410713D01*
X142309791Y-213260529D01*
X142309787Y-213260526D01*
X142094734Y-213144145D01*
X142094729Y-213144143D01*
X141863458Y-213064748D01*
X141660664Y-213030908D01*
X141622263Y-213024500D01*
X141377737Y-213024500D01*
X141339336Y-213030908D01*
X141136541Y-213064748D01*
X140905270Y-213144143D01*
X140905265Y-213144145D01*
X140690212Y-213260526D01*
X140690208Y-213260529D01*
X140497252Y-213410713D01*
X140497242Y-213410722D01*
X140331632Y-213590621D01*
X140197888Y-213795333D01*
X140099663Y-214019265D01*
X140039636Y-214256304D01*
X140039634Y-214256316D01*
X140019443Y-214499994D01*
X137980557Y-214499994D01*
X137978662Y-214477135D01*
X137960365Y-214256316D01*
X137960363Y-214256304D01*
X137931960Y-214144143D01*
X137900336Y-214019264D01*
X137802111Y-213795333D01*
X137668367Y-213590621D01*
X137502757Y-213410722D01*
X137502752Y-213410717D01*
X137348337Y-213290530D01*
X137307524Y-213233819D01*
X137300500Y-213192677D01*
X137300500Y-199147298D01*
X137320185Y-199080259D01*
X137372989Y-199034504D01*
X137395544Y-199026726D01*
X137503860Y-199000722D01*
X137622051Y-198951765D01*
X137740239Y-198902811D01*
X137740240Y-198902810D01*
X137740243Y-198902809D01*
X137958399Y-198769123D01*
X138152956Y-198602956D01*
X138319123Y-198408399D01*
X138452809Y-198190243D01*
X138463165Y-198165243D01*
X138550720Y-197953864D01*
X138550722Y-197953860D01*
X138610452Y-197705070D01*
X138630526Y-197450000D01*
X138610452Y-197194930D01*
X138550722Y-196946140D01*
X138532774Y-196902809D01*
X138452811Y-196709760D01*
X138452809Y-196709757D01*
X138319124Y-196491603D01*
X138319121Y-196491598D01*
X138248059Y-196408396D01*
X138152956Y-196297044D01*
X137998637Y-196165243D01*
X137958401Y-196130878D01*
X137958396Y-196130875D01*
X137740242Y-195997190D01*
X137740239Y-195997188D01*
X137503864Y-195899279D01*
X137503860Y-195899278D01*
X137255070Y-195839548D01*
X137255067Y-195839547D01*
X137255064Y-195839547D01*
X137000000Y-195819474D01*
X136744935Y-195839547D01*
X136744931Y-195839547D01*
X136744930Y-195839548D01*
X136669027Y-195857771D01*
X136496135Y-195899279D01*
X136259760Y-195997188D01*
X136259757Y-195997190D01*
X136041603Y-196130875D01*
X136041598Y-196130878D01*
X135847044Y-196297044D01*
X135680878Y-196491598D01*
X135680875Y-196491603D01*
X135547190Y-196709757D01*
X135547188Y-196709760D01*
X135449279Y-196946135D01*
X135389547Y-197194935D01*
X135369474Y-197450000D01*
X135389547Y-197705064D01*
X135449279Y-197953864D01*
X135547188Y-198190239D01*
X135547190Y-198190242D01*
X135681227Y-198408971D01*
X135699500Y-198473761D01*
X135699500Y-213192677D01*
X135679815Y-213259716D01*
X135651663Y-213290530D01*
X135497247Y-213410717D01*
X135497242Y-213410722D01*
X135331632Y-213590621D01*
X135197888Y-213795333D01*
X135099663Y-214019265D01*
X135039636Y-214256304D01*
X135039634Y-214256316D01*
X135019443Y-214499994D01*
X132980557Y-214499994D01*
X132978662Y-214477135D01*
X132960365Y-214256316D01*
X132960363Y-214256304D01*
X132931960Y-214144143D01*
X132900336Y-214019264D01*
X132802111Y-213795333D01*
X132668367Y-213590621D01*
X132502757Y-213410722D01*
X132502747Y-213410713D01*
X132309791Y-213260529D01*
X132309787Y-213260526D01*
X132094734Y-213144145D01*
X132094729Y-213144143D01*
X131863458Y-213064748D01*
X131660664Y-213030908D01*
X131622263Y-213024500D01*
X131377737Y-213024500D01*
X131339336Y-213030908D01*
X131136541Y-213064748D01*
X130905270Y-213144143D01*
X130905265Y-213144145D01*
X130690212Y-213260526D01*
X130690208Y-213260529D01*
X130497252Y-213410713D01*
X130497242Y-213410722D01*
X130331632Y-213590621D01*
X130197888Y-213795333D01*
X130099663Y-214019265D01*
X130039636Y-214256304D01*
X130039634Y-214256316D01*
X130019443Y-214499994D01*
X127980557Y-214499994D01*
X127978662Y-214477135D01*
X127960365Y-214256316D01*
X127960363Y-214256304D01*
X127931960Y-214144143D01*
X127900336Y-214019264D01*
X127802111Y-213795333D01*
X127668367Y-213590621D01*
X127502757Y-213410722D01*
X127502747Y-213410713D01*
X127309791Y-213260529D01*
X127309787Y-213260526D01*
X127094734Y-213144145D01*
X127094729Y-213144143D01*
X126863458Y-213064748D01*
X126660664Y-213030908D01*
X126622263Y-213024500D01*
X126377737Y-213024500D01*
X126339336Y-213030908D01*
X126136541Y-213064748D01*
X125905270Y-213144143D01*
X125905265Y-213144145D01*
X125690212Y-213260526D01*
X125690208Y-213260529D01*
X125497252Y-213410713D01*
X125497242Y-213410722D01*
X125331632Y-213590621D01*
X125197888Y-213795333D01*
X125099663Y-214019265D01*
X125039636Y-214256304D01*
X125039634Y-214256316D01*
X125019443Y-214499994D01*
X122975499Y-214499994D01*
X122975499Y-213477128D01*
X122969091Y-213417517D01*
X122966553Y-213410713D01*
X122918797Y-213282671D01*
X122918793Y-213282664D01*
X122832547Y-213167455D01*
X122832544Y-213167452D01*
X122717335Y-213081206D01*
X122717328Y-213081202D01*
X122582482Y-213030908D01*
X122582483Y-213030908D01*
X122522883Y-213024501D01*
X122522881Y-213024500D01*
X122522873Y-213024500D01*
X122522865Y-213024500D01*
X122424500Y-213024500D01*
X122357461Y-213004815D01*
X122311706Y-212952011D01*
X122300500Y-212900500D01*
X122300500Y-203034841D01*
X122320185Y-202967802D01*
X122336814Y-202947165D01*
X129283153Y-196000825D01*
X129344476Y-195967341D01*
X129414168Y-195972325D01*
X129470101Y-196014197D01*
X129485395Y-196041055D01*
X129547188Y-196190239D01*
X129547190Y-196190242D01*
X129680875Y-196408396D01*
X129680878Y-196408401D01*
X129730586Y-196466601D01*
X129847044Y-196602956D01*
X129971579Y-196709319D01*
X130041598Y-196769121D01*
X130041600Y-196769122D01*
X130041601Y-196769123D01*
X130192474Y-196861578D01*
X130259757Y-196902809D01*
X130259760Y-196902811D01*
X130445907Y-196979915D01*
X130496140Y-197000722D01*
X130744930Y-197060452D01*
X131000000Y-197080526D01*
X131255070Y-197060452D01*
X131503860Y-197000722D01*
X131635645Y-196946135D01*
X131740239Y-196902811D01*
X131740240Y-196902810D01*
X131740243Y-196902809D01*
X131958399Y-196769123D01*
X132152956Y-196602956D01*
X132319123Y-196408399D01*
X132452809Y-196190243D01*
X132463165Y-196165243D01*
X132523445Y-196019712D01*
X132550722Y-195953860D01*
X132610452Y-195705070D01*
X132630526Y-195450000D01*
X141369474Y-195450000D01*
X141389547Y-195705064D01*
X141389547Y-195705067D01*
X141389548Y-195705070D01*
X141438319Y-195908212D01*
X141449279Y-195953864D01*
X141547188Y-196190239D01*
X141547190Y-196190242D01*
X141680875Y-196408396D01*
X141680878Y-196408401D01*
X141730586Y-196466601D01*
X141847044Y-196602956D01*
X141971579Y-196709319D01*
X142041598Y-196769121D01*
X142041600Y-196769122D01*
X142041601Y-196769123D01*
X142192474Y-196861578D01*
X142259757Y-196902809D01*
X142259760Y-196902811D01*
X142445907Y-196979915D01*
X142496140Y-197000722D01*
X142744930Y-197060452D01*
X143000000Y-197080526D01*
X143255070Y-197060452D01*
X143503860Y-197000722D01*
X143635645Y-196946135D01*
X143740239Y-196902811D01*
X143740240Y-196902810D01*
X143740243Y-196902809D01*
X143958399Y-196769123D01*
X144152956Y-196602956D01*
X144319123Y-196408399D01*
X144452809Y-196190243D01*
X144463165Y-196165243D01*
X144523445Y-196019712D01*
X144550722Y-195953860D01*
X144610452Y-195705070D01*
X144630526Y-195450000D01*
X144610452Y-195194930D01*
X144550722Y-194946140D01*
X144540365Y-194921135D01*
X144452811Y-194709760D01*
X144452809Y-194709757D01*
X144319124Y-194491603D01*
X144319121Y-194491598D01*
X144259319Y-194421579D01*
X144152956Y-194297044D01*
X144046591Y-194206200D01*
X143958401Y-194130878D01*
X143958396Y-194130875D01*
X143740242Y-193997190D01*
X143740239Y-193997188D01*
X143503864Y-193899279D01*
X143503860Y-193899278D01*
X143255070Y-193839548D01*
X143255067Y-193839547D01*
X143255064Y-193839547D01*
X143000000Y-193819474D01*
X142744935Y-193839547D01*
X142744931Y-193839547D01*
X142744930Y-193839548D01*
X142620535Y-193869413D01*
X142496135Y-193899279D01*
X142259760Y-193997188D01*
X142259757Y-193997190D01*
X142041603Y-194130875D01*
X142041598Y-194130878D01*
X141847044Y-194297044D01*
X141680878Y-194491598D01*
X141680875Y-194491603D01*
X141547190Y-194709757D01*
X141547188Y-194709760D01*
X141449279Y-194946135D01*
X141389547Y-195194935D01*
X141369474Y-195450000D01*
X132630526Y-195450000D01*
X132610452Y-195194930D01*
X132550722Y-194946140D01*
X132540365Y-194921135D01*
X132452811Y-194709760D01*
X132452809Y-194709757D01*
X132319124Y-194491603D01*
X132319121Y-194491598D01*
X132259319Y-194421579D01*
X132152956Y-194297044D01*
X132046591Y-194206200D01*
X131958401Y-194130878D01*
X131958396Y-194130875D01*
X131740242Y-193997190D01*
X131740239Y-193997188D01*
X131591055Y-193935395D01*
X131536651Y-193891554D01*
X131514586Y-193825260D01*
X131531865Y-193757561D01*
X131550826Y-193733153D01*
X138621786Y-186662194D01*
X138621786Y-186662193D01*
X138621789Y-186662191D01*
X138709394Y-186531081D01*
X138769738Y-186385399D01*
X138800500Y-186230744D01*
X138800500Y-186073059D01*
X138800500Y-183250000D01*
X141369474Y-183250000D01*
X141389547Y-183505064D01*
X141449279Y-183753864D01*
X141547188Y-183990239D01*
X141547190Y-183990242D01*
X141680875Y-184208396D01*
X141680878Y-184208401D01*
X141739698Y-184277270D01*
X141847044Y-184402956D01*
X141971579Y-184509319D01*
X142041598Y-184569121D01*
X142041603Y-184569124D01*
X142259757Y-184702809D01*
X142259760Y-184702811D01*
X142496135Y-184800720D01*
X142496140Y-184800722D01*
X142744930Y-184860452D01*
X143000000Y-184880526D01*
X143255070Y-184860452D01*
X143503860Y-184800722D01*
X143622051Y-184751765D01*
X143740239Y-184702811D01*
X143740240Y-184702810D01*
X143740243Y-184702809D01*
X143958399Y-184569123D01*
X144152956Y-184402956D01*
X144319123Y-184208399D01*
X144452809Y-183990243D01*
X144458320Y-183976940D01*
X144550720Y-183753864D01*
X144550722Y-183753860D01*
X144610452Y-183505070D01*
X144630526Y-183250000D01*
X144610452Y-182994930D01*
X144583430Y-182882379D01*
X144586920Y-182812600D01*
X144616321Y-182765755D01*
X146246789Y-181135289D01*
X146334394Y-181004179D01*
X146394738Y-180858497D01*
X146425500Y-180703842D01*
X146425500Y-180546157D01*
X146425500Y-153271158D01*
X146425500Y-153271155D01*
X146425499Y-153271153D01*
X146417418Y-153230526D01*
X146394737Y-153116503D01*
X146389231Y-153103211D01*
X146334397Y-152970827D01*
X146334390Y-152970814D01*
X146246790Y-152839712D01*
X146196789Y-152789711D01*
X146135289Y-152728211D01*
X145616323Y-152209245D01*
X145582838Y-152147922D01*
X145583431Y-152092615D01*
X145585441Y-152084245D01*
X145610452Y-151980070D01*
X145630526Y-151725000D01*
X145610452Y-151469930D01*
X145550722Y-151221140D01*
X145550720Y-151221135D01*
X145452811Y-150984760D01*
X145452809Y-150984757D01*
X145387519Y-150878213D01*
X145319123Y-150766601D01*
X145319122Y-150766600D01*
X145319121Y-150766598D01*
X145213833Y-150643322D01*
X145152956Y-150572044D01*
X145046591Y-150481200D01*
X144958401Y-150405878D01*
X144958396Y-150405875D01*
X144740242Y-150272190D01*
X144740239Y-150272188D01*
X144503864Y-150174279D01*
X144503860Y-150174278D01*
X144255070Y-150114548D01*
X144255067Y-150114547D01*
X144255064Y-150114547D01*
X144000000Y-150094474D01*
X143744935Y-150114547D01*
X143744931Y-150114547D01*
X143744930Y-150114548D01*
X143621660Y-150144143D01*
X143496135Y-150174279D01*
X143259760Y-150272188D01*
X143259757Y-150272190D01*
X143041603Y-150405875D01*
X143041598Y-150405878D01*
X142847044Y-150572044D01*
X142680878Y-150766598D01*
X142680875Y-150766603D01*
X142547190Y-150984757D01*
X142547188Y-150984760D01*
X142449279Y-151221135D01*
X142389547Y-151469935D01*
X142369474Y-151725000D01*
X142389547Y-151980064D01*
X142449279Y-152228864D01*
X142547188Y-152465239D01*
X142547190Y-152465242D01*
X142680875Y-152683396D01*
X142680878Y-152683401D01*
X142740283Y-152752955D01*
X142847044Y-152877956D01*
X142955767Y-152970814D01*
X143041598Y-153044121D01*
X143041600Y-153044122D01*
X143041601Y-153044123D01*
X143159715Y-153116503D01*
X143259757Y-153177809D01*
X143259760Y-153177811D01*
X143496135Y-153275720D01*
X143496140Y-153275722D01*
X143744930Y-153335452D01*
X144000000Y-153355526D01*
X144255070Y-153335452D01*
X144367615Y-153308431D01*
X144437397Y-153311920D01*
X144484245Y-153341323D01*
X144788181Y-153645259D01*
X144821666Y-153706582D01*
X144824500Y-153732940D01*
X144824500Y-162321512D01*
X144804815Y-162388551D01*
X144752011Y-162434306D01*
X144682853Y-162444250D01*
X144653048Y-162436073D01*
X144503864Y-162374279D01*
X144503860Y-162374278D01*
X144255070Y-162314548D01*
X144255067Y-162314547D01*
X144255064Y-162314547D01*
X144000000Y-162294474D01*
X143744935Y-162314547D01*
X143744931Y-162314547D01*
X143744930Y-162314548D01*
X143644952Y-162338551D01*
X143496135Y-162374279D01*
X143259760Y-162472188D01*
X143259757Y-162472190D01*
X143041603Y-162605875D01*
X143041598Y-162605878D01*
X142847044Y-162772044D01*
X142680878Y-162966598D01*
X142680875Y-162966603D01*
X142547190Y-163184757D01*
X142547188Y-163184760D01*
X142449279Y-163421135D01*
X142389547Y-163669935D01*
X142369474Y-163925000D01*
X142389547Y-164180064D01*
X142389547Y-164180067D01*
X142389548Y-164180070D01*
X142419268Y-164303860D01*
X142449279Y-164428864D01*
X142547188Y-164665239D01*
X142547190Y-164665242D01*
X142680875Y-164883396D01*
X142680878Y-164883401D01*
X142739945Y-164952559D01*
X142847044Y-165077956D01*
X142971579Y-165184319D01*
X143041598Y-165244121D01*
X143041600Y-165244122D01*
X143041601Y-165244123D01*
X143178164Y-165327809D01*
X143259757Y-165377809D01*
X143259760Y-165377811D01*
X143496135Y-165475720D01*
X143496140Y-165475722D01*
X143744930Y-165535452D01*
X144000000Y-165555526D01*
X144255070Y-165535452D01*
X144503860Y-165475722D01*
X144653049Y-165413925D01*
X144722516Y-165406457D01*
X144784996Y-165437732D01*
X144820648Y-165497821D01*
X144824500Y-165528487D01*
X144824500Y-180242059D01*
X144804815Y-180309098D01*
X144788181Y-180329740D01*
X143484245Y-181633675D01*
X143422922Y-181667160D01*
X143367617Y-181666568D01*
X143255066Y-181639547D01*
X143000000Y-181619474D01*
X142744935Y-181639547D01*
X142744931Y-181639547D01*
X142744930Y-181639548D01*
X142632385Y-181666568D01*
X142496135Y-181699279D01*
X142259760Y-181797188D01*
X142259757Y-181797190D01*
X142041603Y-181930875D01*
X142041598Y-181930878D01*
X141847044Y-182097044D01*
X141680878Y-182291598D01*
X141680875Y-182291603D01*
X141547190Y-182509757D01*
X141547188Y-182509760D01*
X141449279Y-182746135D01*
X141389547Y-182994935D01*
X141369474Y-183250000D01*
X138800500Y-183250000D01*
X138800500Y-167410327D01*
X138820185Y-167343288D01*
X138859710Y-167304599D01*
X138958399Y-167244123D01*
X139152956Y-167077956D01*
X139319123Y-166883399D01*
X139452809Y-166665243D01*
X139473522Y-166615239D01*
X139514605Y-166516055D01*
X139550722Y-166428860D01*
X139610452Y-166180070D01*
X139630526Y-165925000D01*
X139610452Y-165669930D01*
X139583430Y-165557379D01*
X139586920Y-165487599D01*
X139616321Y-165440754D01*
X141260286Y-163796790D01*
X141260289Y-163796789D01*
X141371789Y-163685289D01*
X141459394Y-163554179D01*
X141519737Y-163408497D01*
X141550500Y-163253842D01*
X141550500Y-116557321D01*
X141570185Y-116490282D01*
X141598334Y-116459471D01*
X141752754Y-116339281D01*
X141918368Y-116159377D01*
X142052111Y-115954667D01*
X142150336Y-115730736D01*
X142210364Y-115493692D01*
X142210365Y-115493677D01*
X142230557Y-115250005D01*
X142230557Y-115249994D01*
X142210365Y-115006316D01*
X142210363Y-115006304D01*
X142197236Y-114954467D01*
X142150336Y-114769264D01*
X142052111Y-114545333D01*
X141918368Y-114340623D01*
X141918367Y-114340621D01*
X141752757Y-114160722D01*
X141752747Y-114160713D01*
X141559791Y-114010529D01*
X141559787Y-114010526D01*
X141344734Y-113894145D01*
X141344729Y-113894143D01*
X141113458Y-113814748D01*
X140932561Y-113784562D01*
X140872263Y-113774500D01*
X140627737Y-113774500D01*
X140579498Y-113782549D01*
X140386541Y-113814748D01*
X140155270Y-113894143D01*
X140155265Y-113894145D01*
X139940212Y-114010526D01*
X139940208Y-114010529D01*
X139747252Y-114160713D01*
X139747242Y-114160722D01*
X139581632Y-114340621D01*
X139447888Y-114545333D01*
X139349663Y-114769265D01*
X139289636Y-115006304D01*
X139289634Y-115006316D01*
X139269443Y-115249994D01*
X139269443Y-115250005D01*
X139289634Y-115493683D01*
X139289636Y-115493695D01*
X139349663Y-115730734D01*
X139447888Y-115954666D01*
X139581632Y-116159378D01*
X139741972Y-116333552D01*
X139747246Y-116339281D01*
X139901664Y-116459469D01*
X139942475Y-116516178D01*
X139949500Y-116557321D01*
X139949500Y-162792060D01*
X139929815Y-162859099D01*
X139913181Y-162879741D01*
X138484246Y-164308675D01*
X138422923Y-164342160D01*
X138367618Y-164341568D01*
X138255066Y-164314547D01*
X138000000Y-164294474D01*
X137744933Y-164314547D01*
X137678447Y-164330509D01*
X137608664Y-164327018D01*
X137551847Y-164286354D01*
X137526034Y-164221427D01*
X137525500Y-164209935D01*
X137525500Y-116146155D01*
X137525499Y-116146153D01*
X137494738Y-115991510D01*
X137494737Y-115991503D01*
X137494735Y-115991498D01*
X137434397Y-115845827D01*
X137434390Y-115845814D01*
X137346790Y-115714712D01*
X137346789Y-115714711D01*
X137243088Y-115611010D01*
X137209605Y-115549690D01*
X137210469Y-115498902D01*
X137209520Y-115498744D01*
X137210359Y-115493709D01*
X137210364Y-115493692D01*
X137229608Y-115261452D01*
X137230557Y-115250005D01*
X137230557Y-115249994D01*
X137210365Y-115006316D01*
X137210363Y-115006304D01*
X137197236Y-114954467D01*
X137150336Y-114769264D01*
X137052111Y-114545333D01*
X136918368Y-114340623D01*
X136918367Y-114340621D01*
X136752757Y-114160722D01*
X136752747Y-114160713D01*
X136559791Y-114010529D01*
X136559787Y-114010526D01*
X136344734Y-113894145D01*
X136344729Y-113894143D01*
X136113458Y-113814748D01*
X135932561Y-113784562D01*
X135872263Y-113774500D01*
X135627737Y-113774500D01*
X135579498Y-113782549D01*
X135386541Y-113814748D01*
X135155270Y-113894143D01*
X135155265Y-113894145D01*
X134940212Y-114010526D01*
X134940208Y-114010529D01*
X134747252Y-114160713D01*
X134747242Y-114160722D01*
X134581632Y-114340621D01*
X134447888Y-114545333D01*
X134349663Y-114769265D01*
X134289636Y-115006304D01*
X134289634Y-115006316D01*
X134269443Y-115249994D01*
X134269443Y-115250005D01*
X134289634Y-115493683D01*
X134289636Y-115493695D01*
X134349663Y-115730734D01*
X134447888Y-115954666D01*
X134581632Y-116159378D01*
X134747242Y-116339277D01*
X134747252Y-116339286D01*
X134940208Y-116489470D01*
X134940212Y-116489473D01*
X135140225Y-116597715D01*
X135155267Y-116605855D01*
X135155270Y-116605856D01*
X135386541Y-116685251D01*
X135386543Y-116685251D01*
X135386545Y-116685252D01*
X135627737Y-116725500D01*
X135627738Y-116725500D01*
X135800500Y-116725500D01*
X135867539Y-116745185D01*
X135913294Y-116797989D01*
X135924500Y-116849500D01*
X135924500Y-134215500D01*
X135904815Y-134282539D01*
X135852011Y-134328294D01*
X135800500Y-134339500D01*
X133977129Y-134339500D01*
X133977123Y-134339501D01*
X133917516Y-134345908D01*
X133782671Y-134396202D01*
X133782664Y-134396206D01*
X133667455Y-134482452D01*
X133667452Y-134482455D01*
X133581206Y-134597664D01*
X133581202Y-134597671D01*
X133530908Y-134732517D01*
X133524501Y-134792116D01*
X133524500Y-134792135D01*
X133524500Y-136837870D01*
X133524501Y-136837876D01*
X133530908Y-136897483D01*
X133581202Y-137032328D01*
X133581206Y-137032335D01*
X133667452Y-137147544D01*
X133667455Y-137147547D01*
X133782664Y-137233793D01*
X133782671Y-137233797D01*
X133917517Y-137284091D01*
X133917516Y-137284091D01*
X133924444Y-137284835D01*
X133977127Y-137290500D01*
X135800500Y-137290499D01*
X135867539Y-137310184D01*
X135913294Y-137362987D01*
X135924500Y-137414499D01*
X135924500Y-139510076D01*
X135904815Y-139577115D01*
X135852011Y-139622870D01*
X135782853Y-139632814D01*
X135741483Y-139619131D01*
X135594537Y-139539608D01*
X135594523Y-139539602D01*
X135363335Y-139460234D01*
X135122221Y-139420000D01*
X134877779Y-139420000D01*
X134636664Y-139460234D01*
X134405476Y-139539602D01*
X134405468Y-139539605D01*
X134190481Y-139655951D01*
X134147758Y-139689202D01*
X134147757Y-139689204D01*
X134752511Y-140293958D01*
X134692110Y-140318978D01*
X134585649Y-140390112D01*
X134495112Y-140480649D01*
X134423978Y-140587110D01*
X134398958Y-140647511D01*
X133794626Y-140043179D01*
X133698328Y-140190575D01*
X133600138Y-140414426D01*
X133540130Y-140651394D01*
X133519945Y-140894994D01*
X133519945Y-140895005D01*
X133540130Y-141138605D01*
X133600138Y-141375573D01*
X133698330Y-141599429D01*
X133794626Y-141746819D01*
X134398958Y-141142487D01*
X134423978Y-141202890D01*
X134495112Y-141309351D01*
X134585649Y-141399888D01*
X134692110Y-141471022D01*
X134752511Y-141496041D01*
X134147758Y-142100794D01*
X134147758Y-142100796D01*
X134190478Y-142134046D01*
X134190484Y-142134050D01*
X134405468Y-142250394D01*
X134405476Y-142250397D01*
X134636664Y-142329765D01*
X134877779Y-142370000D01*
X135122221Y-142370000D01*
X135363335Y-142329765D01*
X135594523Y-142250397D01*
X135594541Y-142250390D01*
X135741482Y-142170869D01*
X135809810Y-142156273D01*
X135875183Y-142180936D01*
X135916844Y-142237026D01*
X135924500Y-142279923D01*
X135924500Y-164518962D01*
X135904815Y-164586001D01*
X135888181Y-164606643D01*
X130489711Y-170005113D01*
X130459456Y-170035368D01*
X130378209Y-170116614D01*
X130290609Y-170247716D01*
X130290602Y-170247729D01*
X130230264Y-170393400D01*
X130230261Y-170393412D01*
X130199500Y-170548055D01*
X130199500Y-181764672D01*
X130179815Y-181831711D01*
X130140290Y-181870399D01*
X130041606Y-181930873D01*
X130041597Y-181930879D01*
X129847046Y-182097041D01*
X129680878Y-182291598D01*
X129680875Y-182291603D01*
X129547190Y-182509757D01*
X129547188Y-182509760D01*
X129449279Y-182746135D01*
X129389547Y-182994935D01*
X129369474Y-183250000D01*
X129389547Y-183505064D01*
X129449279Y-183753864D01*
X129547188Y-183990239D01*
X129547190Y-183990242D01*
X129680875Y-184208396D01*
X129680878Y-184208401D01*
X129739698Y-184277270D01*
X129847044Y-184402956D01*
X129971579Y-184509319D01*
X130041598Y-184569121D01*
X130041603Y-184569124D01*
X130259757Y-184702809D01*
X130259760Y-184702811D01*
X130496135Y-184800720D01*
X130496140Y-184800722D01*
X130744930Y-184860452D01*
X131000000Y-184880526D01*
X131255070Y-184860452D01*
X131503860Y-184800722D01*
X131622051Y-184751765D01*
X131740239Y-184702811D01*
X131740240Y-184702810D01*
X131740243Y-184702809D01*
X131958399Y-184569123D01*
X132152956Y-184402956D01*
X132319123Y-184208399D01*
X132452809Y-183990243D01*
X132458320Y-183976940D01*
X132550720Y-183753864D01*
X132550722Y-183753860D01*
X132610452Y-183505070D01*
X132630526Y-183250000D01*
X132610452Y-182994930D01*
X132550722Y-182746140D01*
X132540365Y-182721135D01*
X132452811Y-182509760D01*
X132452809Y-182509757D01*
X132434071Y-182479179D01*
X132319123Y-182291601D01*
X132319122Y-182291600D01*
X132319121Y-182291598D01*
X132152953Y-182097041D01*
X131958402Y-181930879D01*
X131958393Y-181930873D01*
X131859710Y-181870399D01*
X131812835Y-181818587D01*
X131800500Y-181764672D01*
X131800500Y-171009841D01*
X131820185Y-170942802D01*
X131836814Y-170922165D01*
X136283153Y-166475825D01*
X136344476Y-166442341D01*
X136414168Y-166447325D01*
X136470101Y-166489197D01*
X136485395Y-166516055D01*
X136547188Y-166665239D01*
X136547190Y-166665242D01*
X136680875Y-166883396D01*
X136680878Y-166883401D01*
X136740283Y-166952955D01*
X136847044Y-167077956D01*
X137041601Y-167244123D01*
X137140290Y-167304599D01*
X137187165Y-167356411D01*
X137199500Y-167410327D01*
X137199500Y-185768962D01*
X137179815Y-185836001D01*
X137163181Y-185856643D01*
X126597325Y-196422498D01*
X126536002Y-196455983D01*
X126466310Y-196450999D01*
X126410377Y-196409127D01*
X126385960Y-196343663D01*
X126400812Y-196275390D01*
X126403917Y-196270027D01*
X126452809Y-196190243D01*
X126463165Y-196165243D01*
X126523445Y-196019712D01*
X126550722Y-195953860D01*
X126610452Y-195705070D01*
X126630526Y-195450000D01*
X126610452Y-195194930D01*
X126550722Y-194946140D01*
X126540365Y-194921135D01*
X126452811Y-194709760D01*
X126452809Y-194709757D01*
X126319124Y-194491603D01*
X126319121Y-194491598D01*
X126259319Y-194421579D01*
X126152956Y-194297044D01*
X126046591Y-194206200D01*
X125958401Y-194130878D01*
X125958396Y-194130875D01*
X125740242Y-193997190D01*
X125740239Y-193997188D01*
X125503864Y-193899279D01*
X125503860Y-193899278D01*
X125255070Y-193839548D01*
X125255067Y-193839547D01*
X125255064Y-193839547D01*
X125000000Y-193819474D01*
X124744935Y-193839547D01*
X124744931Y-193839547D01*
X124744930Y-193839548D01*
X124620535Y-193869413D01*
X124496135Y-193899279D01*
X124259760Y-193997188D01*
X124259757Y-193997190D01*
X124041603Y-194130875D01*
X124041598Y-194130878D01*
X123847044Y-194297044D01*
X123680878Y-194491598D01*
X123680875Y-194491603D01*
X123547190Y-194709757D01*
X123547188Y-194709760D01*
X123449279Y-194946135D01*
X123389547Y-195194935D01*
X123369474Y-195450000D01*
X123389547Y-195705064D01*
X123389547Y-195705067D01*
X123389548Y-195705070D01*
X123438319Y-195908212D01*
X123449279Y-195953864D01*
X123547188Y-196190239D01*
X123547190Y-196190242D01*
X123680875Y-196408396D01*
X123680878Y-196408401D01*
X123730586Y-196466601D01*
X123847044Y-196602956D01*
X123971579Y-196709319D01*
X124041598Y-196769121D01*
X124041600Y-196769122D01*
X124041601Y-196769123D01*
X124192474Y-196861578D01*
X124259757Y-196902809D01*
X124259760Y-196902811D01*
X124445907Y-196979915D01*
X124496140Y-197000722D01*
X124744930Y-197060452D01*
X125000000Y-197080526D01*
X125255070Y-197060452D01*
X125503860Y-197000722D01*
X125635645Y-196946135D01*
X125740239Y-196902811D01*
X125740240Y-196902810D01*
X125740243Y-196902809D01*
X125820028Y-196853916D01*
X125887472Y-196835672D01*
X125954075Y-196856788D01*
X125998688Y-196910560D01*
X126007149Y-196979915D01*
X125976770Y-197042835D01*
X125972498Y-197047325D01*
X123472636Y-199547188D01*
X120989711Y-202030113D01*
X120933960Y-202085864D01*
X120878209Y-202141614D01*
X120790609Y-202272716D01*
X120790602Y-202272729D01*
X120730264Y-202418400D01*
X120730261Y-202418412D01*
X120699500Y-202573055D01*
X120699500Y-212900500D01*
X120679815Y-212967539D01*
X120627011Y-213013294D01*
X120575501Y-213024500D01*
X120477130Y-213024500D01*
X120477123Y-213024501D01*
X120417516Y-213030908D01*
X120282671Y-213081202D01*
X120282664Y-213081206D01*
X120167455Y-213167452D01*
X120167452Y-213167455D01*
X120081206Y-213282664D01*
X120081202Y-213282671D01*
X120030908Y-213417517D01*
X120024824Y-213474109D01*
X120024501Y-213477123D01*
X120024500Y-213477135D01*
X114278895Y-213477135D01*
X114217757Y-213410722D01*
X114217747Y-213410713D01*
X114024791Y-213260529D01*
X114024787Y-213260526D01*
X113809734Y-213144145D01*
X113809729Y-213144143D01*
X113578458Y-213064748D01*
X113375664Y-213030908D01*
X113337263Y-213024500D01*
X113092737Y-213024500D01*
X113054336Y-213030908D01*
X112851541Y-213064748D01*
X112620270Y-213144143D01*
X112620265Y-213144145D01*
X112405212Y-213260526D01*
X112405208Y-213260529D01*
X112212252Y-213410713D01*
X112212242Y-213410722D01*
X112046632Y-213590621D01*
X111912888Y-213795333D01*
X111814663Y-214019265D01*
X111754636Y-214256304D01*
X111754634Y-214256316D01*
X111734443Y-214499994D01*
X109695557Y-214499994D01*
X109693662Y-214477135D01*
X109675365Y-214256316D01*
X109675363Y-214256304D01*
X109646960Y-214144143D01*
X109615336Y-214019264D01*
X109517111Y-213795333D01*
X109383367Y-213590621D01*
X109217757Y-213410722D01*
X109217752Y-213410717D01*
X109063337Y-213290530D01*
X109022524Y-213233819D01*
X109015500Y-213192677D01*
X109015500Y-208617939D01*
X109035185Y-208550900D01*
X109051814Y-208530263D01*
X118515755Y-199066321D01*
X118577076Y-199032838D01*
X118632379Y-199033429D01*
X118744930Y-199060452D01*
X119000000Y-199080526D01*
X119255070Y-199060452D01*
X119503860Y-199000722D01*
X119622051Y-198951765D01*
X119740239Y-198902811D01*
X119740240Y-198902810D01*
X119740243Y-198902809D01*
X119958399Y-198769123D01*
X120152956Y-198602956D01*
X120319123Y-198408399D01*
X120452809Y-198190243D01*
X120463165Y-198165243D01*
X120550720Y-197953864D01*
X120550722Y-197953860D01*
X120610452Y-197705070D01*
X120630526Y-197450000D01*
X120610452Y-197194930D01*
X120550722Y-196946140D01*
X120532774Y-196902809D01*
X120452811Y-196709760D01*
X120452809Y-196709757D01*
X120319124Y-196491603D01*
X120319121Y-196491598D01*
X120248059Y-196408396D01*
X120152956Y-196297044D01*
X119998637Y-196165243D01*
X119958401Y-196130878D01*
X119958396Y-196130875D01*
X119740242Y-195997190D01*
X119740239Y-195997188D01*
X119503864Y-195899279D01*
X119503860Y-195899278D01*
X119255070Y-195839548D01*
X119255067Y-195839547D01*
X119255064Y-195839547D01*
X119000000Y-195819474D01*
X118744935Y-195839547D01*
X118744931Y-195839547D01*
X118744930Y-195839548D01*
X118669027Y-195857771D01*
X118496135Y-195899279D01*
X118259760Y-195997188D01*
X118259757Y-195997190D01*
X118041603Y-196130875D01*
X118041598Y-196130878D01*
X117847044Y-196297044D01*
X117680878Y-196491598D01*
X117680875Y-196491603D01*
X117547190Y-196709757D01*
X117547188Y-196709760D01*
X117449279Y-196946135D01*
X117389547Y-197194935D01*
X117369474Y-197450000D01*
X117389547Y-197705066D01*
X117416568Y-197817617D01*
X117413077Y-197887400D01*
X117383675Y-197934245D01*
X107704711Y-207613211D01*
X107648960Y-207668962D01*
X107593209Y-207724712D01*
X107505609Y-207855814D01*
X107505602Y-207855827D01*
X107445264Y-208001498D01*
X107445261Y-208001510D01*
X107414500Y-208156153D01*
X107414500Y-213192677D01*
X107394815Y-213259716D01*
X107366663Y-213290530D01*
X107212247Y-213410717D01*
X107212242Y-213410722D01*
X107046632Y-213590621D01*
X106912888Y-213795333D01*
X106814663Y-214019265D01*
X106754636Y-214256304D01*
X106754634Y-214256316D01*
X106734443Y-214499994D01*
X104695557Y-214499994D01*
X104693662Y-214477135D01*
X104675365Y-214256316D01*
X104675363Y-214256304D01*
X104646960Y-214144143D01*
X104615336Y-214019264D01*
X104517111Y-213795333D01*
X104383367Y-213590621D01*
X104217757Y-213410722D01*
X104217747Y-213410713D01*
X104024791Y-213260529D01*
X104024787Y-213260526D01*
X103809734Y-213144145D01*
X103809729Y-213144143D01*
X103578458Y-213064748D01*
X103375664Y-213030908D01*
X103337263Y-213024500D01*
X103092737Y-213024500D01*
X103054336Y-213030908D01*
X102851541Y-213064748D01*
X102620270Y-213144143D01*
X102620265Y-213144145D01*
X102405212Y-213260526D01*
X102405208Y-213260529D01*
X102212252Y-213410713D01*
X102212242Y-213410722D01*
X102046632Y-213590621D01*
X101912888Y-213795333D01*
X101814663Y-214019265D01*
X101754636Y-214256304D01*
X101754634Y-214256316D01*
X101734443Y-214499994D01*
X99695557Y-214499994D01*
X99693662Y-214477135D01*
X99675365Y-214256316D01*
X99674519Y-214251244D01*
X99675796Y-214251030D01*
X99678189Y-214187293D01*
X99708089Y-214138987D01*
X100621789Y-213225289D01*
X100660433Y-213167454D01*
X100709394Y-213094179D01*
X100769737Y-212948497D01*
X100800500Y-212793842D01*
X100800500Y-198910327D01*
X100820185Y-198843288D01*
X100859710Y-198804599D01*
X100958399Y-198744123D01*
X101152956Y-198577956D01*
X101319123Y-198383399D01*
X101452809Y-198165243D01*
X101550722Y-197928860D01*
X101610452Y-197680070D01*
X101630526Y-197425000D01*
X101610452Y-197169930D01*
X101550722Y-196921140D01*
X101550720Y-196921135D01*
X101452811Y-196684760D01*
X101452809Y-196684757D01*
X101319124Y-196466603D01*
X101319121Y-196466598D01*
X101214124Y-196343663D01*
X101152956Y-196272044D01*
X101011014Y-196150814D01*
X100958401Y-196105878D01*
X100958396Y-196105875D01*
X100740242Y-195972190D01*
X100740239Y-195972188D01*
X100503864Y-195874279D01*
X100435104Y-195857771D01*
X100255070Y-195814548D01*
X100255067Y-195814547D01*
X100255064Y-195814547D01*
X100000000Y-195794474D01*
X99744935Y-195814547D01*
X99744931Y-195814547D01*
X99744930Y-195814548D01*
X99640803Y-195839547D01*
X99496135Y-195874279D01*
X99259760Y-195972188D01*
X99259757Y-195972190D01*
X99239287Y-195984734D01*
X99171841Y-196002976D01*
X99105239Y-195981859D01*
X99060627Y-195928086D01*
X99050500Y-195879005D01*
X99050500Y-195425000D01*
X104369474Y-195425000D01*
X104389547Y-195680064D01*
X104389547Y-195680067D01*
X104389548Y-195680070D01*
X104427836Y-195839547D01*
X104449279Y-195928864D01*
X104547188Y-196165239D01*
X104547190Y-196165242D01*
X104680875Y-196383396D01*
X104680878Y-196383401D01*
X104742869Y-196455983D01*
X104847044Y-196577956D01*
X104971579Y-196684319D01*
X105041598Y-196744121D01*
X105041600Y-196744122D01*
X105041601Y-196744123D01*
X105082399Y-196769124D01*
X105259757Y-196877809D01*
X105259760Y-196877811D01*
X105496135Y-196975720D01*
X105496140Y-196975722D01*
X105744930Y-197035452D01*
X106000000Y-197055526D01*
X106255070Y-197035452D01*
X106503860Y-196975722D01*
X106679888Y-196902809D01*
X106740239Y-196877811D01*
X106740240Y-196877810D01*
X106740243Y-196877809D01*
X106958399Y-196744123D01*
X107152956Y-196577956D01*
X107319123Y-196383399D01*
X107452809Y-196165243D01*
X107458781Y-196150827D01*
X107522419Y-195997190D01*
X107550722Y-195928860D01*
X107610452Y-195680070D01*
X107628559Y-195450000D01*
X111369474Y-195450000D01*
X111389547Y-195705064D01*
X111389547Y-195705067D01*
X111389548Y-195705070D01*
X111438319Y-195908212D01*
X111449279Y-195953864D01*
X111547188Y-196190239D01*
X111547190Y-196190242D01*
X111680875Y-196408396D01*
X111680878Y-196408401D01*
X111730586Y-196466601D01*
X111847044Y-196602956D01*
X111971579Y-196709319D01*
X112041598Y-196769121D01*
X112041600Y-196769122D01*
X112041601Y-196769123D01*
X112192474Y-196861578D01*
X112259757Y-196902809D01*
X112259760Y-196902811D01*
X112445907Y-196979915D01*
X112496140Y-197000722D01*
X112744930Y-197060452D01*
X113000000Y-197080526D01*
X113255070Y-197060452D01*
X113503860Y-197000722D01*
X113635645Y-196946135D01*
X113740239Y-196902811D01*
X113740240Y-196902810D01*
X113740243Y-196902809D01*
X113958399Y-196769123D01*
X114152956Y-196602956D01*
X114319123Y-196408399D01*
X114452809Y-196190243D01*
X114463165Y-196165243D01*
X114523445Y-196019712D01*
X114550722Y-195953860D01*
X114610452Y-195705070D01*
X114630526Y-195450000D01*
X114610452Y-195194930D01*
X114550722Y-194946140D01*
X114540365Y-194921135D01*
X114452811Y-194709760D01*
X114452809Y-194709757D01*
X114319124Y-194491603D01*
X114319121Y-194491598D01*
X114259319Y-194421579D01*
X114152956Y-194297044D01*
X114046591Y-194206200D01*
X113958401Y-194130878D01*
X113958396Y-194130875D01*
X113740242Y-193997190D01*
X113740239Y-193997188D01*
X113503864Y-193899279D01*
X113503860Y-193899278D01*
X113255070Y-193839548D01*
X113255067Y-193839547D01*
X113255064Y-193839547D01*
X113000000Y-193819474D01*
X112744935Y-193839547D01*
X112744931Y-193839547D01*
X112744930Y-193839548D01*
X112620535Y-193869413D01*
X112496135Y-193899279D01*
X112259760Y-193997188D01*
X112259757Y-193997190D01*
X112041603Y-194130875D01*
X112041598Y-194130878D01*
X111847044Y-194297044D01*
X111680878Y-194491598D01*
X111680875Y-194491603D01*
X111547190Y-194709757D01*
X111547188Y-194709760D01*
X111449279Y-194946135D01*
X111389547Y-195194935D01*
X111369474Y-195450000D01*
X107628559Y-195450000D01*
X107630526Y-195425000D01*
X107610452Y-195169930D01*
X107550722Y-194921140D01*
X107463166Y-194709760D01*
X107452811Y-194684760D01*
X107452809Y-194684757D01*
X107319124Y-194466603D01*
X107319121Y-194466598D01*
X107259319Y-194396579D01*
X107152956Y-194272044D01*
X107046591Y-194181200D01*
X106958401Y-194105878D01*
X106958396Y-194105875D01*
X106740242Y-193972190D01*
X106740239Y-193972188D01*
X106503864Y-193874279D01*
X106503860Y-193874278D01*
X106255070Y-193814548D01*
X106255067Y-193814547D01*
X106255064Y-193814547D01*
X106000000Y-193794474D01*
X105744935Y-193814547D01*
X105744931Y-193814547D01*
X105744930Y-193814548D01*
X105700312Y-193825260D01*
X105496135Y-193874279D01*
X105259760Y-193972188D01*
X105259757Y-193972190D01*
X105041603Y-194105875D01*
X105041598Y-194105878D01*
X104847044Y-194272044D01*
X104680878Y-194466598D01*
X104680875Y-194466603D01*
X104547190Y-194684757D01*
X104547188Y-194684760D01*
X104449279Y-194921135D01*
X104389547Y-195169935D01*
X104369474Y-195425000D01*
X99050500Y-195425000D01*
X99050500Y-167541176D01*
X99070185Y-167474137D01*
X99122989Y-167428382D01*
X99164771Y-167417558D01*
X99255070Y-167410452D01*
X99503860Y-167350722D01*
X99622051Y-167301765D01*
X99740239Y-167252811D01*
X99740240Y-167252810D01*
X99740243Y-167252809D01*
X99958399Y-167119123D01*
X100152956Y-166952956D01*
X100319123Y-166758399D01*
X100452809Y-166540243D01*
X100479492Y-166475826D01*
X100519656Y-166378860D01*
X100550722Y-166303860D01*
X100610452Y-166055070D01*
X100630526Y-165800000D01*
X100610452Y-165544930D01*
X100550722Y-165296140D01*
X100508466Y-165194124D01*
X100452811Y-165059760D01*
X100452809Y-165059757D01*
X100319124Y-164841603D01*
X100319121Y-164841598D01*
X100168499Y-164665243D01*
X100152956Y-164647044D01*
X100002991Y-164518962D01*
X99958401Y-164480878D01*
X99958396Y-164480875D01*
X99740242Y-164347190D01*
X99740239Y-164347188D01*
X99503864Y-164249279D01*
X99483850Y-164244474D01*
X99255070Y-164189548D01*
X99255067Y-164189547D01*
X99255064Y-164189547D01*
X99000000Y-164169474D01*
X98744933Y-164189547D01*
X98744930Y-164189547D01*
X98632380Y-164216568D01*
X98562598Y-164213077D01*
X98515753Y-164183675D01*
X85210292Y-150878213D01*
X85210288Y-150878210D01*
X85079185Y-150790609D01*
X85079172Y-150790602D01*
X84933501Y-150730264D01*
X84933489Y-150730261D01*
X84778845Y-150699500D01*
X84778842Y-150699500D01*
X71556606Y-150699500D01*
X71489567Y-150679815D01*
X71452798Y-150643322D01*
X71418369Y-150590625D01*
X71418361Y-150590614D01*
X71252757Y-150410722D01*
X71252747Y-150410713D01*
X71059791Y-150260529D01*
X71059787Y-150260526D01*
X70844734Y-150144145D01*
X70844729Y-150144143D01*
X70613458Y-150064748D01*
X70432561Y-150034562D01*
X70372263Y-150024500D01*
X70127737Y-150024500D01*
X70093281Y-150030249D01*
X69886539Y-150064748D01*
X69739762Y-150115137D01*
X69669964Y-150118287D01*
X69609543Y-150083200D01*
X69577682Y-150021018D01*
X69575500Y-149997856D01*
X69575500Y-148357939D01*
X69595185Y-148290900D01*
X69611815Y-148270262D01*
X69893073Y-147989003D01*
X69954394Y-147955520D01*
X70001157Y-147954377D01*
X70127737Y-147975500D01*
X70127739Y-147975500D01*
X70372262Y-147975500D01*
X70372263Y-147975500D01*
X70613455Y-147935252D01*
X70844733Y-147855855D01*
X71059788Y-147739473D01*
X71252754Y-147589281D01*
X71418368Y-147409377D01*
X71552111Y-147204667D01*
X71650336Y-146980736D01*
X71710364Y-146743692D01*
X71730557Y-146500000D01*
X71710364Y-146256308D01*
X71650336Y-146019264D01*
X71552111Y-145795333D01*
X71418368Y-145590623D01*
X71418367Y-145590621D01*
X71252757Y-145410722D01*
X71252747Y-145410713D01*
X71059791Y-145260529D01*
X71059787Y-145260526D01*
X70844734Y-145144145D01*
X70844729Y-145144143D01*
X70613458Y-145064748D01*
X70432561Y-145034562D01*
X70372263Y-145024500D01*
X70127737Y-145024500D01*
X70079498Y-145032549D01*
X69886541Y-145064748D01*
X69655270Y-145144143D01*
X69655265Y-145144145D01*
X69440212Y-145260526D01*
X69440208Y-145260529D01*
X69247252Y-145410713D01*
X69247242Y-145410722D01*
X69081632Y-145590621D01*
X68947888Y-145795333D01*
X68849663Y-146019265D01*
X68789636Y-146256304D01*
X68789634Y-146256316D01*
X68769443Y-146499994D01*
X68769443Y-146500005D01*
X68789635Y-146743690D01*
X68790480Y-146748753D01*
X68789205Y-146748965D01*
X68786805Y-146812718D01*
X68756908Y-146861012D01*
X68264711Y-147353211D01*
X68208960Y-147408962D01*
X68153209Y-147464712D01*
X68065609Y-147595814D01*
X68065602Y-147595827D01*
X68005264Y-147741498D01*
X68005261Y-147741510D01*
X67974500Y-147896153D01*
X60000500Y-147896153D01*
X60000500Y-82999999D01*
X64144341Y-82999999D01*
X64144341Y-83000000D01*
X64164936Y-83235403D01*
X64164938Y-83235413D01*
X64226094Y-83463655D01*
X64226096Y-83463659D01*
X64226097Y-83463663D01*
X64325965Y-83677830D01*
X64325967Y-83677834D01*
X64461501Y-83871395D01*
X64461506Y-83871402D01*
X64628597Y-84038493D01*
X64628603Y-84038498D01*
X64814158Y-84168425D01*
X64857783Y-84223002D01*
X64864977Y-84292500D01*
X64833454Y-84354855D01*
X64814158Y-84371575D01*
X64628597Y-84501505D01*
X64461505Y-84668597D01*
X64325965Y-84862169D01*
X64325964Y-84862171D01*
X64226098Y-85076335D01*
X64226094Y-85076344D01*
X64164938Y-85304586D01*
X64164936Y-85304596D01*
X64144341Y-85539999D01*
X64144341Y-85540000D01*
X64164936Y-85775403D01*
X64164938Y-85775413D01*
X64226094Y-86003655D01*
X64226096Y-86003659D01*
X64226097Y-86003663D01*
X64325965Y-86217830D01*
X64325967Y-86217834D01*
X64461501Y-86411395D01*
X64461506Y-86411402D01*
X64628597Y-86578493D01*
X64628603Y-86578498D01*
X64814158Y-86708425D01*
X64857783Y-86763002D01*
X64864977Y-86832500D01*
X64833454Y-86894855D01*
X64814158Y-86911575D01*
X64628597Y-87041505D01*
X64461505Y-87208597D01*
X64325965Y-87402169D01*
X64325964Y-87402171D01*
X64226098Y-87616335D01*
X64226094Y-87616344D01*
X64164938Y-87844586D01*
X64164936Y-87844596D01*
X64144341Y-88079999D01*
X64144341Y-88080000D01*
X64164936Y-88315403D01*
X64164938Y-88315413D01*
X64226094Y-88543655D01*
X64226096Y-88543659D01*
X64226097Y-88543663D01*
X64325965Y-88757830D01*
X64325967Y-88757834D01*
X64418338Y-88889752D01*
X64461505Y-88951401D01*
X64628599Y-89118495D01*
X64725384Y-89186265D01*
X64822165Y-89254032D01*
X64822167Y-89254033D01*
X64822170Y-89254035D01*
X65036337Y-89353903D01*
X65264592Y-89415063D01*
X65452918Y-89431539D01*
X65499999Y-89435659D01*
X65500000Y-89435659D01*
X65500001Y-89435659D01*
X65539234Y-89432226D01*
X65735408Y-89415063D01*
X65963663Y-89353903D01*
X66177830Y-89254035D01*
X66371401Y-89118495D01*
X66538495Y-88951401D01*
X66551116Y-88933375D01*
X66605693Y-88889752D01*
X66652691Y-88880500D01*
X94697060Y-88880500D01*
X94764099Y-88900185D01*
X94784741Y-88916819D01*
X115000025Y-109132103D01*
X115033510Y-109193426D01*
X115028526Y-109263118D01*
X114986654Y-109319051D01*
X114921190Y-109343468D01*
X114912377Y-109343784D01*
X89892689Y-109350365D01*
X89876124Y-116269616D01*
X89903506Y-116319944D01*
X89898416Y-116389628D01*
X89881567Y-116420428D01*
X89846206Y-116467664D01*
X89846202Y-116467671D01*
X89795908Y-116602517D01*
X89792344Y-116635673D01*
X89789501Y-116662123D01*
X89789500Y-116662135D01*
X89789500Y-118757870D01*
X89789501Y-118757876D01*
X89795908Y-118817483D01*
X89846202Y-118952328D01*
X89846206Y-118952335D01*
X89932452Y-119067544D01*
X89932455Y-119067547D01*
X90047664Y-119153793D01*
X90047673Y-119153798D01*
X90084914Y-119167688D01*
X90140848Y-119209559D01*
X90165266Y-119275023D01*
X90150415Y-119343296D01*
X90129265Y-119371550D01*
X90098029Y-119402786D01*
X90028575Y-119498384D01*
X89973245Y-119541051D01*
X89928256Y-119549500D01*
X75950098Y-119549500D01*
X75883059Y-119529815D01*
X75862417Y-119513181D01*
X71435938Y-115086703D01*
X71402453Y-115025380D01*
X71403414Y-114968581D01*
X71460361Y-114743704D01*
X71460363Y-114743695D01*
X71460364Y-114743692D01*
X71468498Y-114645528D01*
X79799500Y-114645528D01*
X79799500Y-114954471D01*
X79834086Y-115261437D01*
X79834089Y-115261455D01*
X79902831Y-115562635D01*
X79902835Y-115562647D01*
X80004862Y-115854222D01*
X80004868Y-115854236D01*
X80138903Y-116132562D01*
X80138905Y-116132565D01*
X80303265Y-116394143D01*
X80495880Y-116635674D01*
X80714326Y-116854120D01*
X80955857Y-117046735D01*
X81217435Y-117211095D01*
X81495771Y-117345135D01*
X81495777Y-117345137D01*
X81787352Y-117447164D01*
X81787364Y-117447168D01*
X82088548Y-117515911D01*
X82088554Y-117515911D01*
X82088562Y-117515913D01*
X82293206Y-117538970D01*
X82395529Y-117550499D01*
X82395532Y-117550500D01*
X82395535Y-117550500D01*
X82704468Y-117550500D01*
X82704469Y-117550499D01*
X82861356Y-117532822D01*
X83011437Y-117515913D01*
X83011442Y-117515912D01*
X83011452Y-117515911D01*
X83312636Y-117447168D01*
X83604229Y-117345135D01*
X83882565Y-117211095D01*
X84144143Y-117046735D01*
X84385674Y-116854120D01*
X84604120Y-116635674D01*
X84796735Y-116394143D01*
X84961095Y-116132565D01*
X85095135Y-115854229D01*
X85197168Y-115562636D01*
X85265911Y-115261452D01*
X85267202Y-115250000D01*
X85297540Y-114980734D01*
X85300500Y-114954465D01*
X85300500Y-114645535D01*
X85265911Y-114338548D01*
X85197168Y-114037364D01*
X85095135Y-113745771D01*
X84961095Y-113467435D01*
X84796735Y-113205857D01*
X84604120Y-112964326D01*
X84385674Y-112745880D01*
X84144143Y-112553265D01*
X83882565Y-112388905D01*
X83882562Y-112388903D01*
X83604236Y-112254868D01*
X83604222Y-112254862D01*
X83312647Y-112152835D01*
X83312635Y-112152831D01*
X83011455Y-112084089D01*
X83011437Y-112084086D01*
X82704471Y-112049500D01*
X82704465Y-112049500D01*
X82395535Y-112049500D01*
X82395528Y-112049500D01*
X82088562Y-112084086D01*
X82088544Y-112084089D01*
X81787364Y-112152831D01*
X81787352Y-112152835D01*
X81495777Y-112254862D01*
X81495763Y-112254868D01*
X81217437Y-112388903D01*
X80955858Y-112553264D01*
X80714326Y-112745879D01*
X80495879Y-112964326D01*
X80303264Y-113205858D01*
X80138903Y-113467437D01*
X80004868Y-113745763D01*
X80004862Y-113745777D01*
X79902835Y-114037352D01*
X79902831Y-114037364D01*
X79834089Y-114338544D01*
X79834086Y-114338562D01*
X79799500Y-114645528D01*
X71468498Y-114645528D01*
X71480557Y-114500000D01*
X71467350Y-114340621D01*
X71460365Y-114256316D01*
X71460363Y-114256304D01*
X71436156Y-114160713D01*
X71400336Y-114019264D01*
X71302111Y-113795333D01*
X71269731Y-113745771D01*
X71168367Y-113590621D01*
X71002757Y-113410722D01*
X71002747Y-113410713D01*
X70809791Y-113260529D01*
X70809787Y-113260526D01*
X70594734Y-113144145D01*
X70594729Y-113144143D01*
X70363458Y-113064748D01*
X70182561Y-113034562D01*
X70122263Y-113024500D01*
X69877737Y-113024500D01*
X69829498Y-113032549D01*
X69636541Y-113064748D01*
X69405270Y-113144143D01*
X69405265Y-113144145D01*
X69190212Y-113260526D01*
X69190208Y-113260529D01*
X68997252Y-113410713D01*
X68997242Y-113410722D01*
X68831632Y-113590621D01*
X68697888Y-113795333D01*
X68599663Y-114019265D01*
X68539636Y-114256304D01*
X68539634Y-114256316D01*
X68519443Y-114499994D01*
X68519443Y-114500005D01*
X68539634Y-114743683D01*
X68539636Y-114743695D01*
X68599663Y-114980734D01*
X68697888Y-115204666D01*
X68831632Y-115409378D01*
X68997242Y-115589277D01*
X68997246Y-115589281D01*
X69190212Y-115739473D01*
X69405267Y-115855855D01*
X69405270Y-115855856D01*
X69636541Y-115935251D01*
X69636543Y-115935251D01*
X69636545Y-115935252D01*
X69877737Y-115975500D01*
X69877738Y-115975500D01*
X70122262Y-115975500D01*
X70122263Y-115975500D01*
X70363455Y-115935252D01*
X70455928Y-115903505D01*
X70525725Y-115900356D01*
X70583870Y-115933105D01*
X75281284Y-120630520D01*
X75281286Y-120630521D01*
X75281290Y-120630524D01*
X75373641Y-120683842D01*
X75418216Y-120709577D01*
X75570943Y-120750501D01*
X75570945Y-120750501D01*
X75736654Y-120750501D01*
X75736670Y-120750500D01*
X89809445Y-120750500D01*
X89876484Y-120770185D01*
X89919930Y-120818205D01*
X89963393Y-120903506D01*
X89977715Y-120931613D01*
X90098028Y-121097213D01*
X90242786Y-121241971D01*
X90397749Y-121354556D01*
X90408390Y-121362287D01*
X90499840Y-121408883D01*
X90501080Y-121409515D01*
X90551876Y-121457490D01*
X90568671Y-121525311D01*
X90546134Y-121591446D01*
X90501080Y-121630485D01*
X90408386Y-121677715D01*
X90242786Y-121798028D01*
X90098028Y-121942786D01*
X89977715Y-122108386D01*
X89884781Y-122290776D01*
X89821522Y-122485465D01*
X89789500Y-122687648D01*
X89789500Y-122892351D01*
X89821522Y-123094534D01*
X89884781Y-123289223D01*
X89977715Y-123471613D01*
X90098028Y-123637213D01*
X90242786Y-123781971D01*
X90397749Y-123894556D01*
X90408390Y-123902287D01*
X90499840Y-123948883D01*
X90501080Y-123949515D01*
X90551876Y-123997490D01*
X90568671Y-124065311D01*
X90546134Y-124131446D01*
X90501080Y-124170485D01*
X90408386Y-124217715D01*
X90242786Y-124338028D01*
X90098028Y-124482786D01*
X89977715Y-124648386D01*
X89884781Y-124830776D01*
X89821522Y-125025465D01*
X89789500Y-125227648D01*
X89789500Y-125432351D01*
X89821522Y-125634534D01*
X89884781Y-125829223D01*
X89977715Y-126011613D01*
X90098028Y-126177213D01*
X90242786Y-126321971D01*
X90397749Y-126434556D01*
X90408390Y-126442287D01*
X90499840Y-126488883D01*
X90501080Y-126489515D01*
X90551876Y-126537490D01*
X90568671Y-126605311D01*
X90546134Y-126671446D01*
X90501080Y-126710485D01*
X90408386Y-126757715D01*
X90242786Y-126878028D01*
X90098028Y-127022786D01*
X89977715Y-127188386D01*
X89884781Y-127370776D01*
X89821522Y-127565465D01*
X89789500Y-127767648D01*
X89789500Y-127972351D01*
X89821522Y-128174534D01*
X89884781Y-128369223D01*
X89977715Y-128551613D01*
X90098028Y-128717213D01*
X90242786Y-128861971D01*
X90388997Y-128968197D01*
X90408390Y-128982287D01*
X90499840Y-129028883D01*
X90501080Y-129029515D01*
X90551876Y-129077490D01*
X90568671Y-129145311D01*
X90546134Y-129211446D01*
X90501080Y-129250485D01*
X90408386Y-129297715D01*
X90242786Y-129418028D01*
X90098028Y-129562786D01*
X89977715Y-129728386D01*
X89884781Y-129910776D01*
X89821522Y-130105465D01*
X89789500Y-130307648D01*
X89789500Y-130512351D01*
X89821522Y-130714534D01*
X89884781Y-130909223D01*
X89977715Y-131091613D01*
X90098028Y-131257213D01*
X90242786Y-131401971D01*
X90397749Y-131514556D01*
X90408390Y-131522287D01*
X90472434Y-131554919D01*
X90501080Y-131569515D01*
X90551876Y-131617490D01*
X90568671Y-131685311D01*
X90546134Y-131751446D01*
X90501080Y-131790485D01*
X90408386Y-131837715D01*
X90242786Y-131958028D01*
X90098028Y-132102786D01*
X89977715Y-132268386D01*
X89884781Y-132450776D01*
X89821522Y-132645465D01*
X89789500Y-132847648D01*
X89789500Y-133052351D01*
X89821522Y-133254534D01*
X89884781Y-133449223D01*
X89977715Y-133631613D01*
X90098028Y-133797213D01*
X90242786Y-133941971D01*
X90397749Y-134054556D01*
X90408390Y-134062287D01*
X90499840Y-134108883D01*
X90501080Y-134109515D01*
X90551876Y-134157490D01*
X90568671Y-134225311D01*
X90546134Y-134291446D01*
X90501080Y-134330485D01*
X90408386Y-134377715D01*
X90242786Y-134498028D01*
X90098028Y-134642786D01*
X89977715Y-134808386D01*
X89884781Y-134990776D01*
X89821522Y-135185465D01*
X89789500Y-135387648D01*
X89789500Y-135592351D01*
X89821522Y-135794534D01*
X89884781Y-135989223D01*
X89943158Y-136103793D01*
X89972052Y-136160500D01*
X89977715Y-136171613D01*
X90098028Y-136337213D01*
X90242786Y-136481971D01*
X90397749Y-136594556D01*
X90408390Y-136602287D01*
X90524607Y-136661503D01*
X90590776Y-136695218D01*
X90590778Y-136695218D01*
X90590781Y-136695220D01*
X90695137Y-136729127D01*
X90785465Y-136758477D01*
X90886557Y-136774488D01*
X90987648Y-136790500D01*
X90987649Y-136790500D01*
X91592351Y-136790500D01*
X91592352Y-136790500D01*
X91794534Y-136758477D01*
X91989219Y-136695220D01*
X92171610Y-136602287D01*
X92264590Y-136534732D01*
X92337213Y-136481971D01*
X92337215Y-136481968D01*
X92337219Y-136481966D01*
X92481966Y-136337219D01*
X92481968Y-136337215D01*
X92481971Y-136337213D01*
X92540754Y-136256304D01*
X92602287Y-136171610D01*
X92695220Y-135989219D01*
X92758477Y-135794534D01*
X92790500Y-135592352D01*
X92790500Y-135484097D01*
X92810185Y-135417058D01*
X92862989Y-135371303D01*
X92932147Y-135361359D01*
X92995703Y-135390384D01*
X93002181Y-135396416D01*
X108113181Y-150507416D01*
X108146666Y-150568739D01*
X108149500Y-150595097D01*
X108149500Y-153513288D01*
X108129815Y-153580327D01*
X108077011Y-153626082D01*
X108007853Y-153636026D01*
X107944297Y-153607001D01*
X107906523Y-153548223D01*
X107903883Y-153537480D01*
X107894738Y-153491508D01*
X107894737Y-153491507D01*
X107894737Y-153491503D01*
X107838414Y-153355526D01*
X107834397Y-153345827D01*
X107834390Y-153345814D01*
X107746790Y-153214712D01*
X107699297Y-153167219D01*
X107635289Y-153103211D01*
X106616323Y-152084245D01*
X106582838Y-152022922D01*
X106583431Y-151967615D01*
X106610452Y-151855070D01*
X106630526Y-151600000D01*
X106610452Y-151344930D01*
X106550722Y-151096140D01*
X106504586Y-150984757D01*
X106452811Y-150859760D01*
X106452809Y-150859757D01*
X106365081Y-150716598D01*
X106319123Y-150641601D01*
X106319122Y-150641600D01*
X106319121Y-150641598D01*
X106204518Y-150507416D01*
X106152956Y-150447044D01*
X106046211Y-150355875D01*
X105958401Y-150280878D01*
X105958396Y-150280875D01*
X105740242Y-150147190D01*
X105740239Y-150147188D01*
X105503864Y-150049279D01*
X105483850Y-150044474D01*
X105255070Y-149989548D01*
X105255067Y-149989547D01*
X105255064Y-149989547D01*
X105000000Y-149969474D01*
X104744935Y-149989547D01*
X104744931Y-149989547D01*
X104744930Y-149989548D01*
X104620535Y-150019413D01*
X104496135Y-150049279D01*
X104259760Y-150147188D01*
X104259757Y-150147190D01*
X104041603Y-150280875D01*
X104041598Y-150280878D01*
X103847044Y-150447044D01*
X103680878Y-150641598D01*
X103680875Y-150641603D01*
X103547190Y-150859757D01*
X103547188Y-150859760D01*
X103449279Y-151096135D01*
X103389547Y-151344935D01*
X103369474Y-151600000D01*
X103389547Y-151855064D01*
X103449279Y-152103864D01*
X103547188Y-152340239D01*
X103547190Y-152340242D01*
X103680875Y-152558396D01*
X103680878Y-152558401D01*
X103744930Y-152633396D01*
X103847044Y-152752956D01*
X103967522Y-152855854D01*
X104041598Y-152919121D01*
X104041600Y-152919122D01*
X104041601Y-152919123D01*
X104245579Y-153044121D01*
X104259757Y-153052809D01*
X104259760Y-153052811D01*
X104496135Y-153150720D01*
X104496140Y-153150722D01*
X104744930Y-153210452D01*
X105000000Y-153230526D01*
X105255070Y-153210452D01*
X105367615Y-153183431D01*
X105437397Y-153186920D01*
X105484245Y-153216323D01*
X106288181Y-154020259D01*
X106321666Y-154081582D01*
X106324500Y-154107940D01*
X106324500Y-162524579D01*
X106304815Y-162591618D01*
X106252011Y-162637373D01*
X106182853Y-162647317D01*
X106119969Y-162618869D01*
X105958408Y-162480883D01*
X105958396Y-162480875D01*
X105740242Y-162347190D01*
X105740239Y-162347188D01*
X105503864Y-162249279D01*
X105483850Y-162244474D01*
X105255070Y-162189548D01*
X105255067Y-162189547D01*
X105255064Y-162189547D01*
X105000000Y-162169474D01*
X104744935Y-162189547D01*
X104744931Y-162189547D01*
X104744930Y-162189548D01*
X104620535Y-162219413D01*
X104496135Y-162249279D01*
X104259760Y-162347188D01*
X104259757Y-162347190D01*
X104041603Y-162480875D01*
X104041598Y-162480878D01*
X103847044Y-162647044D01*
X103680878Y-162841598D01*
X103680875Y-162841603D01*
X103547190Y-163059757D01*
X103547188Y-163059760D01*
X103449279Y-163296135D01*
X103449279Y-163296137D01*
X103448489Y-163299428D01*
X103447846Y-163300546D01*
X103447773Y-163300773D01*
X103447725Y-163300757D01*
X103413696Y-163360018D01*
X103351668Y-163392180D01*
X103282100Y-163385701D01*
X103240235Y-163358157D01*
X72336819Y-132454741D01*
X72303334Y-132393418D01*
X72300500Y-132367060D01*
X72300500Y-125921156D01*
X72300499Y-125921154D01*
X72287511Y-125855855D01*
X72269739Y-125766508D01*
X72269737Y-125766503D01*
X72221687Y-125650500D01*
X72221687Y-125650499D01*
X72209397Y-125620828D01*
X72209396Y-125620827D01*
X72209394Y-125620821D01*
X72121789Y-125489711D01*
X72010289Y-125378211D01*
X71493090Y-124861012D01*
X71459605Y-124799689D01*
X71460469Y-124748902D01*
X71459520Y-124748744D01*
X71460359Y-124743709D01*
X71460364Y-124743692D01*
X71480557Y-124500000D01*
X71479130Y-124482781D01*
X71460365Y-124256316D01*
X71460363Y-124256304D01*
X71450590Y-124217713D01*
X71400336Y-124019264D01*
X71302111Y-123795333D01*
X71168368Y-123590623D01*
X71168367Y-123590621D01*
X71002757Y-123410722D01*
X71002747Y-123410713D01*
X70809791Y-123260529D01*
X70809787Y-123260526D01*
X70594734Y-123144145D01*
X70594729Y-123144143D01*
X70363458Y-123064748D01*
X70182561Y-123034562D01*
X70122263Y-123024500D01*
X69877737Y-123024500D01*
X69829498Y-123032549D01*
X69636541Y-123064748D01*
X69405270Y-123144143D01*
X69405260Y-123144148D01*
X69308517Y-123196503D01*
X69240189Y-123211098D01*
X69174817Y-123186435D01*
X69133156Y-123130345D01*
X69125500Y-123087448D01*
X69125500Y-121275096D01*
X69145185Y-121208057D01*
X69161815Y-121187419D01*
X69416129Y-120933104D01*
X69477450Y-120899621D01*
X69544071Y-120903506D01*
X69636541Y-120935251D01*
X69636543Y-120935251D01*
X69636545Y-120935252D01*
X69877737Y-120975500D01*
X69877738Y-120975500D01*
X70122262Y-120975500D01*
X70122263Y-120975500D01*
X70363455Y-120935252D01*
X70594733Y-120855855D01*
X70809788Y-120739473D01*
X71002754Y-120589281D01*
X71168368Y-120409377D01*
X71302111Y-120204667D01*
X71400336Y-119980736D01*
X71460364Y-119743692D01*
X71474890Y-119568390D01*
X71480557Y-119500005D01*
X71480557Y-119499994D01*
X71460365Y-119256316D01*
X71460363Y-119256304D01*
X71448764Y-119210500D01*
X71400336Y-119019264D01*
X71302111Y-118795333D01*
X71223322Y-118674737D01*
X71168367Y-118590621D01*
X71002757Y-118410722D01*
X71002747Y-118410713D01*
X70809791Y-118260529D01*
X70809787Y-118260526D01*
X70594734Y-118144145D01*
X70594729Y-118144143D01*
X70363458Y-118064748D01*
X70182561Y-118034562D01*
X70122263Y-118024500D01*
X69877737Y-118024500D01*
X69829498Y-118032549D01*
X69636541Y-118064748D01*
X69405270Y-118144143D01*
X69405265Y-118144145D01*
X69190212Y-118260526D01*
X69190208Y-118260529D01*
X68997252Y-118410713D01*
X68997242Y-118410722D01*
X68831632Y-118590621D01*
X68697888Y-118795333D01*
X68599663Y-119019265D01*
X68539636Y-119256304D01*
X68539634Y-119256316D01*
X68519443Y-119499994D01*
X68519443Y-119500005D01*
X68539634Y-119743683D01*
X68539636Y-119743695D01*
X68596586Y-119968581D01*
X68593961Y-120038401D01*
X68564061Y-120086702D01*
X68156286Y-120494478D01*
X68044481Y-120606282D01*
X68044477Y-120606287D01*
X67999702Y-120683842D01*
X67965423Y-120743215D01*
X67924499Y-120895943D01*
X67924499Y-120895945D01*
X67924499Y-121064046D01*
X67924500Y-121064059D01*
X67924500Y-139688330D01*
X67924499Y-139688348D01*
X67924499Y-139854054D01*
X67924498Y-139854054D01*
X67924499Y-139854057D01*
X67965423Y-140006785D01*
X67975651Y-140024500D01*
X68044477Y-140143712D01*
X68044481Y-140143717D01*
X68163349Y-140262585D01*
X68163355Y-140262590D01*
X68814061Y-140913296D01*
X68847546Y-140974619D01*
X68846586Y-141031417D01*
X68789636Y-141256304D01*
X68789634Y-141256316D01*
X68769443Y-141499994D01*
X68769443Y-141500005D01*
X68789634Y-141743683D01*
X68789636Y-141743695D01*
X68849663Y-141980734D01*
X68947888Y-142204666D01*
X69081632Y-142409378D01*
X69247242Y-142589277D01*
X69247246Y-142589281D01*
X69440212Y-142739473D01*
X69655267Y-142855855D01*
X69655270Y-142855856D01*
X69886541Y-142935251D01*
X69886543Y-142935251D01*
X69886545Y-142935252D01*
X70127737Y-142975500D01*
X70127738Y-142975500D01*
X70372262Y-142975500D01*
X70372263Y-142975500D01*
X70613455Y-142935252D01*
X70844733Y-142855855D01*
X71059788Y-142739473D01*
X71252754Y-142589281D01*
X71418368Y-142409377D01*
X71552111Y-142204667D01*
X71650336Y-141980736D01*
X71710364Y-141743692D01*
X71722318Y-141599429D01*
X71730557Y-141500005D01*
X71730557Y-141499994D01*
X71710365Y-141256316D01*
X71710363Y-141256304D01*
X71666881Y-141084598D01*
X71650336Y-141019264D01*
X71552111Y-140795333D01*
X71418367Y-140590621D01*
X71252757Y-140410722D01*
X71252747Y-140410713D01*
X71059791Y-140260529D01*
X71059787Y-140260526D01*
X70844734Y-140144145D01*
X70844729Y-140144143D01*
X70613458Y-140064748D01*
X70432561Y-140034562D01*
X70372263Y-140024500D01*
X70127737Y-140024500D01*
X70015800Y-140043179D01*
X69886544Y-140064748D01*
X69794069Y-140096493D01*
X69724270Y-140099641D01*
X69666127Y-140066892D01*
X69161819Y-139562584D01*
X69128334Y-139501261D01*
X69125500Y-139474903D01*
X69125500Y-137748168D01*
X69145185Y-137681129D01*
X69197989Y-137635374D01*
X69267147Y-137625430D01*
X69325661Y-137650314D01*
X69440212Y-137739473D01*
X69655267Y-137855855D01*
X69655270Y-137855856D01*
X69886541Y-137935251D01*
X69886543Y-137935251D01*
X69886545Y-137935252D01*
X70127737Y-137975500D01*
X70127738Y-137975500D01*
X70372262Y-137975500D01*
X70372263Y-137975500D01*
X70613455Y-137935252D01*
X70844733Y-137855855D01*
X71059788Y-137739473D01*
X71252754Y-137589281D01*
X71418368Y-137409377D01*
X71552111Y-137204667D01*
X71650336Y-136980736D01*
X71710364Y-136743692D01*
X71714381Y-136695218D01*
X71730557Y-136500005D01*
X71730557Y-136499994D01*
X71710365Y-136256316D01*
X71710363Y-136256304D01*
X71671743Y-136103797D01*
X71650336Y-136019264D01*
X71552111Y-135795333D01*
X71533915Y-135767482D01*
X71418367Y-135590621D01*
X71252757Y-135410722D01*
X71252747Y-135410713D01*
X71059791Y-135260529D01*
X71059787Y-135260526D01*
X70844734Y-135144145D01*
X70844729Y-135144143D01*
X70613458Y-135064748D01*
X70432561Y-135034562D01*
X70372263Y-135024500D01*
X70127737Y-135024500D01*
X70079498Y-135032549D01*
X69886541Y-135064748D01*
X69655270Y-135144143D01*
X69655265Y-135144145D01*
X69440214Y-135260525D01*
X69325662Y-135349685D01*
X69260668Y-135375327D01*
X69192128Y-135361760D01*
X69141803Y-135313292D01*
X69125500Y-135251831D01*
X69125500Y-130912551D01*
X69145185Y-130845512D01*
X69197989Y-130799757D01*
X69267147Y-130789813D01*
X69308517Y-130803496D01*
X69405267Y-130855855D01*
X69405270Y-130855856D01*
X69636541Y-130935251D01*
X69636543Y-130935251D01*
X69636545Y-130935252D01*
X69877737Y-130975500D01*
X69877738Y-130975500D01*
X70122262Y-130975500D01*
X70122263Y-130975500D01*
X70363455Y-130935252D01*
X70535239Y-130876278D01*
X70605035Y-130873129D01*
X70665457Y-130908215D01*
X70697317Y-130970397D01*
X70699500Y-130993560D01*
X70699500Y-132828846D01*
X70730261Y-132983489D01*
X70730264Y-132983501D01*
X70790602Y-133129172D01*
X70790609Y-133129185D01*
X70878210Y-133260288D01*
X70878213Y-133260292D01*
X103538181Y-165920259D01*
X103571666Y-165981582D01*
X103574500Y-166007940D01*
X103574500Y-183976944D01*
X103605261Y-184131587D01*
X103605264Y-184131599D01*
X103665602Y-184277270D01*
X103665609Y-184277283D01*
X103753210Y-184408386D01*
X103753213Y-184408390D01*
X104816609Y-185471786D01*
X104816613Y-185471789D01*
X104947716Y-185559390D01*
X104947720Y-185559392D01*
X104947723Y-185559394D01*
X105093405Y-185619738D01*
X105248055Y-185650499D01*
X105248059Y-185650500D01*
X105248060Y-185650500D01*
X111478844Y-185650500D01*
X111478845Y-185650499D01*
X111633497Y-185619737D01*
X111779179Y-185559394D01*
X111910289Y-185471789D01*
X112515755Y-184866321D01*
X112577076Y-184832838D01*
X112632379Y-184833429D01*
X112744930Y-184860452D01*
X113000000Y-184880526D01*
X113255070Y-184860452D01*
X113503860Y-184800722D01*
X113622051Y-184751765D01*
X113740239Y-184702811D01*
X113740240Y-184702810D01*
X113740243Y-184702809D01*
X113958399Y-184569123D01*
X114152956Y-184402956D01*
X114319123Y-184208399D01*
X114452809Y-183990243D01*
X114458320Y-183976940D01*
X114550720Y-183753864D01*
X114550722Y-183753860D01*
X114610452Y-183505070D01*
X114630526Y-183250000D01*
X114610452Y-182994930D01*
X114550722Y-182746140D01*
X114540365Y-182721135D01*
X114452811Y-182509760D01*
X114452809Y-182509757D01*
X114434071Y-182479179D01*
X114319123Y-182291601D01*
X114319122Y-182291600D01*
X114319121Y-182291598D01*
X114244173Y-182203846D01*
X114152956Y-182097044D01*
X114046591Y-182006200D01*
X113958401Y-181930878D01*
X113958396Y-181930875D01*
X113740242Y-181797190D01*
X113740239Y-181797188D01*
X113503864Y-181699279D01*
X113503860Y-181699278D01*
X113255070Y-181639548D01*
X113255067Y-181639547D01*
X113255064Y-181639547D01*
X113000000Y-181619474D01*
X112744935Y-181639547D01*
X112744931Y-181639547D01*
X112744930Y-181639548D01*
X112632385Y-181666568D01*
X112496135Y-181699279D01*
X112259760Y-181797188D01*
X112259757Y-181797190D01*
X112041603Y-181930875D01*
X112041598Y-181930878D01*
X111847044Y-182097044D01*
X111680878Y-182291598D01*
X111680875Y-182291603D01*
X111547190Y-182509757D01*
X111547188Y-182509760D01*
X111449279Y-182746135D01*
X111389547Y-182994935D01*
X111369474Y-183250000D01*
X111389547Y-183505066D01*
X111416568Y-183617617D01*
X111413077Y-183687400D01*
X111383675Y-183734245D01*
X111104739Y-184013182D01*
X111043419Y-184046666D01*
X111017060Y-184049500D01*
X107603488Y-184049500D01*
X107536449Y-184029815D01*
X107490694Y-183977011D01*
X107480750Y-183907853D01*
X107488927Y-183878048D01*
X107540365Y-183753864D01*
X107550722Y-183728860D01*
X107610452Y-183480070D01*
X107630526Y-183225000D01*
X107610452Y-182969930D01*
X107583430Y-182857379D01*
X107586920Y-182787600D01*
X107616321Y-182740755D01*
X107746789Y-182610289D01*
X107755977Y-182596538D01*
X107773980Y-182569596D01*
X107773980Y-182569595D01*
X107834390Y-182479185D01*
X107834390Y-182479184D01*
X107834394Y-182479179D01*
X107894737Y-182333497D01*
X107920527Y-182203844D01*
X107925500Y-182178845D01*
X107925500Y-169856940D01*
X107945185Y-169789901D01*
X107997989Y-169744146D01*
X108067147Y-169734202D01*
X108130703Y-169763227D01*
X108137181Y-169769259D01*
X108247738Y-169879816D01*
X108400478Y-169975789D01*
X108484284Y-170005114D01*
X108570745Y-170035368D01*
X108570750Y-170035369D01*
X108749996Y-170055565D01*
X108750000Y-170055565D01*
X108750004Y-170055565D01*
X108929249Y-170035369D01*
X108929252Y-170035368D01*
X108929255Y-170035368D01*
X109099522Y-169975789D01*
X109252262Y-169879816D01*
X109303741Y-169828336D01*
X109365062Y-169794852D01*
X109434754Y-169799836D01*
X109479102Y-169828337D01*
X111863181Y-172212416D01*
X111896666Y-172273739D01*
X111899500Y-172300097D01*
X111899500Y-173667587D01*
X111879815Y-173734626D01*
X111872450Y-173744896D01*
X111870186Y-173747734D01*
X111774211Y-173900476D01*
X111714631Y-174070745D01*
X111714630Y-174070750D01*
X111694435Y-174249996D01*
X111694435Y-174250003D01*
X111714630Y-174429249D01*
X111714631Y-174429254D01*
X111774211Y-174599523D01*
X111870184Y-174752262D01*
X111997738Y-174879816D01*
X112150478Y-174975789D01*
X112320745Y-175035368D01*
X112320750Y-175035369D01*
X112499996Y-175055565D01*
X112500000Y-175055565D01*
X112500004Y-175055565D01*
X112679249Y-175035369D01*
X112679252Y-175035368D01*
X112679255Y-175035368D01*
X112849522Y-174975789D01*
X113002262Y-174879816D01*
X113129816Y-174752262D01*
X113225789Y-174599522D01*
X113285368Y-174429255D01*
X113305565Y-174250000D01*
X113285368Y-174070745D01*
X113225789Y-173900478D01*
X113129816Y-173747738D01*
X113129814Y-173747736D01*
X113129813Y-173747734D01*
X113127550Y-173744896D01*
X113126659Y-173742715D01*
X113126111Y-173741842D01*
X113126264Y-173741745D01*
X113101144Y-173680209D01*
X113100500Y-173667587D01*
X113100500Y-172089059D01*
X113100501Y-172089046D01*
X113100501Y-171920945D01*
X113100501Y-171920943D01*
X113059577Y-171768215D01*
X113030639Y-171718095D01*
X112980520Y-171631284D01*
X112868716Y-171519480D01*
X112868715Y-171519479D01*
X112864385Y-171515149D01*
X112864374Y-171515139D01*
X109713819Y-168364584D01*
X109680334Y-168303261D01*
X109677500Y-168276903D01*
X109677500Y-165875000D01*
X116869474Y-165875000D01*
X116889547Y-166130064D01*
X116949279Y-166378864D01*
X117047188Y-166615239D01*
X117047190Y-166615242D01*
X117180875Y-166833396D01*
X117180878Y-166833401D01*
X117256200Y-166921591D01*
X117347044Y-167027956D01*
X117405587Y-167077956D01*
X117541598Y-167194121D01*
X117541603Y-167194124D01*
X117759757Y-167327809D01*
X117759760Y-167327811D01*
X117958973Y-167410327D01*
X117996140Y-167425722D01*
X118244930Y-167485452D01*
X118500000Y-167505526D01*
X118755070Y-167485452D01*
X119003860Y-167425722D01*
X119171192Y-167356411D01*
X119240239Y-167327811D01*
X119240240Y-167327810D01*
X119240243Y-167327809D01*
X119458399Y-167194123D01*
X119652956Y-167027956D01*
X119819123Y-166833399D01*
X119952809Y-166615243D01*
X119983876Y-166540242D01*
X120010557Y-166475826D01*
X120050722Y-166378860D01*
X120110452Y-166130070D01*
X120130526Y-165875000D01*
X120110452Y-165619930D01*
X120050722Y-165371140D01*
X120032774Y-165327809D01*
X119952811Y-165134760D01*
X119952809Y-165134757D01*
X119819124Y-164916603D01*
X119819121Y-164916598D01*
X119755067Y-164841601D01*
X119652956Y-164722044D01*
X119527903Y-164615239D01*
X119458401Y-164555878D01*
X119458396Y-164555875D01*
X119240242Y-164422190D01*
X119240239Y-164422188D01*
X119003864Y-164324279D01*
X118963328Y-164314547D01*
X118755070Y-164264548D01*
X118755067Y-164264547D01*
X118755064Y-164264547D01*
X118500000Y-164244474D01*
X118244935Y-164264547D01*
X118244931Y-164264547D01*
X118244930Y-164264548D01*
X118154103Y-164286354D01*
X117996135Y-164324279D01*
X117759760Y-164422188D01*
X117759757Y-164422190D01*
X117541603Y-164555875D01*
X117541598Y-164555878D01*
X117347044Y-164722044D01*
X117180878Y-164916598D01*
X117180875Y-164916603D01*
X117047190Y-165134757D01*
X117047188Y-165134760D01*
X116949279Y-165371135D01*
X116936174Y-165425720D01*
X116905011Y-165555525D01*
X116889547Y-165619935D01*
X116869474Y-165875000D01*
X109677500Y-165875000D01*
X109677500Y-163875000D01*
X110869474Y-163875000D01*
X110889547Y-164130064D01*
X110889547Y-164130067D01*
X110889548Y-164130070D01*
X110931272Y-164303860D01*
X110949279Y-164378864D01*
X111047188Y-164615239D01*
X111047190Y-164615242D01*
X111180875Y-164833396D01*
X111180878Y-164833401D01*
X111251935Y-164916598D01*
X111347044Y-165027956D01*
X111405587Y-165077956D01*
X111541598Y-165194121D01*
X111541600Y-165194122D01*
X111541601Y-165194123D01*
X111708070Y-165296135D01*
X111759757Y-165327809D01*
X111759760Y-165327811D01*
X111959275Y-165410452D01*
X111996140Y-165425722D01*
X112244930Y-165485452D01*
X112500000Y-165505526D01*
X112755070Y-165485452D01*
X113003860Y-165425722D01*
X113171081Y-165356457D01*
X113240239Y-165327811D01*
X113240240Y-165327810D01*
X113240243Y-165327809D01*
X113458399Y-165194123D01*
X113652956Y-165027956D01*
X113819123Y-164833399D01*
X113952809Y-164615243D01*
X113956372Y-164606643D01*
X114008466Y-164480875D01*
X114050722Y-164378860D01*
X114110452Y-164130070D01*
X114130526Y-163875000D01*
X114110452Y-163619930D01*
X114050722Y-163371140D01*
X114021575Y-163300773D01*
X113952811Y-163134760D01*
X113952809Y-163134757D01*
X113819124Y-162916603D01*
X113819121Y-162916598D01*
X113755067Y-162841601D01*
X113652956Y-162722044D01*
X113516942Y-162605877D01*
X113458401Y-162555878D01*
X113458396Y-162555875D01*
X113240242Y-162422190D01*
X113240239Y-162422188D01*
X113003864Y-162324279D01*
X112963328Y-162314547D01*
X112755070Y-162264548D01*
X112755067Y-162264547D01*
X112755064Y-162264547D01*
X112500000Y-162244474D01*
X112244935Y-162264547D01*
X112244931Y-162264547D01*
X112244930Y-162264548D01*
X112120535Y-162294413D01*
X111996135Y-162324279D01*
X111759760Y-162422188D01*
X111759757Y-162422190D01*
X111541603Y-162555875D01*
X111541598Y-162555878D01*
X111347044Y-162722044D01*
X111180878Y-162916598D01*
X111180875Y-162916603D01*
X111047190Y-163134757D01*
X111047188Y-163134760D01*
X110949279Y-163371135D01*
X110889547Y-163619935D01*
X110869474Y-163875000D01*
X109677500Y-163875000D01*
X109677500Y-148002945D01*
X109677500Y-148002943D01*
X109636577Y-147850216D01*
X109636573Y-147850209D01*
X109557524Y-147713290D01*
X109557521Y-147713286D01*
X109557520Y-147713284D01*
X109445716Y-147601480D01*
X109445715Y-147601479D01*
X109441385Y-147597149D01*
X109441374Y-147597139D01*
X92763232Y-130918997D01*
X92729747Y-130857674D01*
X92732982Y-130792998D01*
X92734017Y-130789813D01*
X92758477Y-130714534D01*
X92790500Y-130512352D01*
X92790500Y-130307648D01*
X92758477Y-130105466D01*
X92695220Y-129910781D01*
X92695218Y-129910778D01*
X92695218Y-129910776D01*
X92661503Y-129844607D01*
X92602287Y-129728390D01*
X92594556Y-129717749D01*
X92481971Y-129562786D01*
X92337213Y-129418028D01*
X92171614Y-129297715D01*
X92165006Y-129294348D01*
X92078917Y-129250483D01*
X92028123Y-129202511D01*
X92011328Y-129134690D01*
X92033865Y-129068555D01*
X92078917Y-129029516D01*
X92171610Y-128982287D01*
X92208395Y-128955560D01*
X92274200Y-128932080D01*
X92342254Y-128947904D01*
X92368962Y-128968197D01*
X124419298Y-161018534D01*
X124452783Y-161079857D01*
X124454837Y-161092331D01*
X124464630Y-161179249D01*
X124524210Y-161349521D01*
X124524211Y-161349522D01*
X124620184Y-161502262D01*
X124747738Y-161629816D01*
X124900478Y-161725789D01*
X125070745Y-161785368D01*
X125070750Y-161785369D01*
X125214383Y-161801552D01*
X125278797Y-161828618D01*
X125318352Y-161886213D01*
X125324500Y-161924772D01*
X125324500Y-162271512D01*
X125304815Y-162338551D01*
X125252011Y-162384306D01*
X125182853Y-162394250D01*
X125153048Y-162386073D01*
X125003864Y-162324279D01*
X124963328Y-162314547D01*
X124755070Y-162264548D01*
X124755067Y-162264547D01*
X124755064Y-162264547D01*
X124500000Y-162244474D01*
X124244935Y-162264547D01*
X124244931Y-162264547D01*
X124244930Y-162264548D01*
X124120535Y-162294413D01*
X123996135Y-162324279D01*
X123759760Y-162422188D01*
X123759757Y-162422190D01*
X123541603Y-162555875D01*
X123541598Y-162555878D01*
X123347044Y-162722044D01*
X123180878Y-162916598D01*
X123180875Y-162916603D01*
X123047190Y-163134757D01*
X123047188Y-163134760D01*
X122949279Y-163371135D01*
X122889547Y-163619935D01*
X122869474Y-163875000D01*
X122889547Y-164130064D01*
X122889547Y-164130067D01*
X122889548Y-164130070D01*
X122931272Y-164303860D01*
X122949279Y-164378864D01*
X123047188Y-164615239D01*
X123047190Y-164615242D01*
X123180875Y-164833396D01*
X123180878Y-164833401D01*
X123251935Y-164916598D01*
X123347044Y-165027956D01*
X123405587Y-165077956D01*
X123541598Y-165194121D01*
X123541600Y-165194122D01*
X123541601Y-165194123D01*
X123708070Y-165296135D01*
X123759757Y-165327809D01*
X123759760Y-165327811D01*
X123959275Y-165410452D01*
X123996140Y-165425722D01*
X124244930Y-165485452D01*
X124500000Y-165505526D01*
X124755070Y-165485452D01*
X125003860Y-165425722D01*
X125153049Y-165363925D01*
X125222516Y-165356457D01*
X125284996Y-165387732D01*
X125320648Y-165447821D01*
X125324500Y-165478487D01*
X125324500Y-181510869D01*
X125304815Y-181577908D01*
X125252011Y-181623663D01*
X125190772Y-181634487D01*
X125000000Y-181619474D01*
X124744935Y-181639547D01*
X124744931Y-181639547D01*
X124744930Y-181639548D01*
X124632385Y-181666568D01*
X124496135Y-181699279D01*
X124259760Y-181797188D01*
X124259757Y-181797190D01*
X124041603Y-181930875D01*
X124041598Y-181930878D01*
X123847044Y-182097044D01*
X123680878Y-182291598D01*
X123680875Y-182291603D01*
X123547190Y-182509757D01*
X123547188Y-182509760D01*
X123449279Y-182746135D01*
X123389547Y-182994935D01*
X123369474Y-183250000D01*
X123389547Y-183505064D01*
X123449279Y-183753864D01*
X123547188Y-183990239D01*
X123547190Y-183990242D01*
X123680875Y-184208396D01*
X123680878Y-184208401D01*
X123739698Y-184277270D01*
X123847044Y-184402956D01*
X123971579Y-184509319D01*
X124041598Y-184569121D01*
X124041603Y-184569124D01*
X124259757Y-184702809D01*
X124259760Y-184702811D01*
X124496135Y-184800720D01*
X124496140Y-184800722D01*
X124744930Y-184860452D01*
X125000000Y-184880526D01*
X125255070Y-184860452D01*
X125503860Y-184800722D01*
X125622051Y-184751765D01*
X125740239Y-184702811D01*
X125740240Y-184702810D01*
X125740243Y-184702809D01*
X125958399Y-184569123D01*
X126152956Y-184402956D01*
X126319123Y-184208399D01*
X126452809Y-183990243D01*
X126458320Y-183976940D01*
X126550720Y-183753864D01*
X126550722Y-183753860D01*
X126610452Y-183505070D01*
X126630526Y-183250000D01*
X126610452Y-182994930D01*
X126583430Y-182882379D01*
X126586920Y-182812600D01*
X126616321Y-182765755D01*
X126746789Y-182635289D01*
X126790684Y-182569596D01*
X126810054Y-182540607D01*
X126810054Y-182540606D01*
X126834394Y-182504179D01*
X126894737Y-182358497D01*
X126925500Y-182203842D01*
X126925500Y-163925000D01*
X130369474Y-163925000D01*
X130389547Y-164180064D01*
X130389547Y-164180067D01*
X130389548Y-164180070D01*
X130419268Y-164303860D01*
X130449279Y-164428864D01*
X130547188Y-164665239D01*
X130547190Y-164665242D01*
X130680875Y-164883396D01*
X130680878Y-164883401D01*
X130739945Y-164952559D01*
X130847044Y-165077956D01*
X130971579Y-165184319D01*
X131041598Y-165244121D01*
X131041600Y-165244122D01*
X131041601Y-165244123D01*
X131178164Y-165327809D01*
X131259757Y-165377809D01*
X131259760Y-165377811D01*
X131496135Y-165475720D01*
X131496140Y-165475722D01*
X131744930Y-165535452D01*
X132000000Y-165555526D01*
X132255070Y-165535452D01*
X132503860Y-165475722D01*
X132716287Y-165387732D01*
X132740239Y-165377811D01*
X132740240Y-165377810D01*
X132740243Y-165377809D01*
X132958399Y-165244123D01*
X133152956Y-165077956D01*
X133319123Y-164883399D01*
X133452809Y-164665243D01*
X133460348Y-164647044D01*
X133504587Y-164540239D01*
X133550722Y-164428860D01*
X133610452Y-164180070D01*
X133630526Y-163925000D01*
X133610452Y-163669930D01*
X133550722Y-163421140D01*
X133545482Y-163408489D01*
X133452811Y-163184760D01*
X133452809Y-163184757D01*
X133319124Y-162966603D01*
X133319121Y-162966598D01*
X133227308Y-162859099D01*
X133152956Y-162772044D01*
X133006919Y-162647317D01*
X132958401Y-162605878D01*
X132958396Y-162605875D01*
X132740242Y-162472190D01*
X132740239Y-162472188D01*
X132503864Y-162374279D01*
X132503860Y-162374278D01*
X132255070Y-162314548D01*
X132255067Y-162314547D01*
X132255064Y-162314547D01*
X132000000Y-162294474D01*
X131744935Y-162314547D01*
X131744931Y-162314547D01*
X131744930Y-162314548D01*
X131644952Y-162338551D01*
X131496135Y-162374279D01*
X131259760Y-162472188D01*
X131259757Y-162472190D01*
X131041603Y-162605875D01*
X131041598Y-162605878D01*
X130847044Y-162772044D01*
X130680878Y-162966598D01*
X130680875Y-162966603D01*
X130547190Y-163184757D01*
X130547188Y-163184760D01*
X130449279Y-163421135D01*
X130389547Y-163669935D01*
X130369474Y-163925000D01*
X126925500Y-163925000D01*
X126925500Y-153221158D01*
X126925500Y-153221155D01*
X126925499Y-153221153D01*
X126918690Y-153186920D01*
X126894737Y-153066503D01*
X126889065Y-153052809D01*
X126834397Y-152920827D01*
X126834390Y-152920814D01*
X126746790Y-152789712D01*
X126696548Y-152739470D01*
X126635289Y-152678211D01*
X126116323Y-152159245D01*
X126082838Y-152097922D01*
X126083431Y-152042615D01*
X126110452Y-151930070D01*
X126130526Y-151675000D01*
X126110452Y-151419930D01*
X126050722Y-151171140D01*
X126019654Y-151096135D01*
X125952811Y-150934760D01*
X125952809Y-150934757D01*
X125849761Y-150766598D01*
X125819123Y-150716601D01*
X125819122Y-150716600D01*
X125819121Y-150716598D01*
X125755067Y-150641601D01*
X125652956Y-150522044D01*
X125546591Y-150431200D01*
X125458401Y-150355878D01*
X125458396Y-150355875D01*
X125240242Y-150222190D01*
X125240239Y-150222188D01*
X125003864Y-150124279D01*
X124978906Y-150118287D01*
X124755070Y-150064548D01*
X124755067Y-150064547D01*
X124755064Y-150064547D01*
X124500000Y-150044474D01*
X124244935Y-150064547D01*
X124244931Y-150064547D01*
X124244930Y-150064548D01*
X124167240Y-150083200D01*
X123996135Y-150124279D01*
X123759760Y-150222188D01*
X123759757Y-150222190D01*
X123541603Y-150355875D01*
X123541598Y-150355878D01*
X123347044Y-150522044D01*
X123180878Y-150716598D01*
X123180875Y-150716603D01*
X123047190Y-150934757D01*
X123047188Y-150934760D01*
X122949279Y-151171135D01*
X122889547Y-151419935D01*
X122869474Y-151675000D01*
X122889547Y-151930064D01*
X122949279Y-152178864D01*
X123047188Y-152415239D01*
X123047190Y-152415242D01*
X123180875Y-152633396D01*
X123180878Y-152633401D01*
X123256200Y-152721591D01*
X123347044Y-152827956D01*
X123453785Y-152919121D01*
X123541598Y-152994121D01*
X123541600Y-152994122D01*
X123541601Y-152994123D01*
X123659715Y-153066503D01*
X123759757Y-153127809D01*
X123759760Y-153127811D01*
X123996135Y-153225720D01*
X123996140Y-153225722D01*
X124244930Y-153285452D01*
X124500000Y-153305526D01*
X124755070Y-153285452D01*
X124867615Y-153258431D01*
X124937397Y-153261920D01*
X124984245Y-153291323D01*
X125288181Y-153595259D01*
X125321666Y-153656582D01*
X125324500Y-153682940D01*
X125324500Y-159925902D01*
X125304815Y-159992941D01*
X125252011Y-160038696D01*
X125182853Y-160048640D01*
X125119297Y-160019615D01*
X125112819Y-160013583D01*
X115273514Y-150174278D01*
X105411416Y-140312181D01*
X105377932Y-140250859D01*
X105382916Y-140181167D01*
X105424788Y-140125234D01*
X105490252Y-140100817D01*
X105499098Y-140100501D01*
X105661654Y-140100501D01*
X105661670Y-140100500D01*
X119417588Y-140100500D01*
X119484627Y-140120185D01*
X119494903Y-140127555D01*
X119497736Y-140129814D01*
X119497738Y-140129816D01*
X119650478Y-140225789D01*
X119776766Y-140269979D01*
X119820745Y-140285368D01*
X119820750Y-140285369D01*
X119999996Y-140305565D01*
X120000000Y-140305565D01*
X120000004Y-140305565D01*
X120179249Y-140285369D01*
X120179252Y-140285368D01*
X120179255Y-140285368D01*
X120349522Y-140225789D01*
X120502262Y-140129816D01*
X120629816Y-140002262D01*
X120725789Y-139849522D01*
X120785368Y-139679255D01*
X120791721Y-139622870D01*
X120805565Y-139500003D01*
X120805565Y-139499996D01*
X120785369Y-139320750D01*
X120785368Y-139320745D01*
X120725788Y-139150476D01*
X120629815Y-138997737D01*
X120502262Y-138870184D01*
X120349523Y-138774211D01*
X120179254Y-138714631D01*
X120179249Y-138714630D01*
X120000004Y-138694435D01*
X119999996Y-138694435D01*
X119820750Y-138714630D01*
X119820745Y-138714631D01*
X119650476Y-138774211D01*
X119497736Y-138870185D01*
X119494903Y-138872445D01*
X119492724Y-138873334D01*
X119491842Y-138873889D01*
X119491744Y-138873734D01*
X119430217Y-138898855D01*
X119417588Y-138899500D01*
X105875098Y-138899500D01*
X105808059Y-138879815D01*
X105787417Y-138863181D01*
X92763232Y-125838997D01*
X92729747Y-125777674D01*
X92732982Y-125712998D01*
X92758477Y-125634534D01*
X92790500Y-125432352D01*
X92790500Y-125227648D01*
X92758477Y-125025465D01*
X92729127Y-124935137D01*
X92695220Y-124830781D01*
X92695218Y-124830778D01*
X92695218Y-124830776D01*
X92661503Y-124764607D01*
X92602287Y-124648390D01*
X92594556Y-124637749D01*
X92481971Y-124482786D01*
X92337213Y-124338028D01*
X92171614Y-124217715D01*
X92165006Y-124214348D01*
X92078917Y-124170483D01*
X92028123Y-124122511D01*
X92011328Y-124054690D01*
X92033865Y-123988555D01*
X92078917Y-123949516D01*
X92171610Y-123902287D01*
X92192770Y-123886913D01*
X92337213Y-123781971D01*
X92337215Y-123781968D01*
X92337219Y-123781966D01*
X92481966Y-123637219D01*
X92481968Y-123637215D01*
X92481971Y-123637213D01*
X92534732Y-123564590D01*
X92602287Y-123471610D01*
X92695220Y-123289219D01*
X92758477Y-123094534D01*
X92790500Y-122892352D01*
X92790500Y-122687648D01*
X92780214Y-122622707D01*
X92758477Y-122485465D01*
X92695218Y-122290776D01*
X92661503Y-122224607D01*
X92602287Y-122108390D01*
X92594556Y-122097749D01*
X92481971Y-121942786D01*
X92337213Y-121798028D01*
X92171614Y-121677715D01*
X92165006Y-121674348D01*
X92078917Y-121630483D01*
X92028123Y-121582511D01*
X92011328Y-121514690D01*
X92033865Y-121448555D01*
X92078917Y-121409516D01*
X92171610Y-121362287D01*
X92192770Y-121346913D01*
X92337213Y-121241971D01*
X92337215Y-121241968D01*
X92337219Y-121241966D01*
X92481966Y-121097219D01*
X92481968Y-121097215D01*
X92481971Y-121097213D01*
X92570399Y-120975500D01*
X92602287Y-120931610D01*
X92695220Y-120749219D01*
X92758477Y-120554534D01*
X92790500Y-120352352D01*
X92790500Y-120147648D01*
X92758477Y-119945466D01*
X92695220Y-119750781D01*
X92695218Y-119750778D01*
X92695218Y-119750776D01*
X92661503Y-119684607D01*
X92602287Y-119568390D01*
X92552603Y-119500005D01*
X92481971Y-119402786D01*
X92450736Y-119371551D01*
X92417251Y-119310228D01*
X92422235Y-119240536D01*
X92464107Y-119184603D01*
X92495080Y-119167689D01*
X92532331Y-119153796D01*
X92647546Y-119067546D01*
X92733796Y-118952331D01*
X92784091Y-118817483D01*
X92790500Y-118757873D01*
X92790499Y-116662128D01*
X92784091Y-116602517D01*
X92782299Y-116597713D01*
X92733797Y-116467671D01*
X92733793Y-116467664D01*
X92731688Y-116464852D01*
X92730460Y-116461560D01*
X92729546Y-116459886D01*
X92729786Y-116459754D01*
X92707271Y-116399388D01*
X92722123Y-116331115D01*
X92771528Y-116281710D01*
X92831034Y-116266542D01*
X113375550Y-116279984D01*
X113442577Y-116299712D01*
X113488297Y-116352546D01*
X113498195Y-116421711D01*
X113469129Y-116485248D01*
X113431764Y-116514469D01*
X113268386Y-116597715D01*
X113102786Y-116718028D01*
X112958028Y-116862786D01*
X112837715Y-117028386D01*
X112744781Y-117210776D01*
X112681522Y-117405465D01*
X112649500Y-117607648D01*
X112649500Y-117812351D01*
X112681522Y-118014534D01*
X112744781Y-118209223D01*
X112837715Y-118391613D01*
X112958028Y-118557213D01*
X113102786Y-118701971D01*
X113257749Y-118814556D01*
X113268390Y-118822287D01*
X113359840Y-118868883D01*
X113361080Y-118869515D01*
X113411876Y-118917490D01*
X113428671Y-118985311D01*
X113406134Y-119051446D01*
X113361080Y-119090485D01*
X113268386Y-119137715D01*
X113102786Y-119258028D01*
X112958028Y-119402786D01*
X112837715Y-119568386D01*
X112744781Y-119750776D01*
X112681522Y-119945465D01*
X112649500Y-120147648D01*
X112649500Y-120352351D01*
X112681522Y-120554534D01*
X112744781Y-120749223D01*
X112779930Y-120818205D01*
X112823393Y-120903506D01*
X112837715Y-120931613D01*
X112958028Y-121097213D01*
X113102786Y-121241971D01*
X113257749Y-121354556D01*
X113268390Y-121362287D01*
X113359840Y-121408883D01*
X113361080Y-121409515D01*
X113411876Y-121457490D01*
X113428671Y-121525311D01*
X113406134Y-121591446D01*
X113361080Y-121630485D01*
X113268386Y-121677715D01*
X113102786Y-121798028D01*
X112958028Y-121942786D01*
X112837715Y-122108386D01*
X112744781Y-122290776D01*
X112681522Y-122485465D01*
X112649500Y-122687648D01*
X112649500Y-122892351D01*
X112681522Y-123094534D01*
X112744781Y-123289223D01*
X112837715Y-123471613D01*
X112958028Y-123637213D01*
X113102786Y-123781971D01*
X113257749Y-123894556D01*
X113268390Y-123902287D01*
X113359840Y-123948883D01*
X113361080Y-123949515D01*
X113411876Y-123997490D01*
X113428671Y-124065311D01*
X113406134Y-124131446D01*
X113361080Y-124170485D01*
X113268386Y-124217715D01*
X113102786Y-124338028D01*
X112958028Y-124482786D01*
X112837715Y-124648386D01*
X112744781Y-124830776D01*
X112681522Y-125025465D01*
X112649500Y-125227648D01*
X112649500Y-125432351D01*
X112681522Y-125634534D01*
X112744781Y-125829223D01*
X112837715Y-126011613D01*
X112958028Y-126177213D01*
X113102786Y-126321971D01*
X113257749Y-126434556D01*
X113268390Y-126442287D01*
X113359840Y-126488883D01*
X113361080Y-126489515D01*
X113411876Y-126537490D01*
X113428671Y-126605311D01*
X113406134Y-126671446D01*
X113361080Y-126710485D01*
X113268386Y-126757715D01*
X113102786Y-126878028D01*
X112958028Y-127022786D01*
X112837715Y-127188386D01*
X112744781Y-127370776D01*
X112681522Y-127565465D01*
X112649500Y-127767648D01*
X112649500Y-127972351D01*
X112681522Y-128174534D01*
X112744781Y-128369223D01*
X112837715Y-128551613D01*
X112958028Y-128717213D01*
X113102786Y-128861971D01*
X113248997Y-128968197D01*
X113268390Y-128982287D01*
X113359840Y-129028883D01*
X113361080Y-129029515D01*
X113411876Y-129077490D01*
X113428671Y-129145311D01*
X113406134Y-129211446D01*
X113361080Y-129250485D01*
X113268386Y-129297715D01*
X113102786Y-129418028D01*
X112958028Y-129562786D01*
X112837715Y-129728386D01*
X112744781Y-129910776D01*
X112681522Y-130105465D01*
X112649500Y-130307648D01*
X112649500Y-130512351D01*
X112681522Y-130714534D01*
X112744781Y-130909223D01*
X112837715Y-131091613D01*
X112958028Y-131257213D01*
X113102786Y-131401971D01*
X113257749Y-131514556D01*
X113268390Y-131522287D01*
X113332434Y-131554919D01*
X113361629Y-131569795D01*
X113412425Y-131617770D01*
X113429220Y-131685591D01*
X113406682Y-131751726D01*
X113361629Y-131790765D01*
X113268650Y-131838140D01*
X113103105Y-131958417D01*
X113103104Y-131958417D01*
X112958417Y-132103104D01*
X112958417Y-132103105D01*
X112838140Y-132268650D01*
X112745244Y-132450970D01*
X112682009Y-132645586D01*
X112673391Y-132700000D01*
X113716988Y-132700000D01*
X113684075Y-132757007D01*
X113650000Y-132884174D01*
X113650000Y-133015826D01*
X113684075Y-133142993D01*
X113716988Y-133200000D01*
X112673391Y-133200000D01*
X112682009Y-133254413D01*
X112745244Y-133449029D01*
X112838140Y-133631349D01*
X112958417Y-133796894D01*
X112958417Y-133796895D01*
X113103104Y-133941582D01*
X113268652Y-134061861D01*
X113361628Y-134109234D01*
X113412425Y-134157208D01*
X113429220Y-134225029D01*
X113406683Y-134291164D01*
X113361630Y-134330203D01*
X113268388Y-134377713D01*
X113102786Y-134498028D01*
X112958028Y-134642786D01*
X112837715Y-134808386D01*
X112744781Y-134990776D01*
X112681522Y-135185465D01*
X112649500Y-135387648D01*
X112649500Y-135592351D01*
X112681522Y-135794534D01*
X112744781Y-135989223D01*
X112803158Y-136103793D01*
X112832052Y-136160500D01*
X112837715Y-136171613D01*
X112958028Y-136337213D01*
X113102786Y-136481971D01*
X113257749Y-136594556D01*
X113268390Y-136602287D01*
X113384607Y-136661503D01*
X113450776Y-136695218D01*
X113450778Y-136695218D01*
X113450781Y-136695220D01*
X113555137Y-136729127D01*
X113645465Y-136758477D01*
X113746557Y-136774488D01*
X113847648Y-136790500D01*
X113847649Y-136790500D01*
X114452351Y-136790500D01*
X114452352Y-136790500D01*
X114654534Y-136758477D01*
X114849219Y-136695220D01*
X115031610Y-136602287D01*
X115124590Y-136534732D01*
X115197213Y-136481971D01*
X115197215Y-136481968D01*
X115197219Y-136481966D01*
X115341966Y-136337219D01*
X115341968Y-136337215D01*
X115341971Y-136337213D01*
X115400754Y-136256304D01*
X115462287Y-136171610D01*
X115555220Y-135989219D01*
X115618477Y-135794534D01*
X115650500Y-135592352D01*
X115650500Y-135387648D01*
X115618477Y-135185466D01*
X115605050Y-135144143D01*
X115555218Y-134990776D01*
X115521503Y-134924607D01*
X115462287Y-134808390D01*
X115450463Y-134792116D01*
X115341971Y-134642786D01*
X115211320Y-134512135D01*
X119199500Y-134512135D01*
X119199500Y-135707870D01*
X119199501Y-135707876D01*
X119205908Y-135767483D01*
X119256202Y-135902328D01*
X119256206Y-135902335D01*
X119342452Y-136017544D01*
X119342455Y-136017547D01*
X119457664Y-136103793D01*
X119457671Y-136103797D01*
X119592517Y-136154091D01*
X119592516Y-136154091D01*
X119599444Y-136154835D01*
X119652127Y-136160500D01*
X120847872Y-136160499D01*
X120907483Y-136154091D01*
X121042331Y-136103796D01*
X121157546Y-136017546D01*
X121243796Y-135902331D01*
X121294091Y-135767483D01*
X121300500Y-135707873D01*
X121300499Y-134512128D01*
X121294091Y-134452517D01*
X121273088Y-134396206D01*
X121243797Y-134317671D01*
X121243793Y-134317664D01*
X121157547Y-134202455D01*
X121157544Y-134202452D01*
X121042335Y-134116206D01*
X121042328Y-134116202D01*
X120907482Y-134065908D01*
X120907483Y-134065908D01*
X120847883Y-134059501D01*
X120847881Y-134059500D01*
X120847873Y-134059500D01*
X120847864Y-134059500D01*
X119652129Y-134059500D01*
X119652123Y-134059501D01*
X119592516Y-134065908D01*
X119457671Y-134116202D01*
X119457664Y-134116206D01*
X119342455Y-134202452D01*
X119342452Y-134202455D01*
X119256206Y-134317664D01*
X119256202Y-134317671D01*
X119205908Y-134452517D01*
X119201015Y-134498034D01*
X119199501Y-134512123D01*
X119199500Y-134512135D01*
X115211320Y-134512135D01*
X115197213Y-134498028D01*
X115031611Y-134377713D01*
X114938369Y-134330203D01*
X114887574Y-134282229D01*
X114870779Y-134214407D01*
X114893317Y-134148273D01*
X114938371Y-134109234D01*
X115031347Y-134061861D01*
X115196894Y-133941582D01*
X115196895Y-133941582D01*
X115341582Y-133796895D01*
X115341582Y-133796894D01*
X115461859Y-133631349D01*
X115524187Y-133509023D01*
X119704528Y-133509023D01*
X119846233Y-133584766D01*
X120044165Y-133644808D01*
X120250000Y-133665080D01*
X120455834Y-133644808D01*
X120653764Y-133584766D01*
X120795470Y-133509022D01*
X120250001Y-132963553D01*
X120250000Y-132963553D01*
X119704528Y-133509023D01*
X115524187Y-133509023D01*
X115554755Y-133449029D01*
X115617990Y-133254413D01*
X115626609Y-133200000D01*
X114583012Y-133200000D01*
X114615925Y-133142993D01*
X114650000Y-133015826D01*
X114650000Y-132884174D01*
X114615925Y-132757007D01*
X114583012Y-132700000D01*
X115626609Y-132700000D01*
X115617990Y-132645586D01*
X115606427Y-132610000D01*
X119194919Y-132610000D01*
X119215191Y-132815834D01*
X119275233Y-133013766D01*
X119350975Y-133155469D01*
X119350976Y-133155469D01*
X119896447Y-132610000D01*
X119850369Y-132563922D01*
X119900000Y-132563922D01*
X119900000Y-132656078D01*
X119923852Y-132745095D01*
X119969930Y-132824905D01*
X120035095Y-132890070D01*
X120114905Y-132936148D01*
X120203922Y-132960000D01*
X120296078Y-132960000D01*
X120385095Y-132936148D01*
X120464905Y-132890070D01*
X120530070Y-132824905D01*
X120576148Y-132745095D01*
X120600000Y-132656078D01*
X120600000Y-132609999D01*
X120603553Y-132609999D01*
X120603553Y-132610000D01*
X121149022Y-133155469D01*
X121224766Y-133013764D01*
X121284808Y-132815834D01*
X121305080Y-132610000D01*
X121284808Y-132404165D01*
X121224766Y-132206233D01*
X121149023Y-132064528D01*
X120603553Y-132609999D01*
X120600000Y-132609999D01*
X120600000Y-132563922D01*
X120576148Y-132474905D01*
X120530070Y-132395095D01*
X120464905Y-132329930D01*
X120385095Y-132283852D01*
X120296078Y-132260000D01*
X120203922Y-132260000D01*
X120114905Y-132283852D01*
X120035095Y-132329930D01*
X119969930Y-132395095D01*
X119923852Y-132474905D01*
X119900000Y-132563922D01*
X119850369Y-132563922D01*
X119350976Y-132064529D01*
X119350975Y-132064529D01*
X119275234Y-132206234D01*
X119215191Y-132404166D01*
X119194919Y-132610000D01*
X115606427Y-132610000D01*
X115554755Y-132450970D01*
X115461859Y-132268650D01*
X115341582Y-132103105D01*
X115341582Y-132103104D01*
X115196895Y-131958417D01*
X115031349Y-131838140D01*
X114938370Y-131790765D01*
X114887574Y-131742790D01*
X114879695Y-131710975D01*
X119704529Y-131710975D01*
X119704529Y-131710976D01*
X120250000Y-132256447D01*
X120250001Y-132256447D01*
X120795469Y-131710976D01*
X120795469Y-131710975D01*
X120653766Y-131635233D01*
X120455834Y-131575191D01*
X120250000Y-131554919D01*
X120044166Y-131575191D01*
X119846234Y-131635234D01*
X119704529Y-131710975D01*
X114879695Y-131710975D01*
X114870779Y-131674969D01*
X114893316Y-131608835D01*
X114938370Y-131569795D01*
X114938920Y-131569515D01*
X115031610Y-131522287D01*
X115052770Y-131506913D01*
X115197213Y-131401971D01*
X115197215Y-131401968D01*
X115197219Y-131401966D01*
X115341966Y-131257219D01*
X115341968Y-131257215D01*
X115341971Y-131257213D01*
X115394732Y-131184590D01*
X115462287Y-131091610D01*
X115555220Y-130909219D01*
X115618477Y-130714534D01*
X115650500Y-130512352D01*
X115650500Y-130307648D01*
X115618477Y-130105466D01*
X115555220Y-129910781D01*
X115555218Y-129910778D01*
X115555218Y-129910776D01*
X115521503Y-129844607D01*
X115462287Y-129728390D01*
X115454556Y-129717749D01*
X115341971Y-129562786D01*
X115197213Y-129418028D01*
X115031614Y-129297715D01*
X115025006Y-129294348D01*
X114938917Y-129250483D01*
X114888123Y-129202511D01*
X114871328Y-129134690D01*
X114893865Y-129068555D01*
X114938917Y-129029516D01*
X115031610Y-128982287D01*
X115052770Y-128966913D01*
X115197213Y-128861971D01*
X115197215Y-128861968D01*
X115197219Y-128861966D01*
X115341966Y-128717219D01*
X115341968Y-128717215D01*
X115341971Y-128717213D01*
X115394732Y-128644590D01*
X115462287Y-128551610D01*
X115555220Y-128369219D01*
X115618477Y-128174534D01*
X115650500Y-127972352D01*
X115650500Y-127767648D01*
X115618477Y-127565466D01*
X115555220Y-127370781D01*
X115555218Y-127370778D01*
X115555218Y-127370776D01*
X115521503Y-127304607D01*
X115462287Y-127188390D01*
X115454556Y-127177749D01*
X115341971Y-127022786D01*
X115197213Y-126878028D01*
X115031614Y-126757715D01*
X115025006Y-126754348D01*
X114938917Y-126710483D01*
X114888123Y-126662511D01*
X114871328Y-126594690D01*
X114893865Y-126528555D01*
X114938917Y-126489516D01*
X115031610Y-126442287D01*
X115149574Y-126356582D01*
X115197213Y-126321971D01*
X115197215Y-126321968D01*
X115197219Y-126321966D01*
X115341966Y-126177219D01*
X115341968Y-126177215D01*
X115341971Y-126177213D01*
X115394732Y-126104590D01*
X115462287Y-126011610D01*
X115555220Y-125829219D01*
X115618477Y-125634534D01*
X115650500Y-125432352D01*
X115650500Y-125227648D01*
X115618477Y-125025466D01*
X115613298Y-125009526D01*
X115611303Y-124939685D01*
X115643546Y-124883530D01*
X117598789Y-122928289D01*
X117686394Y-122797179D01*
X117746738Y-122651497D01*
X117777500Y-122496842D01*
X117777500Y-122339157D01*
X117777500Y-115249994D01*
X124269443Y-115249994D01*
X124269443Y-115250005D01*
X124289634Y-115493683D01*
X124289636Y-115493695D01*
X124349663Y-115730734D01*
X124447888Y-115954666D01*
X124581632Y-116159378D01*
X124747242Y-116339277D01*
X124747252Y-116339286D01*
X124940208Y-116489470D01*
X124940212Y-116489473D01*
X125140225Y-116597715D01*
X125155267Y-116605855D01*
X125155270Y-116605856D01*
X125386541Y-116685251D01*
X125386543Y-116685251D01*
X125386545Y-116685252D01*
X125627737Y-116725500D01*
X125627738Y-116725500D01*
X125872262Y-116725500D01*
X125872263Y-116725500D01*
X126113455Y-116685252D01*
X126344733Y-116605855D01*
X126559788Y-116489473D01*
X126752754Y-116339281D01*
X126918368Y-116159377D01*
X127052111Y-115954667D01*
X127150336Y-115730736D01*
X127210364Y-115493692D01*
X127210365Y-115493677D01*
X127230557Y-115250005D01*
X127230557Y-115249994D01*
X129269443Y-115249994D01*
X129269443Y-115250005D01*
X129289634Y-115493683D01*
X129289636Y-115493695D01*
X129349663Y-115730734D01*
X129447888Y-115954666D01*
X129581632Y-116159378D01*
X129747242Y-116339277D01*
X129747252Y-116339286D01*
X129940208Y-116489470D01*
X129940212Y-116489473D01*
X130140225Y-116597715D01*
X130155267Y-116605855D01*
X130155270Y-116605856D01*
X130386541Y-116685251D01*
X130386543Y-116685251D01*
X130386545Y-116685252D01*
X130627737Y-116725500D01*
X130627738Y-116725500D01*
X130872262Y-116725500D01*
X130872263Y-116725500D01*
X131113455Y-116685252D01*
X131344733Y-116605855D01*
X131559788Y-116489473D01*
X131752754Y-116339281D01*
X131918368Y-116159377D01*
X132052111Y-115954667D01*
X132150336Y-115730736D01*
X132210364Y-115493692D01*
X132210365Y-115493677D01*
X132230557Y-115250005D01*
X132230557Y-115249994D01*
X132210365Y-115006316D01*
X132210363Y-115006304D01*
X132197236Y-114954467D01*
X132150336Y-114769264D01*
X132052111Y-114545333D01*
X131918368Y-114340623D01*
X131918367Y-114340621D01*
X131752757Y-114160722D01*
X131752747Y-114160713D01*
X131559791Y-114010529D01*
X131559787Y-114010526D01*
X131344734Y-113894145D01*
X131344729Y-113894143D01*
X131113458Y-113814748D01*
X130932561Y-113784562D01*
X130872263Y-113774500D01*
X130627737Y-113774500D01*
X130579498Y-113782549D01*
X130386541Y-113814748D01*
X130155270Y-113894143D01*
X130155265Y-113894145D01*
X129940212Y-114010526D01*
X129940208Y-114010529D01*
X129747252Y-114160713D01*
X129747242Y-114160722D01*
X129581632Y-114340621D01*
X129447888Y-114545333D01*
X129349663Y-114769265D01*
X129289636Y-115006304D01*
X129289634Y-115006316D01*
X129269443Y-115249994D01*
X127230557Y-115249994D01*
X127210365Y-115006316D01*
X127210363Y-115006304D01*
X127197236Y-114954467D01*
X127150336Y-114769264D01*
X127052111Y-114545333D01*
X126918368Y-114340623D01*
X126918367Y-114340621D01*
X126752757Y-114160722D01*
X126752747Y-114160713D01*
X126559791Y-114010529D01*
X126559787Y-114010526D01*
X126344734Y-113894145D01*
X126344729Y-113894143D01*
X126113458Y-113814748D01*
X125932561Y-113784562D01*
X125872263Y-113774500D01*
X125627737Y-113774500D01*
X125579498Y-113782549D01*
X125386541Y-113814748D01*
X125155270Y-113894143D01*
X125155265Y-113894145D01*
X124940212Y-114010526D01*
X124940208Y-114010529D01*
X124747252Y-114160713D01*
X124747242Y-114160722D01*
X124581632Y-114340621D01*
X124447888Y-114545333D01*
X124349663Y-114769265D01*
X124289636Y-115006304D01*
X124289634Y-115006316D01*
X124269443Y-115249994D01*
X117777500Y-115249994D01*
X117777500Y-108870024D01*
X117746738Y-108715369D01*
X117686394Y-108569687D01*
X117686392Y-108569684D01*
X117686390Y-108569680D01*
X117598789Y-108438577D01*
X117598786Y-108438573D01*
X95891426Y-86731213D01*
X95891422Y-86731210D01*
X95760319Y-86643609D01*
X95760306Y-86643602D01*
X95614635Y-86583264D01*
X95614623Y-86583261D01*
X95459979Y-86552500D01*
X95459976Y-86552500D01*
X67695940Y-86552500D01*
X67628901Y-86532815D01*
X67608259Y-86516181D01*
X66878557Y-85786479D01*
X66845072Y-85725156D01*
X66842710Y-85687995D01*
X66855659Y-85540000D01*
X66835063Y-85304592D01*
X66773903Y-85076337D01*
X66674035Y-84862171D01*
X66538495Y-84668599D01*
X66538494Y-84668597D01*
X66371402Y-84501506D01*
X66371396Y-84501501D01*
X66185842Y-84371575D01*
X66142217Y-84316998D01*
X66135023Y-84247500D01*
X66166546Y-84185145D01*
X66185842Y-84168425D01*
X66208026Y-84152891D01*
X66371401Y-84038495D01*
X66538495Y-83871401D01*
X66674035Y-83677830D01*
X66773903Y-83463663D01*
X66835063Y-83235408D01*
X66855659Y-83000000D01*
X66835063Y-82764592D01*
X66773903Y-82536337D01*
X66674035Y-82322171D01*
X66538495Y-82128599D01*
X66416179Y-82006283D01*
X66382696Y-81944963D01*
X66387680Y-81875271D01*
X66429551Y-81819337D01*
X66460529Y-81802422D01*
X66592086Y-81753354D01*
X66592093Y-81753350D01*
X66707187Y-81667190D01*
X66707190Y-81667187D01*
X66793350Y-81552093D01*
X66793354Y-81552086D01*
X66843596Y-81417379D01*
X66843598Y-81417372D01*
X66849999Y-81357844D01*
X66850000Y-81357827D01*
X66850000Y-80710000D01*
X65933012Y-80710000D01*
X65965925Y-80652993D01*
X66000000Y-80525826D01*
X66000000Y-80394174D01*
X65965925Y-80267007D01*
X65933012Y-80210000D01*
X66850000Y-80210000D01*
X66850000Y-79562172D01*
X66849999Y-79562155D01*
X66843598Y-79502627D01*
X66843596Y-79502620D01*
X66793354Y-79367913D01*
X66793350Y-79367906D01*
X66707190Y-79252812D01*
X66707187Y-79252809D01*
X66592093Y-79166649D01*
X66592086Y-79166645D01*
X66457379Y-79116403D01*
X66457372Y-79116401D01*
X66397844Y-79110000D01*
X65750000Y-79110000D01*
X65750000Y-80026988D01*
X65692993Y-79994075D01*
X65565826Y-79960000D01*
X65434174Y-79960000D01*
X65307007Y-79994075D01*
X65250000Y-80026988D01*
X65250000Y-79110000D01*
X64602155Y-79110000D01*
X64542627Y-79116401D01*
X64542620Y-79116403D01*
X64407913Y-79166645D01*
X64407906Y-79166649D01*
X64292812Y-79252809D01*
X64292809Y-79252812D01*
X64206649Y-79367906D01*
X64206645Y-79367913D01*
X64156403Y-79502620D01*
X64156401Y-79502627D01*
X64150000Y-79562155D01*
X64150000Y-80210000D01*
X65066988Y-80210000D01*
X65034075Y-80267007D01*
X65000000Y-80394174D01*
X65000000Y-80525826D01*
X65034075Y-80652993D01*
X65066988Y-80710000D01*
X64150000Y-80710000D01*
X64150000Y-81357844D01*
X64156401Y-81417372D01*
X64156403Y-81417379D01*
X64206645Y-81552086D01*
X64206649Y-81552093D01*
X64292809Y-81667187D01*
X64292812Y-81667190D01*
X64407906Y-81753350D01*
X64407913Y-81753354D01*
X64539470Y-81802421D01*
X64595403Y-81844292D01*
X64619821Y-81909756D01*
X64604970Y-81978029D01*
X64583819Y-82006284D01*
X64461503Y-82128600D01*
X64325965Y-82322169D01*
X64325964Y-82322171D01*
X64226098Y-82536335D01*
X64226094Y-82536344D01*
X64164938Y-82764586D01*
X64164936Y-82764596D01*
X64144341Y-82999999D01*
X60000500Y-82999999D01*
X60000500Y-66560258D01*
X63654500Y-66560258D01*
X63654500Y-66789741D01*
X63679446Y-66979215D01*
X63684452Y-67017238D01*
X63684453Y-67017240D01*
X63743842Y-67238887D01*
X63831650Y-67450876D01*
X63831657Y-67450890D01*
X63946392Y-67649617D01*
X64086081Y-67831661D01*
X64086089Y-67831670D01*
X64248330Y-67993911D01*
X64248338Y-67993918D01*
X64430382Y-68133607D01*
X64430385Y-68133608D01*
X64430388Y-68133611D01*
X64629112Y-68248344D01*
X64629117Y-68248346D01*
X64629123Y-68248349D01*
X64720480Y-68286190D01*
X64841113Y-68336158D01*
X65062762Y-68395548D01*
X65290266Y-68425500D01*
X65290273Y-68425500D01*
X65519727Y-68425500D01*
X65519734Y-68425500D01*
X65747238Y-68395548D01*
X65968887Y-68336158D01*
X66180888Y-68248344D01*
X66379612Y-68133611D01*
X66561661Y-67993919D01*
X66561665Y-67993914D01*
X66561670Y-67993911D01*
X66723911Y-67831670D01*
X66723914Y-67831665D01*
X66723919Y-67831661D01*
X66863611Y-67649612D01*
X66978344Y-67450888D01*
X67066158Y-67238887D01*
X67125548Y-67017238D01*
X67155500Y-66789734D01*
X67155500Y-66560266D01*
X67155499Y-66560258D01*
X141124500Y-66560258D01*
X141124500Y-66789741D01*
X141149446Y-66979215D01*
X141154452Y-67017238D01*
X141154453Y-67017240D01*
X141213842Y-67238887D01*
X141301650Y-67450876D01*
X141301657Y-67450890D01*
X141416392Y-67649617D01*
X141556081Y-67831661D01*
X141556089Y-67831670D01*
X141718330Y-67993911D01*
X141718338Y-67993918D01*
X141900382Y-68133607D01*
X141900385Y-68133608D01*
X141900388Y-68133611D01*
X142099112Y-68248344D01*
X142099117Y-68248346D01*
X142099123Y-68248349D01*
X142190480Y-68286190D01*
X142311113Y-68336158D01*
X142532762Y-68395548D01*
X142760266Y-68425500D01*
X142760273Y-68425500D01*
X142989727Y-68425500D01*
X142989734Y-68425500D01*
X143217238Y-68395548D01*
X143438887Y-68336158D01*
X143650888Y-68248344D01*
X143849612Y-68133611D01*
X144031661Y-67993919D01*
X144031665Y-67993914D01*
X144031670Y-67993911D01*
X144193911Y-67831670D01*
X144193914Y-67831665D01*
X144193919Y-67831661D01*
X144333611Y-67649612D01*
X144448344Y-67450888D01*
X144536158Y-67238887D01*
X144595548Y-67017238D01*
X144625500Y-66789734D01*
X144625500Y-66560266D01*
X144595548Y-66332762D01*
X144536158Y-66111113D01*
X144448344Y-65899112D01*
X144333611Y-65700388D01*
X144333608Y-65700385D01*
X144333607Y-65700382D01*
X144193918Y-65518338D01*
X144193911Y-65518330D01*
X144031670Y-65356089D01*
X144031661Y-65356081D01*
X143849617Y-65216392D01*
X143650890Y-65101657D01*
X143650876Y-65101650D01*
X143438887Y-65013842D01*
X143217238Y-64954452D01*
X143179215Y-64949446D01*
X142989741Y-64924500D01*
X142989734Y-64924500D01*
X142760266Y-64924500D01*
X142760258Y-64924500D01*
X142543715Y-64953009D01*
X142532762Y-64954452D01*
X142439076Y-64979554D01*
X142311112Y-65013842D01*
X142099123Y-65101650D01*
X142099109Y-65101657D01*
X141900382Y-65216392D01*
X141718338Y-65356081D01*
X141556081Y-65518338D01*
X141416392Y-65700382D01*
X141301657Y-65899109D01*
X141301650Y-65899123D01*
X141213842Y-66111112D01*
X141154453Y-66332759D01*
X141154451Y-66332770D01*
X141124500Y-66560258D01*
X67155499Y-66560258D01*
X67125548Y-66332762D01*
X67066158Y-66111113D01*
X66978344Y-65899112D01*
X66863611Y-65700388D01*
X66863608Y-65700385D01*
X66863607Y-65700382D01*
X66723918Y-65518338D01*
X66723911Y-65518330D01*
X66561670Y-65356089D01*
X66561661Y-65356081D01*
X66379617Y-65216392D01*
X66180890Y-65101657D01*
X66180876Y-65101650D01*
X65968887Y-65013842D01*
X65747238Y-64954452D01*
X65709215Y-64949446D01*
X65519741Y-64924500D01*
X65519734Y-64924500D01*
X65290266Y-64924500D01*
X65290258Y-64924500D01*
X65073715Y-64953009D01*
X65062762Y-64954452D01*
X64969076Y-64979554D01*
X64841112Y-65013842D01*
X64629123Y-65101650D01*
X64629109Y-65101657D01*
X64430382Y-65216392D01*
X64248338Y-65356081D01*
X64086081Y-65518338D01*
X63946392Y-65700382D01*
X63831657Y-65899109D01*
X63831650Y-65899123D01*
X63743842Y-66111112D01*
X63684453Y-66332759D01*
X63684451Y-66332770D01*
X63654500Y-66560258D01*
X60000500Y-66560258D01*
X60000500Y-62024500D01*
X60020185Y-61957461D01*
X60072989Y-61911706D01*
X60124500Y-61900500D01*
X147875500Y-61900500D01*
X147942539Y-61920185D01*
G37*
%TD.AperFunction*%
%TD*%
M02*
