%TF.GenerationSoftware,KiCad,Pcbnew,8.0.6*%
%TF.CreationDate,2024-11-25T21:26:04+01:00*%
%TF.ProjectId,PCB,5043422e-6b69-4636-9164-5f7063625858,rev?*%
%TF.SameCoordinates,Original*%
%TF.FileFunction,Legend,Top*%
%TF.FilePolarity,Positive*%
%FSLAX46Y46*%
G04 Gerber Fmt 4.6, Leading zero omitted, Abs format (unit mm)*
G04 Created by KiCad (PCBNEW 8.0.6) date 2024-11-25 21:26:04*
%MOMM*%
%LPD*%
G01*
G04 APERTURE LIST*
G04 Aperture macros list*
%AMRoundRect*
0 Rectangle with rounded corners*
0 $1 Rounding radius*
0 $2 $3 $4 $5 $6 $7 $8 $9 X,Y pos of 4 corners*
0 Add a 4 corners polygon primitive as box body*
4,1,4,$2,$3,$4,$5,$6,$7,$8,$9,$2,$3,0*
0 Add four circle primitives for the rounded corners*
1,1,$1+$1,$2,$3*
1,1,$1+$1,$4,$5*
1,1,$1+$1,$6,$7*
1,1,$1+$1,$8,$9*
0 Add four rect primitives between the rounded corners*
20,1,$1+$1,$2,$3,$4,$5,0*
20,1,$1+$1,$4,$5,$6,$7,0*
20,1,$1+$1,$6,$7,$8,$9,0*
20,1,$1+$1,$8,$9,$2,$3,0*%
G04 Aperture macros list end*
%ADD10C,0.100000*%
%ADD11C,0.150000*%
%ADD12C,0.254000*%
%ADD13C,0.120000*%
%ADD14C,0.200000*%
%ADD15R,2.000000X2.000000*%
%ADD16O,2.000000X1.600000*%
%ADD17C,3.000000*%
%ADD18C,4.000000*%
%ADD19R,2.000000X1.550000*%
%ADD20R,1.500000X1.500000*%
%ADD21C,1.500000*%
%ADD22R,1.150000X0.600000*%
%ADD23C,2.250000*%
%ADD24RoundRect,0.200000X0.275000X-0.200000X0.275000X0.200000X-0.275000X0.200000X-0.275000X-0.200000X0*%
%ADD25R,1.950000X1.950000*%
%ADD26C,1.950000*%
%ADD27R,1.700000X1.700000*%
%ADD28O,1.700000X1.700000*%
%ADD29RoundRect,0.225000X0.250000X-0.225000X0.250000X0.225000X-0.250000X0.225000X-0.250000X-0.225000X0*%
%ADD30RoundRect,0.200000X-0.200000X-0.275000X0.200000X-0.275000X0.200000X0.275000X-0.200000X0.275000X0*%
%ADD31RoundRect,0.200000X-0.275000X0.200000X-0.275000X-0.200000X0.275000X-0.200000X0.275000X0.200000X0*%
%ADD32R,3.050000X1.520000*%
%ADD33RoundRect,0.200000X0.200000X0.275000X-0.200000X0.275000X-0.200000X-0.275000X0.200000X-0.275000X0*%
%ADD34RoundRect,0.225000X-0.225000X-0.250000X0.225000X-0.250000X0.225000X0.250000X-0.225000X0.250000X0*%
%ADD35R,1.100000X1.100000*%
%ADD36C,1.100000*%
%ADD37C,5.000000*%
G04 APERTURE END LIST*
D10*
X64000000Y-72000000D02*
X148000000Y-72000000D01*
X148000000Y-107500000D01*
X64000000Y-107500000D01*
X64000000Y-72000000D01*
D11*
X93951666Y-127204819D02*
X93951666Y-128014342D01*
X93951666Y-128014342D02*
X93999285Y-128109580D01*
X93999285Y-128109580D02*
X94046904Y-128157200D01*
X94046904Y-128157200D02*
X94142142Y-128204819D01*
X94142142Y-128204819D02*
X94332618Y-128204819D01*
X94332618Y-128204819D02*
X94427856Y-128157200D01*
X94427856Y-128157200D02*
X94475475Y-128109580D01*
X94475475Y-128109580D02*
X94523094Y-128014342D01*
X94523094Y-128014342D02*
X94523094Y-127204819D01*
X94761190Y-128300057D02*
X95523094Y-128300057D01*
X95665952Y-127204819D02*
X95904047Y-128204819D01*
X95904047Y-128204819D02*
X96094523Y-127490533D01*
X96094523Y-127490533D02*
X96284999Y-128204819D01*
X96284999Y-128204819D02*
X96523095Y-127204819D01*
X97284999Y-128157200D02*
X97189761Y-128204819D01*
X97189761Y-128204819D02*
X96999285Y-128204819D01*
X96999285Y-128204819D02*
X96904047Y-128157200D01*
X96904047Y-128157200D02*
X96856428Y-128061961D01*
X96856428Y-128061961D02*
X96856428Y-127681009D01*
X96856428Y-127681009D02*
X96904047Y-127585771D01*
X96904047Y-127585771D02*
X96999285Y-127538152D01*
X96999285Y-127538152D02*
X97189761Y-127538152D01*
X97189761Y-127538152D02*
X97284999Y-127585771D01*
X97284999Y-127585771D02*
X97332618Y-127681009D01*
X97332618Y-127681009D02*
X97332618Y-127776247D01*
X97332618Y-127776247D02*
X96856428Y-127871485D01*
X97761190Y-128204819D02*
X97761190Y-127204819D01*
X97761190Y-127204819D02*
X98094523Y-127919104D01*
X98094523Y-127919104D02*
X98427856Y-127204819D01*
X98427856Y-127204819D02*
X98427856Y-128204819D01*
X99046904Y-128204819D02*
X98951666Y-128157200D01*
X98951666Y-128157200D02*
X98904047Y-128109580D01*
X98904047Y-128109580D02*
X98856428Y-128014342D01*
X98856428Y-128014342D02*
X98856428Y-127728628D01*
X98856428Y-127728628D02*
X98904047Y-127633390D01*
X98904047Y-127633390D02*
X98951666Y-127585771D01*
X98951666Y-127585771D02*
X99046904Y-127538152D01*
X99046904Y-127538152D02*
X99189761Y-127538152D01*
X99189761Y-127538152D02*
X99284999Y-127585771D01*
X99284999Y-127585771D02*
X99332618Y-127633390D01*
X99332618Y-127633390D02*
X99380237Y-127728628D01*
X99380237Y-127728628D02*
X99380237Y-128014342D01*
X99380237Y-128014342D02*
X99332618Y-128109580D01*
X99332618Y-128109580D02*
X99284999Y-128157200D01*
X99284999Y-128157200D02*
X99189761Y-128204819D01*
X99189761Y-128204819D02*
X99046904Y-128204819D01*
X99761190Y-128157200D02*
X99856428Y-128204819D01*
X99856428Y-128204819D02*
X100046904Y-128204819D01*
X100046904Y-128204819D02*
X100142142Y-128157200D01*
X100142142Y-128157200D02*
X100189761Y-128061961D01*
X100189761Y-128061961D02*
X100189761Y-128014342D01*
X100189761Y-128014342D02*
X100142142Y-127919104D01*
X100142142Y-127919104D02*
X100046904Y-127871485D01*
X100046904Y-127871485D02*
X99904047Y-127871485D01*
X99904047Y-127871485D02*
X99808809Y-127823866D01*
X99808809Y-127823866D02*
X99761190Y-127728628D01*
X99761190Y-127728628D02*
X99761190Y-127681009D01*
X99761190Y-127681009D02*
X99808809Y-127585771D01*
X99808809Y-127585771D02*
X99904047Y-127538152D01*
X99904047Y-127538152D02*
X100046904Y-127538152D01*
X100046904Y-127538152D02*
X100142142Y-127585771D01*
X100380238Y-128300057D02*
X101142142Y-128300057D01*
X101380238Y-128204819D02*
X101380238Y-127204819D01*
X101380238Y-127204819D02*
X101618333Y-127204819D01*
X101618333Y-127204819D02*
X101761190Y-127252438D01*
X101761190Y-127252438D02*
X101856428Y-127347676D01*
X101856428Y-127347676D02*
X101904047Y-127442914D01*
X101904047Y-127442914D02*
X101951666Y-127633390D01*
X101951666Y-127633390D02*
X101951666Y-127776247D01*
X101951666Y-127776247D02*
X101904047Y-127966723D01*
X101904047Y-127966723D02*
X101856428Y-128061961D01*
X101856428Y-128061961D02*
X101761190Y-128157200D01*
X101761190Y-128157200D02*
X101618333Y-128204819D01*
X101618333Y-128204819D02*
X101380238Y-128204819D01*
X102904047Y-128204819D02*
X102332619Y-128204819D01*
X102618333Y-128204819D02*
X102618333Y-127204819D01*
X102618333Y-127204819D02*
X102523095Y-127347676D01*
X102523095Y-127347676D02*
X102427857Y-127442914D01*
X102427857Y-127442914D02*
X102332619Y-127490533D01*
X103094524Y-128300057D02*
X103856428Y-128300057D01*
X104094524Y-128204819D02*
X104094524Y-127204819D01*
X104094524Y-127204819D02*
X104427857Y-127919104D01*
X104427857Y-127919104D02*
X104761190Y-127204819D01*
X104761190Y-127204819D02*
X104761190Y-128204819D01*
X105237381Y-128204819D02*
X105237381Y-127538152D01*
X105237381Y-127204819D02*
X105189762Y-127252438D01*
X105189762Y-127252438D02*
X105237381Y-127300057D01*
X105237381Y-127300057D02*
X105285000Y-127252438D01*
X105285000Y-127252438D02*
X105237381Y-127204819D01*
X105237381Y-127204819D02*
X105237381Y-127300057D01*
X105713571Y-127538152D02*
X105713571Y-128204819D01*
X105713571Y-127633390D02*
X105761190Y-127585771D01*
X105761190Y-127585771D02*
X105856428Y-127538152D01*
X105856428Y-127538152D02*
X105999285Y-127538152D01*
X105999285Y-127538152D02*
X106094523Y-127585771D01*
X106094523Y-127585771D02*
X106142142Y-127681009D01*
X106142142Y-127681009D02*
X106142142Y-128204819D01*
X106618333Y-128204819D02*
X106618333Y-127538152D01*
X106618333Y-127204819D02*
X106570714Y-127252438D01*
X106570714Y-127252438D02*
X106618333Y-127300057D01*
X106618333Y-127300057D02*
X106665952Y-127252438D01*
X106665952Y-127252438D02*
X106618333Y-127204819D01*
X106618333Y-127204819D02*
X106618333Y-127300057D01*
X106856428Y-128300057D02*
X107618332Y-128300057D01*
X107856428Y-128204819D02*
X107856428Y-127204819D01*
X107856428Y-127204819D02*
X108237380Y-127204819D01*
X108237380Y-127204819D02*
X108332618Y-127252438D01*
X108332618Y-127252438D02*
X108380237Y-127300057D01*
X108380237Y-127300057D02*
X108427856Y-127395295D01*
X108427856Y-127395295D02*
X108427856Y-127538152D01*
X108427856Y-127538152D02*
X108380237Y-127633390D01*
X108380237Y-127633390D02*
X108332618Y-127681009D01*
X108332618Y-127681009D02*
X108237380Y-127728628D01*
X108237380Y-127728628D02*
X107856428Y-127728628D01*
X108856428Y-128204819D02*
X108856428Y-127538152D01*
X108856428Y-127728628D02*
X108904047Y-127633390D01*
X108904047Y-127633390D02*
X108951666Y-127585771D01*
X108951666Y-127585771D02*
X109046904Y-127538152D01*
X109046904Y-127538152D02*
X109142142Y-127538152D01*
X109618333Y-128204819D02*
X109523095Y-128157200D01*
X109523095Y-128157200D02*
X109475476Y-128109580D01*
X109475476Y-128109580D02*
X109427857Y-128014342D01*
X109427857Y-128014342D02*
X109427857Y-127728628D01*
X109427857Y-127728628D02*
X109475476Y-127633390D01*
X109475476Y-127633390D02*
X109523095Y-127585771D01*
X109523095Y-127585771D02*
X109618333Y-127538152D01*
X109618333Y-127538152D02*
X109761190Y-127538152D01*
X109761190Y-127538152D02*
X109856428Y-127585771D01*
X109856428Y-127585771D02*
X109904047Y-127633390D01*
X109904047Y-127633390D02*
X109951666Y-127728628D01*
X109951666Y-127728628D02*
X109951666Y-128014342D01*
X109951666Y-128014342D02*
X109904047Y-128109580D01*
X109904047Y-128109580D02*
X109856428Y-128157200D01*
X109856428Y-128157200D02*
X109761190Y-128204819D01*
X109761190Y-128204819D02*
X109618333Y-128204819D01*
X110142143Y-128300057D02*
X110904047Y-128300057D01*
X111665952Y-128204819D02*
X111094524Y-128204819D01*
X111380238Y-128204819D02*
X111380238Y-127204819D01*
X111380238Y-127204819D02*
X111285000Y-127347676D01*
X111285000Y-127347676D02*
X111189762Y-127442914D01*
X111189762Y-127442914D02*
X111094524Y-127490533D01*
D12*
X96324318Y-208037857D02*
X95054318Y-208037857D01*
X95054318Y-208037857D02*
X95054318Y-207735476D01*
X95054318Y-207735476D02*
X95114794Y-207554047D01*
X95114794Y-207554047D02*
X95235746Y-207433095D01*
X95235746Y-207433095D02*
X95356699Y-207372618D01*
X95356699Y-207372618D02*
X95598603Y-207312142D01*
X95598603Y-207312142D02*
X95780032Y-207312142D01*
X95780032Y-207312142D02*
X96021937Y-207372618D01*
X96021937Y-207372618D02*
X96142889Y-207433095D01*
X96142889Y-207433095D02*
X96263842Y-207554047D01*
X96263842Y-207554047D02*
X96324318Y-207735476D01*
X96324318Y-207735476D02*
X96324318Y-208037857D01*
X96445270Y-207070238D02*
X96445270Y-206102618D01*
X96263842Y-205860714D02*
X96324318Y-205739761D01*
X96324318Y-205739761D02*
X96324318Y-205497857D01*
X96324318Y-205497857D02*
X96263842Y-205376904D01*
X96263842Y-205376904D02*
X96142889Y-205316428D01*
X96142889Y-205316428D02*
X96082413Y-205316428D01*
X96082413Y-205316428D02*
X95961461Y-205376904D01*
X95961461Y-205376904D02*
X95900984Y-205497857D01*
X95900984Y-205497857D02*
X95900984Y-205679285D01*
X95900984Y-205679285D02*
X95840508Y-205800238D01*
X95840508Y-205800238D02*
X95719556Y-205860714D01*
X95719556Y-205860714D02*
X95659080Y-205860714D01*
X95659080Y-205860714D02*
X95538127Y-205800238D01*
X95538127Y-205800238D02*
X95477651Y-205679285D01*
X95477651Y-205679285D02*
X95477651Y-205497857D01*
X95477651Y-205497857D02*
X95538127Y-205376904D01*
X96263842Y-204227857D02*
X96324318Y-204348809D01*
X96324318Y-204348809D02*
X96324318Y-204590714D01*
X96324318Y-204590714D02*
X96263842Y-204711666D01*
X96263842Y-204711666D02*
X96203365Y-204772143D01*
X96203365Y-204772143D02*
X96082413Y-204832619D01*
X96082413Y-204832619D02*
X95719556Y-204832619D01*
X95719556Y-204832619D02*
X95598603Y-204772143D01*
X95598603Y-204772143D02*
X95538127Y-204711666D01*
X95538127Y-204711666D02*
X95477651Y-204590714D01*
X95477651Y-204590714D02*
X95477651Y-204348809D01*
X95477651Y-204348809D02*
X95538127Y-204227857D01*
X96324318Y-203683572D02*
X95054318Y-203683572D01*
X96324318Y-203139286D02*
X95659080Y-203139286D01*
X95659080Y-203139286D02*
X95538127Y-203199762D01*
X95538127Y-203199762D02*
X95477651Y-203320714D01*
X95477651Y-203320714D02*
X95477651Y-203502143D01*
X95477651Y-203502143D02*
X95538127Y-203623095D01*
X95538127Y-203623095D02*
X95598603Y-203683572D01*
X96445270Y-202836905D02*
X96445270Y-201869285D01*
X95175270Y-201627381D02*
X95114794Y-201566905D01*
X95114794Y-201566905D02*
X95054318Y-201445952D01*
X95054318Y-201445952D02*
X95054318Y-201143571D01*
X95054318Y-201143571D02*
X95114794Y-201022619D01*
X95114794Y-201022619D02*
X95175270Y-200962143D01*
X95175270Y-200962143D02*
X95296222Y-200901666D01*
X95296222Y-200901666D02*
X95417175Y-200901666D01*
X95417175Y-200901666D02*
X95598603Y-200962143D01*
X95598603Y-200962143D02*
X96324318Y-201687857D01*
X96324318Y-201687857D02*
X96324318Y-200901666D01*
X133324318Y-207787857D02*
X132054318Y-207787857D01*
X132054318Y-207787857D02*
X132054318Y-207485476D01*
X132054318Y-207485476D02*
X132114794Y-207304047D01*
X132114794Y-207304047D02*
X132235746Y-207183095D01*
X132235746Y-207183095D02*
X132356699Y-207122618D01*
X132356699Y-207122618D02*
X132598603Y-207062142D01*
X132598603Y-207062142D02*
X132780032Y-207062142D01*
X132780032Y-207062142D02*
X133021937Y-207122618D01*
X133021937Y-207122618D02*
X133142889Y-207183095D01*
X133142889Y-207183095D02*
X133263842Y-207304047D01*
X133263842Y-207304047D02*
X133324318Y-207485476D01*
X133324318Y-207485476D02*
X133324318Y-207787857D01*
X133445270Y-206820238D02*
X133445270Y-205852618D01*
X133263842Y-205610714D02*
X133324318Y-205489761D01*
X133324318Y-205489761D02*
X133324318Y-205247857D01*
X133324318Y-205247857D02*
X133263842Y-205126904D01*
X133263842Y-205126904D02*
X133142889Y-205066428D01*
X133142889Y-205066428D02*
X133082413Y-205066428D01*
X133082413Y-205066428D02*
X132961461Y-205126904D01*
X132961461Y-205126904D02*
X132900984Y-205247857D01*
X132900984Y-205247857D02*
X132900984Y-205429285D01*
X132900984Y-205429285D02*
X132840508Y-205550238D01*
X132840508Y-205550238D02*
X132719556Y-205610714D01*
X132719556Y-205610714D02*
X132659080Y-205610714D01*
X132659080Y-205610714D02*
X132538127Y-205550238D01*
X132538127Y-205550238D02*
X132477651Y-205429285D01*
X132477651Y-205429285D02*
X132477651Y-205247857D01*
X132477651Y-205247857D02*
X132538127Y-205126904D01*
X133263842Y-203977857D02*
X133324318Y-204098809D01*
X133324318Y-204098809D02*
X133324318Y-204340714D01*
X133324318Y-204340714D02*
X133263842Y-204461666D01*
X133263842Y-204461666D02*
X133203365Y-204522143D01*
X133203365Y-204522143D02*
X133082413Y-204582619D01*
X133082413Y-204582619D02*
X132719556Y-204582619D01*
X132719556Y-204582619D02*
X132598603Y-204522143D01*
X132598603Y-204522143D02*
X132538127Y-204461666D01*
X132538127Y-204461666D02*
X132477651Y-204340714D01*
X132477651Y-204340714D02*
X132477651Y-204098809D01*
X132477651Y-204098809D02*
X132538127Y-203977857D01*
X133324318Y-203433572D02*
X132054318Y-203433572D01*
X133324318Y-202889286D02*
X132659080Y-202889286D01*
X132659080Y-202889286D02*
X132538127Y-202949762D01*
X132538127Y-202949762D02*
X132477651Y-203070714D01*
X132477651Y-203070714D02*
X132477651Y-203252143D01*
X132477651Y-203252143D02*
X132538127Y-203373095D01*
X132538127Y-203373095D02*
X132598603Y-203433572D01*
X133445270Y-202586905D02*
X133445270Y-201619285D01*
X132054318Y-201437857D02*
X132054318Y-200651666D01*
X132054318Y-200651666D02*
X132538127Y-201075000D01*
X132538127Y-201075000D02*
X132538127Y-200893571D01*
X132538127Y-200893571D02*
X132598603Y-200772619D01*
X132598603Y-200772619D02*
X132659080Y-200712143D01*
X132659080Y-200712143D02*
X132780032Y-200651666D01*
X132780032Y-200651666D02*
X133082413Y-200651666D01*
X133082413Y-200651666D02*
X133203365Y-200712143D01*
X133203365Y-200712143D02*
X133263842Y-200772619D01*
X133263842Y-200772619D02*
X133324318Y-200893571D01*
X133324318Y-200893571D02*
X133324318Y-201256428D01*
X133324318Y-201256428D02*
X133263842Y-201377381D01*
X133263842Y-201377381D02*
X133203365Y-201437857D01*
X67563571Y-165074318D02*
X67563571Y-163804318D01*
X67563571Y-163804318D02*
X68047381Y-163804318D01*
X68047381Y-163804318D02*
X68168333Y-163864794D01*
X68168333Y-163864794D02*
X68228810Y-163925270D01*
X68228810Y-163925270D02*
X68289286Y-164046222D01*
X68289286Y-164046222D02*
X68289286Y-164227651D01*
X68289286Y-164227651D02*
X68228810Y-164348603D01*
X68228810Y-164348603D02*
X68168333Y-164409080D01*
X68168333Y-164409080D02*
X68047381Y-164469556D01*
X68047381Y-164469556D02*
X67563571Y-164469556D01*
X68773095Y-165013842D02*
X68954524Y-165074318D01*
X68954524Y-165074318D02*
X69256905Y-165074318D01*
X69256905Y-165074318D02*
X69377857Y-165013842D01*
X69377857Y-165013842D02*
X69438333Y-164953365D01*
X69438333Y-164953365D02*
X69498810Y-164832413D01*
X69498810Y-164832413D02*
X69498810Y-164711461D01*
X69498810Y-164711461D02*
X69438333Y-164590508D01*
X69438333Y-164590508D02*
X69377857Y-164530032D01*
X69377857Y-164530032D02*
X69256905Y-164469556D01*
X69256905Y-164469556D02*
X69015000Y-164409080D01*
X69015000Y-164409080D02*
X68894048Y-164348603D01*
X68894048Y-164348603D02*
X68833571Y-164288127D01*
X68833571Y-164288127D02*
X68773095Y-164167175D01*
X68773095Y-164167175D02*
X68773095Y-164046222D01*
X68773095Y-164046222D02*
X68833571Y-163925270D01*
X68833571Y-163925270D02*
X68894048Y-163864794D01*
X68894048Y-163864794D02*
X69015000Y-163804318D01*
X69015000Y-163804318D02*
X69317381Y-163804318D01*
X69317381Y-163804318D02*
X69498810Y-163864794D01*
X69740715Y-165195270D02*
X70708334Y-165195270D01*
X71010714Y-165074318D02*
X71010714Y-163804318D01*
X71010714Y-163804318D02*
X71313095Y-163804318D01*
X71313095Y-163804318D02*
X71494524Y-163864794D01*
X71494524Y-163864794D02*
X71615476Y-163985746D01*
X71615476Y-163985746D02*
X71675953Y-164106699D01*
X71675953Y-164106699D02*
X71736429Y-164348603D01*
X71736429Y-164348603D02*
X71736429Y-164530032D01*
X71736429Y-164530032D02*
X71675953Y-164771937D01*
X71675953Y-164771937D02*
X71615476Y-164892889D01*
X71615476Y-164892889D02*
X71494524Y-165013842D01*
X71494524Y-165013842D02*
X71313095Y-165074318D01*
X71313095Y-165074318D02*
X71010714Y-165074318D01*
X73006429Y-164953365D02*
X72945953Y-165013842D01*
X72945953Y-165013842D02*
X72764524Y-165074318D01*
X72764524Y-165074318D02*
X72643572Y-165074318D01*
X72643572Y-165074318D02*
X72462143Y-165013842D01*
X72462143Y-165013842D02*
X72341191Y-164892889D01*
X72341191Y-164892889D02*
X72280714Y-164771937D01*
X72280714Y-164771937D02*
X72220238Y-164530032D01*
X72220238Y-164530032D02*
X72220238Y-164348603D01*
X72220238Y-164348603D02*
X72280714Y-164106699D01*
X72280714Y-164106699D02*
X72341191Y-163985746D01*
X72341191Y-163985746D02*
X72462143Y-163864794D01*
X72462143Y-163864794D02*
X72643572Y-163804318D01*
X72643572Y-163804318D02*
X72764524Y-163804318D01*
X72764524Y-163804318D02*
X72945953Y-163864794D01*
X72945953Y-163864794D02*
X73006429Y-163925270D01*
X73550714Y-165074318D02*
X73550714Y-163804318D01*
X73550714Y-163804318D02*
X73853095Y-163804318D01*
X73853095Y-163804318D02*
X74034524Y-163864794D01*
X74034524Y-163864794D02*
X74155476Y-163985746D01*
X74155476Y-163985746D02*
X74215953Y-164106699D01*
X74215953Y-164106699D02*
X74276429Y-164348603D01*
X74276429Y-164348603D02*
X74276429Y-164530032D01*
X74276429Y-164530032D02*
X74215953Y-164771937D01*
X74215953Y-164771937D02*
X74155476Y-164892889D01*
X74155476Y-164892889D02*
X74034524Y-165013842D01*
X74034524Y-165013842D02*
X73853095Y-165074318D01*
X73853095Y-165074318D02*
X73550714Y-165074318D01*
X75546429Y-164953365D02*
X75485953Y-165013842D01*
X75485953Y-165013842D02*
X75304524Y-165074318D01*
X75304524Y-165074318D02*
X75183572Y-165074318D01*
X75183572Y-165074318D02*
X75002143Y-165013842D01*
X75002143Y-165013842D02*
X74881191Y-164892889D01*
X74881191Y-164892889D02*
X74820714Y-164771937D01*
X74820714Y-164771937D02*
X74760238Y-164530032D01*
X74760238Y-164530032D02*
X74760238Y-164348603D01*
X74760238Y-164348603D02*
X74820714Y-164106699D01*
X74820714Y-164106699D02*
X74881191Y-163985746D01*
X74881191Y-163985746D02*
X75002143Y-163864794D01*
X75002143Y-163864794D02*
X75183572Y-163804318D01*
X75183572Y-163804318D02*
X75304524Y-163804318D01*
X75304524Y-163804318D02*
X75485953Y-163864794D01*
X75485953Y-163864794D02*
X75546429Y-163925270D01*
X75788334Y-165195270D02*
X76755953Y-165195270D01*
X76997857Y-163925270D02*
X77058333Y-163864794D01*
X77058333Y-163864794D02*
X77179286Y-163804318D01*
X77179286Y-163804318D02*
X77481667Y-163804318D01*
X77481667Y-163804318D02*
X77602619Y-163864794D01*
X77602619Y-163864794D02*
X77663095Y-163925270D01*
X77663095Y-163925270D02*
X77723572Y-164046222D01*
X77723572Y-164046222D02*
X77723572Y-164167175D01*
X77723572Y-164167175D02*
X77663095Y-164348603D01*
X77663095Y-164348603D02*
X76937381Y-165074318D01*
X76937381Y-165074318D02*
X77723572Y-165074318D01*
X78812143Y-164227651D02*
X78812143Y-165074318D01*
X78509762Y-163743842D02*
X78207381Y-164650984D01*
X78207381Y-164650984D02*
X78993572Y-164650984D01*
X79295953Y-163804318D02*
X79719286Y-165074318D01*
X79719286Y-165074318D02*
X80142620Y-163804318D01*
X81170714Y-163804318D02*
X80565952Y-163804318D01*
X80565952Y-163804318D02*
X80505476Y-164409080D01*
X80505476Y-164409080D02*
X80565952Y-164348603D01*
X80565952Y-164348603D02*
X80686905Y-164288127D01*
X80686905Y-164288127D02*
X80989286Y-164288127D01*
X80989286Y-164288127D02*
X81110238Y-164348603D01*
X81110238Y-164348603D02*
X81170714Y-164409080D01*
X81170714Y-164409080D02*
X81231191Y-164530032D01*
X81231191Y-164530032D02*
X81231191Y-164832413D01*
X81231191Y-164832413D02*
X81170714Y-164953365D01*
X81170714Y-164953365D02*
X81110238Y-165013842D01*
X81110238Y-165013842D02*
X80989286Y-165074318D01*
X80989286Y-165074318D02*
X80686905Y-165074318D01*
X80686905Y-165074318D02*
X80565952Y-165013842D01*
X80565952Y-165013842D02*
X80505476Y-164953365D01*
X81594048Y-163804318D02*
X82017381Y-165074318D01*
X82017381Y-165074318D02*
X82440715Y-163804318D01*
X82561667Y-165195270D02*
X83529286Y-165195270D01*
X84496905Y-165074318D02*
X83771190Y-165074318D01*
X84134047Y-165074318D02*
X84134047Y-163804318D01*
X84134047Y-163804318D02*
X84013095Y-163985746D01*
X84013095Y-163985746D02*
X83892143Y-164106699D01*
X83892143Y-164106699D02*
X83771190Y-164167175D01*
X95462142Y-170074318D02*
X95462142Y-168804318D01*
X95462142Y-168804318D02*
X95764523Y-168804318D01*
X95764523Y-168804318D02*
X95945952Y-168864794D01*
X95945952Y-168864794D02*
X96066904Y-168985746D01*
X96066904Y-168985746D02*
X96127381Y-169106699D01*
X96127381Y-169106699D02*
X96187857Y-169348603D01*
X96187857Y-169348603D02*
X96187857Y-169530032D01*
X96187857Y-169530032D02*
X96127381Y-169771937D01*
X96127381Y-169771937D02*
X96066904Y-169892889D01*
X96066904Y-169892889D02*
X95945952Y-170013842D01*
X95945952Y-170013842D02*
X95764523Y-170074318D01*
X95764523Y-170074318D02*
X95462142Y-170074318D01*
X96429762Y-170195270D02*
X97397381Y-170195270D01*
X97639285Y-170013842D02*
X97760238Y-170074318D01*
X97760238Y-170074318D02*
X98002142Y-170074318D01*
X98002142Y-170074318D02*
X98123095Y-170013842D01*
X98123095Y-170013842D02*
X98183571Y-169892889D01*
X98183571Y-169892889D02*
X98183571Y-169832413D01*
X98183571Y-169832413D02*
X98123095Y-169711461D01*
X98123095Y-169711461D02*
X98002142Y-169650984D01*
X98002142Y-169650984D02*
X97820714Y-169650984D01*
X97820714Y-169650984D02*
X97699761Y-169590508D01*
X97699761Y-169590508D02*
X97639285Y-169469556D01*
X97639285Y-169469556D02*
X97639285Y-169409080D01*
X97639285Y-169409080D02*
X97699761Y-169288127D01*
X97699761Y-169288127D02*
X97820714Y-169227651D01*
X97820714Y-169227651D02*
X98002142Y-169227651D01*
X98002142Y-169227651D02*
X98123095Y-169288127D01*
X99272142Y-170013842D02*
X99151190Y-170074318D01*
X99151190Y-170074318D02*
X98909285Y-170074318D01*
X98909285Y-170074318D02*
X98788333Y-170013842D01*
X98788333Y-170013842D02*
X98727856Y-169953365D01*
X98727856Y-169953365D02*
X98667380Y-169832413D01*
X98667380Y-169832413D02*
X98667380Y-169469556D01*
X98667380Y-169469556D02*
X98727856Y-169348603D01*
X98727856Y-169348603D02*
X98788333Y-169288127D01*
X98788333Y-169288127D02*
X98909285Y-169227651D01*
X98909285Y-169227651D02*
X99151190Y-169227651D01*
X99151190Y-169227651D02*
X99272142Y-169288127D01*
X99816427Y-170074318D02*
X99816427Y-168804318D01*
X100360713Y-170074318D02*
X100360713Y-169409080D01*
X100360713Y-169409080D02*
X100300237Y-169288127D01*
X100300237Y-169288127D02*
X100179285Y-169227651D01*
X100179285Y-169227651D02*
X99997856Y-169227651D01*
X99997856Y-169227651D02*
X99876904Y-169288127D01*
X99876904Y-169288127D02*
X99816427Y-169348603D01*
X100663095Y-170195270D02*
X101630714Y-170195270D01*
X102537856Y-168804318D02*
X101933094Y-168804318D01*
X101933094Y-168804318D02*
X101872618Y-169409080D01*
X101872618Y-169409080D02*
X101933094Y-169348603D01*
X101933094Y-169348603D02*
X102054047Y-169288127D01*
X102054047Y-169288127D02*
X102356428Y-169288127D01*
X102356428Y-169288127D02*
X102477380Y-169348603D01*
X102477380Y-169348603D02*
X102537856Y-169409080D01*
X102537856Y-169409080D02*
X102598333Y-169530032D01*
X102598333Y-169530032D02*
X102598333Y-169832413D01*
X102598333Y-169832413D02*
X102537856Y-169953365D01*
X102537856Y-169953365D02*
X102477380Y-170013842D01*
X102477380Y-170013842D02*
X102356428Y-170074318D01*
X102356428Y-170074318D02*
X102054047Y-170074318D01*
X102054047Y-170074318D02*
X101933094Y-170013842D01*
X101933094Y-170013842D02*
X101872618Y-169953365D01*
X115324318Y-207787857D02*
X114054318Y-207787857D01*
X114054318Y-207787857D02*
X114054318Y-207485476D01*
X114054318Y-207485476D02*
X114114794Y-207304047D01*
X114114794Y-207304047D02*
X114235746Y-207183095D01*
X114235746Y-207183095D02*
X114356699Y-207122618D01*
X114356699Y-207122618D02*
X114598603Y-207062142D01*
X114598603Y-207062142D02*
X114780032Y-207062142D01*
X114780032Y-207062142D02*
X115021937Y-207122618D01*
X115021937Y-207122618D02*
X115142889Y-207183095D01*
X115142889Y-207183095D02*
X115263842Y-207304047D01*
X115263842Y-207304047D02*
X115324318Y-207485476D01*
X115324318Y-207485476D02*
X115324318Y-207787857D01*
X115445270Y-206820238D02*
X115445270Y-205852618D01*
X115263842Y-205610714D02*
X115324318Y-205489761D01*
X115324318Y-205489761D02*
X115324318Y-205247857D01*
X115324318Y-205247857D02*
X115263842Y-205126904D01*
X115263842Y-205126904D02*
X115142889Y-205066428D01*
X115142889Y-205066428D02*
X115082413Y-205066428D01*
X115082413Y-205066428D02*
X114961461Y-205126904D01*
X114961461Y-205126904D02*
X114900984Y-205247857D01*
X114900984Y-205247857D02*
X114900984Y-205429285D01*
X114900984Y-205429285D02*
X114840508Y-205550238D01*
X114840508Y-205550238D02*
X114719556Y-205610714D01*
X114719556Y-205610714D02*
X114659080Y-205610714D01*
X114659080Y-205610714D02*
X114538127Y-205550238D01*
X114538127Y-205550238D02*
X114477651Y-205429285D01*
X114477651Y-205429285D02*
X114477651Y-205247857D01*
X114477651Y-205247857D02*
X114538127Y-205126904D01*
X115263842Y-203977857D02*
X115324318Y-204098809D01*
X115324318Y-204098809D02*
X115324318Y-204340714D01*
X115324318Y-204340714D02*
X115263842Y-204461666D01*
X115263842Y-204461666D02*
X115203365Y-204522143D01*
X115203365Y-204522143D02*
X115082413Y-204582619D01*
X115082413Y-204582619D02*
X114719556Y-204582619D01*
X114719556Y-204582619D02*
X114598603Y-204522143D01*
X114598603Y-204522143D02*
X114538127Y-204461666D01*
X114538127Y-204461666D02*
X114477651Y-204340714D01*
X114477651Y-204340714D02*
X114477651Y-204098809D01*
X114477651Y-204098809D02*
X114538127Y-203977857D01*
X115324318Y-203433572D02*
X114054318Y-203433572D01*
X115324318Y-202889286D02*
X114659080Y-202889286D01*
X114659080Y-202889286D02*
X114538127Y-202949762D01*
X114538127Y-202949762D02*
X114477651Y-203070714D01*
X114477651Y-203070714D02*
X114477651Y-203252143D01*
X114477651Y-203252143D02*
X114538127Y-203373095D01*
X114538127Y-203373095D02*
X114598603Y-203433572D01*
X115445270Y-202586905D02*
X115445270Y-201619285D01*
X115324318Y-200651666D02*
X115324318Y-201377381D01*
X115324318Y-201014524D02*
X114054318Y-201014524D01*
X114054318Y-201014524D02*
X114235746Y-201135476D01*
X114235746Y-201135476D02*
X114356699Y-201256428D01*
X114356699Y-201256428D02*
X114417175Y-201377381D01*
X138024762Y-175945270D02*
X137903810Y-175884794D01*
X137903810Y-175884794D02*
X137782857Y-175763842D01*
X137782857Y-175763842D02*
X137601429Y-175582413D01*
X137601429Y-175582413D02*
X137480476Y-175521937D01*
X137480476Y-175521937D02*
X137359524Y-175521937D01*
X137420000Y-175824318D02*
X137299048Y-175763842D01*
X137299048Y-175763842D02*
X137178095Y-175642889D01*
X137178095Y-175642889D02*
X137117619Y-175400984D01*
X137117619Y-175400984D02*
X137117619Y-174977651D01*
X137117619Y-174977651D02*
X137178095Y-174735746D01*
X137178095Y-174735746D02*
X137299048Y-174614794D01*
X137299048Y-174614794D02*
X137420000Y-174554318D01*
X137420000Y-174554318D02*
X137661905Y-174554318D01*
X137661905Y-174554318D02*
X137782857Y-174614794D01*
X137782857Y-174614794D02*
X137903810Y-174735746D01*
X137903810Y-174735746D02*
X137964286Y-174977651D01*
X137964286Y-174977651D02*
X137964286Y-175400984D01*
X137964286Y-175400984D02*
X137903810Y-175642889D01*
X137903810Y-175642889D02*
X137782857Y-175763842D01*
X137782857Y-175763842D02*
X137661905Y-175824318D01*
X137661905Y-175824318D02*
X137420000Y-175824318D01*
X138206191Y-175945270D02*
X139173810Y-175945270D01*
X139476190Y-175824318D02*
X139476190Y-174554318D01*
X139476190Y-174554318D02*
X140201905Y-175824318D01*
X140201905Y-175824318D02*
X140201905Y-174554318D01*
X141350952Y-175763842D02*
X141230000Y-175824318D01*
X141230000Y-175824318D02*
X140988095Y-175824318D01*
X140988095Y-175824318D02*
X140867143Y-175763842D01*
X140867143Y-175763842D02*
X140806666Y-175703365D01*
X140806666Y-175703365D02*
X140746190Y-175582413D01*
X140746190Y-175582413D02*
X140746190Y-175219556D01*
X140746190Y-175219556D02*
X140806666Y-175098603D01*
X140806666Y-175098603D02*
X140867143Y-175038127D01*
X140867143Y-175038127D02*
X140988095Y-174977651D01*
X140988095Y-174977651D02*
X141230000Y-174977651D01*
X141230000Y-174977651D02*
X141350952Y-175038127D01*
X141895237Y-175824318D02*
X141895237Y-174554318D01*
X142439523Y-175824318D02*
X142439523Y-175159080D01*
X142439523Y-175159080D02*
X142379047Y-175038127D01*
X142379047Y-175038127D02*
X142258095Y-174977651D01*
X142258095Y-174977651D02*
X142076666Y-174977651D01*
X142076666Y-174977651D02*
X141955714Y-175038127D01*
X141955714Y-175038127D02*
X141895237Y-175098603D01*
X143467619Y-175159080D02*
X143044285Y-175159080D01*
X143044285Y-175824318D02*
X143044285Y-174554318D01*
X143044285Y-174554318D02*
X143649047Y-174554318D01*
X144132856Y-175159080D02*
X144556190Y-175159080D01*
X144737618Y-175824318D02*
X144132856Y-175824318D01*
X144132856Y-175824318D02*
X144132856Y-174554318D01*
X144132856Y-174554318D02*
X144737618Y-174554318D01*
X145100476Y-174554318D02*
X145826190Y-174554318D01*
X145463333Y-175824318D02*
X145463333Y-174554318D01*
X145947143Y-175945270D02*
X146914762Y-175945270D01*
X147761428Y-174554318D02*
X147519523Y-174554318D01*
X147519523Y-174554318D02*
X147398571Y-174614794D01*
X147398571Y-174614794D02*
X147338095Y-174675270D01*
X147338095Y-174675270D02*
X147217142Y-174856699D01*
X147217142Y-174856699D02*
X147156666Y-175098603D01*
X147156666Y-175098603D02*
X147156666Y-175582413D01*
X147156666Y-175582413D02*
X147217142Y-175703365D01*
X147217142Y-175703365D02*
X147277619Y-175763842D01*
X147277619Y-175763842D02*
X147398571Y-175824318D01*
X147398571Y-175824318D02*
X147640476Y-175824318D01*
X147640476Y-175824318D02*
X147761428Y-175763842D01*
X147761428Y-175763842D02*
X147821904Y-175703365D01*
X147821904Y-175703365D02*
X147882381Y-175582413D01*
X147882381Y-175582413D02*
X147882381Y-175280032D01*
X147882381Y-175280032D02*
X147821904Y-175159080D01*
X147821904Y-175159080D02*
X147761428Y-175098603D01*
X147761428Y-175098603D02*
X147640476Y-175038127D01*
X147640476Y-175038127D02*
X147398571Y-175038127D01*
X147398571Y-175038127D02*
X147277619Y-175098603D01*
X147277619Y-175098603D02*
X147217142Y-175159080D01*
X147217142Y-175159080D02*
X147156666Y-175280032D01*
X91574318Y-194363333D02*
X90304318Y-194363333D01*
X91574318Y-193637618D02*
X90848603Y-194181904D01*
X90304318Y-193637618D02*
X91030032Y-194363333D01*
X91695270Y-193395714D02*
X91695270Y-192428094D01*
X90304318Y-192307142D02*
X90304318Y-191581428D01*
X91574318Y-191944285D02*
X90304318Y-191944285D01*
X90727651Y-191279047D02*
X91574318Y-190976666D01*
X90727651Y-190674285D02*
X91574318Y-190976666D01*
X91574318Y-190976666D02*
X91876699Y-191097618D01*
X91876699Y-191097618D02*
X91937175Y-191158095D01*
X91937175Y-191158095D02*
X91997651Y-191279047D01*
X90727651Y-190190476D02*
X91997651Y-190190476D01*
X90788127Y-190190476D02*
X90727651Y-190069523D01*
X90727651Y-190069523D02*
X90727651Y-189827618D01*
X90727651Y-189827618D02*
X90788127Y-189706666D01*
X90788127Y-189706666D02*
X90848603Y-189646190D01*
X90848603Y-189646190D02*
X90969556Y-189585714D01*
X90969556Y-189585714D02*
X91332413Y-189585714D01*
X91332413Y-189585714D02*
X91453365Y-189646190D01*
X91453365Y-189646190D02*
X91513842Y-189706666D01*
X91513842Y-189706666D02*
X91574318Y-189827618D01*
X91574318Y-189827618D02*
X91574318Y-190069523D01*
X91574318Y-190069523D02*
X91513842Y-190190476D01*
X91513842Y-188557618D02*
X91574318Y-188678570D01*
X91574318Y-188678570D02*
X91574318Y-188920475D01*
X91574318Y-188920475D02*
X91513842Y-189041428D01*
X91513842Y-189041428D02*
X91392889Y-189101904D01*
X91392889Y-189101904D02*
X90909080Y-189101904D01*
X90909080Y-189101904D02*
X90788127Y-189041428D01*
X90788127Y-189041428D02*
X90727651Y-188920475D01*
X90727651Y-188920475D02*
X90727651Y-188678570D01*
X90727651Y-188678570D02*
X90788127Y-188557618D01*
X90788127Y-188557618D02*
X90909080Y-188497142D01*
X90909080Y-188497142D02*
X91030032Y-188497142D01*
X91030032Y-188497142D02*
X91150984Y-189101904D01*
X91453365Y-187227142D02*
X91513842Y-187287618D01*
X91513842Y-187287618D02*
X91574318Y-187469047D01*
X91574318Y-187469047D02*
X91574318Y-187589999D01*
X91574318Y-187589999D02*
X91513842Y-187771428D01*
X91513842Y-187771428D02*
X91392889Y-187892380D01*
X91392889Y-187892380D02*
X91271937Y-187952857D01*
X91271937Y-187952857D02*
X91030032Y-188013333D01*
X91030032Y-188013333D02*
X90848603Y-188013333D01*
X90848603Y-188013333D02*
X90606699Y-187952857D01*
X90606699Y-187952857D02*
X90485746Y-187892380D01*
X90485746Y-187892380D02*
X90364794Y-187771428D01*
X90364794Y-187771428D02*
X90304318Y-187589999D01*
X90304318Y-187589999D02*
X90304318Y-187469047D01*
X90304318Y-187469047D02*
X90364794Y-187287618D01*
X90364794Y-187287618D02*
X90425270Y-187227142D01*
X91574318Y-185957142D02*
X90969556Y-186380476D01*
X91574318Y-186682857D02*
X90304318Y-186682857D01*
X90304318Y-186682857D02*
X90304318Y-186199047D01*
X90304318Y-186199047D02*
X90364794Y-186078095D01*
X90364794Y-186078095D02*
X90425270Y-186017618D01*
X90425270Y-186017618D02*
X90546222Y-185957142D01*
X90546222Y-185957142D02*
X90727651Y-185957142D01*
X90727651Y-185957142D02*
X90848603Y-186017618D01*
X90848603Y-186017618D02*
X90909080Y-186078095D01*
X90909080Y-186078095D02*
X90969556Y-186199047D01*
X90969556Y-186199047D02*
X90969556Y-186682857D01*
X91513842Y-184929047D02*
X91574318Y-185049999D01*
X91574318Y-185049999D02*
X91574318Y-185291904D01*
X91574318Y-185291904D02*
X91513842Y-185412857D01*
X91513842Y-185412857D02*
X91392889Y-185473333D01*
X91392889Y-185473333D02*
X90909080Y-185473333D01*
X90909080Y-185473333D02*
X90788127Y-185412857D01*
X90788127Y-185412857D02*
X90727651Y-185291904D01*
X90727651Y-185291904D02*
X90727651Y-185049999D01*
X90727651Y-185049999D02*
X90788127Y-184929047D01*
X90788127Y-184929047D02*
X90909080Y-184868571D01*
X90909080Y-184868571D02*
X91030032Y-184868571D01*
X91030032Y-184868571D02*
X91150984Y-185473333D01*
X91574318Y-184142857D02*
X91513842Y-184263809D01*
X91513842Y-184263809D02*
X91392889Y-184324286D01*
X91392889Y-184324286D02*
X90304318Y-184324286D01*
X91695270Y-183961429D02*
X91695270Y-182993809D01*
X90304318Y-182086667D02*
X90304318Y-182691429D01*
X90304318Y-182691429D02*
X90909080Y-182751905D01*
X90909080Y-182751905D02*
X90848603Y-182691429D01*
X90848603Y-182691429D02*
X90788127Y-182570476D01*
X90788127Y-182570476D02*
X90788127Y-182268095D01*
X90788127Y-182268095D02*
X90848603Y-182147143D01*
X90848603Y-182147143D02*
X90909080Y-182086667D01*
X90909080Y-182086667D02*
X91030032Y-182026190D01*
X91030032Y-182026190D02*
X91332413Y-182026190D01*
X91332413Y-182026190D02*
X91453365Y-182086667D01*
X91453365Y-182086667D02*
X91513842Y-182147143D01*
X91513842Y-182147143D02*
X91574318Y-182268095D01*
X91574318Y-182268095D02*
X91574318Y-182570476D01*
X91574318Y-182570476D02*
X91513842Y-182691429D01*
X91513842Y-182691429D02*
X91453365Y-182751905D01*
D11*
X126454819Y-134895714D02*
X125978628Y-135229047D01*
X126454819Y-135467142D02*
X125454819Y-135467142D01*
X125454819Y-135467142D02*
X125454819Y-135086190D01*
X125454819Y-135086190D02*
X125502438Y-134990952D01*
X125502438Y-134990952D02*
X125550057Y-134943333D01*
X125550057Y-134943333D02*
X125645295Y-134895714D01*
X125645295Y-134895714D02*
X125788152Y-134895714D01*
X125788152Y-134895714D02*
X125883390Y-134943333D01*
X125883390Y-134943333D02*
X125931009Y-134990952D01*
X125931009Y-134990952D02*
X125978628Y-135086190D01*
X125978628Y-135086190D02*
X125978628Y-135467142D01*
X126550057Y-134705238D02*
X126550057Y-133943333D01*
X125788152Y-133276666D02*
X126454819Y-133276666D01*
X125407200Y-133514761D02*
X126121485Y-133752856D01*
X126121485Y-133752856D02*
X126121485Y-133133809D01*
X126454819Y-132752856D02*
X125454819Y-132752856D01*
X126073866Y-132657618D02*
X126454819Y-132371904D01*
X125788152Y-132371904D02*
X126169104Y-132752856D01*
X125454819Y-132038570D02*
X125454819Y-131371904D01*
X125454819Y-131371904D02*
X126454819Y-131800475D01*
X126550057Y-131229047D02*
X126550057Y-130467142D01*
X126454819Y-129705237D02*
X126454819Y-130276665D01*
X126454819Y-129990951D02*
X125454819Y-129990951D01*
X125454819Y-129990951D02*
X125597676Y-130086189D01*
X125597676Y-130086189D02*
X125692914Y-130181427D01*
X125692914Y-130181427D02*
X125740533Y-130276665D01*
D12*
X71806905Y-208304318D02*
X71806905Y-209211461D01*
X71806905Y-209211461D02*
X71746428Y-209392889D01*
X71746428Y-209392889D02*
X71625476Y-209513842D01*
X71625476Y-209513842D02*
X71444047Y-209574318D01*
X71444047Y-209574318D02*
X71323095Y-209574318D01*
X72109286Y-209695270D02*
X73076905Y-209695270D01*
X73318809Y-208425270D02*
X73379285Y-208364794D01*
X73379285Y-208364794D02*
X73500238Y-208304318D01*
X73500238Y-208304318D02*
X73802619Y-208304318D01*
X73802619Y-208304318D02*
X73923571Y-208364794D01*
X73923571Y-208364794D02*
X73984047Y-208425270D01*
X73984047Y-208425270D02*
X74044524Y-208546222D01*
X74044524Y-208546222D02*
X74044524Y-208667175D01*
X74044524Y-208667175D02*
X73984047Y-208848603D01*
X73984047Y-208848603D02*
X73258333Y-209574318D01*
X73258333Y-209574318D02*
X74044524Y-209574318D01*
X75133095Y-208727651D02*
X75133095Y-209574318D01*
X74830714Y-208243842D02*
X74528333Y-209150984D01*
X74528333Y-209150984D02*
X75314524Y-209150984D01*
X75616905Y-208304318D02*
X76040238Y-209574318D01*
X76040238Y-209574318D02*
X76463572Y-208304318D01*
X76886904Y-209574318D02*
X76886904Y-208727651D01*
X76886904Y-208304318D02*
X76826428Y-208364794D01*
X76826428Y-208364794D02*
X76886904Y-208425270D01*
X76886904Y-208425270D02*
X76947381Y-208364794D01*
X76947381Y-208364794D02*
X76886904Y-208304318D01*
X76886904Y-208304318D02*
X76886904Y-208425270D01*
X77491666Y-208727651D02*
X77491666Y-209574318D01*
X77491666Y-208848603D02*
X77552143Y-208788127D01*
X77552143Y-208788127D02*
X77673095Y-208727651D01*
X77673095Y-208727651D02*
X77854524Y-208727651D01*
X77854524Y-208727651D02*
X77975476Y-208788127D01*
X77975476Y-208788127D02*
X78035952Y-208909080D01*
X78035952Y-208909080D02*
X78035952Y-209574318D01*
X78640714Y-209090508D02*
X79608334Y-209090508D01*
X79124524Y-209574318D02*
X79124524Y-208606699D01*
X80878334Y-208364794D02*
X80757381Y-208304318D01*
X80757381Y-208304318D02*
X80575953Y-208304318D01*
X80575953Y-208304318D02*
X80394524Y-208364794D01*
X80394524Y-208364794D02*
X80273572Y-208485746D01*
X80273572Y-208485746D02*
X80213095Y-208606699D01*
X80213095Y-208606699D02*
X80152619Y-208848603D01*
X80152619Y-208848603D02*
X80152619Y-209030032D01*
X80152619Y-209030032D02*
X80213095Y-209271937D01*
X80213095Y-209271937D02*
X80273572Y-209392889D01*
X80273572Y-209392889D02*
X80394524Y-209513842D01*
X80394524Y-209513842D02*
X80575953Y-209574318D01*
X80575953Y-209574318D02*
X80696905Y-209574318D01*
X80696905Y-209574318D02*
X80878334Y-209513842D01*
X80878334Y-209513842D02*
X80938810Y-209453365D01*
X80938810Y-209453365D02*
X80938810Y-209030032D01*
X80938810Y-209030032D02*
X80696905Y-209030032D01*
X81483095Y-209574318D02*
X81483095Y-208304318D01*
X81483095Y-208304318D02*
X82208810Y-209574318D01*
X82208810Y-209574318D02*
X82208810Y-208304318D01*
X82813571Y-209574318D02*
X82813571Y-208304318D01*
X82813571Y-208304318D02*
X83115952Y-208304318D01*
X83115952Y-208304318D02*
X83297381Y-208364794D01*
X83297381Y-208364794D02*
X83418333Y-208485746D01*
X83418333Y-208485746D02*
X83478810Y-208606699D01*
X83478810Y-208606699D02*
X83539286Y-208848603D01*
X83539286Y-208848603D02*
X83539286Y-209030032D01*
X83539286Y-209030032D02*
X83478810Y-209271937D01*
X83478810Y-209271937D02*
X83418333Y-209392889D01*
X83418333Y-209392889D02*
X83297381Y-209513842D01*
X83297381Y-209513842D02*
X83115952Y-209574318D01*
X83115952Y-209574318D02*
X82813571Y-209574318D01*
X83781191Y-209695270D02*
X84748810Y-209695270D01*
X85716429Y-209574318D02*
X84990714Y-209574318D01*
X85353571Y-209574318D02*
X85353571Y-208304318D01*
X85353571Y-208304318D02*
X85232619Y-208485746D01*
X85232619Y-208485746D02*
X85111667Y-208606699D01*
X85111667Y-208606699D02*
X84990714Y-208667175D01*
X123834525Y-208354318D02*
X123834525Y-209261461D01*
X123834525Y-209261461D02*
X123774048Y-209442889D01*
X123774048Y-209442889D02*
X123653096Y-209563842D01*
X123653096Y-209563842D02*
X123471667Y-209624318D01*
X123471667Y-209624318D02*
X123350715Y-209624318D01*
X124136906Y-209745270D02*
X125104525Y-209745270D01*
X125225477Y-208354318D02*
X125648810Y-209624318D01*
X125648810Y-209624318D02*
X126072144Y-208354318D01*
X126918810Y-208959080D02*
X126495476Y-208959080D01*
X126495476Y-209624318D02*
X126495476Y-208354318D01*
X126495476Y-208354318D02*
X127100238Y-208354318D01*
X127584047Y-209624318D02*
X127584047Y-208354318D01*
X127584047Y-208354318D02*
X127886428Y-208354318D01*
X127886428Y-208354318D02*
X128067857Y-208414794D01*
X128067857Y-208414794D02*
X128188809Y-208535746D01*
X128188809Y-208535746D02*
X128249286Y-208656699D01*
X128249286Y-208656699D02*
X128309762Y-208898603D01*
X128309762Y-208898603D02*
X128309762Y-209080032D01*
X128309762Y-209080032D02*
X128249286Y-209321937D01*
X128249286Y-209321937D02*
X128188809Y-209442889D01*
X128188809Y-209442889D02*
X128067857Y-209563842D01*
X128067857Y-209563842D02*
X127886428Y-209624318D01*
X127886428Y-209624318D02*
X127584047Y-209624318D01*
X129398333Y-209563842D02*
X129277381Y-209624318D01*
X129277381Y-209624318D02*
X129035476Y-209624318D01*
X129035476Y-209624318D02*
X128914524Y-209563842D01*
X128914524Y-209563842D02*
X128854047Y-209503365D01*
X128854047Y-209503365D02*
X128793571Y-209382413D01*
X128793571Y-209382413D02*
X128793571Y-209019556D01*
X128793571Y-209019556D02*
X128854047Y-208898603D01*
X128854047Y-208898603D02*
X128914524Y-208838127D01*
X128914524Y-208838127D02*
X129035476Y-208777651D01*
X129035476Y-208777651D02*
X129277381Y-208777651D01*
X129277381Y-208777651D02*
X129398333Y-208838127D01*
X130124047Y-209624318D02*
X130003095Y-209563842D01*
X130003095Y-209563842D02*
X129942618Y-209503365D01*
X129942618Y-209503365D02*
X129882142Y-209382413D01*
X129882142Y-209382413D02*
X129882142Y-209019556D01*
X129882142Y-209019556D02*
X129942618Y-208898603D01*
X129942618Y-208898603D02*
X130003095Y-208838127D01*
X130003095Y-208838127D02*
X130124047Y-208777651D01*
X130124047Y-208777651D02*
X130305476Y-208777651D01*
X130305476Y-208777651D02*
X130426428Y-208838127D01*
X130426428Y-208838127D02*
X130486904Y-208898603D01*
X130486904Y-208898603D02*
X130547380Y-209019556D01*
X130547380Y-209019556D02*
X130547380Y-209382413D01*
X130547380Y-209382413D02*
X130486904Y-209503365D01*
X130486904Y-209503365D02*
X130426428Y-209563842D01*
X130426428Y-209563842D02*
X130305476Y-209624318D01*
X130305476Y-209624318D02*
X130124047Y-209624318D01*
X131091666Y-208777651D02*
X131091666Y-209624318D01*
X131091666Y-208898603D02*
X131152143Y-208838127D01*
X131152143Y-208838127D02*
X131273095Y-208777651D01*
X131273095Y-208777651D02*
X131454524Y-208777651D01*
X131454524Y-208777651D02*
X131575476Y-208838127D01*
X131575476Y-208838127D02*
X131635952Y-208959080D01*
X131635952Y-208959080D02*
X131635952Y-209624318D01*
X132240714Y-208777651D02*
X132240714Y-209624318D01*
X132240714Y-208898603D02*
X132301191Y-208838127D01*
X132301191Y-208838127D02*
X132422143Y-208777651D01*
X132422143Y-208777651D02*
X132603572Y-208777651D01*
X132603572Y-208777651D02*
X132724524Y-208838127D01*
X132724524Y-208838127D02*
X132785000Y-208959080D01*
X132785000Y-208959080D02*
X132785000Y-209624318D01*
X133873572Y-209563842D02*
X133752620Y-209624318D01*
X133752620Y-209624318D02*
X133510715Y-209624318D01*
X133510715Y-209624318D02*
X133389762Y-209563842D01*
X133389762Y-209563842D02*
X133329286Y-209442889D01*
X133329286Y-209442889D02*
X133329286Y-208959080D01*
X133329286Y-208959080D02*
X133389762Y-208838127D01*
X133389762Y-208838127D02*
X133510715Y-208777651D01*
X133510715Y-208777651D02*
X133752620Y-208777651D01*
X133752620Y-208777651D02*
X133873572Y-208838127D01*
X133873572Y-208838127D02*
X133934048Y-208959080D01*
X133934048Y-208959080D02*
X133934048Y-209080032D01*
X133934048Y-209080032D02*
X133329286Y-209200984D01*
X135022619Y-209563842D02*
X134901667Y-209624318D01*
X134901667Y-209624318D02*
X134659762Y-209624318D01*
X134659762Y-209624318D02*
X134538810Y-209563842D01*
X134538810Y-209563842D02*
X134478333Y-209503365D01*
X134478333Y-209503365D02*
X134417857Y-209382413D01*
X134417857Y-209382413D02*
X134417857Y-209019556D01*
X134417857Y-209019556D02*
X134478333Y-208898603D01*
X134478333Y-208898603D02*
X134538810Y-208838127D01*
X134538810Y-208838127D02*
X134659762Y-208777651D01*
X134659762Y-208777651D02*
X134901667Y-208777651D01*
X134901667Y-208777651D02*
X135022619Y-208838127D01*
X135385476Y-208777651D02*
X135869285Y-208777651D01*
X135566904Y-208354318D02*
X135566904Y-209442889D01*
X135566904Y-209442889D02*
X135627381Y-209563842D01*
X135627381Y-209563842D02*
X135748333Y-209624318D01*
X135748333Y-209624318D02*
X135869285Y-209624318D01*
X136474047Y-209624318D02*
X136353095Y-209563842D01*
X136353095Y-209563842D02*
X136292618Y-209503365D01*
X136292618Y-209503365D02*
X136232142Y-209382413D01*
X136232142Y-209382413D02*
X136232142Y-209019556D01*
X136232142Y-209019556D02*
X136292618Y-208898603D01*
X136292618Y-208898603D02*
X136353095Y-208838127D01*
X136353095Y-208838127D02*
X136474047Y-208777651D01*
X136474047Y-208777651D02*
X136655476Y-208777651D01*
X136655476Y-208777651D02*
X136776428Y-208838127D01*
X136776428Y-208838127D02*
X136836904Y-208898603D01*
X136836904Y-208898603D02*
X136897380Y-209019556D01*
X136897380Y-209019556D02*
X136897380Y-209382413D01*
X136897380Y-209382413D02*
X136836904Y-209503365D01*
X136836904Y-209503365D02*
X136776428Y-209563842D01*
X136776428Y-209563842D02*
X136655476Y-209624318D01*
X136655476Y-209624318D02*
X136474047Y-209624318D01*
X137441666Y-209624318D02*
X137441666Y-208777651D01*
X137441666Y-209019556D02*
X137502143Y-208898603D01*
X137502143Y-208898603D02*
X137562619Y-208838127D01*
X137562619Y-208838127D02*
X137683571Y-208777651D01*
X137683571Y-208777651D02*
X137804524Y-208777651D01*
X138167380Y-209563842D02*
X138288333Y-209624318D01*
X138288333Y-209624318D02*
X138530237Y-209624318D01*
X138530237Y-209624318D02*
X138651190Y-209563842D01*
X138651190Y-209563842D02*
X138711666Y-209442889D01*
X138711666Y-209442889D02*
X138711666Y-209382413D01*
X138711666Y-209382413D02*
X138651190Y-209261461D01*
X138651190Y-209261461D02*
X138530237Y-209200984D01*
X138530237Y-209200984D02*
X138348809Y-209200984D01*
X138348809Y-209200984D02*
X138227856Y-209140508D01*
X138227856Y-209140508D02*
X138167380Y-209019556D01*
X138167380Y-209019556D02*
X138167380Y-208959080D01*
X138167380Y-208959080D02*
X138227856Y-208838127D01*
X138227856Y-208838127D02*
X138348809Y-208777651D01*
X138348809Y-208777651D02*
X138530237Y-208777651D01*
X138530237Y-208777651D02*
X138651190Y-208838127D01*
X138953571Y-209745270D02*
X139921190Y-209745270D01*
X140102618Y-208354318D02*
X140888809Y-208354318D01*
X140888809Y-208354318D02*
X140465475Y-208838127D01*
X140465475Y-208838127D02*
X140646904Y-208838127D01*
X140646904Y-208838127D02*
X140767856Y-208898603D01*
X140767856Y-208898603D02*
X140828332Y-208959080D01*
X140828332Y-208959080D02*
X140888809Y-209080032D01*
X140888809Y-209080032D02*
X140888809Y-209382413D01*
X140888809Y-209382413D02*
X140828332Y-209503365D01*
X140828332Y-209503365D02*
X140767856Y-209563842D01*
X140767856Y-209563842D02*
X140646904Y-209624318D01*
X140646904Y-209624318D02*
X140284047Y-209624318D01*
X140284047Y-209624318D02*
X140163094Y-209563842D01*
X140163094Y-209563842D02*
X140102618Y-209503365D01*
X129074318Y-161722618D02*
X127804318Y-161722618D01*
X129074318Y-160996903D02*
X128348603Y-161541189D01*
X127804318Y-160996903D02*
X128530032Y-161722618D01*
X129195270Y-160754999D02*
X129195270Y-159787379D01*
X127804318Y-159666427D02*
X127804318Y-158940713D01*
X129074318Y-159303570D02*
X127804318Y-159303570D01*
X128227651Y-158638332D02*
X129074318Y-158335951D01*
X128227651Y-158033570D02*
X129074318Y-158335951D01*
X129074318Y-158335951D02*
X129376699Y-158456903D01*
X129376699Y-158456903D02*
X129437175Y-158517380D01*
X129437175Y-158517380D02*
X129497651Y-158638332D01*
X128227651Y-157549761D02*
X129497651Y-157549761D01*
X128288127Y-157549761D02*
X128227651Y-157428808D01*
X128227651Y-157428808D02*
X128227651Y-157186903D01*
X128227651Y-157186903D02*
X128288127Y-157065951D01*
X128288127Y-157065951D02*
X128348603Y-157005475D01*
X128348603Y-157005475D02*
X128469556Y-156944999D01*
X128469556Y-156944999D02*
X128832413Y-156944999D01*
X128832413Y-156944999D02*
X128953365Y-157005475D01*
X128953365Y-157005475D02*
X129013842Y-157065951D01*
X129013842Y-157065951D02*
X129074318Y-157186903D01*
X129074318Y-157186903D02*
X129074318Y-157428808D01*
X129074318Y-157428808D02*
X129013842Y-157549761D01*
X129013842Y-155916903D02*
X129074318Y-156037855D01*
X129074318Y-156037855D02*
X129074318Y-156279760D01*
X129074318Y-156279760D02*
X129013842Y-156400713D01*
X129013842Y-156400713D02*
X128892889Y-156461189D01*
X128892889Y-156461189D02*
X128409080Y-156461189D01*
X128409080Y-156461189D02*
X128288127Y-156400713D01*
X128288127Y-156400713D02*
X128227651Y-156279760D01*
X128227651Y-156279760D02*
X128227651Y-156037855D01*
X128227651Y-156037855D02*
X128288127Y-155916903D01*
X128288127Y-155916903D02*
X128409080Y-155856427D01*
X128409080Y-155856427D02*
X128530032Y-155856427D01*
X128530032Y-155856427D02*
X128650984Y-156461189D01*
X128711461Y-155372618D02*
X128711461Y-154767856D01*
X129074318Y-155493570D02*
X127804318Y-155070237D01*
X127804318Y-155070237D02*
X129074318Y-154646903D01*
X129074318Y-153497856D02*
X128469556Y-153921190D01*
X129074318Y-154223571D02*
X127804318Y-154223571D01*
X127804318Y-154223571D02*
X127804318Y-153739761D01*
X127804318Y-153739761D02*
X127864794Y-153618809D01*
X127864794Y-153618809D02*
X127925270Y-153558332D01*
X127925270Y-153558332D02*
X128046222Y-153497856D01*
X128046222Y-153497856D02*
X128227651Y-153497856D01*
X128227651Y-153497856D02*
X128348603Y-153558332D01*
X128348603Y-153558332D02*
X128409080Y-153618809D01*
X128409080Y-153618809D02*
X128469556Y-153739761D01*
X128469556Y-153739761D02*
X128469556Y-154223571D01*
X129013842Y-152469761D02*
X129074318Y-152590713D01*
X129074318Y-152590713D02*
X129074318Y-152832618D01*
X129074318Y-152832618D02*
X129013842Y-152953571D01*
X129013842Y-152953571D02*
X128892889Y-153014047D01*
X128892889Y-153014047D02*
X128409080Y-153014047D01*
X128409080Y-153014047D02*
X128288127Y-152953571D01*
X128288127Y-152953571D02*
X128227651Y-152832618D01*
X128227651Y-152832618D02*
X128227651Y-152590713D01*
X128227651Y-152590713D02*
X128288127Y-152469761D01*
X128288127Y-152469761D02*
X128409080Y-152409285D01*
X128409080Y-152409285D02*
X128530032Y-152409285D01*
X128530032Y-152409285D02*
X128650984Y-153014047D01*
X129074318Y-151683571D02*
X129013842Y-151804523D01*
X129013842Y-151804523D02*
X128892889Y-151865000D01*
X128892889Y-151865000D02*
X127804318Y-151865000D01*
X129195270Y-151502143D02*
X129195270Y-150534523D01*
X127804318Y-150353095D02*
X127804318Y-149566904D01*
X127804318Y-149566904D02*
X128288127Y-149990238D01*
X128288127Y-149990238D02*
X128288127Y-149808809D01*
X128288127Y-149808809D02*
X128348603Y-149687857D01*
X128348603Y-149687857D02*
X128409080Y-149627381D01*
X128409080Y-149627381D02*
X128530032Y-149566904D01*
X128530032Y-149566904D02*
X128832413Y-149566904D01*
X128832413Y-149566904D02*
X128953365Y-149627381D01*
X128953365Y-149627381D02*
X129013842Y-149687857D01*
X129013842Y-149687857D02*
X129074318Y-149808809D01*
X129074318Y-149808809D02*
X129074318Y-150171666D01*
X129074318Y-150171666D02*
X129013842Y-150292619D01*
X129013842Y-150292619D02*
X128953365Y-150353095D01*
D11*
X65599285Y-77644819D02*
X65599285Y-78359104D01*
X65599285Y-78359104D02*
X65551666Y-78501961D01*
X65551666Y-78501961D02*
X65456428Y-78597200D01*
X65456428Y-78597200D02*
X65313571Y-78644819D01*
X65313571Y-78644819D02*
X65218333Y-78644819D01*
X65837381Y-78740057D02*
X66599285Y-78740057D01*
X67313571Y-78644819D02*
X66837381Y-78644819D01*
X66837381Y-78644819D02*
X66837381Y-77644819D01*
X68218333Y-78549580D02*
X68170714Y-78597200D01*
X68170714Y-78597200D02*
X68027857Y-78644819D01*
X68027857Y-78644819D02*
X67932619Y-78644819D01*
X67932619Y-78644819D02*
X67789762Y-78597200D01*
X67789762Y-78597200D02*
X67694524Y-78501961D01*
X67694524Y-78501961D02*
X67646905Y-78406723D01*
X67646905Y-78406723D02*
X67599286Y-78216247D01*
X67599286Y-78216247D02*
X67599286Y-78073390D01*
X67599286Y-78073390D02*
X67646905Y-77882914D01*
X67646905Y-77882914D02*
X67694524Y-77787676D01*
X67694524Y-77787676D02*
X67789762Y-77692438D01*
X67789762Y-77692438D02*
X67932619Y-77644819D01*
X67932619Y-77644819D02*
X68027857Y-77644819D01*
X68027857Y-77644819D02*
X68170714Y-77692438D01*
X68170714Y-77692438D02*
X68218333Y-77740057D01*
X68646905Y-78644819D02*
X68646905Y-77644819D01*
X68646905Y-77644819D02*
X68885000Y-77644819D01*
X68885000Y-77644819D02*
X69027857Y-77692438D01*
X69027857Y-77692438D02*
X69123095Y-77787676D01*
X69123095Y-77787676D02*
X69170714Y-77882914D01*
X69170714Y-77882914D02*
X69218333Y-78073390D01*
X69218333Y-78073390D02*
X69218333Y-78216247D01*
X69218333Y-78216247D02*
X69170714Y-78406723D01*
X69170714Y-78406723D02*
X69123095Y-78501961D01*
X69123095Y-78501961D02*
X69027857Y-78597200D01*
X69027857Y-78597200D02*
X68885000Y-78644819D01*
X68885000Y-78644819D02*
X68646905Y-78644819D01*
X70075476Y-78597200D02*
X69980238Y-78644819D01*
X69980238Y-78644819D02*
X69789762Y-78644819D01*
X69789762Y-78644819D02*
X69694524Y-78597200D01*
X69694524Y-78597200D02*
X69646905Y-78549580D01*
X69646905Y-78549580D02*
X69599286Y-78454342D01*
X69599286Y-78454342D02*
X69599286Y-78168628D01*
X69599286Y-78168628D02*
X69646905Y-78073390D01*
X69646905Y-78073390D02*
X69694524Y-78025771D01*
X69694524Y-78025771D02*
X69789762Y-77978152D01*
X69789762Y-77978152D02*
X69980238Y-77978152D01*
X69980238Y-77978152D02*
X70075476Y-78025771D01*
X70646905Y-78644819D02*
X70551667Y-78597200D01*
X70551667Y-78597200D02*
X70504048Y-78549580D01*
X70504048Y-78549580D02*
X70456429Y-78454342D01*
X70456429Y-78454342D02*
X70456429Y-78168628D01*
X70456429Y-78168628D02*
X70504048Y-78073390D01*
X70504048Y-78073390D02*
X70551667Y-78025771D01*
X70551667Y-78025771D02*
X70646905Y-77978152D01*
X70646905Y-77978152D02*
X70789762Y-77978152D01*
X70789762Y-77978152D02*
X70885000Y-78025771D01*
X70885000Y-78025771D02*
X70932619Y-78073390D01*
X70932619Y-78073390D02*
X70980238Y-78168628D01*
X70980238Y-78168628D02*
X70980238Y-78454342D01*
X70980238Y-78454342D02*
X70932619Y-78549580D01*
X70932619Y-78549580D02*
X70885000Y-78597200D01*
X70885000Y-78597200D02*
X70789762Y-78644819D01*
X70789762Y-78644819D02*
X70646905Y-78644819D01*
X71408810Y-77978152D02*
X71408810Y-78644819D01*
X71408810Y-78073390D02*
X71456429Y-78025771D01*
X71456429Y-78025771D02*
X71551667Y-77978152D01*
X71551667Y-77978152D02*
X71694524Y-77978152D01*
X71694524Y-77978152D02*
X71789762Y-78025771D01*
X71789762Y-78025771D02*
X71837381Y-78121009D01*
X71837381Y-78121009D02*
X71837381Y-78644819D01*
X72313572Y-77978152D02*
X72313572Y-78644819D01*
X72313572Y-78073390D02*
X72361191Y-78025771D01*
X72361191Y-78025771D02*
X72456429Y-77978152D01*
X72456429Y-77978152D02*
X72599286Y-77978152D01*
X72599286Y-77978152D02*
X72694524Y-78025771D01*
X72694524Y-78025771D02*
X72742143Y-78121009D01*
X72742143Y-78121009D02*
X72742143Y-78644819D01*
X72980239Y-78740057D02*
X73742143Y-78740057D01*
X74504048Y-78644819D02*
X73932620Y-78644819D01*
X74218334Y-78644819D02*
X74218334Y-77644819D01*
X74218334Y-77644819D02*
X74123096Y-77787676D01*
X74123096Y-77787676D02*
X74027858Y-77882914D01*
X74027858Y-77882914D02*
X73932620Y-77930533D01*
D12*
X100524762Y-175695270D02*
X100403810Y-175634794D01*
X100403810Y-175634794D02*
X100282857Y-175513842D01*
X100282857Y-175513842D02*
X100101429Y-175332413D01*
X100101429Y-175332413D02*
X99980476Y-175271937D01*
X99980476Y-175271937D02*
X99859524Y-175271937D01*
X99920000Y-175574318D02*
X99799048Y-175513842D01*
X99799048Y-175513842D02*
X99678095Y-175392889D01*
X99678095Y-175392889D02*
X99617619Y-175150984D01*
X99617619Y-175150984D02*
X99617619Y-174727651D01*
X99617619Y-174727651D02*
X99678095Y-174485746D01*
X99678095Y-174485746D02*
X99799048Y-174364794D01*
X99799048Y-174364794D02*
X99920000Y-174304318D01*
X99920000Y-174304318D02*
X100161905Y-174304318D01*
X100161905Y-174304318D02*
X100282857Y-174364794D01*
X100282857Y-174364794D02*
X100403810Y-174485746D01*
X100403810Y-174485746D02*
X100464286Y-174727651D01*
X100464286Y-174727651D02*
X100464286Y-175150984D01*
X100464286Y-175150984D02*
X100403810Y-175392889D01*
X100403810Y-175392889D02*
X100282857Y-175513842D01*
X100282857Y-175513842D02*
X100161905Y-175574318D01*
X100161905Y-175574318D02*
X99920000Y-175574318D01*
X100706191Y-175695270D02*
X101673810Y-175695270D01*
X101976190Y-175574318D02*
X101976190Y-174304318D01*
X101976190Y-174304318D02*
X102701905Y-175574318D01*
X102701905Y-175574318D02*
X102701905Y-174304318D01*
X103850952Y-175513842D02*
X103730000Y-175574318D01*
X103730000Y-175574318D02*
X103488095Y-175574318D01*
X103488095Y-175574318D02*
X103367143Y-175513842D01*
X103367143Y-175513842D02*
X103306666Y-175453365D01*
X103306666Y-175453365D02*
X103246190Y-175332413D01*
X103246190Y-175332413D02*
X103246190Y-174969556D01*
X103246190Y-174969556D02*
X103306666Y-174848603D01*
X103306666Y-174848603D02*
X103367143Y-174788127D01*
X103367143Y-174788127D02*
X103488095Y-174727651D01*
X103488095Y-174727651D02*
X103730000Y-174727651D01*
X103730000Y-174727651D02*
X103850952Y-174788127D01*
X104395237Y-175574318D02*
X104395237Y-174304318D01*
X104939523Y-175574318D02*
X104939523Y-174909080D01*
X104939523Y-174909080D02*
X104879047Y-174788127D01*
X104879047Y-174788127D02*
X104758095Y-174727651D01*
X104758095Y-174727651D02*
X104576666Y-174727651D01*
X104576666Y-174727651D02*
X104455714Y-174788127D01*
X104455714Y-174788127D02*
X104395237Y-174848603D01*
X105967619Y-174909080D02*
X105544285Y-174909080D01*
X105544285Y-175574318D02*
X105544285Y-174304318D01*
X105544285Y-174304318D02*
X106149047Y-174304318D01*
X106632856Y-174909080D02*
X107056190Y-174909080D01*
X107237618Y-175574318D02*
X106632856Y-175574318D01*
X106632856Y-175574318D02*
X106632856Y-174304318D01*
X106632856Y-174304318D02*
X107237618Y-174304318D01*
X107600476Y-174304318D02*
X108326190Y-174304318D01*
X107963333Y-175574318D02*
X107963333Y-174304318D01*
X108447143Y-175695270D02*
X109414762Y-175695270D01*
X110321904Y-174304318D02*
X109717142Y-174304318D01*
X109717142Y-174304318D02*
X109656666Y-174909080D01*
X109656666Y-174909080D02*
X109717142Y-174848603D01*
X109717142Y-174848603D02*
X109838095Y-174788127D01*
X109838095Y-174788127D02*
X110140476Y-174788127D01*
X110140476Y-174788127D02*
X110261428Y-174848603D01*
X110261428Y-174848603D02*
X110321904Y-174909080D01*
X110321904Y-174909080D02*
X110382381Y-175030032D01*
X110382381Y-175030032D02*
X110382381Y-175332413D01*
X110382381Y-175332413D02*
X110321904Y-175453365D01*
X110321904Y-175453365D02*
X110261428Y-175513842D01*
X110261428Y-175513842D02*
X110140476Y-175574318D01*
X110140476Y-175574318D02*
X109838095Y-175574318D01*
X109838095Y-175574318D02*
X109717142Y-175513842D01*
X109717142Y-175513842D02*
X109656666Y-175453365D01*
X110574318Y-193388333D02*
X109304318Y-193388333D01*
X110574318Y-192662618D02*
X109848603Y-193206904D01*
X109304318Y-192662618D02*
X110030032Y-193388333D01*
X110695270Y-192420714D02*
X110695270Y-191453094D01*
X109304318Y-191332142D02*
X109304318Y-190606428D01*
X110574318Y-190969285D02*
X109304318Y-190969285D01*
X109727651Y-190304047D02*
X110574318Y-190001666D01*
X109727651Y-189699285D02*
X110574318Y-190001666D01*
X110574318Y-190001666D02*
X110876699Y-190122618D01*
X110876699Y-190122618D02*
X110937175Y-190183095D01*
X110937175Y-190183095D02*
X110997651Y-190304047D01*
X109727651Y-189215476D02*
X110997651Y-189215476D01*
X109788127Y-189215476D02*
X109727651Y-189094523D01*
X109727651Y-189094523D02*
X109727651Y-188852618D01*
X109727651Y-188852618D02*
X109788127Y-188731666D01*
X109788127Y-188731666D02*
X109848603Y-188671190D01*
X109848603Y-188671190D02*
X109969556Y-188610714D01*
X109969556Y-188610714D02*
X110332413Y-188610714D01*
X110332413Y-188610714D02*
X110453365Y-188671190D01*
X110453365Y-188671190D02*
X110513842Y-188731666D01*
X110513842Y-188731666D02*
X110574318Y-188852618D01*
X110574318Y-188852618D02*
X110574318Y-189094523D01*
X110574318Y-189094523D02*
X110513842Y-189215476D01*
X110513842Y-187582618D02*
X110574318Y-187703570D01*
X110574318Y-187703570D02*
X110574318Y-187945475D01*
X110574318Y-187945475D02*
X110513842Y-188066428D01*
X110513842Y-188066428D02*
X110392889Y-188126904D01*
X110392889Y-188126904D02*
X109909080Y-188126904D01*
X109909080Y-188126904D02*
X109788127Y-188066428D01*
X109788127Y-188066428D02*
X109727651Y-187945475D01*
X109727651Y-187945475D02*
X109727651Y-187703570D01*
X109727651Y-187703570D02*
X109788127Y-187582618D01*
X109788127Y-187582618D02*
X109909080Y-187522142D01*
X109909080Y-187522142D02*
X110030032Y-187522142D01*
X110030032Y-187522142D02*
X110150984Y-188126904D01*
X110453365Y-186252142D02*
X110513842Y-186312618D01*
X110513842Y-186312618D02*
X110574318Y-186494047D01*
X110574318Y-186494047D02*
X110574318Y-186614999D01*
X110574318Y-186614999D02*
X110513842Y-186796428D01*
X110513842Y-186796428D02*
X110392889Y-186917380D01*
X110392889Y-186917380D02*
X110271937Y-186977857D01*
X110271937Y-186977857D02*
X110030032Y-187038333D01*
X110030032Y-187038333D02*
X109848603Y-187038333D01*
X109848603Y-187038333D02*
X109606699Y-186977857D01*
X109606699Y-186977857D02*
X109485746Y-186917380D01*
X109485746Y-186917380D02*
X109364794Y-186796428D01*
X109364794Y-186796428D02*
X109304318Y-186614999D01*
X109304318Y-186614999D02*
X109304318Y-186494047D01*
X109304318Y-186494047D02*
X109364794Y-186312618D01*
X109364794Y-186312618D02*
X109425270Y-186252142D01*
X110574318Y-184982142D02*
X109969556Y-185405476D01*
X110574318Y-185707857D02*
X109304318Y-185707857D01*
X109304318Y-185707857D02*
X109304318Y-185224047D01*
X109304318Y-185224047D02*
X109364794Y-185103095D01*
X109364794Y-185103095D02*
X109425270Y-185042618D01*
X109425270Y-185042618D02*
X109546222Y-184982142D01*
X109546222Y-184982142D02*
X109727651Y-184982142D01*
X109727651Y-184982142D02*
X109848603Y-185042618D01*
X109848603Y-185042618D02*
X109909080Y-185103095D01*
X109909080Y-185103095D02*
X109969556Y-185224047D01*
X109969556Y-185224047D02*
X109969556Y-185707857D01*
X110513842Y-183954047D02*
X110574318Y-184074999D01*
X110574318Y-184074999D02*
X110574318Y-184316904D01*
X110574318Y-184316904D02*
X110513842Y-184437857D01*
X110513842Y-184437857D02*
X110392889Y-184498333D01*
X110392889Y-184498333D02*
X109909080Y-184498333D01*
X109909080Y-184498333D02*
X109788127Y-184437857D01*
X109788127Y-184437857D02*
X109727651Y-184316904D01*
X109727651Y-184316904D02*
X109727651Y-184074999D01*
X109727651Y-184074999D02*
X109788127Y-183954047D01*
X109788127Y-183954047D02*
X109909080Y-183893571D01*
X109909080Y-183893571D02*
X110030032Y-183893571D01*
X110030032Y-183893571D02*
X110150984Y-184498333D01*
X110574318Y-183167857D02*
X110513842Y-183288809D01*
X110513842Y-183288809D02*
X110392889Y-183349286D01*
X110392889Y-183349286D02*
X109304318Y-183349286D01*
X110695270Y-182986429D02*
X110695270Y-182018809D01*
X109727651Y-181172143D02*
X110574318Y-181172143D01*
X109243842Y-181474524D02*
X110150984Y-181776905D01*
X110150984Y-181776905D02*
X110150984Y-180990714D01*
D11*
X60929580Y-84786905D02*
X60977200Y-84834524D01*
X60977200Y-84834524D02*
X61024819Y-84977381D01*
X61024819Y-84977381D02*
X61024819Y-85072619D01*
X61024819Y-85072619D02*
X60977200Y-85215476D01*
X60977200Y-85215476D02*
X60881961Y-85310714D01*
X60881961Y-85310714D02*
X60786723Y-85358333D01*
X60786723Y-85358333D02*
X60596247Y-85405952D01*
X60596247Y-85405952D02*
X60453390Y-85405952D01*
X60453390Y-85405952D02*
X60262914Y-85358333D01*
X60262914Y-85358333D02*
X60167676Y-85310714D01*
X60167676Y-85310714D02*
X60072438Y-85215476D01*
X60072438Y-85215476D02*
X60024819Y-85072619D01*
X60024819Y-85072619D02*
X60024819Y-84977381D01*
X60024819Y-84977381D02*
X60072438Y-84834524D01*
X60072438Y-84834524D02*
X60120057Y-84786905D01*
X61120057Y-84596429D02*
X61120057Y-83834524D01*
X61024819Y-83072619D02*
X61024819Y-83644047D01*
X61024819Y-83358333D02*
X60024819Y-83358333D01*
X60024819Y-83358333D02*
X60167676Y-83453571D01*
X60167676Y-83453571D02*
X60262914Y-83548809D01*
X60262914Y-83548809D02*
X60310533Y-83644047D01*
X60024819Y-82453571D02*
X60024819Y-82358333D01*
X60024819Y-82358333D02*
X60072438Y-82263095D01*
X60072438Y-82263095D02*
X60120057Y-82215476D01*
X60120057Y-82215476D02*
X60215295Y-82167857D01*
X60215295Y-82167857D02*
X60405771Y-82120238D01*
X60405771Y-82120238D02*
X60643866Y-82120238D01*
X60643866Y-82120238D02*
X60834342Y-82167857D01*
X60834342Y-82167857D02*
X60929580Y-82215476D01*
X60929580Y-82215476D02*
X60977200Y-82263095D01*
X60977200Y-82263095D02*
X61024819Y-82358333D01*
X61024819Y-82358333D02*
X61024819Y-82453571D01*
X61024819Y-82453571D02*
X60977200Y-82548809D01*
X60977200Y-82548809D02*
X60929580Y-82596428D01*
X60929580Y-82596428D02*
X60834342Y-82644047D01*
X60834342Y-82644047D02*
X60643866Y-82691666D01*
X60643866Y-82691666D02*
X60405771Y-82691666D01*
X60405771Y-82691666D02*
X60215295Y-82644047D01*
X60215295Y-82644047D02*
X60120057Y-82596428D01*
X60120057Y-82596428D02*
X60072438Y-82548809D01*
X60072438Y-82548809D02*
X60024819Y-82453571D01*
X60358152Y-81263095D02*
X61024819Y-81263095D01*
X60358152Y-81691666D02*
X60881961Y-81691666D01*
X60881961Y-81691666D02*
X60977200Y-81644047D01*
X60977200Y-81644047D02*
X61024819Y-81548809D01*
X61024819Y-81548809D02*
X61024819Y-81405952D01*
X61024819Y-81405952D02*
X60977200Y-81310714D01*
X60977200Y-81310714D02*
X60929580Y-81263095D01*
X60501009Y-80453571D02*
X60501009Y-80786904D01*
X61024819Y-80786904D02*
X60024819Y-80786904D01*
X60024819Y-80786904D02*
X60024819Y-80310714D01*
X61120057Y-80167857D02*
X61120057Y-79405952D01*
X60120057Y-79215475D02*
X60072438Y-79167856D01*
X60072438Y-79167856D02*
X60024819Y-79072618D01*
X60024819Y-79072618D02*
X60024819Y-78834523D01*
X60024819Y-78834523D02*
X60072438Y-78739285D01*
X60072438Y-78739285D02*
X60120057Y-78691666D01*
X60120057Y-78691666D02*
X60215295Y-78644047D01*
X60215295Y-78644047D02*
X60310533Y-78644047D01*
X60310533Y-78644047D02*
X60453390Y-78691666D01*
X60453390Y-78691666D02*
X61024819Y-79263094D01*
X61024819Y-79263094D02*
X61024819Y-78644047D01*
D12*
X120024762Y-175945270D02*
X119903810Y-175884794D01*
X119903810Y-175884794D02*
X119782857Y-175763842D01*
X119782857Y-175763842D02*
X119601429Y-175582413D01*
X119601429Y-175582413D02*
X119480476Y-175521937D01*
X119480476Y-175521937D02*
X119359524Y-175521937D01*
X119420000Y-175824318D02*
X119299048Y-175763842D01*
X119299048Y-175763842D02*
X119178095Y-175642889D01*
X119178095Y-175642889D02*
X119117619Y-175400984D01*
X119117619Y-175400984D02*
X119117619Y-174977651D01*
X119117619Y-174977651D02*
X119178095Y-174735746D01*
X119178095Y-174735746D02*
X119299048Y-174614794D01*
X119299048Y-174614794D02*
X119420000Y-174554318D01*
X119420000Y-174554318D02*
X119661905Y-174554318D01*
X119661905Y-174554318D02*
X119782857Y-174614794D01*
X119782857Y-174614794D02*
X119903810Y-174735746D01*
X119903810Y-174735746D02*
X119964286Y-174977651D01*
X119964286Y-174977651D02*
X119964286Y-175400984D01*
X119964286Y-175400984D02*
X119903810Y-175642889D01*
X119903810Y-175642889D02*
X119782857Y-175763842D01*
X119782857Y-175763842D02*
X119661905Y-175824318D01*
X119661905Y-175824318D02*
X119420000Y-175824318D01*
X120206191Y-175945270D02*
X121173810Y-175945270D01*
X121476190Y-175824318D02*
X121476190Y-174554318D01*
X121476190Y-174554318D02*
X122201905Y-175824318D01*
X122201905Y-175824318D02*
X122201905Y-174554318D01*
X123350952Y-175763842D02*
X123230000Y-175824318D01*
X123230000Y-175824318D02*
X122988095Y-175824318D01*
X122988095Y-175824318D02*
X122867143Y-175763842D01*
X122867143Y-175763842D02*
X122806666Y-175703365D01*
X122806666Y-175703365D02*
X122746190Y-175582413D01*
X122746190Y-175582413D02*
X122746190Y-175219556D01*
X122746190Y-175219556D02*
X122806666Y-175098603D01*
X122806666Y-175098603D02*
X122867143Y-175038127D01*
X122867143Y-175038127D02*
X122988095Y-174977651D01*
X122988095Y-174977651D02*
X123230000Y-174977651D01*
X123230000Y-174977651D02*
X123350952Y-175038127D01*
X123895237Y-175824318D02*
X123895237Y-174554318D01*
X124439523Y-175824318D02*
X124439523Y-175159080D01*
X124439523Y-175159080D02*
X124379047Y-175038127D01*
X124379047Y-175038127D02*
X124258095Y-174977651D01*
X124258095Y-174977651D02*
X124076666Y-174977651D01*
X124076666Y-174977651D02*
X123955714Y-175038127D01*
X123955714Y-175038127D02*
X123895237Y-175098603D01*
X125467619Y-175159080D02*
X125044285Y-175159080D01*
X125044285Y-175824318D02*
X125044285Y-174554318D01*
X125044285Y-174554318D02*
X125649047Y-174554318D01*
X126132856Y-175159080D02*
X126556190Y-175159080D01*
X126737618Y-175824318D02*
X126132856Y-175824318D01*
X126132856Y-175824318D02*
X126132856Y-174554318D01*
X126132856Y-174554318D02*
X126737618Y-174554318D01*
X127100476Y-174554318D02*
X127826190Y-174554318D01*
X127463333Y-175824318D02*
X127463333Y-174554318D01*
X127947143Y-175945270D02*
X128914762Y-175945270D01*
X129761428Y-174977651D02*
X129761428Y-175824318D01*
X129459047Y-174493842D02*
X129156666Y-175400984D01*
X129156666Y-175400984D02*
X129942857Y-175400984D01*
X138024762Y-207445270D02*
X137903810Y-207384794D01*
X137903810Y-207384794D02*
X137782857Y-207263842D01*
X137782857Y-207263842D02*
X137601429Y-207082413D01*
X137601429Y-207082413D02*
X137480476Y-207021937D01*
X137480476Y-207021937D02*
X137359524Y-207021937D01*
X137420000Y-207324318D02*
X137299048Y-207263842D01*
X137299048Y-207263842D02*
X137178095Y-207142889D01*
X137178095Y-207142889D02*
X137117619Y-206900984D01*
X137117619Y-206900984D02*
X137117619Y-206477651D01*
X137117619Y-206477651D02*
X137178095Y-206235746D01*
X137178095Y-206235746D02*
X137299048Y-206114794D01*
X137299048Y-206114794D02*
X137420000Y-206054318D01*
X137420000Y-206054318D02*
X137661905Y-206054318D01*
X137661905Y-206054318D02*
X137782857Y-206114794D01*
X137782857Y-206114794D02*
X137903810Y-206235746D01*
X137903810Y-206235746D02*
X137964286Y-206477651D01*
X137964286Y-206477651D02*
X137964286Y-206900984D01*
X137964286Y-206900984D02*
X137903810Y-207142889D01*
X137903810Y-207142889D02*
X137782857Y-207263842D01*
X137782857Y-207263842D02*
X137661905Y-207324318D01*
X137661905Y-207324318D02*
X137420000Y-207324318D01*
X138206191Y-207445270D02*
X139173810Y-207445270D01*
X139476190Y-207324318D02*
X139476190Y-206054318D01*
X139476190Y-206054318D02*
X140201905Y-207324318D01*
X140201905Y-207324318D02*
X140201905Y-206054318D01*
X141350952Y-207263842D02*
X141230000Y-207324318D01*
X141230000Y-207324318D02*
X140988095Y-207324318D01*
X140988095Y-207324318D02*
X140867143Y-207263842D01*
X140867143Y-207263842D02*
X140806666Y-207203365D01*
X140806666Y-207203365D02*
X140746190Y-207082413D01*
X140746190Y-207082413D02*
X140746190Y-206719556D01*
X140746190Y-206719556D02*
X140806666Y-206598603D01*
X140806666Y-206598603D02*
X140867143Y-206538127D01*
X140867143Y-206538127D02*
X140988095Y-206477651D01*
X140988095Y-206477651D02*
X141230000Y-206477651D01*
X141230000Y-206477651D02*
X141350952Y-206538127D01*
X141895237Y-207324318D02*
X141895237Y-206054318D01*
X142439523Y-207324318D02*
X142439523Y-206659080D01*
X142439523Y-206659080D02*
X142379047Y-206538127D01*
X142379047Y-206538127D02*
X142258095Y-206477651D01*
X142258095Y-206477651D02*
X142076666Y-206477651D01*
X142076666Y-206477651D02*
X141955714Y-206538127D01*
X141955714Y-206538127D02*
X141895237Y-206598603D01*
X143467619Y-206659080D02*
X143044285Y-206659080D01*
X143044285Y-207324318D02*
X143044285Y-206054318D01*
X143044285Y-206054318D02*
X143649047Y-206054318D01*
X144132856Y-206659080D02*
X144556190Y-206659080D01*
X144737618Y-207324318D02*
X144132856Y-207324318D01*
X144132856Y-207324318D02*
X144132856Y-206054318D01*
X144132856Y-206054318D02*
X144737618Y-206054318D01*
X145100476Y-206054318D02*
X145826190Y-206054318D01*
X145463333Y-207324318D02*
X145463333Y-206054318D01*
X145947143Y-207445270D02*
X146914762Y-207445270D01*
X147096190Y-206054318D02*
X147882381Y-206054318D01*
X147882381Y-206054318D02*
X147459047Y-206538127D01*
X147459047Y-206538127D02*
X147640476Y-206538127D01*
X147640476Y-206538127D02*
X147761428Y-206598603D01*
X147761428Y-206598603D02*
X147821904Y-206659080D01*
X147821904Y-206659080D02*
X147882381Y-206780032D01*
X147882381Y-206780032D02*
X147882381Y-207082413D01*
X147882381Y-207082413D02*
X147821904Y-207203365D01*
X147821904Y-207203365D02*
X147761428Y-207263842D01*
X147761428Y-207263842D02*
X147640476Y-207324318D01*
X147640476Y-207324318D02*
X147277619Y-207324318D01*
X147277619Y-207324318D02*
X147156666Y-207263842D01*
X147156666Y-207263842D02*
X147096190Y-207203365D01*
X96734525Y-208454318D02*
X96734525Y-209361461D01*
X96734525Y-209361461D02*
X96674048Y-209542889D01*
X96674048Y-209542889D02*
X96553096Y-209663842D01*
X96553096Y-209663842D02*
X96371667Y-209724318D01*
X96371667Y-209724318D02*
X96250715Y-209724318D01*
X97036906Y-209845270D02*
X98004525Y-209845270D01*
X98125477Y-208454318D02*
X98548810Y-209724318D01*
X98548810Y-209724318D02*
X98972144Y-208454318D01*
X99818810Y-209059080D02*
X99395476Y-209059080D01*
X99395476Y-209724318D02*
X99395476Y-208454318D01*
X99395476Y-208454318D02*
X100000238Y-208454318D01*
X100484047Y-209724318D02*
X100484047Y-208454318D01*
X100484047Y-208454318D02*
X100786428Y-208454318D01*
X100786428Y-208454318D02*
X100967857Y-208514794D01*
X100967857Y-208514794D02*
X101088809Y-208635746D01*
X101088809Y-208635746D02*
X101149286Y-208756699D01*
X101149286Y-208756699D02*
X101209762Y-208998603D01*
X101209762Y-208998603D02*
X101209762Y-209180032D01*
X101209762Y-209180032D02*
X101149286Y-209421937D01*
X101149286Y-209421937D02*
X101088809Y-209542889D01*
X101088809Y-209542889D02*
X100967857Y-209663842D01*
X100967857Y-209663842D02*
X100786428Y-209724318D01*
X100786428Y-209724318D02*
X100484047Y-209724318D01*
X102298333Y-209663842D02*
X102177381Y-209724318D01*
X102177381Y-209724318D02*
X101935476Y-209724318D01*
X101935476Y-209724318D02*
X101814524Y-209663842D01*
X101814524Y-209663842D02*
X101754047Y-209603365D01*
X101754047Y-209603365D02*
X101693571Y-209482413D01*
X101693571Y-209482413D02*
X101693571Y-209119556D01*
X101693571Y-209119556D02*
X101754047Y-208998603D01*
X101754047Y-208998603D02*
X101814524Y-208938127D01*
X101814524Y-208938127D02*
X101935476Y-208877651D01*
X101935476Y-208877651D02*
X102177381Y-208877651D01*
X102177381Y-208877651D02*
X102298333Y-208938127D01*
X103024047Y-209724318D02*
X102903095Y-209663842D01*
X102903095Y-209663842D02*
X102842618Y-209603365D01*
X102842618Y-209603365D02*
X102782142Y-209482413D01*
X102782142Y-209482413D02*
X102782142Y-209119556D01*
X102782142Y-209119556D02*
X102842618Y-208998603D01*
X102842618Y-208998603D02*
X102903095Y-208938127D01*
X102903095Y-208938127D02*
X103024047Y-208877651D01*
X103024047Y-208877651D02*
X103205476Y-208877651D01*
X103205476Y-208877651D02*
X103326428Y-208938127D01*
X103326428Y-208938127D02*
X103386904Y-208998603D01*
X103386904Y-208998603D02*
X103447380Y-209119556D01*
X103447380Y-209119556D02*
X103447380Y-209482413D01*
X103447380Y-209482413D02*
X103386904Y-209603365D01*
X103386904Y-209603365D02*
X103326428Y-209663842D01*
X103326428Y-209663842D02*
X103205476Y-209724318D01*
X103205476Y-209724318D02*
X103024047Y-209724318D01*
X103991666Y-208877651D02*
X103991666Y-209724318D01*
X103991666Y-208998603D02*
X104052143Y-208938127D01*
X104052143Y-208938127D02*
X104173095Y-208877651D01*
X104173095Y-208877651D02*
X104354524Y-208877651D01*
X104354524Y-208877651D02*
X104475476Y-208938127D01*
X104475476Y-208938127D02*
X104535952Y-209059080D01*
X104535952Y-209059080D02*
X104535952Y-209724318D01*
X105140714Y-208877651D02*
X105140714Y-209724318D01*
X105140714Y-208998603D02*
X105201191Y-208938127D01*
X105201191Y-208938127D02*
X105322143Y-208877651D01*
X105322143Y-208877651D02*
X105503572Y-208877651D01*
X105503572Y-208877651D02*
X105624524Y-208938127D01*
X105624524Y-208938127D02*
X105685000Y-209059080D01*
X105685000Y-209059080D02*
X105685000Y-209724318D01*
X106773572Y-209663842D02*
X106652620Y-209724318D01*
X106652620Y-209724318D02*
X106410715Y-209724318D01*
X106410715Y-209724318D02*
X106289762Y-209663842D01*
X106289762Y-209663842D02*
X106229286Y-209542889D01*
X106229286Y-209542889D02*
X106229286Y-209059080D01*
X106229286Y-209059080D02*
X106289762Y-208938127D01*
X106289762Y-208938127D02*
X106410715Y-208877651D01*
X106410715Y-208877651D02*
X106652620Y-208877651D01*
X106652620Y-208877651D02*
X106773572Y-208938127D01*
X106773572Y-208938127D02*
X106834048Y-209059080D01*
X106834048Y-209059080D02*
X106834048Y-209180032D01*
X106834048Y-209180032D02*
X106229286Y-209300984D01*
X107922619Y-209663842D02*
X107801667Y-209724318D01*
X107801667Y-209724318D02*
X107559762Y-209724318D01*
X107559762Y-209724318D02*
X107438810Y-209663842D01*
X107438810Y-209663842D02*
X107378333Y-209603365D01*
X107378333Y-209603365D02*
X107317857Y-209482413D01*
X107317857Y-209482413D02*
X107317857Y-209119556D01*
X107317857Y-209119556D02*
X107378333Y-208998603D01*
X107378333Y-208998603D02*
X107438810Y-208938127D01*
X107438810Y-208938127D02*
X107559762Y-208877651D01*
X107559762Y-208877651D02*
X107801667Y-208877651D01*
X107801667Y-208877651D02*
X107922619Y-208938127D01*
X108285476Y-208877651D02*
X108769285Y-208877651D01*
X108466904Y-208454318D02*
X108466904Y-209542889D01*
X108466904Y-209542889D02*
X108527381Y-209663842D01*
X108527381Y-209663842D02*
X108648333Y-209724318D01*
X108648333Y-209724318D02*
X108769285Y-209724318D01*
X109374047Y-209724318D02*
X109253095Y-209663842D01*
X109253095Y-209663842D02*
X109192618Y-209603365D01*
X109192618Y-209603365D02*
X109132142Y-209482413D01*
X109132142Y-209482413D02*
X109132142Y-209119556D01*
X109132142Y-209119556D02*
X109192618Y-208998603D01*
X109192618Y-208998603D02*
X109253095Y-208938127D01*
X109253095Y-208938127D02*
X109374047Y-208877651D01*
X109374047Y-208877651D02*
X109555476Y-208877651D01*
X109555476Y-208877651D02*
X109676428Y-208938127D01*
X109676428Y-208938127D02*
X109736904Y-208998603D01*
X109736904Y-208998603D02*
X109797380Y-209119556D01*
X109797380Y-209119556D02*
X109797380Y-209482413D01*
X109797380Y-209482413D02*
X109736904Y-209603365D01*
X109736904Y-209603365D02*
X109676428Y-209663842D01*
X109676428Y-209663842D02*
X109555476Y-209724318D01*
X109555476Y-209724318D02*
X109374047Y-209724318D01*
X110341666Y-209724318D02*
X110341666Y-208877651D01*
X110341666Y-209119556D02*
X110402143Y-208998603D01*
X110402143Y-208998603D02*
X110462619Y-208938127D01*
X110462619Y-208938127D02*
X110583571Y-208877651D01*
X110583571Y-208877651D02*
X110704524Y-208877651D01*
X111067380Y-209663842D02*
X111188333Y-209724318D01*
X111188333Y-209724318D02*
X111430237Y-209724318D01*
X111430237Y-209724318D02*
X111551190Y-209663842D01*
X111551190Y-209663842D02*
X111611666Y-209542889D01*
X111611666Y-209542889D02*
X111611666Y-209482413D01*
X111611666Y-209482413D02*
X111551190Y-209361461D01*
X111551190Y-209361461D02*
X111430237Y-209300984D01*
X111430237Y-209300984D02*
X111248809Y-209300984D01*
X111248809Y-209300984D02*
X111127856Y-209240508D01*
X111127856Y-209240508D02*
X111067380Y-209119556D01*
X111067380Y-209119556D02*
X111067380Y-209059080D01*
X111067380Y-209059080D02*
X111127856Y-208938127D01*
X111127856Y-208938127D02*
X111248809Y-208877651D01*
X111248809Y-208877651D02*
X111430237Y-208877651D01*
X111430237Y-208877651D02*
X111551190Y-208938127D01*
X111853571Y-209845270D02*
X112821190Y-209845270D01*
X113063094Y-208575270D02*
X113123570Y-208514794D01*
X113123570Y-208514794D02*
X113244523Y-208454318D01*
X113244523Y-208454318D02*
X113546904Y-208454318D01*
X113546904Y-208454318D02*
X113667856Y-208514794D01*
X113667856Y-208514794D02*
X113728332Y-208575270D01*
X113728332Y-208575270D02*
X113788809Y-208696222D01*
X113788809Y-208696222D02*
X113788809Y-208817175D01*
X113788809Y-208817175D02*
X113728332Y-208998603D01*
X113728332Y-208998603D02*
X113002618Y-209724318D01*
X113002618Y-209724318D02*
X113788809Y-209724318D01*
X68666191Y-193909080D02*
X68242857Y-193909080D01*
X68242857Y-194574318D02*
X68242857Y-193304318D01*
X68242857Y-193304318D02*
X68847619Y-193304318D01*
X69875714Y-193727651D02*
X69875714Y-194574318D01*
X69331428Y-193727651D02*
X69331428Y-194392889D01*
X69331428Y-194392889D02*
X69391905Y-194513842D01*
X69391905Y-194513842D02*
X69512857Y-194574318D01*
X69512857Y-194574318D02*
X69694286Y-194574318D01*
X69694286Y-194574318D02*
X69815238Y-194513842D01*
X69815238Y-194513842D02*
X69875714Y-194453365D01*
X70420000Y-194513842D02*
X70540953Y-194574318D01*
X70540953Y-194574318D02*
X70782857Y-194574318D01*
X70782857Y-194574318D02*
X70903810Y-194513842D01*
X70903810Y-194513842D02*
X70964286Y-194392889D01*
X70964286Y-194392889D02*
X70964286Y-194332413D01*
X70964286Y-194332413D02*
X70903810Y-194211461D01*
X70903810Y-194211461D02*
X70782857Y-194150984D01*
X70782857Y-194150984D02*
X70601429Y-194150984D01*
X70601429Y-194150984D02*
X70480476Y-194090508D01*
X70480476Y-194090508D02*
X70420000Y-193969556D01*
X70420000Y-193969556D02*
X70420000Y-193909080D01*
X70420000Y-193909080D02*
X70480476Y-193788127D01*
X70480476Y-193788127D02*
X70601429Y-193727651D01*
X70601429Y-193727651D02*
X70782857Y-193727651D01*
X70782857Y-193727651D02*
X70903810Y-193788127D01*
X71992381Y-194513842D02*
X71871429Y-194574318D01*
X71871429Y-194574318D02*
X71629524Y-194574318D01*
X71629524Y-194574318D02*
X71508571Y-194513842D01*
X71508571Y-194513842D02*
X71448095Y-194392889D01*
X71448095Y-194392889D02*
X71448095Y-193909080D01*
X71448095Y-193909080D02*
X71508571Y-193788127D01*
X71508571Y-193788127D02*
X71629524Y-193727651D01*
X71629524Y-193727651D02*
X71871429Y-193727651D01*
X71871429Y-193727651D02*
X71992381Y-193788127D01*
X71992381Y-193788127D02*
X72052857Y-193909080D01*
X72052857Y-193909080D02*
X72052857Y-194030032D01*
X72052857Y-194030032D02*
X71448095Y-194150984D01*
X72294762Y-194695270D02*
X73262381Y-194695270D01*
X74230000Y-194574318D02*
X73504285Y-194574318D01*
X73867142Y-194574318D02*
X73867142Y-193304318D01*
X73867142Y-193304318D02*
X73746190Y-193485746D01*
X73746190Y-193485746D02*
X73625238Y-193606699D01*
X73625238Y-193606699D02*
X73504285Y-193667175D01*
X75379047Y-193304318D02*
X74774285Y-193304318D01*
X74774285Y-193304318D02*
X74713809Y-193909080D01*
X74713809Y-193909080D02*
X74774285Y-193848603D01*
X74774285Y-193848603D02*
X74895238Y-193788127D01*
X74895238Y-193788127D02*
X75197619Y-193788127D01*
X75197619Y-193788127D02*
X75318571Y-193848603D01*
X75318571Y-193848603D02*
X75379047Y-193909080D01*
X75379047Y-193909080D02*
X75439524Y-194030032D01*
X75439524Y-194030032D02*
X75439524Y-194332413D01*
X75439524Y-194332413D02*
X75379047Y-194453365D01*
X75379047Y-194453365D02*
X75318571Y-194513842D01*
X75318571Y-194513842D02*
X75197619Y-194574318D01*
X75197619Y-194574318D02*
X74895238Y-194574318D01*
X74895238Y-194574318D02*
X74774285Y-194513842D01*
X74774285Y-194513842D02*
X74713809Y-194453365D01*
X76225714Y-193304318D02*
X76346667Y-193304318D01*
X76346667Y-193304318D02*
X76467619Y-193364794D01*
X76467619Y-193364794D02*
X76528095Y-193425270D01*
X76528095Y-193425270D02*
X76588571Y-193546222D01*
X76588571Y-193546222D02*
X76649048Y-193788127D01*
X76649048Y-193788127D02*
X76649048Y-194090508D01*
X76649048Y-194090508D02*
X76588571Y-194332413D01*
X76588571Y-194332413D02*
X76528095Y-194453365D01*
X76528095Y-194453365D02*
X76467619Y-194513842D01*
X76467619Y-194513842D02*
X76346667Y-194574318D01*
X76346667Y-194574318D02*
X76225714Y-194574318D01*
X76225714Y-194574318D02*
X76104762Y-194513842D01*
X76104762Y-194513842D02*
X76044286Y-194453365D01*
X76044286Y-194453365D02*
X75983809Y-194332413D01*
X75983809Y-194332413D02*
X75923333Y-194090508D01*
X75923333Y-194090508D02*
X75923333Y-193788127D01*
X75923333Y-193788127D02*
X75983809Y-193546222D01*
X75983809Y-193546222D02*
X76044286Y-193425270D01*
X76044286Y-193425270D02*
X76104762Y-193364794D01*
X76104762Y-193364794D02*
X76225714Y-193304318D01*
X77435238Y-193304318D02*
X77556191Y-193304318D01*
X77556191Y-193304318D02*
X77677143Y-193364794D01*
X77677143Y-193364794D02*
X77737619Y-193425270D01*
X77737619Y-193425270D02*
X77798095Y-193546222D01*
X77798095Y-193546222D02*
X77858572Y-193788127D01*
X77858572Y-193788127D02*
X77858572Y-194090508D01*
X77858572Y-194090508D02*
X77798095Y-194332413D01*
X77798095Y-194332413D02*
X77737619Y-194453365D01*
X77737619Y-194453365D02*
X77677143Y-194513842D01*
X77677143Y-194513842D02*
X77556191Y-194574318D01*
X77556191Y-194574318D02*
X77435238Y-194574318D01*
X77435238Y-194574318D02*
X77314286Y-194513842D01*
X77314286Y-194513842D02*
X77253810Y-194453365D01*
X77253810Y-194453365D02*
X77193333Y-194332413D01*
X77193333Y-194332413D02*
X77132857Y-194090508D01*
X77132857Y-194090508D02*
X77132857Y-193788127D01*
X77132857Y-193788127D02*
X77193333Y-193546222D01*
X77193333Y-193546222D02*
X77253810Y-193425270D01*
X77253810Y-193425270D02*
X77314286Y-193364794D01*
X77314286Y-193364794D02*
X77435238Y-193304318D01*
X78402857Y-194574318D02*
X78402857Y-193727651D01*
X78402857Y-193848603D02*
X78463334Y-193788127D01*
X78463334Y-193788127D02*
X78584286Y-193727651D01*
X78584286Y-193727651D02*
X78765715Y-193727651D01*
X78765715Y-193727651D02*
X78886667Y-193788127D01*
X78886667Y-193788127D02*
X78947143Y-193909080D01*
X78947143Y-193909080D02*
X78947143Y-194574318D01*
X78947143Y-193909080D02*
X79007619Y-193788127D01*
X79007619Y-193788127D02*
X79128572Y-193727651D01*
X79128572Y-193727651D02*
X79310000Y-193727651D01*
X79310000Y-193727651D02*
X79430953Y-193788127D01*
X79430953Y-193788127D02*
X79491429Y-193909080D01*
X79491429Y-193909080D02*
X79491429Y-194574318D01*
X80035714Y-194211461D02*
X80640476Y-194211461D01*
X79914762Y-194574318D02*
X80338095Y-193304318D01*
X80338095Y-193304318D02*
X80761429Y-194574318D01*
X80882381Y-194695270D02*
X81850000Y-194695270D01*
X82817619Y-194574318D02*
X82091904Y-194574318D01*
X82454761Y-194574318D02*
X82454761Y-193304318D01*
X82454761Y-193304318D02*
X82333809Y-193485746D01*
X82333809Y-193485746D02*
X82212857Y-193606699D01*
X82212857Y-193606699D02*
X82091904Y-193667175D01*
D11*
X116714285Y-125504819D02*
X116380952Y-125028628D01*
X116142857Y-125504819D02*
X116142857Y-124504819D01*
X116142857Y-124504819D02*
X116523809Y-124504819D01*
X116523809Y-124504819D02*
X116619047Y-124552438D01*
X116619047Y-124552438D02*
X116666666Y-124600057D01*
X116666666Y-124600057D02*
X116714285Y-124695295D01*
X116714285Y-124695295D02*
X116714285Y-124838152D01*
X116714285Y-124838152D02*
X116666666Y-124933390D01*
X116666666Y-124933390D02*
X116619047Y-124981009D01*
X116619047Y-124981009D02*
X116523809Y-125028628D01*
X116523809Y-125028628D02*
X116142857Y-125028628D01*
X116904762Y-125600057D02*
X117666666Y-125600057D01*
X118333333Y-124838152D02*
X118333333Y-125504819D01*
X118095238Y-124457200D02*
X117857143Y-125171485D01*
X117857143Y-125171485D02*
X118476190Y-125171485D01*
X118857143Y-125504819D02*
X118857143Y-124504819D01*
X118952381Y-125123866D02*
X119238095Y-125504819D01*
X119238095Y-124838152D02*
X118857143Y-125219104D01*
X119571429Y-124504819D02*
X120238095Y-124504819D01*
X120238095Y-124504819D02*
X119809524Y-125504819D01*
X120380953Y-125600057D02*
X121142857Y-125600057D01*
X121333334Y-124600057D02*
X121380953Y-124552438D01*
X121380953Y-124552438D02*
X121476191Y-124504819D01*
X121476191Y-124504819D02*
X121714286Y-124504819D01*
X121714286Y-124504819D02*
X121809524Y-124552438D01*
X121809524Y-124552438D02*
X121857143Y-124600057D01*
X121857143Y-124600057D02*
X121904762Y-124695295D01*
X121904762Y-124695295D02*
X121904762Y-124790533D01*
X121904762Y-124790533D02*
X121857143Y-124933390D01*
X121857143Y-124933390D02*
X121285715Y-125504819D01*
X121285715Y-125504819D02*
X121904762Y-125504819D01*
D12*
X114324318Y-176037857D02*
X113054318Y-176037857D01*
X113054318Y-176037857D02*
X113054318Y-175735476D01*
X113054318Y-175735476D02*
X113114794Y-175554047D01*
X113114794Y-175554047D02*
X113235746Y-175433095D01*
X113235746Y-175433095D02*
X113356699Y-175372618D01*
X113356699Y-175372618D02*
X113598603Y-175312142D01*
X113598603Y-175312142D02*
X113780032Y-175312142D01*
X113780032Y-175312142D02*
X114021937Y-175372618D01*
X114021937Y-175372618D02*
X114142889Y-175433095D01*
X114142889Y-175433095D02*
X114263842Y-175554047D01*
X114263842Y-175554047D02*
X114324318Y-175735476D01*
X114324318Y-175735476D02*
X114324318Y-176037857D01*
X114445270Y-175070238D02*
X114445270Y-174102618D01*
X114263842Y-173860714D02*
X114324318Y-173739761D01*
X114324318Y-173739761D02*
X114324318Y-173497857D01*
X114324318Y-173497857D02*
X114263842Y-173376904D01*
X114263842Y-173376904D02*
X114142889Y-173316428D01*
X114142889Y-173316428D02*
X114082413Y-173316428D01*
X114082413Y-173316428D02*
X113961461Y-173376904D01*
X113961461Y-173376904D02*
X113900984Y-173497857D01*
X113900984Y-173497857D02*
X113900984Y-173679285D01*
X113900984Y-173679285D02*
X113840508Y-173800238D01*
X113840508Y-173800238D02*
X113719556Y-173860714D01*
X113719556Y-173860714D02*
X113659080Y-173860714D01*
X113659080Y-173860714D02*
X113538127Y-173800238D01*
X113538127Y-173800238D02*
X113477651Y-173679285D01*
X113477651Y-173679285D02*
X113477651Y-173497857D01*
X113477651Y-173497857D02*
X113538127Y-173376904D01*
X114263842Y-172227857D02*
X114324318Y-172348809D01*
X114324318Y-172348809D02*
X114324318Y-172590714D01*
X114324318Y-172590714D02*
X114263842Y-172711666D01*
X114263842Y-172711666D02*
X114203365Y-172772143D01*
X114203365Y-172772143D02*
X114082413Y-172832619D01*
X114082413Y-172832619D02*
X113719556Y-172832619D01*
X113719556Y-172832619D02*
X113598603Y-172772143D01*
X113598603Y-172772143D02*
X113538127Y-172711666D01*
X113538127Y-172711666D02*
X113477651Y-172590714D01*
X113477651Y-172590714D02*
X113477651Y-172348809D01*
X113477651Y-172348809D02*
X113538127Y-172227857D01*
X114324318Y-171683572D02*
X113054318Y-171683572D01*
X114324318Y-171139286D02*
X113659080Y-171139286D01*
X113659080Y-171139286D02*
X113538127Y-171199762D01*
X113538127Y-171199762D02*
X113477651Y-171320714D01*
X113477651Y-171320714D02*
X113477651Y-171502143D01*
X113477651Y-171502143D02*
X113538127Y-171623095D01*
X113538127Y-171623095D02*
X113598603Y-171683572D01*
X114445270Y-170836905D02*
X114445270Y-169869285D01*
X113477651Y-169022619D02*
X114324318Y-169022619D01*
X112993842Y-169325000D02*
X113900984Y-169627381D01*
X113900984Y-169627381D02*
X113900984Y-168841190D01*
X64863842Y-151269524D02*
X64924318Y-151088095D01*
X64924318Y-151088095D02*
X64924318Y-150785714D01*
X64924318Y-150785714D02*
X64863842Y-150664762D01*
X64863842Y-150664762D02*
X64803365Y-150604286D01*
X64803365Y-150604286D02*
X64682413Y-150543809D01*
X64682413Y-150543809D02*
X64561461Y-150543809D01*
X64561461Y-150543809D02*
X64440508Y-150604286D01*
X64440508Y-150604286D02*
X64380032Y-150664762D01*
X64380032Y-150664762D02*
X64319556Y-150785714D01*
X64319556Y-150785714D02*
X64259080Y-151027619D01*
X64259080Y-151027619D02*
X64198603Y-151148571D01*
X64198603Y-151148571D02*
X64138127Y-151209048D01*
X64138127Y-151209048D02*
X64017175Y-151269524D01*
X64017175Y-151269524D02*
X63896222Y-151269524D01*
X63896222Y-151269524D02*
X63775270Y-151209048D01*
X63775270Y-151209048D02*
X63714794Y-151148571D01*
X63714794Y-151148571D02*
X63654318Y-151027619D01*
X63654318Y-151027619D02*
X63654318Y-150725238D01*
X63654318Y-150725238D02*
X63714794Y-150543809D01*
X63654318Y-150120476D02*
X64924318Y-149818095D01*
X64924318Y-149818095D02*
X64017175Y-149576190D01*
X64017175Y-149576190D02*
X64924318Y-149334285D01*
X64924318Y-149334285D02*
X63654318Y-149031905D01*
X65045270Y-148850476D02*
X65045270Y-147882856D01*
X64924318Y-147580476D02*
X63654318Y-147580476D01*
X64077651Y-146975714D02*
X64924318Y-146975714D01*
X64198603Y-146975714D02*
X64138127Y-146915237D01*
X64138127Y-146915237D02*
X64077651Y-146794285D01*
X64077651Y-146794285D02*
X64077651Y-146612856D01*
X64077651Y-146612856D02*
X64138127Y-146491904D01*
X64138127Y-146491904D02*
X64259080Y-146431428D01*
X64259080Y-146431428D02*
X64924318Y-146431428D01*
X64863842Y-145282380D02*
X64924318Y-145403332D01*
X64924318Y-145403332D02*
X64924318Y-145645237D01*
X64924318Y-145645237D02*
X64863842Y-145766189D01*
X64863842Y-145766189D02*
X64803365Y-145826666D01*
X64803365Y-145826666D02*
X64682413Y-145887142D01*
X64682413Y-145887142D02*
X64319556Y-145887142D01*
X64319556Y-145887142D02*
X64198603Y-145826666D01*
X64198603Y-145826666D02*
X64138127Y-145766189D01*
X64138127Y-145766189D02*
X64077651Y-145645237D01*
X64077651Y-145645237D02*
X64077651Y-145403332D01*
X64077651Y-145403332D02*
X64138127Y-145282380D01*
X64863842Y-144798571D02*
X64924318Y-144617142D01*
X64924318Y-144617142D02*
X64924318Y-144314761D01*
X64924318Y-144314761D02*
X64863842Y-144193809D01*
X64863842Y-144193809D02*
X64803365Y-144133333D01*
X64803365Y-144133333D02*
X64682413Y-144072856D01*
X64682413Y-144072856D02*
X64561461Y-144072856D01*
X64561461Y-144072856D02*
X64440508Y-144133333D01*
X64440508Y-144133333D02*
X64380032Y-144193809D01*
X64380032Y-144193809D02*
X64319556Y-144314761D01*
X64319556Y-144314761D02*
X64259080Y-144556666D01*
X64259080Y-144556666D02*
X64198603Y-144677618D01*
X64198603Y-144677618D02*
X64138127Y-144738095D01*
X64138127Y-144738095D02*
X64017175Y-144798571D01*
X64017175Y-144798571D02*
X63896222Y-144798571D01*
X63896222Y-144798571D02*
X63775270Y-144738095D01*
X63775270Y-144738095D02*
X63714794Y-144677618D01*
X63714794Y-144677618D02*
X63654318Y-144556666D01*
X63654318Y-144556666D02*
X63654318Y-144254285D01*
X63654318Y-144254285D02*
X63714794Y-144072856D01*
X64077651Y-143528571D02*
X65347651Y-143528571D01*
X64138127Y-143528571D02*
X64077651Y-143407618D01*
X64077651Y-143407618D02*
X64077651Y-143165713D01*
X64077651Y-143165713D02*
X64138127Y-143044761D01*
X64138127Y-143044761D02*
X64198603Y-142984285D01*
X64198603Y-142984285D02*
X64319556Y-142923809D01*
X64319556Y-142923809D02*
X64682413Y-142923809D01*
X64682413Y-142923809D02*
X64803365Y-142984285D01*
X64803365Y-142984285D02*
X64863842Y-143044761D01*
X64863842Y-143044761D02*
X64924318Y-143165713D01*
X64924318Y-143165713D02*
X64924318Y-143407618D01*
X64924318Y-143407618D02*
X64863842Y-143528571D01*
X64863842Y-141895713D02*
X64924318Y-142016665D01*
X64924318Y-142016665D02*
X64924318Y-142258570D01*
X64924318Y-142258570D02*
X64863842Y-142379523D01*
X64863842Y-142379523D02*
X64742889Y-142439999D01*
X64742889Y-142439999D02*
X64259080Y-142439999D01*
X64259080Y-142439999D02*
X64138127Y-142379523D01*
X64138127Y-142379523D02*
X64077651Y-142258570D01*
X64077651Y-142258570D02*
X64077651Y-142016665D01*
X64077651Y-142016665D02*
X64138127Y-141895713D01*
X64138127Y-141895713D02*
X64259080Y-141835237D01*
X64259080Y-141835237D02*
X64380032Y-141835237D01*
X64380032Y-141835237D02*
X64500984Y-142439999D01*
X64863842Y-140807142D02*
X64924318Y-140928094D01*
X64924318Y-140928094D02*
X64924318Y-141169999D01*
X64924318Y-141169999D02*
X64863842Y-141290952D01*
X64863842Y-141290952D02*
X64742889Y-141351428D01*
X64742889Y-141351428D02*
X64259080Y-141351428D01*
X64259080Y-141351428D02*
X64138127Y-141290952D01*
X64138127Y-141290952D02*
X64077651Y-141169999D01*
X64077651Y-141169999D02*
X64077651Y-140928094D01*
X64077651Y-140928094D02*
X64138127Y-140807142D01*
X64138127Y-140807142D02*
X64259080Y-140746666D01*
X64259080Y-140746666D02*
X64380032Y-140746666D01*
X64380032Y-140746666D02*
X64500984Y-141351428D01*
X64924318Y-139658095D02*
X63654318Y-139658095D01*
X64863842Y-139658095D02*
X64924318Y-139779047D01*
X64924318Y-139779047D02*
X64924318Y-140020952D01*
X64924318Y-140020952D02*
X64863842Y-140141904D01*
X64863842Y-140141904D02*
X64803365Y-140202381D01*
X64803365Y-140202381D02*
X64682413Y-140262857D01*
X64682413Y-140262857D02*
X64319556Y-140262857D01*
X64319556Y-140262857D02*
X64198603Y-140202381D01*
X64198603Y-140202381D02*
X64138127Y-140141904D01*
X64138127Y-140141904D02*
X64077651Y-140020952D01*
X64077651Y-140020952D02*
X64077651Y-139779047D01*
X64077651Y-139779047D02*
X64138127Y-139658095D01*
X65045270Y-139355714D02*
X65045270Y-138388094D01*
X63654318Y-138206666D02*
X63654318Y-137420475D01*
X63654318Y-137420475D02*
X64138127Y-137843809D01*
X64138127Y-137843809D02*
X64138127Y-137662380D01*
X64138127Y-137662380D02*
X64198603Y-137541428D01*
X64198603Y-137541428D02*
X64259080Y-137480952D01*
X64259080Y-137480952D02*
X64380032Y-137420475D01*
X64380032Y-137420475D02*
X64682413Y-137420475D01*
X64682413Y-137420475D02*
X64803365Y-137480952D01*
X64803365Y-137480952D02*
X64863842Y-137541428D01*
X64863842Y-137541428D02*
X64924318Y-137662380D01*
X64924318Y-137662380D02*
X64924318Y-138025237D01*
X64924318Y-138025237D02*
X64863842Y-138146190D01*
X64863842Y-138146190D02*
X64803365Y-138206666D01*
D11*
X62254819Y-117535714D02*
X61778628Y-117869047D01*
X62254819Y-118107142D02*
X61254819Y-118107142D01*
X61254819Y-118107142D02*
X61254819Y-117726190D01*
X61254819Y-117726190D02*
X61302438Y-117630952D01*
X61302438Y-117630952D02*
X61350057Y-117583333D01*
X61350057Y-117583333D02*
X61445295Y-117535714D01*
X61445295Y-117535714D02*
X61588152Y-117535714D01*
X61588152Y-117535714D02*
X61683390Y-117583333D01*
X61683390Y-117583333D02*
X61731009Y-117630952D01*
X61731009Y-117630952D02*
X61778628Y-117726190D01*
X61778628Y-117726190D02*
X61778628Y-118107142D01*
X62350057Y-117345238D02*
X62350057Y-116583333D01*
X61588152Y-115916666D02*
X62254819Y-115916666D01*
X61207200Y-116154761D02*
X61921485Y-116392856D01*
X61921485Y-116392856D02*
X61921485Y-115773809D01*
X62254819Y-115392856D02*
X61254819Y-115392856D01*
X61873866Y-115297618D02*
X62254819Y-115011904D01*
X61588152Y-115011904D02*
X61969104Y-115392856D01*
X61254819Y-114678570D02*
X61254819Y-114011904D01*
X61254819Y-114011904D02*
X62254819Y-114440475D01*
X62350057Y-113869047D02*
X62350057Y-113107142D01*
X61588152Y-112440475D02*
X62254819Y-112440475D01*
X61207200Y-112678570D02*
X61921485Y-112916665D01*
X61921485Y-112916665D02*
X61921485Y-112297618D01*
D12*
X120774762Y-207695270D02*
X120653810Y-207634794D01*
X120653810Y-207634794D02*
X120532857Y-207513842D01*
X120532857Y-207513842D02*
X120351429Y-207332413D01*
X120351429Y-207332413D02*
X120230476Y-207271937D01*
X120230476Y-207271937D02*
X120109524Y-207271937D01*
X120170000Y-207574318D02*
X120049048Y-207513842D01*
X120049048Y-207513842D02*
X119928095Y-207392889D01*
X119928095Y-207392889D02*
X119867619Y-207150984D01*
X119867619Y-207150984D02*
X119867619Y-206727651D01*
X119867619Y-206727651D02*
X119928095Y-206485746D01*
X119928095Y-206485746D02*
X120049048Y-206364794D01*
X120049048Y-206364794D02*
X120170000Y-206304318D01*
X120170000Y-206304318D02*
X120411905Y-206304318D01*
X120411905Y-206304318D02*
X120532857Y-206364794D01*
X120532857Y-206364794D02*
X120653810Y-206485746D01*
X120653810Y-206485746D02*
X120714286Y-206727651D01*
X120714286Y-206727651D02*
X120714286Y-207150984D01*
X120714286Y-207150984D02*
X120653810Y-207392889D01*
X120653810Y-207392889D02*
X120532857Y-207513842D01*
X120532857Y-207513842D02*
X120411905Y-207574318D01*
X120411905Y-207574318D02*
X120170000Y-207574318D01*
X120956191Y-207695270D02*
X121923810Y-207695270D01*
X122226190Y-207574318D02*
X122226190Y-206304318D01*
X122226190Y-206304318D02*
X122951905Y-207574318D01*
X122951905Y-207574318D02*
X122951905Y-206304318D01*
X124100952Y-207513842D02*
X123980000Y-207574318D01*
X123980000Y-207574318D02*
X123738095Y-207574318D01*
X123738095Y-207574318D02*
X123617143Y-207513842D01*
X123617143Y-207513842D02*
X123556666Y-207453365D01*
X123556666Y-207453365D02*
X123496190Y-207332413D01*
X123496190Y-207332413D02*
X123496190Y-206969556D01*
X123496190Y-206969556D02*
X123556666Y-206848603D01*
X123556666Y-206848603D02*
X123617143Y-206788127D01*
X123617143Y-206788127D02*
X123738095Y-206727651D01*
X123738095Y-206727651D02*
X123980000Y-206727651D01*
X123980000Y-206727651D02*
X124100952Y-206788127D01*
X124645237Y-207574318D02*
X124645237Y-206304318D01*
X125189523Y-207574318D02*
X125189523Y-206909080D01*
X125189523Y-206909080D02*
X125129047Y-206788127D01*
X125129047Y-206788127D02*
X125008095Y-206727651D01*
X125008095Y-206727651D02*
X124826666Y-206727651D01*
X124826666Y-206727651D02*
X124705714Y-206788127D01*
X124705714Y-206788127D02*
X124645237Y-206848603D01*
X126217619Y-206909080D02*
X125794285Y-206909080D01*
X125794285Y-207574318D02*
X125794285Y-206304318D01*
X125794285Y-206304318D02*
X126399047Y-206304318D01*
X126882856Y-206909080D02*
X127306190Y-206909080D01*
X127487618Y-207574318D02*
X126882856Y-207574318D01*
X126882856Y-207574318D02*
X126882856Y-206304318D01*
X126882856Y-206304318D02*
X127487618Y-206304318D01*
X127850476Y-206304318D02*
X128576190Y-206304318D01*
X128213333Y-207574318D02*
X128213333Y-206304318D01*
X128697143Y-207695270D02*
X129664762Y-207695270D01*
X130632381Y-207574318D02*
X129906666Y-207574318D01*
X130269523Y-207574318D02*
X130269523Y-206304318D01*
X130269523Y-206304318D02*
X130148571Y-206485746D01*
X130148571Y-206485746D02*
X130027619Y-206606699D01*
X130027619Y-206606699D02*
X129906666Y-206667175D01*
X126368095Y-122063842D02*
X126549524Y-122124318D01*
X126549524Y-122124318D02*
X126851905Y-122124318D01*
X126851905Y-122124318D02*
X126972857Y-122063842D01*
X126972857Y-122063842D02*
X127033333Y-122003365D01*
X127033333Y-122003365D02*
X127093810Y-121882413D01*
X127093810Y-121882413D02*
X127093810Y-121761461D01*
X127093810Y-121761461D02*
X127033333Y-121640508D01*
X127033333Y-121640508D02*
X126972857Y-121580032D01*
X126972857Y-121580032D02*
X126851905Y-121519556D01*
X126851905Y-121519556D02*
X126610000Y-121459080D01*
X126610000Y-121459080D02*
X126489048Y-121398603D01*
X126489048Y-121398603D02*
X126428571Y-121338127D01*
X126428571Y-121338127D02*
X126368095Y-121217175D01*
X126368095Y-121217175D02*
X126368095Y-121096222D01*
X126368095Y-121096222D02*
X126428571Y-120975270D01*
X126428571Y-120975270D02*
X126489048Y-120914794D01*
X126489048Y-120914794D02*
X126610000Y-120854318D01*
X126610000Y-120854318D02*
X126912381Y-120854318D01*
X126912381Y-120854318D02*
X127093810Y-120914794D01*
X127517143Y-120854318D02*
X127819524Y-122124318D01*
X127819524Y-122124318D02*
X128061429Y-121217175D01*
X128061429Y-121217175D02*
X128303334Y-122124318D01*
X128303334Y-122124318D02*
X128605715Y-120854318D01*
X128787144Y-122245270D02*
X129754763Y-122245270D01*
X130057143Y-122124318D02*
X130057143Y-120854318D01*
X130057143Y-120854318D02*
X130359524Y-120854318D01*
X130359524Y-120854318D02*
X130540953Y-120914794D01*
X130540953Y-120914794D02*
X130661905Y-121035746D01*
X130661905Y-121035746D02*
X130722382Y-121156699D01*
X130722382Y-121156699D02*
X130782858Y-121398603D01*
X130782858Y-121398603D02*
X130782858Y-121580032D01*
X130782858Y-121580032D02*
X130722382Y-121821937D01*
X130722382Y-121821937D02*
X130661905Y-121942889D01*
X130661905Y-121942889D02*
X130540953Y-122063842D01*
X130540953Y-122063842D02*
X130359524Y-122124318D01*
X130359524Y-122124318D02*
X130057143Y-122124318D01*
X131810953Y-122063842D02*
X131690001Y-122124318D01*
X131690001Y-122124318D02*
X131448096Y-122124318D01*
X131448096Y-122124318D02*
X131327143Y-122063842D01*
X131327143Y-122063842D02*
X131266667Y-121942889D01*
X131266667Y-121942889D02*
X131266667Y-121459080D01*
X131266667Y-121459080D02*
X131327143Y-121338127D01*
X131327143Y-121338127D02*
X131448096Y-121277651D01*
X131448096Y-121277651D02*
X131690001Y-121277651D01*
X131690001Y-121277651D02*
X131810953Y-121338127D01*
X131810953Y-121338127D02*
X131871429Y-121459080D01*
X131871429Y-121459080D02*
X131871429Y-121580032D01*
X131871429Y-121580032D02*
X131266667Y-121700984D01*
X132960000Y-122063842D02*
X132839048Y-122124318D01*
X132839048Y-122124318D02*
X132597143Y-122124318D01*
X132597143Y-122124318D02*
X132476191Y-122063842D01*
X132476191Y-122063842D02*
X132415714Y-122003365D01*
X132415714Y-122003365D02*
X132355238Y-121882413D01*
X132355238Y-121882413D02*
X132355238Y-121519556D01*
X132355238Y-121519556D02*
X132415714Y-121398603D01*
X132415714Y-121398603D02*
X132476191Y-121338127D01*
X132476191Y-121338127D02*
X132597143Y-121277651D01*
X132597143Y-121277651D02*
X132839048Y-121277651D01*
X132839048Y-121277651D02*
X132960000Y-121338127D01*
X133443809Y-122063842D02*
X133625238Y-122124318D01*
X133625238Y-122124318D02*
X133927619Y-122124318D01*
X133927619Y-122124318D02*
X134048571Y-122063842D01*
X134048571Y-122063842D02*
X134109047Y-122003365D01*
X134109047Y-122003365D02*
X134169524Y-121882413D01*
X134169524Y-121882413D02*
X134169524Y-121761461D01*
X134169524Y-121761461D02*
X134109047Y-121640508D01*
X134109047Y-121640508D02*
X134048571Y-121580032D01*
X134048571Y-121580032D02*
X133927619Y-121519556D01*
X133927619Y-121519556D02*
X133685714Y-121459080D01*
X133685714Y-121459080D02*
X133564762Y-121398603D01*
X133564762Y-121398603D02*
X133504285Y-121338127D01*
X133504285Y-121338127D02*
X133443809Y-121217175D01*
X133443809Y-121217175D02*
X133443809Y-121096222D01*
X133443809Y-121096222D02*
X133504285Y-120975270D01*
X133504285Y-120975270D02*
X133564762Y-120914794D01*
X133564762Y-120914794D02*
X133685714Y-120854318D01*
X133685714Y-120854318D02*
X133988095Y-120854318D01*
X133988095Y-120854318D02*
X134169524Y-120914794D01*
X134713809Y-121277651D02*
X134713809Y-122547651D01*
X134713809Y-121338127D02*
X134834762Y-121277651D01*
X134834762Y-121277651D02*
X135076667Y-121277651D01*
X135076667Y-121277651D02*
X135197619Y-121338127D01*
X135197619Y-121338127D02*
X135258095Y-121398603D01*
X135258095Y-121398603D02*
X135318571Y-121519556D01*
X135318571Y-121519556D02*
X135318571Y-121882413D01*
X135318571Y-121882413D02*
X135258095Y-122003365D01*
X135258095Y-122003365D02*
X135197619Y-122063842D01*
X135197619Y-122063842D02*
X135076667Y-122124318D01*
X135076667Y-122124318D02*
X134834762Y-122124318D01*
X134834762Y-122124318D02*
X134713809Y-122063842D01*
X136346667Y-122063842D02*
X136225715Y-122124318D01*
X136225715Y-122124318D02*
X135983810Y-122124318D01*
X135983810Y-122124318D02*
X135862857Y-122063842D01*
X135862857Y-122063842D02*
X135802381Y-121942889D01*
X135802381Y-121942889D02*
X135802381Y-121459080D01*
X135802381Y-121459080D02*
X135862857Y-121338127D01*
X135862857Y-121338127D02*
X135983810Y-121277651D01*
X135983810Y-121277651D02*
X136225715Y-121277651D01*
X136225715Y-121277651D02*
X136346667Y-121338127D01*
X136346667Y-121338127D02*
X136407143Y-121459080D01*
X136407143Y-121459080D02*
X136407143Y-121580032D01*
X136407143Y-121580032D02*
X135802381Y-121700984D01*
X137435238Y-122063842D02*
X137314286Y-122124318D01*
X137314286Y-122124318D02*
X137072381Y-122124318D01*
X137072381Y-122124318D02*
X136951428Y-122063842D01*
X136951428Y-122063842D02*
X136890952Y-121942889D01*
X136890952Y-121942889D02*
X136890952Y-121459080D01*
X136890952Y-121459080D02*
X136951428Y-121338127D01*
X136951428Y-121338127D02*
X137072381Y-121277651D01*
X137072381Y-121277651D02*
X137314286Y-121277651D01*
X137314286Y-121277651D02*
X137435238Y-121338127D01*
X137435238Y-121338127D02*
X137495714Y-121459080D01*
X137495714Y-121459080D02*
X137495714Y-121580032D01*
X137495714Y-121580032D02*
X136890952Y-121700984D01*
X138584285Y-122124318D02*
X138584285Y-120854318D01*
X138584285Y-122063842D02*
X138463333Y-122124318D01*
X138463333Y-122124318D02*
X138221428Y-122124318D01*
X138221428Y-122124318D02*
X138100476Y-122063842D01*
X138100476Y-122063842D02*
X138039999Y-122003365D01*
X138039999Y-122003365D02*
X137979523Y-121882413D01*
X137979523Y-121882413D02*
X137979523Y-121519556D01*
X137979523Y-121519556D02*
X138039999Y-121398603D01*
X138039999Y-121398603D02*
X138100476Y-121338127D01*
X138100476Y-121338127D02*
X138221428Y-121277651D01*
X138221428Y-121277651D02*
X138463333Y-121277651D01*
X138463333Y-121277651D02*
X138584285Y-121338127D01*
X138886667Y-122245270D02*
X139854286Y-122245270D01*
X140700952Y-121277651D02*
X140700952Y-122124318D01*
X140398571Y-120793842D02*
X140096190Y-121700984D01*
X140096190Y-121700984D02*
X140882381Y-121700984D01*
X89324318Y-176128571D02*
X89324318Y-176733333D01*
X89324318Y-176733333D02*
X88054318Y-176733333D01*
X89445270Y-176007619D02*
X89445270Y-175039999D01*
X89324318Y-174072380D02*
X89324318Y-174798095D01*
X89324318Y-174435238D02*
X88054318Y-174435238D01*
X88054318Y-174435238D02*
X88235746Y-174556190D01*
X88235746Y-174556190D02*
X88356699Y-174677142D01*
X88356699Y-174677142D02*
X88417175Y-174798095D01*
X88054318Y-173286190D02*
X88054318Y-173165237D01*
X88054318Y-173165237D02*
X88114794Y-173044285D01*
X88114794Y-173044285D02*
X88175270Y-172983809D01*
X88175270Y-172983809D02*
X88296222Y-172923333D01*
X88296222Y-172923333D02*
X88538127Y-172862856D01*
X88538127Y-172862856D02*
X88840508Y-172862856D01*
X88840508Y-172862856D02*
X89082413Y-172923333D01*
X89082413Y-172923333D02*
X89203365Y-172983809D01*
X89203365Y-172983809D02*
X89263842Y-173044285D01*
X89263842Y-173044285D02*
X89324318Y-173165237D01*
X89324318Y-173165237D02*
X89324318Y-173286190D01*
X89324318Y-173286190D02*
X89263842Y-173407142D01*
X89263842Y-173407142D02*
X89203365Y-173467618D01*
X89203365Y-173467618D02*
X89082413Y-173528095D01*
X89082413Y-173528095D02*
X88840508Y-173588571D01*
X88840508Y-173588571D02*
X88538127Y-173588571D01*
X88538127Y-173588571D02*
X88296222Y-173528095D01*
X88296222Y-173528095D02*
X88175270Y-173467618D01*
X88175270Y-173467618D02*
X88114794Y-173407142D01*
X88114794Y-173407142D02*
X88054318Y-173286190D01*
X88477651Y-171774285D02*
X89324318Y-171774285D01*
X88477651Y-172318571D02*
X89142889Y-172318571D01*
X89142889Y-172318571D02*
X89263842Y-172258094D01*
X89263842Y-172258094D02*
X89324318Y-172137142D01*
X89324318Y-172137142D02*
X89324318Y-171955713D01*
X89324318Y-171955713D02*
X89263842Y-171834761D01*
X89263842Y-171834761D02*
X89203365Y-171774285D01*
X89324318Y-171169523D02*
X88054318Y-171169523D01*
X88659080Y-171169523D02*
X88659080Y-170443808D01*
X89324318Y-170443808D02*
X88054318Y-170443808D01*
X89445270Y-170141428D02*
X89445270Y-169173808D01*
X89324318Y-168206189D02*
X89324318Y-168931904D01*
X89324318Y-168569047D02*
X88054318Y-168569047D01*
X88054318Y-168569047D02*
X88235746Y-168689999D01*
X88235746Y-168689999D02*
X88356699Y-168810951D01*
X88356699Y-168810951D02*
X88417175Y-168931904D01*
X129013842Y-143819761D02*
X129074318Y-143638332D01*
X129074318Y-143638332D02*
X129074318Y-143335951D01*
X129074318Y-143335951D02*
X129013842Y-143214999D01*
X129013842Y-143214999D02*
X128953365Y-143154523D01*
X128953365Y-143154523D02*
X128832413Y-143094046D01*
X128832413Y-143094046D02*
X128711461Y-143094046D01*
X128711461Y-143094046D02*
X128590508Y-143154523D01*
X128590508Y-143154523D02*
X128530032Y-143214999D01*
X128530032Y-143214999D02*
X128469556Y-143335951D01*
X128469556Y-143335951D02*
X128409080Y-143577856D01*
X128409080Y-143577856D02*
X128348603Y-143698808D01*
X128348603Y-143698808D02*
X128288127Y-143759285D01*
X128288127Y-143759285D02*
X128167175Y-143819761D01*
X128167175Y-143819761D02*
X128046222Y-143819761D01*
X128046222Y-143819761D02*
X127925270Y-143759285D01*
X127925270Y-143759285D02*
X127864794Y-143698808D01*
X127864794Y-143698808D02*
X127804318Y-143577856D01*
X127804318Y-143577856D02*
X127804318Y-143275475D01*
X127804318Y-143275475D02*
X127864794Y-143094046D01*
X127804318Y-142670713D02*
X129074318Y-142368332D01*
X129074318Y-142368332D02*
X128167175Y-142126427D01*
X128167175Y-142126427D02*
X129074318Y-141884522D01*
X129074318Y-141884522D02*
X127804318Y-141582142D01*
X129195270Y-141400713D02*
X129195270Y-140433093D01*
X129074318Y-139525951D02*
X129074318Y-140130713D01*
X129074318Y-140130713D02*
X127804318Y-140130713D01*
X129074318Y-138921189D02*
X129013842Y-139042141D01*
X129013842Y-139042141D02*
X128953365Y-139102618D01*
X128953365Y-139102618D02*
X128832413Y-139163094D01*
X128832413Y-139163094D02*
X128469556Y-139163094D01*
X128469556Y-139163094D02*
X128348603Y-139102618D01*
X128348603Y-139102618D02*
X128288127Y-139042141D01*
X128288127Y-139042141D02*
X128227651Y-138921189D01*
X128227651Y-138921189D02*
X128227651Y-138739760D01*
X128227651Y-138739760D02*
X128288127Y-138618808D01*
X128288127Y-138618808D02*
X128348603Y-138558332D01*
X128348603Y-138558332D02*
X128469556Y-138497856D01*
X128469556Y-138497856D02*
X128832413Y-138497856D01*
X128832413Y-138497856D02*
X128953365Y-138558332D01*
X128953365Y-138558332D02*
X129013842Y-138618808D01*
X129013842Y-138618808D02*
X129074318Y-138739760D01*
X129074318Y-138739760D02*
X129074318Y-138921189D01*
X129013842Y-137409284D02*
X129074318Y-137530236D01*
X129074318Y-137530236D02*
X129074318Y-137772141D01*
X129074318Y-137772141D02*
X129013842Y-137893093D01*
X129013842Y-137893093D02*
X128953365Y-137953570D01*
X128953365Y-137953570D02*
X128832413Y-138014046D01*
X128832413Y-138014046D02*
X128469556Y-138014046D01*
X128469556Y-138014046D02*
X128348603Y-137953570D01*
X128348603Y-137953570D02*
X128288127Y-137893093D01*
X128288127Y-137893093D02*
X128227651Y-137772141D01*
X128227651Y-137772141D02*
X128227651Y-137530236D01*
X128227651Y-137530236D02*
X128288127Y-137409284D01*
X129074318Y-136139284D02*
X128469556Y-136562618D01*
X129074318Y-136864999D02*
X127804318Y-136864999D01*
X127804318Y-136864999D02*
X127804318Y-136381189D01*
X127804318Y-136381189D02*
X127864794Y-136260237D01*
X127864794Y-136260237D02*
X127925270Y-136199760D01*
X127925270Y-136199760D02*
X128046222Y-136139284D01*
X128046222Y-136139284D02*
X128227651Y-136139284D01*
X128227651Y-136139284D02*
X128348603Y-136199760D01*
X128348603Y-136199760D02*
X128409080Y-136260237D01*
X128409080Y-136260237D02*
X128469556Y-136381189D01*
X128469556Y-136381189D02*
X128469556Y-136864999D01*
X129013842Y-135111189D02*
X129074318Y-135232141D01*
X129074318Y-135232141D02*
X129074318Y-135474046D01*
X129074318Y-135474046D02*
X129013842Y-135594999D01*
X129013842Y-135594999D02*
X128892889Y-135655475D01*
X128892889Y-135655475D02*
X128409080Y-135655475D01*
X128409080Y-135655475D02*
X128288127Y-135594999D01*
X128288127Y-135594999D02*
X128227651Y-135474046D01*
X128227651Y-135474046D02*
X128227651Y-135232141D01*
X128227651Y-135232141D02*
X128288127Y-135111189D01*
X128288127Y-135111189D02*
X128409080Y-135050713D01*
X128409080Y-135050713D02*
X128530032Y-135050713D01*
X128530032Y-135050713D02*
X128650984Y-135655475D01*
X129074318Y-134506428D02*
X128227651Y-134506428D01*
X128348603Y-134506428D02*
X128288127Y-134445951D01*
X128288127Y-134445951D02*
X128227651Y-134324999D01*
X128227651Y-134324999D02*
X128227651Y-134143570D01*
X128227651Y-134143570D02*
X128288127Y-134022618D01*
X128288127Y-134022618D02*
X128409080Y-133962142D01*
X128409080Y-133962142D02*
X129074318Y-133962142D01*
X128409080Y-133962142D02*
X128288127Y-133901666D01*
X128288127Y-133901666D02*
X128227651Y-133780713D01*
X128227651Y-133780713D02*
X128227651Y-133599285D01*
X128227651Y-133599285D02*
X128288127Y-133478332D01*
X128288127Y-133478332D02*
X128409080Y-133417856D01*
X128409080Y-133417856D02*
X129074318Y-133417856D01*
X129195270Y-133115476D02*
X129195270Y-132147856D01*
X129074318Y-131180237D02*
X129074318Y-131905952D01*
X129074318Y-131543095D02*
X127804318Y-131543095D01*
X127804318Y-131543095D02*
X127985746Y-131664047D01*
X127985746Y-131664047D02*
X128106699Y-131784999D01*
X128106699Y-131784999D02*
X128167175Y-131905952D01*
D11*
X84014285Y-124804819D02*
X83680952Y-124328628D01*
X83442857Y-124804819D02*
X83442857Y-123804819D01*
X83442857Y-123804819D02*
X83823809Y-123804819D01*
X83823809Y-123804819D02*
X83919047Y-123852438D01*
X83919047Y-123852438D02*
X83966666Y-123900057D01*
X83966666Y-123900057D02*
X84014285Y-123995295D01*
X84014285Y-123995295D02*
X84014285Y-124138152D01*
X84014285Y-124138152D02*
X83966666Y-124233390D01*
X83966666Y-124233390D02*
X83919047Y-124281009D01*
X83919047Y-124281009D02*
X83823809Y-124328628D01*
X83823809Y-124328628D02*
X83442857Y-124328628D01*
X84204762Y-124900057D02*
X84966666Y-124900057D01*
X85633333Y-124138152D02*
X85633333Y-124804819D01*
X85395238Y-123757200D02*
X85157143Y-124471485D01*
X85157143Y-124471485D02*
X85776190Y-124471485D01*
X86157143Y-124804819D02*
X86157143Y-123804819D01*
X86252381Y-124423866D02*
X86538095Y-124804819D01*
X86538095Y-124138152D02*
X86157143Y-124519104D01*
X86871429Y-123804819D02*
X87538095Y-123804819D01*
X87538095Y-123804819D02*
X87109524Y-124804819D01*
X87680953Y-124900057D02*
X88442857Y-124900057D01*
X88585715Y-123804819D02*
X89204762Y-123804819D01*
X89204762Y-123804819D02*
X88871429Y-124185771D01*
X88871429Y-124185771D02*
X89014286Y-124185771D01*
X89014286Y-124185771D02*
X89109524Y-124233390D01*
X89109524Y-124233390D02*
X89157143Y-124281009D01*
X89157143Y-124281009D02*
X89204762Y-124376247D01*
X89204762Y-124376247D02*
X89204762Y-124614342D01*
X89204762Y-124614342D02*
X89157143Y-124709580D01*
X89157143Y-124709580D02*
X89109524Y-124757200D01*
X89109524Y-124757200D02*
X89014286Y-124804819D01*
X89014286Y-124804819D02*
X88728572Y-124804819D01*
X88728572Y-124804819D02*
X88633334Y-124757200D01*
X88633334Y-124757200D02*
X88585715Y-124709580D01*
X91988094Y-177109580D02*
X91940475Y-177157200D01*
X91940475Y-177157200D02*
X91797618Y-177204819D01*
X91797618Y-177204819D02*
X91702380Y-177204819D01*
X91702380Y-177204819D02*
X91559523Y-177157200D01*
X91559523Y-177157200D02*
X91464285Y-177061961D01*
X91464285Y-177061961D02*
X91416666Y-176966723D01*
X91416666Y-176966723D02*
X91369047Y-176776247D01*
X91369047Y-176776247D02*
X91369047Y-176633390D01*
X91369047Y-176633390D02*
X91416666Y-176442914D01*
X91416666Y-176442914D02*
X91464285Y-176347676D01*
X91464285Y-176347676D02*
X91559523Y-176252438D01*
X91559523Y-176252438D02*
X91702380Y-176204819D01*
X91702380Y-176204819D02*
X91797618Y-176204819D01*
X91797618Y-176204819D02*
X91940475Y-176252438D01*
X91940475Y-176252438D02*
X91988094Y-176300057D01*
X92178571Y-177300057D02*
X92940475Y-177300057D01*
X93130952Y-176300057D02*
X93178571Y-176252438D01*
X93178571Y-176252438D02*
X93273809Y-176204819D01*
X93273809Y-176204819D02*
X93511904Y-176204819D01*
X93511904Y-176204819D02*
X93607142Y-176252438D01*
X93607142Y-176252438D02*
X93654761Y-176300057D01*
X93654761Y-176300057D02*
X93702380Y-176395295D01*
X93702380Y-176395295D02*
X93702380Y-176490533D01*
X93702380Y-176490533D02*
X93654761Y-176633390D01*
X93654761Y-176633390D02*
X93083333Y-177204819D01*
X93083333Y-177204819D02*
X93702380Y-177204819D01*
X94083333Y-176300057D02*
X94130952Y-176252438D01*
X94130952Y-176252438D02*
X94226190Y-176204819D01*
X94226190Y-176204819D02*
X94464285Y-176204819D01*
X94464285Y-176204819D02*
X94559523Y-176252438D01*
X94559523Y-176252438D02*
X94607142Y-176300057D01*
X94607142Y-176300057D02*
X94654761Y-176395295D01*
X94654761Y-176395295D02*
X94654761Y-176490533D01*
X94654761Y-176490533D02*
X94607142Y-176633390D01*
X94607142Y-176633390D02*
X94035714Y-177204819D01*
X94035714Y-177204819D02*
X94654761Y-177204819D01*
X95511904Y-176538152D02*
X95511904Y-177204819D01*
X95083333Y-176538152D02*
X95083333Y-177061961D01*
X95083333Y-177061961D02*
X95130952Y-177157200D01*
X95130952Y-177157200D02*
X95226190Y-177204819D01*
X95226190Y-177204819D02*
X95369047Y-177204819D01*
X95369047Y-177204819D02*
X95464285Y-177157200D01*
X95464285Y-177157200D02*
X95511904Y-177109580D01*
X96321428Y-176681009D02*
X95988095Y-176681009D01*
X95988095Y-177204819D02*
X95988095Y-176204819D01*
X95988095Y-176204819D02*
X96464285Y-176204819D01*
X96607143Y-177300057D02*
X97369047Y-177300057D01*
X98130952Y-177204819D02*
X97559524Y-177204819D01*
X97845238Y-177204819D02*
X97845238Y-176204819D01*
X97845238Y-176204819D02*
X97750000Y-176347676D01*
X97750000Y-176347676D02*
X97654762Y-176442914D01*
X97654762Y-176442914D02*
X97559524Y-176490533D01*
D12*
X109574318Y-162472618D02*
X108304318Y-162472618D01*
X109574318Y-161746903D02*
X108848603Y-162291189D01*
X108304318Y-161746903D02*
X109030032Y-162472618D01*
X109695270Y-161504999D02*
X109695270Y-160537379D01*
X108304318Y-160416427D02*
X108304318Y-159690713D01*
X109574318Y-160053570D02*
X108304318Y-160053570D01*
X108727651Y-159388332D02*
X109574318Y-159085951D01*
X108727651Y-158783570D02*
X109574318Y-159085951D01*
X109574318Y-159085951D02*
X109876699Y-159206903D01*
X109876699Y-159206903D02*
X109937175Y-159267380D01*
X109937175Y-159267380D02*
X109997651Y-159388332D01*
X108727651Y-158299761D02*
X109997651Y-158299761D01*
X108788127Y-158299761D02*
X108727651Y-158178808D01*
X108727651Y-158178808D02*
X108727651Y-157936903D01*
X108727651Y-157936903D02*
X108788127Y-157815951D01*
X108788127Y-157815951D02*
X108848603Y-157755475D01*
X108848603Y-157755475D02*
X108969556Y-157694999D01*
X108969556Y-157694999D02*
X109332413Y-157694999D01*
X109332413Y-157694999D02*
X109453365Y-157755475D01*
X109453365Y-157755475D02*
X109513842Y-157815951D01*
X109513842Y-157815951D02*
X109574318Y-157936903D01*
X109574318Y-157936903D02*
X109574318Y-158178808D01*
X109574318Y-158178808D02*
X109513842Y-158299761D01*
X109513842Y-156666903D02*
X109574318Y-156787855D01*
X109574318Y-156787855D02*
X109574318Y-157029760D01*
X109574318Y-157029760D02*
X109513842Y-157150713D01*
X109513842Y-157150713D02*
X109392889Y-157211189D01*
X109392889Y-157211189D02*
X108909080Y-157211189D01*
X108909080Y-157211189D02*
X108788127Y-157150713D01*
X108788127Y-157150713D02*
X108727651Y-157029760D01*
X108727651Y-157029760D02*
X108727651Y-156787855D01*
X108727651Y-156787855D02*
X108788127Y-156666903D01*
X108788127Y-156666903D02*
X108909080Y-156606427D01*
X108909080Y-156606427D02*
X109030032Y-156606427D01*
X109030032Y-156606427D02*
X109150984Y-157211189D01*
X109211461Y-156122618D02*
X109211461Y-155517856D01*
X109574318Y-156243570D02*
X108304318Y-155820237D01*
X108304318Y-155820237D02*
X109574318Y-155396903D01*
X109574318Y-154247856D02*
X108969556Y-154671190D01*
X109574318Y-154973571D02*
X108304318Y-154973571D01*
X108304318Y-154973571D02*
X108304318Y-154489761D01*
X108304318Y-154489761D02*
X108364794Y-154368809D01*
X108364794Y-154368809D02*
X108425270Y-154308332D01*
X108425270Y-154308332D02*
X108546222Y-154247856D01*
X108546222Y-154247856D02*
X108727651Y-154247856D01*
X108727651Y-154247856D02*
X108848603Y-154308332D01*
X108848603Y-154308332D02*
X108909080Y-154368809D01*
X108909080Y-154368809D02*
X108969556Y-154489761D01*
X108969556Y-154489761D02*
X108969556Y-154973571D01*
X109513842Y-153219761D02*
X109574318Y-153340713D01*
X109574318Y-153340713D02*
X109574318Y-153582618D01*
X109574318Y-153582618D02*
X109513842Y-153703571D01*
X109513842Y-153703571D02*
X109392889Y-153764047D01*
X109392889Y-153764047D02*
X108909080Y-153764047D01*
X108909080Y-153764047D02*
X108788127Y-153703571D01*
X108788127Y-153703571D02*
X108727651Y-153582618D01*
X108727651Y-153582618D02*
X108727651Y-153340713D01*
X108727651Y-153340713D02*
X108788127Y-153219761D01*
X108788127Y-153219761D02*
X108909080Y-153159285D01*
X108909080Y-153159285D02*
X109030032Y-153159285D01*
X109030032Y-153159285D02*
X109150984Y-153764047D01*
X109574318Y-152433571D02*
X109513842Y-152554523D01*
X109513842Y-152554523D02*
X109392889Y-152615000D01*
X109392889Y-152615000D02*
X108304318Y-152615000D01*
X109695270Y-152252143D02*
X109695270Y-151284523D01*
X109574318Y-150316904D02*
X109574318Y-151042619D01*
X109574318Y-150679762D02*
X108304318Y-150679762D01*
X108304318Y-150679762D02*
X108485746Y-150800714D01*
X108485746Y-150800714D02*
X108606699Y-150921666D01*
X108606699Y-150921666D02*
X108667175Y-151042619D01*
X64263842Y-128541666D02*
X64324318Y-128360237D01*
X64324318Y-128360237D02*
X64324318Y-128057856D01*
X64324318Y-128057856D02*
X64263842Y-127936904D01*
X64263842Y-127936904D02*
X64203365Y-127876428D01*
X64203365Y-127876428D02*
X64082413Y-127815951D01*
X64082413Y-127815951D02*
X63961461Y-127815951D01*
X63961461Y-127815951D02*
X63840508Y-127876428D01*
X63840508Y-127876428D02*
X63780032Y-127936904D01*
X63780032Y-127936904D02*
X63719556Y-128057856D01*
X63719556Y-128057856D02*
X63659080Y-128299761D01*
X63659080Y-128299761D02*
X63598603Y-128420713D01*
X63598603Y-128420713D02*
X63538127Y-128481190D01*
X63538127Y-128481190D02*
X63417175Y-128541666D01*
X63417175Y-128541666D02*
X63296222Y-128541666D01*
X63296222Y-128541666D02*
X63175270Y-128481190D01*
X63175270Y-128481190D02*
X63114794Y-128420713D01*
X63114794Y-128420713D02*
X63054318Y-128299761D01*
X63054318Y-128299761D02*
X63054318Y-127997380D01*
X63054318Y-127997380D02*
X63114794Y-127815951D01*
X63054318Y-127392618D02*
X64324318Y-127090237D01*
X64324318Y-127090237D02*
X63417175Y-126848332D01*
X63417175Y-126848332D02*
X64324318Y-126606427D01*
X64324318Y-126606427D02*
X63054318Y-126304047D01*
X64445270Y-126122618D02*
X64445270Y-125154998D01*
X63054318Y-124610713D02*
X63054318Y-124368808D01*
X63054318Y-124368808D02*
X63114794Y-124247856D01*
X63114794Y-124247856D02*
X63235746Y-124126903D01*
X63235746Y-124126903D02*
X63477651Y-124066427D01*
X63477651Y-124066427D02*
X63900984Y-124066427D01*
X63900984Y-124066427D02*
X64142889Y-124126903D01*
X64142889Y-124126903D02*
X64263842Y-124247856D01*
X64263842Y-124247856D02*
X64324318Y-124368808D01*
X64324318Y-124368808D02*
X64324318Y-124610713D01*
X64324318Y-124610713D02*
X64263842Y-124731665D01*
X64263842Y-124731665D02*
X64142889Y-124852618D01*
X64142889Y-124852618D02*
X63900984Y-124913094D01*
X63900984Y-124913094D02*
X63477651Y-124913094D01*
X63477651Y-124913094D02*
X63235746Y-124852618D01*
X63235746Y-124852618D02*
X63114794Y-124731665D01*
X63114794Y-124731665D02*
X63054318Y-124610713D01*
X63477651Y-123522142D02*
X64324318Y-123522142D01*
X63598603Y-123522142D02*
X63538127Y-123461665D01*
X63538127Y-123461665D02*
X63477651Y-123340713D01*
X63477651Y-123340713D02*
X63477651Y-123159284D01*
X63477651Y-123159284D02*
X63538127Y-123038332D01*
X63538127Y-123038332D02*
X63659080Y-122977856D01*
X63659080Y-122977856D02*
X64324318Y-122977856D01*
X63054318Y-122131189D02*
X63054318Y-121889284D01*
X63054318Y-121889284D02*
X63114794Y-121768332D01*
X63114794Y-121768332D02*
X63235746Y-121647379D01*
X63235746Y-121647379D02*
X63477651Y-121586903D01*
X63477651Y-121586903D02*
X63900984Y-121586903D01*
X63900984Y-121586903D02*
X64142889Y-121647379D01*
X64142889Y-121647379D02*
X64263842Y-121768332D01*
X64263842Y-121768332D02*
X64324318Y-121889284D01*
X64324318Y-121889284D02*
X64324318Y-122131189D01*
X64324318Y-122131189D02*
X64263842Y-122252141D01*
X64263842Y-122252141D02*
X64142889Y-122373094D01*
X64142889Y-122373094D02*
X63900984Y-122433570D01*
X63900984Y-122433570D02*
X63477651Y-122433570D01*
X63477651Y-122433570D02*
X63235746Y-122373094D01*
X63235746Y-122373094D02*
X63114794Y-122252141D01*
X63114794Y-122252141D02*
X63054318Y-122131189D01*
X63477651Y-121224046D02*
X63477651Y-120740237D01*
X64324318Y-121042618D02*
X63235746Y-121042618D01*
X63235746Y-121042618D02*
X63114794Y-120982141D01*
X63114794Y-120982141D02*
X63054318Y-120861189D01*
X63054318Y-120861189D02*
X63054318Y-120740237D01*
X63477651Y-120498332D02*
X63477651Y-120014523D01*
X64324318Y-120316904D02*
X63235746Y-120316904D01*
X63235746Y-120316904D02*
X63114794Y-120256427D01*
X63114794Y-120256427D02*
X63054318Y-120135475D01*
X63054318Y-120135475D02*
X63054318Y-120014523D01*
X64445270Y-119893571D02*
X64445270Y-118925951D01*
X63175270Y-118684047D02*
X63114794Y-118623571D01*
X63114794Y-118623571D02*
X63054318Y-118502618D01*
X63054318Y-118502618D02*
X63054318Y-118200237D01*
X63054318Y-118200237D02*
X63114794Y-118079285D01*
X63114794Y-118079285D02*
X63175270Y-118018809D01*
X63175270Y-118018809D02*
X63296222Y-117958332D01*
X63296222Y-117958332D02*
X63417175Y-117958332D01*
X63417175Y-117958332D02*
X63598603Y-118018809D01*
X63598603Y-118018809D02*
X64324318Y-118744523D01*
X64324318Y-118744523D02*
X64324318Y-117958332D01*
X101624762Y-207695270D02*
X101503810Y-207634794D01*
X101503810Y-207634794D02*
X101382857Y-207513842D01*
X101382857Y-207513842D02*
X101201429Y-207332413D01*
X101201429Y-207332413D02*
X101080476Y-207271937D01*
X101080476Y-207271937D02*
X100959524Y-207271937D01*
X101020000Y-207574318D02*
X100899048Y-207513842D01*
X100899048Y-207513842D02*
X100778095Y-207392889D01*
X100778095Y-207392889D02*
X100717619Y-207150984D01*
X100717619Y-207150984D02*
X100717619Y-206727651D01*
X100717619Y-206727651D02*
X100778095Y-206485746D01*
X100778095Y-206485746D02*
X100899048Y-206364794D01*
X100899048Y-206364794D02*
X101020000Y-206304318D01*
X101020000Y-206304318D02*
X101261905Y-206304318D01*
X101261905Y-206304318D02*
X101382857Y-206364794D01*
X101382857Y-206364794D02*
X101503810Y-206485746D01*
X101503810Y-206485746D02*
X101564286Y-206727651D01*
X101564286Y-206727651D02*
X101564286Y-207150984D01*
X101564286Y-207150984D02*
X101503810Y-207392889D01*
X101503810Y-207392889D02*
X101382857Y-207513842D01*
X101382857Y-207513842D02*
X101261905Y-207574318D01*
X101261905Y-207574318D02*
X101020000Y-207574318D01*
X101806191Y-207695270D02*
X102773810Y-207695270D01*
X103076190Y-207574318D02*
X103076190Y-206304318D01*
X103076190Y-206304318D02*
X103801905Y-207574318D01*
X103801905Y-207574318D02*
X103801905Y-206304318D01*
X104950952Y-207513842D02*
X104830000Y-207574318D01*
X104830000Y-207574318D02*
X104588095Y-207574318D01*
X104588095Y-207574318D02*
X104467143Y-207513842D01*
X104467143Y-207513842D02*
X104406666Y-207453365D01*
X104406666Y-207453365D02*
X104346190Y-207332413D01*
X104346190Y-207332413D02*
X104346190Y-206969556D01*
X104346190Y-206969556D02*
X104406666Y-206848603D01*
X104406666Y-206848603D02*
X104467143Y-206788127D01*
X104467143Y-206788127D02*
X104588095Y-206727651D01*
X104588095Y-206727651D02*
X104830000Y-206727651D01*
X104830000Y-206727651D02*
X104950952Y-206788127D01*
X105495237Y-207574318D02*
X105495237Y-206304318D01*
X106039523Y-207574318D02*
X106039523Y-206909080D01*
X106039523Y-206909080D02*
X105979047Y-206788127D01*
X105979047Y-206788127D02*
X105858095Y-206727651D01*
X105858095Y-206727651D02*
X105676666Y-206727651D01*
X105676666Y-206727651D02*
X105555714Y-206788127D01*
X105555714Y-206788127D02*
X105495237Y-206848603D01*
X107067619Y-206909080D02*
X106644285Y-206909080D01*
X106644285Y-207574318D02*
X106644285Y-206304318D01*
X106644285Y-206304318D02*
X107249047Y-206304318D01*
X107732856Y-206909080D02*
X108156190Y-206909080D01*
X108337618Y-207574318D02*
X107732856Y-207574318D01*
X107732856Y-207574318D02*
X107732856Y-206304318D01*
X107732856Y-206304318D02*
X108337618Y-206304318D01*
X108700476Y-206304318D02*
X109426190Y-206304318D01*
X109063333Y-207574318D02*
X109063333Y-206304318D01*
X109547143Y-207695270D02*
X110514762Y-207695270D01*
X110756666Y-206425270D02*
X110817142Y-206364794D01*
X110817142Y-206364794D02*
X110938095Y-206304318D01*
X110938095Y-206304318D02*
X111240476Y-206304318D01*
X111240476Y-206304318D02*
X111361428Y-206364794D01*
X111361428Y-206364794D02*
X111421904Y-206425270D01*
X111421904Y-206425270D02*
X111482381Y-206546222D01*
X111482381Y-206546222D02*
X111482381Y-206667175D01*
X111482381Y-206667175D02*
X111421904Y-206848603D01*
X111421904Y-206848603D02*
X110696190Y-207574318D01*
X110696190Y-207574318D02*
X111482381Y-207574318D01*
X90074318Y-162472618D02*
X88804318Y-162472618D01*
X90074318Y-161746903D02*
X89348603Y-162291189D01*
X88804318Y-161746903D02*
X89530032Y-162472618D01*
X90195270Y-161504999D02*
X90195270Y-160537379D01*
X88804318Y-160416427D02*
X88804318Y-159690713D01*
X90074318Y-160053570D02*
X88804318Y-160053570D01*
X89227651Y-159388332D02*
X90074318Y-159085951D01*
X89227651Y-158783570D02*
X90074318Y-159085951D01*
X90074318Y-159085951D02*
X90376699Y-159206903D01*
X90376699Y-159206903D02*
X90437175Y-159267380D01*
X90437175Y-159267380D02*
X90497651Y-159388332D01*
X89227651Y-158299761D02*
X90497651Y-158299761D01*
X89288127Y-158299761D02*
X89227651Y-158178808D01*
X89227651Y-158178808D02*
X89227651Y-157936903D01*
X89227651Y-157936903D02*
X89288127Y-157815951D01*
X89288127Y-157815951D02*
X89348603Y-157755475D01*
X89348603Y-157755475D02*
X89469556Y-157694999D01*
X89469556Y-157694999D02*
X89832413Y-157694999D01*
X89832413Y-157694999D02*
X89953365Y-157755475D01*
X89953365Y-157755475D02*
X90013842Y-157815951D01*
X90013842Y-157815951D02*
X90074318Y-157936903D01*
X90074318Y-157936903D02*
X90074318Y-158178808D01*
X90074318Y-158178808D02*
X90013842Y-158299761D01*
X90013842Y-156666903D02*
X90074318Y-156787855D01*
X90074318Y-156787855D02*
X90074318Y-157029760D01*
X90074318Y-157029760D02*
X90013842Y-157150713D01*
X90013842Y-157150713D02*
X89892889Y-157211189D01*
X89892889Y-157211189D02*
X89409080Y-157211189D01*
X89409080Y-157211189D02*
X89288127Y-157150713D01*
X89288127Y-157150713D02*
X89227651Y-157029760D01*
X89227651Y-157029760D02*
X89227651Y-156787855D01*
X89227651Y-156787855D02*
X89288127Y-156666903D01*
X89288127Y-156666903D02*
X89409080Y-156606427D01*
X89409080Y-156606427D02*
X89530032Y-156606427D01*
X89530032Y-156606427D02*
X89650984Y-157211189D01*
X89711461Y-156122618D02*
X89711461Y-155517856D01*
X90074318Y-156243570D02*
X88804318Y-155820237D01*
X88804318Y-155820237D02*
X90074318Y-155396903D01*
X90074318Y-154247856D02*
X89469556Y-154671190D01*
X90074318Y-154973571D02*
X88804318Y-154973571D01*
X88804318Y-154973571D02*
X88804318Y-154489761D01*
X88804318Y-154489761D02*
X88864794Y-154368809D01*
X88864794Y-154368809D02*
X88925270Y-154308332D01*
X88925270Y-154308332D02*
X89046222Y-154247856D01*
X89046222Y-154247856D02*
X89227651Y-154247856D01*
X89227651Y-154247856D02*
X89348603Y-154308332D01*
X89348603Y-154308332D02*
X89409080Y-154368809D01*
X89409080Y-154368809D02*
X89469556Y-154489761D01*
X89469556Y-154489761D02*
X89469556Y-154973571D01*
X90013842Y-153219761D02*
X90074318Y-153340713D01*
X90074318Y-153340713D02*
X90074318Y-153582618D01*
X90074318Y-153582618D02*
X90013842Y-153703571D01*
X90013842Y-153703571D02*
X89892889Y-153764047D01*
X89892889Y-153764047D02*
X89409080Y-153764047D01*
X89409080Y-153764047D02*
X89288127Y-153703571D01*
X89288127Y-153703571D02*
X89227651Y-153582618D01*
X89227651Y-153582618D02*
X89227651Y-153340713D01*
X89227651Y-153340713D02*
X89288127Y-153219761D01*
X89288127Y-153219761D02*
X89409080Y-153159285D01*
X89409080Y-153159285D02*
X89530032Y-153159285D01*
X89530032Y-153159285D02*
X89650984Y-153764047D01*
X90074318Y-152433571D02*
X90013842Y-152554523D01*
X90013842Y-152554523D02*
X89892889Y-152615000D01*
X89892889Y-152615000D02*
X88804318Y-152615000D01*
X90195270Y-152252143D02*
X90195270Y-151284523D01*
X88925270Y-151042619D02*
X88864794Y-150982143D01*
X88864794Y-150982143D02*
X88804318Y-150861190D01*
X88804318Y-150861190D02*
X88804318Y-150558809D01*
X88804318Y-150558809D02*
X88864794Y-150437857D01*
X88864794Y-150437857D02*
X88925270Y-150377381D01*
X88925270Y-150377381D02*
X89046222Y-150316904D01*
X89046222Y-150316904D02*
X89167175Y-150316904D01*
X89167175Y-150316904D02*
X89348603Y-150377381D01*
X89348603Y-150377381D02*
X90074318Y-151103095D01*
X90074318Y-151103095D02*
X90074318Y-150316904D01*
X128574318Y-193838333D02*
X127304318Y-193838333D01*
X128574318Y-193112618D02*
X127848603Y-193656904D01*
X127304318Y-193112618D02*
X128030032Y-193838333D01*
X128695270Y-192870714D02*
X128695270Y-191903094D01*
X127304318Y-191782142D02*
X127304318Y-191056428D01*
X128574318Y-191419285D02*
X127304318Y-191419285D01*
X127727651Y-190754047D02*
X128574318Y-190451666D01*
X127727651Y-190149285D02*
X128574318Y-190451666D01*
X128574318Y-190451666D02*
X128876699Y-190572618D01*
X128876699Y-190572618D02*
X128937175Y-190633095D01*
X128937175Y-190633095D02*
X128997651Y-190754047D01*
X127727651Y-189665476D02*
X128997651Y-189665476D01*
X127788127Y-189665476D02*
X127727651Y-189544523D01*
X127727651Y-189544523D02*
X127727651Y-189302618D01*
X127727651Y-189302618D02*
X127788127Y-189181666D01*
X127788127Y-189181666D02*
X127848603Y-189121190D01*
X127848603Y-189121190D02*
X127969556Y-189060714D01*
X127969556Y-189060714D02*
X128332413Y-189060714D01*
X128332413Y-189060714D02*
X128453365Y-189121190D01*
X128453365Y-189121190D02*
X128513842Y-189181666D01*
X128513842Y-189181666D02*
X128574318Y-189302618D01*
X128574318Y-189302618D02*
X128574318Y-189544523D01*
X128574318Y-189544523D02*
X128513842Y-189665476D01*
X128513842Y-188032618D02*
X128574318Y-188153570D01*
X128574318Y-188153570D02*
X128574318Y-188395475D01*
X128574318Y-188395475D02*
X128513842Y-188516428D01*
X128513842Y-188516428D02*
X128392889Y-188576904D01*
X128392889Y-188576904D02*
X127909080Y-188576904D01*
X127909080Y-188576904D02*
X127788127Y-188516428D01*
X127788127Y-188516428D02*
X127727651Y-188395475D01*
X127727651Y-188395475D02*
X127727651Y-188153570D01*
X127727651Y-188153570D02*
X127788127Y-188032618D01*
X127788127Y-188032618D02*
X127909080Y-187972142D01*
X127909080Y-187972142D02*
X128030032Y-187972142D01*
X128030032Y-187972142D02*
X128150984Y-188576904D01*
X128453365Y-186702142D02*
X128513842Y-186762618D01*
X128513842Y-186762618D02*
X128574318Y-186944047D01*
X128574318Y-186944047D02*
X128574318Y-187064999D01*
X128574318Y-187064999D02*
X128513842Y-187246428D01*
X128513842Y-187246428D02*
X128392889Y-187367380D01*
X128392889Y-187367380D02*
X128271937Y-187427857D01*
X128271937Y-187427857D02*
X128030032Y-187488333D01*
X128030032Y-187488333D02*
X127848603Y-187488333D01*
X127848603Y-187488333D02*
X127606699Y-187427857D01*
X127606699Y-187427857D02*
X127485746Y-187367380D01*
X127485746Y-187367380D02*
X127364794Y-187246428D01*
X127364794Y-187246428D02*
X127304318Y-187064999D01*
X127304318Y-187064999D02*
X127304318Y-186944047D01*
X127304318Y-186944047D02*
X127364794Y-186762618D01*
X127364794Y-186762618D02*
X127425270Y-186702142D01*
X128574318Y-185432142D02*
X127969556Y-185855476D01*
X128574318Y-186157857D02*
X127304318Y-186157857D01*
X127304318Y-186157857D02*
X127304318Y-185674047D01*
X127304318Y-185674047D02*
X127364794Y-185553095D01*
X127364794Y-185553095D02*
X127425270Y-185492618D01*
X127425270Y-185492618D02*
X127546222Y-185432142D01*
X127546222Y-185432142D02*
X127727651Y-185432142D01*
X127727651Y-185432142D02*
X127848603Y-185492618D01*
X127848603Y-185492618D02*
X127909080Y-185553095D01*
X127909080Y-185553095D02*
X127969556Y-185674047D01*
X127969556Y-185674047D02*
X127969556Y-186157857D01*
X128513842Y-184404047D02*
X128574318Y-184524999D01*
X128574318Y-184524999D02*
X128574318Y-184766904D01*
X128574318Y-184766904D02*
X128513842Y-184887857D01*
X128513842Y-184887857D02*
X128392889Y-184948333D01*
X128392889Y-184948333D02*
X127909080Y-184948333D01*
X127909080Y-184948333D02*
X127788127Y-184887857D01*
X127788127Y-184887857D02*
X127727651Y-184766904D01*
X127727651Y-184766904D02*
X127727651Y-184524999D01*
X127727651Y-184524999D02*
X127788127Y-184404047D01*
X127788127Y-184404047D02*
X127909080Y-184343571D01*
X127909080Y-184343571D02*
X128030032Y-184343571D01*
X128030032Y-184343571D02*
X128150984Y-184948333D01*
X128574318Y-183617857D02*
X128513842Y-183738809D01*
X128513842Y-183738809D02*
X128392889Y-183799286D01*
X128392889Y-183799286D02*
X127304318Y-183799286D01*
X128695270Y-183436429D02*
X128695270Y-182468809D01*
X127304318Y-181622143D02*
X127304318Y-181864048D01*
X127304318Y-181864048D02*
X127364794Y-181985000D01*
X127364794Y-181985000D02*
X127425270Y-182045476D01*
X127425270Y-182045476D02*
X127606699Y-182166429D01*
X127606699Y-182166429D02*
X127848603Y-182226905D01*
X127848603Y-182226905D02*
X128332413Y-182226905D01*
X128332413Y-182226905D02*
X128453365Y-182166429D01*
X128453365Y-182166429D02*
X128513842Y-182105952D01*
X128513842Y-182105952D02*
X128574318Y-181985000D01*
X128574318Y-181985000D02*
X128574318Y-181743095D01*
X128574318Y-181743095D02*
X128513842Y-181622143D01*
X128513842Y-181622143D02*
X128453365Y-181561667D01*
X128453365Y-181561667D02*
X128332413Y-181501190D01*
X128332413Y-181501190D02*
X128030032Y-181501190D01*
X128030032Y-181501190D02*
X127909080Y-181561667D01*
X127909080Y-181561667D02*
X127848603Y-181622143D01*
X127848603Y-181622143D02*
X127788127Y-181743095D01*
X127788127Y-181743095D02*
X127788127Y-181985000D01*
X127788127Y-181985000D02*
X127848603Y-182105952D01*
X127848603Y-182105952D02*
X127909080Y-182166429D01*
X127909080Y-182166429D02*
X128030032Y-182226905D01*
X118387619Y-138563365D02*
X118327143Y-138623842D01*
X118327143Y-138623842D02*
X118145714Y-138684318D01*
X118145714Y-138684318D02*
X118024762Y-138684318D01*
X118024762Y-138684318D02*
X117843333Y-138623842D01*
X117843333Y-138623842D02*
X117722381Y-138502889D01*
X117722381Y-138502889D02*
X117661904Y-138381937D01*
X117661904Y-138381937D02*
X117601428Y-138140032D01*
X117601428Y-138140032D02*
X117601428Y-137958603D01*
X117601428Y-137958603D02*
X117661904Y-137716699D01*
X117661904Y-137716699D02*
X117722381Y-137595746D01*
X117722381Y-137595746D02*
X117843333Y-137474794D01*
X117843333Y-137474794D02*
X118024762Y-137414318D01*
X118024762Y-137414318D02*
X118145714Y-137414318D01*
X118145714Y-137414318D02*
X118327143Y-137474794D01*
X118327143Y-137474794D02*
X118387619Y-137535270D01*
X118629524Y-138805270D02*
X119597143Y-138805270D01*
X120443809Y-137837651D02*
X120443809Y-138684318D01*
X120141428Y-137353842D02*
X119839047Y-138260984D01*
X119839047Y-138260984D02*
X120625238Y-138260984D01*
X120988095Y-137414318D02*
X121834762Y-137414318D01*
X121834762Y-137414318D02*
X121290476Y-138684318D01*
X122560476Y-137414318D02*
X122681429Y-137414318D01*
X122681429Y-137414318D02*
X122802381Y-137474794D01*
X122802381Y-137474794D02*
X122862857Y-137535270D01*
X122862857Y-137535270D02*
X122923333Y-137656222D01*
X122923333Y-137656222D02*
X122983810Y-137898127D01*
X122983810Y-137898127D02*
X122983810Y-138200508D01*
X122983810Y-138200508D02*
X122923333Y-138442413D01*
X122923333Y-138442413D02*
X122862857Y-138563365D01*
X122862857Y-138563365D02*
X122802381Y-138623842D01*
X122802381Y-138623842D02*
X122681429Y-138684318D01*
X122681429Y-138684318D02*
X122560476Y-138684318D01*
X122560476Y-138684318D02*
X122439524Y-138623842D01*
X122439524Y-138623842D02*
X122379048Y-138563365D01*
X122379048Y-138563365D02*
X122318571Y-138442413D01*
X122318571Y-138442413D02*
X122258095Y-138200508D01*
X122258095Y-138200508D02*
X122258095Y-137898127D01*
X122258095Y-137898127D02*
X122318571Y-137656222D01*
X122318571Y-137656222D02*
X122379048Y-137535270D01*
X122379048Y-137535270D02*
X122439524Y-137474794D01*
X122439524Y-137474794D02*
X122560476Y-137414318D01*
X124072381Y-137837651D02*
X124072381Y-138684318D01*
X123528095Y-137837651D02*
X123528095Y-138502889D01*
X123528095Y-138502889D02*
X123588572Y-138623842D01*
X123588572Y-138623842D02*
X123709524Y-138684318D01*
X123709524Y-138684318D02*
X123890953Y-138684318D01*
X123890953Y-138684318D02*
X124011905Y-138623842D01*
X124011905Y-138623842D02*
X124072381Y-138563365D01*
X125100477Y-138019080D02*
X124677143Y-138019080D01*
X124677143Y-138684318D02*
X124677143Y-137414318D01*
X124677143Y-137414318D02*
X125281905Y-137414318D01*
X125463334Y-138805270D02*
X126430953Y-138805270D01*
X126612381Y-137414318D02*
X127398572Y-137414318D01*
X127398572Y-137414318D02*
X126975238Y-137898127D01*
X126975238Y-137898127D02*
X127156667Y-137898127D01*
X127156667Y-137898127D02*
X127277619Y-137958603D01*
X127277619Y-137958603D02*
X127338095Y-138019080D01*
X127338095Y-138019080D02*
X127398572Y-138140032D01*
X127398572Y-138140032D02*
X127398572Y-138442413D01*
X127398572Y-138442413D02*
X127338095Y-138563365D01*
X127338095Y-138563365D02*
X127277619Y-138623842D01*
X127277619Y-138623842D02*
X127156667Y-138684318D01*
X127156667Y-138684318D02*
X126793810Y-138684318D01*
X126793810Y-138684318D02*
X126672857Y-138623842D01*
X126672857Y-138623842D02*
X126612381Y-138563365D01*
X134074318Y-176137857D02*
X132804318Y-176137857D01*
X132804318Y-176137857D02*
X132804318Y-175835476D01*
X132804318Y-175835476D02*
X132864794Y-175654047D01*
X132864794Y-175654047D02*
X132985746Y-175533095D01*
X132985746Y-175533095D02*
X133106699Y-175472618D01*
X133106699Y-175472618D02*
X133348603Y-175412142D01*
X133348603Y-175412142D02*
X133530032Y-175412142D01*
X133530032Y-175412142D02*
X133771937Y-175472618D01*
X133771937Y-175472618D02*
X133892889Y-175533095D01*
X133892889Y-175533095D02*
X134013842Y-175654047D01*
X134013842Y-175654047D02*
X134074318Y-175835476D01*
X134074318Y-175835476D02*
X134074318Y-176137857D01*
X134195270Y-175170238D02*
X134195270Y-174202618D01*
X134013842Y-173960714D02*
X134074318Y-173839761D01*
X134074318Y-173839761D02*
X134074318Y-173597857D01*
X134074318Y-173597857D02*
X134013842Y-173476904D01*
X134013842Y-173476904D02*
X133892889Y-173416428D01*
X133892889Y-173416428D02*
X133832413Y-173416428D01*
X133832413Y-173416428D02*
X133711461Y-173476904D01*
X133711461Y-173476904D02*
X133650984Y-173597857D01*
X133650984Y-173597857D02*
X133650984Y-173779285D01*
X133650984Y-173779285D02*
X133590508Y-173900238D01*
X133590508Y-173900238D02*
X133469556Y-173960714D01*
X133469556Y-173960714D02*
X133409080Y-173960714D01*
X133409080Y-173960714D02*
X133288127Y-173900238D01*
X133288127Y-173900238D02*
X133227651Y-173779285D01*
X133227651Y-173779285D02*
X133227651Y-173597857D01*
X133227651Y-173597857D02*
X133288127Y-173476904D01*
X134013842Y-172327857D02*
X134074318Y-172448809D01*
X134074318Y-172448809D02*
X134074318Y-172690714D01*
X134074318Y-172690714D02*
X134013842Y-172811666D01*
X134013842Y-172811666D02*
X133953365Y-172872143D01*
X133953365Y-172872143D02*
X133832413Y-172932619D01*
X133832413Y-172932619D02*
X133469556Y-172932619D01*
X133469556Y-172932619D02*
X133348603Y-172872143D01*
X133348603Y-172872143D02*
X133288127Y-172811666D01*
X133288127Y-172811666D02*
X133227651Y-172690714D01*
X133227651Y-172690714D02*
X133227651Y-172448809D01*
X133227651Y-172448809D02*
X133288127Y-172327857D01*
X134074318Y-171783572D02*
X132804318Y-171783572D01*
X134074318Y-171239286D02*
X133409080Y-171239286D01*
X133409080Y-171239286D02*
X133288127Y-171299762D01*
X133288127Y-171299762D02*
X133227651Y-171420714D01*
X133227651Y-171420714D02*
X133227651Y-171602143D01*
X133227651Y-171602143D02*
X133288127Y-171723095D01*
X133288127Y-171723095D02*
X133348603Y-171783572D01*
X134195270Y-170936905D02*
X134195270Y-169969285D01*
X132804318Y-169122619D02*
X132804318Y-169364524D01*
X132804318Y-169364524D02*
X132864794Y-169485476D01*
X132864794Y-169485476D02*
X132925270Y-169545952D01*
X132925270Y-169545952D02*
X133106699Y-169666905D01*
X133106699Y-169666905D02*
X133348603Y-169727381D01*
X133348603Y-169727381D02*
X133832413Y-169727381D01*
X133832413Y-169727381D02*
X133953365Y-169666905D01*
X133953365Y-169666905D02*
X134013842Y-169606428D01*
X134013842Y-169606428D02*
X134074318Y-169485476D01*
X134074318Y-169485476D02*
X134074318Y-169243571D01*
X134074318Y-169243571D02*
X134013842Y-169122619D01*
X134013842Y-169122619D02*
X133953365Y-169062143D01*
X133953365Y-169062143D02*
X133832413Y-169001666D01*
X133832413Y-169001666D02*
X133530032Y-169001666D01*
X133530032Y-169001666D02*
X133409080Y-169062143D01*
X133409080Y-169062143D02*
X133348603Y-169122619D01*
X133348603Y-169122619D02*
X133288127Y-169243571D01*
X133288127Y-169243571D02*
X133288127Y-169485476D01*
X133288127Y-169485476D02*
X133348603Y-169606428D01*
X133348603Y-169606428D02*
X133409080Y-169666905D01*
X133409080Y-169666905D02*
X133530032Y-169727381D01*
D13*
%TO.C,U_WeMos_D1_Mini_Pro_1*%
X89790000Y-136930000D02*
X89790000Y-111500000D01*
X89790000Y-136930000D02*
X92330000Y-136930000D01*
X92330000Y-136930000D02*
X92330000Y-143830000D01*
X92330000Y-143830000D02*
X115650000Y-143830000D01*
X113530000Y-109370000D02*
X91920000Y-109370000D01*
X115650000Y-143830000D02*
X115650000Y-111500000D01*
X89790000Y-111500000D02*
G75*
G02*
X91920000Y-109370000I2130002J-2D01*
G01*
X113520000Y-109370000D02*
G75*
G02*
X115650000Y-111500000I0J-2130000D01*
G01*
D11*
X89385000Y-117710000D02*
X88750000Y-118345000D01*
X88750000Y-117075000D01*
X89385000Y-117710000D01*
G36*
X89385000Y-117710000D02*
G01*
X88750000Y-118345000D01*
X88750000Y-117075000D01*
X89385000Y-117710000D01*
G37*
D14*
%TO.C,D_sch_2*%
X97600000Y-205300000D02*
X102600000Y-205300000D01*
X102600000Y-202600000D02*
X97225000Y-202600000D01*
%TO.C,D_sch_3*%
X134500000Y-205300000D02*
X139500000Y-205300000D01*
X139500000Y-202600000D02*
X134125000Y-202600000D01*
%TO.C,PS_DCDC_24V5V_1*%
X62300000Y-165710000D02*
X87700000Y-165710000D01*
X62300000Y-191110000D02*
X62300000Y-165710000D01*
X87700000Y-165710000D02*
X87700000Y-191110000D01*
X87700000Y-191110000D02*
X62300000Y-191110000D01*
%TO.C,D_sch_5*%
X96500000Y-173350000D02*
X101500000Y-173350000D01*
X101500000Y-170650000D02*
X96125000Y-170650000D01*
%TO.C,D_sch_1*%
X116500000Y-205300000D02*
X121500000Y-205300000D01*
X121500000Y-202600000D02*
X116125000Y-202600000D01*
%TO.C,Q_NchFET_6*%
X143925000Y-170550000D02*
X144275000Y-170550000D01*
X143925000Y-173450000D02*
X143925000Y-170550000D01*
X144275000Y-170550000D02*
X144275000Y-173450000D01*
X144275000Y-173450000D02*
X143925000Y-173450000D01*
X145775000Y-173510000D02*
X144625000Y-173510000D01*
D10*
%TO.C,K_TypeCRel_5*%
X92200000Y-177475000D02*
X92200000Y-199975000D01*
X92200000Y-199975000D02*
X107800000Y-199975000D01*
D14*
X100000000Y-200725000D02*
X100000000Y-200725000D01*
X100000000Y-200925000D02*
X100000000Y-200925000D01*
D10*
X107800000Y-177475000D02*
X92200000Y-177475000D01*
X107800000Y-199975000D02*
X107800000Y-177475000D01*
D14*
X100000000Y-200725000D02*
G75*
G02*
X100000000Y-200925000I0J-100000D01*
G01*
X100000000Y-200925000D02*
G75*
G02*
X100000000Y-200725000I0J100000D01*
G01*
D13*
%TO.C,R_4k7_1*%
X123977500Y-132847258D02*
X123977500Y-132372742D01*
X125022500Y-132847258D02*
X125022500Y-132372742D01*
D10*
%TO.C,J_24Vin+GND_1*%
X77880000Y-211425000D02*
X88040000Y-211425000D01*
X77880000Y-219575000D02*
X77880000Y-211425000D01*
X88040000Y-211425000D02*
X88040000Y-219575000D01*
X88040000Y-219575000D02*
X77880000Y-219575000D01*
D14*
X77120000Y-215500000D02*
G75*
G02*
X77020000Y-215500000I-50000J0D01*
G01*
X77020000Y-215500000D02*
G75*
G02*
X77120000Y-215500000I50000J0D01*
G01*
D10*
%TO.C,J_VFDconnectors_3*%
X118400000Y-214500000D02*
X118400000Y-214500000D01*
X118500000Y-214500000D02*
X118500000Y-214500000D01*
D14*
X119000000Y-210500000D02*
X144570000Y-210500000D01*
X119000000Y-219500000D02*
X119000000Y-210500000D01*
X144570000Y-210500000D02*
X144570000Y-219500000D01*
X144570000Y-219500000D02*
X119000000Y-219500000D01*
D10*
X118400000Y-214500000D02*
G75*
G02*
X118500000Y-214500000I50000J0D01*
G01*
X118500000Y-214500000D02*
G75*
G02*
X118400000Y-214500000I-50000J0D01*
G01*
%TO.C,K_TypeARel_3*%
X129750000Y-145975000D02*
X129750000Y-168475000D01*
X129750000Y-168475000D02*
X146250000Y-168475000D01*
D14*
X137900000Y-169025000D02*
X137900000Y-169025000D01*
X137900000Y-169125000D02*
X137900000Y-169125000D01*
X137900000Y-169125000D02*
X137900000Y-169125000D01*
D10*
X146250000Y-145975000D02*
X129750000Y-145975000D01*
X146250000Y-168475000D02*
X146250000Y-145975000D01*
D14*
X137900000Y-169025000D02*
G75*
G02*
X137900000Y-169125000I0J-50000D01*
G01*
X137900000Y-169025000D02*
G75*
G02*
X137900000Y-169125000I0J-50000D01*
G01*
X137900000Y-169125000D02*
G75*
G02*
X137900000Y-169025000I0J50000D01*
G01*
D13*
%TO.C,J_LCDconn_1*%
X64230000Y-79190000D02*
X65500000Y-79190000D01*
X64230000Y-80460000D02*
X64230000Y-79190000D01*
X66542929Y-82620000D02*
X66940000Y-82620000D01*
X66542929Y-83380000D02*
X66940000Y-83380000D01*
X66542929Y-85160000D02*
X66940000Y-85160000D01*
X66542929Y-85920000D02*
X66940000Y-85920000D01*
X66542929Y-87700000D02*
X66940000Y-87700000D01*
X66542929Y-88460000D02*
X66940000Y-88460000D01*
X66610000Y-80080000D02*
X66940000Y-80080000D01*
X66610000Y-80840000D02*
X66940000Y-80840000D01*
X66940000Y-79130000D02*
X66940000Y-89410000D01*
X66940000Y-81730000D02*
X69600000Y-81730000D01*
X66940000Y-84270000D02*
X69600000Y-84270000D01*
X66940000Y-86810000D02*
X69600000Y-86810000D01*
X66940000Y-89410000D02*
X69600000Y-89410000D01*
X69600000Y-79130000D02*
X66940000Y-79130000D01*
X69600000Y-80080000D02*
X75600000Y-80080000D01*
X69600000Y-80140000D02*
X75600000Y-80140000D01*
X69600000Y-80260000D02*
X75600000Y-80260000D01*
X69600000Y-80380000D02*
X75600000Y-80380000D01*
X69600000Y-80500000D02*
X75600000Y-80500000D01*
X69600000Y-80620000D02*
X75600000Y-80620000D01*
X69600000Y-80740000D02*
X75600000Y-80740000D01*
X69600000Y-82620000D02*
X75600000Y-82620000D01*
X69600000Y-85160000D02*
X75600000Y-85160000D01*
X69600000Y-87700000D02*
X75600000Y-87700000D01*
X69600000Y-89410000D02*
X69600000Y-79130000D01*
X75600000Y-80080000D02*
X75600000Y-80840000D01*
X75600000Y-80840000D02*
X69600000Y-80840000D01*
X75600000Y-82620000D02*
X75600000Y-83380000D01*
X75600000Y-83380000D02*
X69600000Y-83380000D01*
X75600000Y-85160000D02*
X75600000Y-85920000D01*
X75600000Y-85920000D02*
X69600000Y-85920000D01*
X75600000Y-87700000D02*
X75600000Y-88460000D01*
X75600000Y-88460000D02*
X69600000Y-88460000D01*
D14*
%TO.C,Q_NchFET_5*%
X104925000Y-170550000D02*
X105275000Y-170550000D01*
X104925000Y-173450000D02*
X104925000Y-170550000D01*
X105275000Y-170550000D02*
X105275000Y-173450000D01*
X105275000Y-173450000D02*
X104925000Y-173450000D01*
X106775000Y-173510000D02*
X105625000Y-173510000D01*
D10*
%TO.C,K_TypeCRel_4*%
X111200000Y-177500000D02*
X111200000Y-200000000D01*
X111200000Y-200000000D02*
X126800000Y-200000000D01*
D14*
X119000000Y-200750000D02*
X119000000Y-200750000D01*
X119000000Y-200950000D02*
X119000000Y-200950000D01*
D10*
X126800000Y-177500000D02*
X111200000Y-177500000D01*
X126800000Y-200000000D02*
X126800000Y-177500000D01*
D14*
X119000000Y-200750000D02*
G75*
G02*
X119000000Y-200950000I0J-100000D01*
G01*
X119000000Y-200950000D02*
G75*
G02*
X119000000Y-200750000I0J100000D01*
G01*
D13*
%TO.C,C_10uF_2*%
X61490000Y-82165580D02*
X61490000Y-81884420D01*
X62510000Y-82165580D02*
X62510000Y-81884420D01*
D14*
%TO.C,Q_NchFET_4*%
X124225000Y-170590000D02*
X124575000Y-170590000D01*
X124225000Y-173490000D02*
X124225000Y-170590000D01*
X124575000Y-170590000D02*
X124575000Y-173490000D01*
X124575000Y-173490000D02*
X124225000Y-173490000D01*
X126075000Y-173550000D02*
X124925000Y-173550000D01*
%TO.C,Q_NchFET_3*%
X142925000Y-202500000D02*
X143275000Y-202500000D01*
X142925000Y-205400000D02*
X142925000Y-202500000D01*
X143275000Y-202500000D02*
X143275000Y-205400000D01*
X143275000Y-205400000D02*
X142925000Y-205400000D01*
X144775000Y-205460000D02*
X143625000Y-205460000D01*
D10*
%TO.C,J_VFDconnectors_2*%
X90115000Y-214500000D02*
X90115000Y-214500000D01*
X90215000Y-214500000D02*
X90215000Y-214500000D01*
D14*
X90715000Y-210500000D02*
X116285000Y-210500000D01*
X90715000Y-219500000D02*
X90715000Y-210500000D01*
X116285000Y-210500000D02*
X116285000Y-219500000D01*
X116285000Y-219500000D02*
X90715000Y-219500000D01*
D10*
X90115000Y-214500000D02*
G75*
G02*
X90215000Y-214500000I50000J0D01*
G01*
X90215000Y-214500000D02*
G75*
G02*
X90115000Y-214500000I-50000J0D01*
G01*
%TO.C,Fuse_1500mA_1*%
X63050000Y-196300000D02*
X63050000Y-199000000D01*
X63050000Y-205700000D02*
X63050000Y-203000000D01*
X87450000Y-196300000D02*
X63050000Y-196300000D01*
X87450000Y-199000000D02*
X87450000Y-196300000D01*
X87450000Y-203000000D02*
X87450000Y-205700000D01*
X87450000Y-205700000D02*
X63050000Y-205700000D01*
D13*
%TO.C,R_4k7_2*%
X117837742Y-127227500D02*
X118312258Y-127227500D01*
X117837742Y-128272500D02*
X118312258Y-128272500D01*
D14*
%TO.C,D_sch_4*%
X116000000Y-173350000D02*
X121000000Y-173350000D01*
X121000000Y-170650000D02*
X115625000Y-170650000D01*
D10*
%TO.C,SW_IncSpeed_3*%
X66250000Y-134500000D02*
X75250000Y-134500000D01*
X66250000Y-154000000D02*
X66250000Y-134500000D01*
X75250000Y-134500000D02*
X75250000Y-154000000D01*
X75250000Y-154000000D02*
X66250000Y-154000000D01*
D13*
%TO.C,R_4k7_4*%
X62727500Y-115012742D02*
X62727500Y-115487258D01*
X63772500Y-115012742D02*
X63772500Y-115487258D01*
D14*
%TO.C,Q_NchFET_1*%
X124925000Y-202500000D02*
X125275000Y-202500000D01*
X124925000Y-205400000D02*
X124925000Y-202500000D01*
X125275000Y-202500000D02*
X125275000Y-205400000D01*
X125275000Y-205400000D02*
X124925000Y-205400000D01*
X126775000Y-205460000D02*
X125625000Y-205460000D01*
D10*
%TO.C,SW_DecSpeed_4*%
X123750000Y-110250000D02*
X143250000Y-110250000D01*
X123750000Y-119250000D02*
X123750000Y-110250000D01*
X143250000Y-110250000D02*
X143250000Y-119250000D01*
X143250000Y-119250000D02*
X123750000Y-119250000D01*
%TO.C,SW_LocRem_1*%
X130925000Y-133275000D02*
X139075000Y-133275000D01*
X130925000Y-143435000D02*
X130925000Y-133275000D01*
X139075000Y-133275000D02*
X139075000Y-143435000D01*
X139075000Y-143435000D02*
X130925000Y-143435000D01*
D14*
X135050000Y-132465000D02*
G75*
G02*
X134950000Y-132465000I-50000J0D01*
G01*
X134950000Y-132465000D02*
G75*
G02*
X135050000Y-132465000I50000J0D01*
G01*
D13*
%TO.C,R_4k7_3*%
X87967258Y-122087500D02*
X87492742Y-122087500D01*
X87967258Y-123132500D02*
X87492742Y-123132500D01*
%TO.C,C_22uF_1*%
X94634420Y-174740000D02*
X94915580Y-174740000D01*
X94634420Y-175760000D02*
X94915580Y-175760000D01*
D10*
%TO.C,K_TypeARel_1*%
X110250000Y-145925000D02*
X110250000Y-168425000D01*
X110250000Y-168425000D02*
X126750000Y-168425000D01*
D14*
X118400000Y-168975000D02*
X118400000Y-168975000D01*
X118400000Y-169075000D02*
X118400000Y-169075000D01*
X118400000Y-169075000D02*
X118400000Y-169075000D01*
D10*
X126750000Y-145925000D02*
X110250000Y-145925000D01*
X126750000Y-168425000D02*
X126750000Y-145925000D01*
D14*
X118400000Y-168975000D02*
G75*
G02*
X118400000Y-169075000I0J-50000D01*
G01*
X118400000Y-168975000D02*
G75*
G02*
X118400000Y-169075000I0J-50000D01*
G01*
X118400000Y-169075000D02*
G75*
G02*
X118400000Y-168975000I0J50000D01*
G01*
D10*
%TO.C,SW_OnOff_2*%
X66000000Y-112500000D02*
X75000000Y-112500000D01*
X66000000Y-132000000D02*
X66000000Y-112500000D01*
X75000000Y-112500000D02*
X75000000Y-132000000D01*
X75000000Y-132000000D02*
X66000000Y-132000000D01*
D14*
%TO.C,Q_NchFET_2*%
X105925000Y-202500000D02*
X106275000Y-202500000D01*
X105925000Y-205400000D02*
X105925000Y-202500000D01*
X106275000Y-202500000D02*
X106275000Y-205400000D01*
X106275000Y-205400000D02*
X105925000Y-205400000D01*
X107775000Y-205460000D02*
X106625000Y-205460000D01*
D10*
%TO.C,K_TypeARel_2*%
X90750000Y-145850000D02*
X90750000Y-168350000D01*
X90750000Y-168350000D02*
X107250000Y-168350000D01*
D14*
X98900000Y-168900000D02*
X98900000Y-168900000D01*
X98900000Y-169000000D02*
X98900000Y-169000000D01*
X98900000Y-169000000D02*
X98900000Y-169000000D01*
D10*
X107250000Y-145850000D02*
X90750000Y-145850000D01*
X107250000Y-168350000D02*
X107250000Y-145850000D01*
D14*
X98900000Y-168900000D02*
G75*
G02*
X98900000Y-169000000I0J-50000D01*
G01*
X98900000Y-168900000D02*
G75*
G02*
X98900000Y-169000000I0J-50000D01*
G01*
X98900000Y-169000000D02*
G75*
G02*
X98900000Y-168900000I0J50000D01*
G01*
D10*
%TO.C,K_TypeCRel_6*%
X129200000Y-177500000D02*
X129200000Y-200000000D01*
X129200000Y-200000000D02*
X144800000Y-200000000D01*
D14*
X137000000Y-200750000D02*
X137000000Y-200750000D01*
X137000000Y-200950000D02*
X137000000Y-200950000D01*
D10*
X144800000Y-177500000D02*
X129200000Y-177500000D01*
X144800000Y-200000000D02*
X144800000Y-177500000D01*
D14*
X137000000Y-200750000D02*
G75*
G02*
X137000000Y-200950000I0J-100000D01*
G01*
X137000000Y-200950000D02*
G75*
G02*
X137000000Y-200750000I0J100000D01*
G01*
%TO.C,C_470uF_3*%
X123400000Y-133860000D02*
G75*
G02*
X117100000Y-133860000I-3150000J0D01*
G01*
X117100000Y-133860000D02*
G75*
G02*
X123400000Y-133860000I3150000J0D01*
G01*
%TO.C,D_sch_6*%
X135600000Y-173350000D02*
X140600000Y-173350000D01*
X140600000Y-170650000D02*
X135225000Y-170650000D01*
%TD*%
%LPC*%
D15*
%TO.C,U_WeMos_D1_Mini_Pro_1*%
X91290000Y-117710000D03*
D16*
X91290000Y-120250000D03*
X91290000Y-122790000D03*
X91290000Y-125330000D03*
X91290000Y-127870000D03*
X91290000Y-130410000D03*
X91290000Y-132950000D03*
X91290000Y-135490000D03*
X114150000Y-135490000D03*
X114150000Y-132950000D03*
X114150000Y-130410000D03*
X114150000Y-127870000D03*
X114150000Y-125330000D03*
X114150000Y-122790000D03*
X114150000Y-120250000D03*
X114150000Y-117710000D03*
%TD*%
D17*
%TO.C,H5*%
X65405000Y-66675000D03*
%TD*%
D18*
%TO.C,H4*%
X82550000Y-158115000D03*
%TD*%
D17*
%TO.C,H3*%
X142875000Y-66675000D03*
%TD*%
D19*
%TO.C,D_sch_2*%
X98000000Y-203950000D03*
X102200000Y-203950000D03*
%TD*%
%TO.C,D_sch_3*%
X134900000Y-203950000D03*
X139100000Y-203950000D03*
%TD*%
D20*
%TO.C,PS_DCDC_24V5V_1*%
X77540000Y-188570000D03*
D21*
X72460000Y-188570000D03*
X64840000Y-188570000D03*
X64840000Y-168250000D03*
X75000000Y-168250000D03*
X85160000Y-168250000D03*
%TD*%
D19*
%TO.C,D_sch_5*%
X96900000Y-172000000D03*
X101100000Y-172000000D03*
%TD*%
%TO.C,D_sch_1*%
X116900000Y-203950000D03*
X121100000Y-203950000D03*
%TD*%
D22*
%TO.C,Q_NchFET_6*%
X145200000Y-172960000D03*
X145200000Y-171040000D03*
X143000000Y-172000000D03*
%TD*%
D23*
%TO.C,K_TypeCRel_5*%
X100000000Y-197425000D03*
X106000000Y-195425000D03*
X106000000Y-183225000D03*
X94000000Y-183225000D03*
X94000000Y-195425000D03*
%TD*%
D24*
%TO.C,R_4k7_1*%
X124500000Y-133435000D03*
X124500000Y-131785000D03*
%TD*%
D25*
%TO.C,J_24Vin+GND_1*%
X80420000Y-215500000D03*
D26*
X85500000Y-215500000D03*
%TD*%
D25*
%TO.C,J_VFDconnectors_3*%
X121500000Y-214500000D03*
D26*
X126500000Y-214500000D03*
X131500000Y-214500000D03*
X136500000Y-214500000D03*
X141500000Y-214500000D03*
%TD*%
D23*
%TO.C,K_TypeARel_3*%
X138000000Y-165925000D03*
X144000000Y-163925000D03*
X144000000Y-151725000D03*
X132000000Y-163925000D03*
%TD*%
D27*
%TO.C,J_LCDconn_1*%
X65500000Y-80460000D03*
D28*
X65500000Y-83000000D03*
X65500000Y-85540000D03*
X65500000Y-88080000D03*
%TD*%
D22*
%TO.C,Q_NchFET_5*%
X106200000Y-172960000D03*
X106200000Y-171040000D03*
X104000000Y-172000000D03*
%TD*%
D23*
%TO.C,K_TypeCRel_4*%
X119000000Y-197450000D03*
X125000000Y-195450000D03*
X125000000Y-183250000D03*
X113000000Y-183250000D03*
X113000000Y-195450000D03*
%TD*%
D29*
%TO.C,C_10uF_2*%
X62000000Y-82800000D03*
X62000000Y-81250000D03*
%TD*%
D22*
%TO.C,Q_NchFET_4*%
X125500000Y-173000000D03*
X125500000Y-171080000D03*
X123300000Y-172040000D03*
%TD*%
%TO.C,Q_NchFET_3*%
X144200000Y-204910000D03*
X144200000Y-202990000D03*
X142000000Y-203950000D03*
%TD*%
D25*
%TO.C,J_VFDconnectors_2*%
X93215000Y-214500000D03*
D26*
X98215000Y-214500000D03*
X103215000Y-214500000D03*
X108215000Y-214500000D03*
X113215000Y-214500000D03*
%TD*%
D23*
%TO.C,Fuse_1500mA_1*%
X86550000Y-201000000D03*
X63950000Y-201000000D03*
%TD*%
D30*
%TO.C,R_4k7_2*%
X117250000Y-127750000D03*
X118900000Y-127750000D03*
%TD*%
D19*
%TO.C,D_sch_4*%
X116400000Y-172000000D03*
X120600000Y-172000000D03*
%TD*%
D26*
%TO.C,SW_IncSpeed_3*%
X70250000Y-151500000D03*
X70250000Y-146500000D03*
X70250000Y-141500000D03*
X70250000Y-136500000D03*
%TD*%
D31*
%TO.C,R_4k7_4*%
X63250000Y-114425000D03*
X63250000Y-116075000D03*
%TD*%
D22*
%TO.C,Q_NchFET_1*%
X126200000Y-204910000D03*
X126200000Y-202990000D03*
X124000000Y-203950000D03*
%TD*%
D26*
%TO.C,SW_DecSpeed_4*%
X140750000Y-115250000D03*
X135750000Y-115250000D03*
X130750000Y-115250000D03*
X125750000Y-115250000D03*
%TD*%
D32*
%TO.C,L_10uH_1*%
X91250000Y-171605000D03*
X91250000Y-173895000D03*
%TD*%
D25*
%TO.C,SW_LocRem_1*%
X135000000Y-135815000D03*
D26*
X135000000Y-140895000D03*
%TD*%
D33*
%TO.C,R_4k7_3*%
X88555000Y-122610000D03*
X86905000Y-122610000D03*
%TD*%
D34*
%TO.C,C_22uF_1*%
X94000000Y-175250000D03*
X95550000Y-175250000D03*
%TD*%
D23*
%TO.C,K_TypeARel_1*%
X118500000Y-165875000D03*
X124500000Y-163875000D03*
X124500000Y-151675000D03*
X112500000Y-163875000D03*
%TD*%
D26*
%TO.C,SW_OnOff_2*%
X70000000Y-129500000D03*
X70000000Y-124500000D03*
X70000000Y-119500000D03*
X70000000Y-114500000D03*
%TD*%
D22*
%TO.C,Q_NchFET_2*%
X107200000Y-204910000D03*
X107200000Y-202990000D03*
X105000000Y-203950000D03*
%TD*%
D23*
%TO.C,K_TypeARel_2*%
X99000000Y-165800000D03*
X105000000Y-163800000D03*
X105000000Y-151600000D03*
X93000000Y-163800000D03*
%TD*%
%TO.C,K_TypeCRel_6*%
X137000000Y-197450000D03*
X143000000Y-195450000D03*
X143000000Y-183250000D03*
X131000000Y-183250000D03*
X131000000Y-195450000D03*
%TD*%
D35*
%TO.C,C_470uF_3*%
X120250000Y-135110000D03*
D36*
X120250000Y-132610000D03*
%TD*%
D19*
%TO.C,D_sch_6*%
X136000000Y-172000000D03*
X140200000Y-172000000D03*
%TD*%
D37*
%TO.C,H1*%
X82550000Y-114800000D03*
%TD*%
D17*
%TO.C,H2*%
X67250000Y-214250000D03*
%TD*%
%LPD*%
M02*
