%TF.GenerationSoftware,KiCad,Pcbnew,8.0.6*%
%TF.CreationDate,2024-11-25T21:26:04+01:00*%
%TF.ProjectId,PCB,5043422e-6b69-4636-9164-5f7063625858,rev?*%
%TF.SameCoordinates,Original*%
%TF.FileFunction,Soldermask,Top*%
%TF.FilePolarity,Negative*%
%FSLAX46Y46*%
G04 Gerber Fmt 4.6, Leading zero omitted, Abs format (unit mm)*
G04 Created by KiCad (PCBNEW 8.0.6) date 2024-11-25 21:26:04*
%MOMM*%
%LPD*%
G01*
G04 APERTURE LIST*
G04 Aperture macros list*
%AMRoundRect*
0 Rectangle with rounded corners*
0 $1 Rounding radius*
0 $2 $3 $4 $5 $6 $7 $8 $9 X,Y pos of 4 corners*
0 Add a 4 corners polygon primitive as box body*
4,1,4,$2,$3,$4,$5,$6,$7,$8,$9,$2,$3,0*
0 Add four circle primitives for the rounded corners*
1,1,$1+$1,$2,$3*
1,1,$1+$1,$4,$5*
1,1,$1+$1,$6,$7*
1,1,$1+$1,$8,$9*
0 Add four rect primitives between the rounded corners*
20,1,$1+$1,$2,$3,$4,$5,0*
20,1,$1+$1,$4,$5,$6,$7,0*
20,1,$1+$1,$6,$7,$8,$9,0*
20,1,$1+$1,$8,$9,$2,$3,0*%
G04 Aperture macros list end*
%ADD10R,2.000000X2.000000*%
%ADD11O,2.000000X1.600000*%
%ADD12C,3.000000*%
%ADD13C,4.000000*%
%ADD14R,2.000000X1.550000*%
%ADD15R,1.500000X1.500000*%
%ADD16C,1.500000*%
%ADD17R,1.150000X0.600000*%
%ADD18C,2.250000*%
%ADD19RoundRect,0.200000X0.275000X-0.200000X0.275000X0.200000X-0.275000X0.200000X-0.275000X-0.200000X0*%
%ADD20R,1.950000X1.950000*%
%ADD21C,1.950000*%
%ADD22R,1.700000X1.700000*%
%ADD23O,1.700000X1.700000*%
%ADD24RoundRect,0.225000X0.250000X-0.225000X0.250000X0.225000X-0.250000X0.225000X-0.250000X-0.225000X0*%
%ADD25RoundRect,0.200000X-0.200000X-0.275000X0.200000X-0.275000X0.200000X0.275000X-0.200000X0.275000X0*%
%ADD26RoundRect,0.200000X-0.275000X0.200000X-0.275000X-0.200000X0.275000X-0.200000X0.275000X0.200000X0*%
%ADD27R,3.050000X1.520000*%
%ADD28RoundRect,0.200000X0.200000X0.275000X-0.200000X0.275000X-0.200000X-0.275000X0.200000X-0.275000X0*%
%ADD29RoundRect,0.225000X-0.225000X-0.250000X0.225000X-0.250000X0.225000X0.250000X-0.225000X0.250000X0*%
%ADD30R,1.100000X1.100000*%
%ADD31C,1.100000*%
%ADD32C,5.000000*%
G04 APERTURE END LIST*
D10*
%TO.C,U_WeMos_D1_Mini_Pro_1*%
X91290000Y-117710000D03*
D11*
X91290000Y-120250000D03*
X91290000Y-122790000D03*
X91290000Y-125330000D03*
X91290000Y-127870000D03*
X91290000Y-130410000D03*
X91290000Y-132950000D03*
X91290000Y-135490000D03*
X114150000Y-135490000D03*
X114150000Y-132950000D03*
X114150000Y-130410000D03*
X114150000Y-127870000D03*
X114150000Y-125330000D03*
X114150000Y-122790000D03*
X114150000Y-120250000D03*
X114150000Y-117710000D03*
%TD*%
D12*
%TO.C,H5*%
X65405000Y-66675000D03*
%TD*%
D13*
%TO.C,H4*%
X82550000Y-158115000D03*
%TD*%
D12*
%TO.C,H3*%
X142875000Y-66675000D03*
%TD*%
D14*
%TO.C,D_sch_2*%
X98000000Y-203950000D03*
X102200000Y-203950000D03*
%TD*%
%TO.C,D_sch_3*%
X134900000Y-203950000D03*
X139100000Y-203950000D03*
%TD*%
D15*
%TO.C,PS_DCDC_24V5V_1*%
X77540000Y-188570000D03*
D16*
X72460000Y-188570000D03*
X64840000Y-188570000D03*
X64840000Y-168250000D03*
X75000000Y-168250000D03*
X85160000Y-168250000D03*
%TD*%
D14*
%TO.C,D_sch_5*%
X96900000Y-172000000D03*
X101100000Y-172000000D03*
%TD*%
%TO.C,D_sch_1*%
X116900000Y-203950000D03*
X121100000Y-203950000D03*
%TD*%
D17*
%TO.C,Q_NchFET_6*%
X145200000Y-172960000D03*
X145200000Y-171040000D03*
X143000000Y-172000000D03*
%TD*%
D18*
%TO.C,K_TypeCRel_5*%
X100000000Y-197425000D03*
X106000000Y-195425000D03*
X106000000Y-183225000D03*
X94000000Y-183225000D03*
X94000000Y-195425000D03*
%TD*%
D19*
%TO.C,R_4k7_1*%
X124500000Y-133435000D03*
X124500000Y-131785000D03*
%TD*%
D20*
%TO.C,J_24Vin+GND_1*%
X80420000Y-215500000D03*
D21*
X85500000Y-215500000D03*
%TD*%
D20*
%TO.C,J_VFDconnectors_3*%
X121500000Y-214500000D03*
D21*
X126500000Y-214500000D03*
X131500000Y-214500000D03*
X136500000Y-214500000D03*
X141500000Y-214500000D03*
%TD*%
D18*
%TO.C,K_TypeARel_3*%
X138000000Y-165925000D03*
X144000000Y-163925000D03*
X144000000Y-151725000D03*
X132000000Y-163925000D03*
%TD*%
D22*
%TO.C,J_LCDconn_1*%
X65500000Y-80460000D03*
D23*
X65500000Y-83000000D03*
X65500000Y-85540000D03*
X65500000Y-88080000D03*
%TD*%
D17*
%TO.C,Q_NchFET_5*%
X106200000Y-172960000D03*
X106200000Y-171040000D03*
X104000000Y-172000000D03*
%TD*%
D18*
%TO.C,K_TypeCRel_4*%
X119000000Y-197450000D03*
X125000000Y-195450000D03*
X125000000Y-183250000D03*
X113000000Y-183250000D03*
X113000000Y-195450000D03*
%TD*%
D24*
%TO.C,C_10uF_2*%
X62000000Y-82800000D03*
X62000000Y-81250000D03*
%TD*%
D17*
%TO.C,Q_NchFET_4*%
X125500000Y-173000000D03*
X125500000Y-171080000D03*
X123300000Y-172040000D03*
%TD*%
%TO.C,Q_NchFET_3*%
X144200000Y-204910000D03*
X144200000Y-202990000D03*
X142000000Y-203950000D03*
%TD*%
D20*
%TO.C,J_VFDconnectors_2*%
X93215000Y-214500000D03*
D21*
X98215000Y-214500000D03*
X103215000Y-214500000D03*
X108215000Y-214500000D03*
X113215000Y-214500000D03*
%TD*%
D18*
%TO.C,Fuse_1500mA_1*%
X86550000Y-201000000D03*
X63950000Y-201000000D03*
%TD*%
D25*
%TO.C,R_4k7_2*%
X117250000Y-127750000D03*
X118900000Y-127750000D03*
%TD*%
D14*
%TO.C,D_sch_4*%
X116400000Y-172000000D03*
X120600000Y-172000000D03*
%TD*%
D21*
%TO.C,SW_IncSpeed_3*%
X70250000Y-151500000D03*
X70250000Y-146500000D03*
X70250000Y-141500000D03*
X70250000Y-136500000D03*
%TD*%
D26*
%TO.C,R_4k7_4*%
X63250000Y-114425000D03*
X63250000Y-116075000D03*
%TD*%
D17*
%TO.C,Q_NchFET_1*%
X126200000Y-204910000D03*
X126200000Y-202990000D03*
X124000000Y-203950000D03*
%TD*%
D21*
%TO.C,SW_DecSpeed_4*%
X140750000Y-115250000D03*
X135750000Y-115250000D03*
X130750000Y-115250000D03*
X125750000Y-115250000D03*
%TD*%
D27*
%TO.C,L_10uH_1*%
X91250000Y-171605000D03*
X91250000Y-173895000D03*
%TD*%
D20*
%TO.C,SW_LocRem_1*%
X135000000Y-135815000D03*
D21*
X135000000Y-140895000D03*
%TD*%
D28*
%TO.C,R_4k7_3*%
X88555000Y-122610000D03*
X86905000Y-122610000D03*
%TD*%
D29*
%TO.C,C_22uF_1*%
X94000000Y-175250000D03*
X95550000Y-175250000D03*
%TD*%
D18*
%TO.C,K_TypeARel_1*%
X118500000Y-165875000D03*
X124500000Y-163875000D03*
X124500000Y-151675000D03*
X112500000Y-163875000D03*
%TD*%
D21*
%TO.C,SW_OnOff_2*%
X70000000Y-129500000D03*
X70000000Y-124500000D03*
X70000000Y-119500000D03*
X70000000Y-114500000D03*
%TD*%
D17*
%TO.C,Q_NchFET_2*%
X107200000Y-204910000D03*
X107200000Y-202990000D03*
X105000000Y-203950000D03*
%TD*%
D18*
%TO.C,K_TypeARel_2*%
X99000000Y-165800000D03*
X105000000Y-163800000D03*
X105000000Y-151600000D03*
X93000000Y-163800000D03*
%TD*%
%TO.C,K_TypeCRel_6*%
X137000000Y-197450000D03*
X143000000Y-195450000D03*
X143000000Y-183250000D03*
X131000000Y-183250000D03*
X131000000Y-195450000D03*
%TD*%
D30*
%TO.C,C_470uF_3*%
X120250000Y-135110000D03*
D31*
X120250000Y-132610000D03*
%TD*%
D14*
%TO.C,D_sch_6*%
X136000000Y-172000000D03*
X140200000Y-172000000D03*
%TD*%
D32*
%TO.C,H1*%
X82550000Y-114800000D03*
%TD*%
D12*
%TO.C,H2*%
X67250000Y-214250000D03*
%TD*%
M02*
