%TF.GenerationSoftware,KiCad,Pcbnew,8.0.6*%
%TF.CreationDate,2024-11-25T21:26:03+01:00*%
%TF.ProjectId,PCB,5043422e-6b69-4636-9164-5f7063625858,rev?*%
%TF.SameCoordinates,Original*%
%TF.FileFunction,Copper,L1,Top*%
%TF.FilePolarity,Positive*%
%FSLAX46Y46*%
G04 Gerber Fmt 4.6, Leading zero omitted, Abs format (unit mm)*
G04 Created by KiCad (PCBNEW 8.0.6) date 2024-11-25 21:26:03*
%MOMM*%
%LPD*%
G01*
G04 APERTURE LIST*
G04 Aperture macros list*
%AMRoundRect*
0 Rectangle with rounded corners*
0 $1 Rounding radius*
0 $2 $3 $4 $5 $6 $7 $8 $9 X,Y pos of 4 corners*
0 Add a 4 corners polygon primitive as box body*
4,1,4,$2,$3,$4,$5,$6,$7,$8,$9,$2,$3,0*
0 Add four circle primitives for the rounded corners*
1,1,$1+$1,$2,$3*
1,1,$1+$1,$4,$5*
1,1,$1+$1,$6,$7*
1,1,$1+$1,$8,$9*
0 Add four rect primitives between the rounded corners*
20,1,$1+$1,$2,$3,$4,$5,0*
20,1,$1+$1,$4,$5,$6,$7,0*
20,1,$1+$1,$6,$7,$8,$9,0*
20,1,$1+$1,$8,$9,$2,$3,0*%
G04 Aperture macros list end*
%TA.AperFunction,ComponentPad*%
%ADD10R,2.000000X2.000000*%
%TD*%
%TA.AperFunction,ComponentPad*%
%ADD11O,2.000000X1.600000*%
%TD*%
%TA.AperFunction,SMDPad,CuDef*%
%ADD12R,2.000000X1.550000*%
%TD*%
%TA.AperFunction,ComponentPad*%
%ADD13R,1.500000X1.500000*%
%TD*%
%TA.AperFunction,ComponentPad*%
%ADD14C,1.500000*%
%TD*%
%TA.AperFunction,SMDPad,CuDef*%
%ADD15R,1.150000X0.600000*%
%TD*%
%TA.AperFunction,ComponentPad*%
%ADD16C,2.250000*%
%TD*%
%TA.AperFunction,SMDPad,CuDef*%
%ADD17RoundRect,0.200000X0.275000X-0.200000X0.275000X0.200000X-0.275000X0.200000X-0.275000X-0.200000X0*%
%TD*%
%TA.AperFunction,ComponentPad*%
%ADD18R,1.950000X1.950000*%
%TD*%
%TA.AperFunction,ComponentPad*%
%ADD19C,1.950000*%
%TD*%
%TA.AperFunction,ComponentPad*%
%ADD20R,1.700000X1.700000*%
%TD*%
%TA.AperFunction,ComponentPad*%
%ADD21O,1.700000X1.700000*%
%TD*%
%TA.AperFunction,SMDPad,CuDef*%
%ADD22RoundRect,0.225000X0.250000X-0.225000X0.250000X0.225000X-0.250000X0.225000X-0.250000X-0.225000X0*%
%TD*%
%TA.AperFunction,SMDPad,CuDef*%
%ADD23RoundRect,0.200000X-0.200000X-0.275000X0.200000X-0.275000X0.200000X0.275000X-0.200000X0.275000X0*%
%TD*%
%TA.AperFunction,SMDPad,CuDef*%
%ADD24RoundRect,0.200000X-0.275000X0.200000X-0.275000X-0.200000X0.275000X-0.200000X0.275000X0.200000X0*%
%TD*%
%TA.AperFunction,SMDPad,CuDef*%
%ADD25R,3.050000X1.520000*%
%TD*%
%TA.AperFunction,SMDPad,CuDef*%
%ADD26RoundRect,0.200000X0.200000X0.275000X-0.200000X0.275000X-0.200000X-0.275000X0.200000X-0.275000X0*%
%TD*%
%TA.AperFunction,SMDPad,CuDef*%
%ADD27RoundRect,0.225000X-0.225000X-0.250000X0.225000X-0.250000X0.225000X0.250000X-0.225000X0.250000X0*%
%TD*%
%TA.AperFunction,ComponentPad*%
%ADD28R,1.100000X1.100000*%
%TD*%
%TA.AperFunction,ComponentPad*%
%ADD29C,1.100000*%
%TD*%
%TA.AperFunction,ViaPad*%
%ADD30C,0.600000*%
%TD*%
%TA.AperFunction,Conductor*%
%ADD31C,0.600000*%
%TD*%
%TA.AperFunction,Conductor*%
%ADD32C,0.200000*%
%TD*%
G04 APERTURE END LIST*
D10*
%TO.P,U_WeMos_D1_Mini_Pro_1,1,~{RST}*%
%TO.N,unconnected-(U_WeMos_D1_Mini_Pro_1-~{RST}-Pad1)*%
X91290000Y-117710000D03*
D11*
%TO.P,U_WeMos_D1_Mini_Pro_1,2,A0*%
%TO.N,DOA*%
X91290000Y-120250000D03*
%TO.P,U_WeMos_D1_Mini_Pro_1,3,D0*%
%TO.N,DO0*%
X91290000Y-122790000D03*
%TO.P,U_WeMos_D1_Mini_Pro_1,4,SCK/D5*%
%TO.N,DO5*%
X91290000Y-125330000D03*
%TO.P,U_WeMos_D1_Mini_Pro_1,5,MISO/D6*%
%TO.N,DO6*%
X91290000Y-127870000D03*
%TO.P,U_WeMos_D1_Mini_Pro_1,6,MOSI/D7*%
%TO.N,DO7*%
X91290000Y-130410000D03*
%TO.P,U_WeMos_D1_Mini_Pro_1,7,CS/D8*%
%TO.N,DO8*%
X91290000Y-132950000D03*
%TO.P,U_WeMos_D1_Mini_Pro_1,8,3V3*%
%TO.N,MCU 3V3*%
X91290000Y-135490000D03*
%TO.P,U_WeMos_D1_Mini_Pro_1,9,5V*%
%TO.N,VCC*%
X114150000Y-135490000D03*
%TO.P,U_WeMos_D1_Mini_Pro_1,10,GND*%
%TO.N,GND*%
X114150000Y-132950000D03*
%TO.P,U_WeMos_D1_Mini_Pro_1,11,D4*%
%TO.N,Net-(SW_LocRem_1-A)*%
X114150000Y-130410000D03*
%TO.P,U_WeMos_D1_Mini_Pro_1,12,D3*%
%TO.N,DO3*%
X114150000Y-127870000D03*
%TO.P,U_WeMos_D1_Mini_Pro_1,13,SDA/D2*%
%TO.N,SDA*%
X114150000Y-125330000D03*
%TO.P,U_WeMos_D1_Mini_Pro_1,14,SCL/D1*%
%TO.N,SCL*%
X114150000Y-122790000D03*
%TO.P,U_WeMos_D1_Mini_Pro_1,15,RX*%
%TO.N,unconnected-(U_WeMos_D1_Mini_Pro_1-RX-Pad15)*%
X114150000Y-120250000D03*
%TO.P,U_WeMos_D1_Mini_Pro_1,16,TX*%
%TO.N,unconnected-(U_WeMos_D1_Mini_Pro_1-TX-Pad16)*%
X114150000Y-117710000D03*
%TD*%
D12*
%TO.P,D_sch_2,1,K*%
%TO.N,VCC*%
X98000000Y-203950000D03*
%TO.P,D_sch_2,2,A*%
%TO.N,Net-(D_sch_2-A)*%
X102200000Y-203950000D03*
%TD*%
%TO.P,D_sch_3,1,K*%
%TO.N,VCC*%
X134900000Y-203950000D03*
%TO.P,D_sch_3,2,A*%
%TO.N,Net-(D_sch_3-A)*%
X139100000Y-203950000D03*
%TD*%
D13*
%TO.P,PS_DCDC_24V5V_1,1,+VIN*%
%TO.N,Net-(PS_DCDC_24V5V_1-+VIN)*%
X77540000Y-188570000D03*
D14*
%TO.P,PS_DCDC_24V5V_1,2,-VIN*%
%TO.N,Net-(J_24Vin+GND_1-Pin_1)*%
X72460000Y-188570000D03*
%TO.P,PS_DCDC_24V5V_1,3,CTRL*%
%TO.N,unconnected-(PS_DCDC_24V5V_1-CTRL-Pad3)*%
X64840000Y-188570000D03*
%TO.P,PS_DCDC_24V5V_1,4,-VOUT*%
%TO.N,GND*%
X64840000Y-168250000D03*
%TO.P,PS_DCDC_24V5V_1,5,TRIM*%
%TO.N,unconnected-(PS_DCDC_24V5V_1-TRIM-Pad5)*%
X75000000Y-168250000D03*
%TO.P,PS_DCDC_24V5V_1,6,+VOUT*%
%TO.N,Net-(PS_DCDC_24V5V_1-+VOUT)*%
X85160000Y-168250000D03*
%TD*%
D12*
%TO.P,D_sch_5,1,K*%
%TO.N,VCC*%
X96900000Y-172000000D03*
%TO.P,D_sch_5,2,A*%
%TO.N,Net-(D_sch_5-A)*%
X101100000Y-172000000D03*
%TD*%
%TO.P,D_sch_1,1,K*%
%TO.N,VCC*%
X116900000Y-203950000D03*
%TO.P,D_sch_1,2,A*%
%TO.N,Net-(D_sch_1-A)*%
X121100000Y-203950000D03*
%TD*%
D15*
%TO.P,Q_NchFET_6,1,G*%
%TO.N,DO5*%
X145200000Y-172960000D03*
%TO.P,Q_NchFET_6,2,S*%
%TO.N,GND*%
X145200000Y-171040000D03*
%TO.P,Q_NchFET_6,3,D*%
%TO.N,Net-(D_sch_6-A)*%
X143000000Y-172000000D03*
%TD*%
D16*
%TO.P,K_TypeCRel_5,1*%
%TO.N,VFD DI1*%
X100000000Y-197425000D03*
%TO.P,K_TypeCRel_5,2*%
%TO.N,Net-(D_sch_2-A)*%
X106000000Y-195425000D03*
%TO.P,K_TypeCRel_5,3*%
%TO.N,remote DI1*%
X106000000Y-183225000D03*
%TO.P,K_TypeCRel_5,4*%
%TO.N,local DI1*%
X94000000Y-183225000D03*
%TO.P,K_TypeCRel_5,5*%
%TO.N,VCC*%
X94000000Y-195425000D03*
%TD*%
D17*
%TO.P,R_4k7_1,1*%
%TO.N,VCC*%
X124500000Y-133435000D03*
%TO.P,R_4k7_1,2*%
%TO.N,Net-(SW_LocRem_1-A)*%
X124500000Y-131785000D03*
%TD*%
D18*
%TO.P,J_24Vin+GND_1,1,Pin_1*%
%TO.N,Net-(J_24Vin+GND_1-Pin_1)*%
X80420000Y-215500000D03*
D19*
%TO.P,J_24Vin+GND_1,2,Pin_2*%
%TO.N,Net-(J_24Vin+GND_1-Pin_2)*%
X85500000Y-215500000D03*
%TD*%
D18*
%TO.P,J_VFDconnectors_3,1,Pin_1*%
%TO.N,J4 24V*%
X121500000Y-214500000D03*
D19*
%TO.P,J_VFDconnectors_3,2,Pin_2*%
%TO.N,unconnected-(J_VFDconnectors_3-Pin_2-Pad2)*%
X126500000Y-214500000D03*
%TO.P,J_VFDconnectors_3,3,Pin_3*%
%TO.N,unconnected-(J_VFDconnectors_3-Pin_3-Pad3)*%
X131500000Y-214500000D03*
%TO.P,J_VFDconnectors_3,4,Pin_4*%
%TO.N,VFD DI2*%
X136500000Y-214500000D03*
%TO.P,J_VFDconnectors_3,5,Pin_5*%
%TO.N,unconnected-(J_VFDconnectors_3-Pin_5-Pad5)*%
X141500000Y-214500000D03*
%TD*%
D16*
%TO.P,K_TypeARel_3,1,COM*%
%TO.N,J4 24V*%
X138000000Y-165925000D03*
%TO.P,K_TypeARel_3,2,COIL_1*%
%TO.N,Net-(D_sch_6-A)*%
X144000000Y-163925000D03*
%TO.P,K_TypeARel_3,3,NO*%
%TO.N,remote DI2*%
X144000000Y-151725000D03*
%TO.P,K_TypeARel_3,5,COIL_2*%
%TO.N,VCC*%
X132000000Y-163925000D03*
%TD*%
D20*
%TO.P,J_LCDconn_1,1,Pin_1*%
%TO.N,GND*%
X65500000Y-80460000D03*
D21*
%TO.P,J_LCDconn_1,2,Pin_2*%
%TO.N,VCC*%
X65500000Y-83000000D03*
%TO.P,J_LCDconn_1,3,Pin_3*%
%TO.N,SDA*%
X65500000Y-85540000D03*
%TO.P,J_LCDconn_1,4,Pin_4*%
%TO.N,SCL*%
X65500000Y-88080000D03*
%TD*%
D15*
%TO.P,Q_NchFET_5,1,G*%
%TO.N,DO8*%
X106200000Y-172960000D03*
%TO.P,Q_NchFET_5,2,S*%
%TO.N,GND*%
X106200000Y-171040000D03*
%TO.P,Q_NchFET_5,3,D*%
%TO.N,Net-(D_sch_5-A)*%
X104000000Y-172000000D03*
%TD*%
D16*
%TO.P,K_TypeCRel_4,1*%
%TO.N,VFD DI0*%
X119000000Y-197450000D03*
%TO.P,K_TypeCRel_4,2*%
%TO.N,Net-(D_sch_1-A)*%
X125000000Y-195450000D03*
%TO.P,K_TypeCRel_4,3*%
%TO.N,remote DI0*%
X125000000Y-183250000D03*
%TO.P,K_TypeCRel_4,4*%
%TO.N,local DI0*%
X113000000Y-183250000D03*
%TO.P,K_TypeCRel_4,5*%
%TO.N,VCC*%
X113000000Y-195450000D03*
%TD*%
D22*
%TO.P,C_10uF_2,1*%
%TO.N,VCC*%
X62000000Y-82800000D03*
%TO.P,C_10uF_2,2*%
%TO.N,GND*%
X62000000Y-81250000D03*
%TD*%
D15*
%TO.P,Q_NchFET_4,1,G*%
%TO.N,DO6*%
X125500000Y-173000000D03*
%TO.P,Q_NchFET_4,2,S*%
%TO.N,GND*%
X125500000Y-171080000D03*
%TO.P,Q_NchFET_4,3,D*%
%TO.N,Net-(D_sch_4-A)*%
X123300000Y-172040000D03*
%TD*%
%TO.P,Q_NchFET_3,1,G*%
%TO.N,DO7*%
X144200000Y-204910000D03*
%TO.P,Q_NchFET_3,2,S*%
%TO.N,GND*%
X144200000Y-202990000D03*
%TO.P,Q_NchFET_3,3,D*%
%TO.N,Net-(D_sch_3-A)*%
X142000000Y-203950000D03*
%TD*%
D18*
%TO.P,J_VFDconnectors_2,1,Pin_1*%
%TO.N,J3 24V*%
X93215000Y-214500000D03*
D19*
%TO.P,J_VFDconnectors_2,2,Pin_2*%
%TO.N,VFD DI1*%
X98215000Y-214500000D03*
%TO.P,J_VFDconnectors_2,3,Pin_3*%
%TO.N,unconnected-(J_VFDconnectors_2-Pin_3-Pad3)*%
X103215000Y-214500000D03*
%TO.P,J_VFDconnectors_2,4,Pin_4*%
%TO.N,VFD DI0*%
X108215000Y-214500000D03*
%TO.P,J_VFDconnectors_2,5,Pin_5*%
%TO.N,unconnected-(J_VFDconnectors_2-Pin_5-Pad5)*%
X113215000Y-214500000D03*
%TD*%
D16*
%TO.P,Fuse_1500mA_1,1,1*%
%TO.N,Net-(J_24Vin+GND_1-Pin_2)*%
X86550000Y-201000000D03*
%TO.P,Fuse_1500mA_1,2,2*%
%TO.N,Net-(PS_DCDC_24V5V_1-+VIN)*%
X63950000Y-201000000D03*
%TD*%
D23*
%TO.P,R_4k7_2,1*%
%TO.N,DO3*%
X117250000Y-127750000D03*
%TO.P,R_4k7_2,2*%
%TO.N,GND*%
X118900000Y-127750000D03*
%TD*%
D12*
%TO.P,D_sch_4,1,K*%
%TO.N,VCC*%
X116400000Y-172000000D03*
%TO.P,D_sch_4,2,A*%
%TO.N,Net-(D_sch_4-A)*%
X120600000Y-172000000D03*
%TD*%
D19*
%TO.P,SW_IncSpeed_3,1,1*%
%TO.N,J3 24V*%
X70250000Y-151500000D03*
%TO.P,SW_IncSpeed_3,2,2*%
%TO.N,local DI1*%
X70250000Y-146500000D03*
%TO.P,SW_IncSpeed_3,3,3*%
%TO.N,MCU 3V3*%
X70250000Y-141500000D03*
%TO.P,SW_IncSpeed_3,4,4*%
%TO.N,DO0*%
X70250000Y-136500000D03*
%TD*%
D24*
%TO.P,R_4k7_4,1*%
%TO.N,DOA*%
X63250000Y-114425000D03*
%TO.P,R_4k7_4,2*%
%TO.N,GND*%
X63250000Y-116075000D03*
%TD*%
D15*
%TO.P,Q_NchFET_1,1,G*%
%TO.N,DO7*%
X126200000Y-204910000D03*
%TO.P,Q_NchFET_1,2,S*%
%TO.N,GND*%
X126200000Y-202990000D03*
%TO.P,Q_NchFET_1,3,D*%
%TO.N,Net-(D_sch_1-A)*%
X124000000Y-203950000D03*
%TD*%
D19*
%TO.P,SW_DecSpeed_4,1,1*%
%TO.N,J4 24V*%
X140750000Y-115250000D03*
%TO.P,SW_DecSpeed_4,2,2*%
%TO.N,local DI2*%
X135750000Y-115250000D03*
%TO.P,SW_DecSpeed_4,3,3*%
%TO.N,MCU 3V3*%
X130750000Y-115250000D03*
%TO.P,SW_DecSpeed_4,4,4*%
%TO.N,DO3*%
X125750000Y-115250000D03*
%TD*%
D25*
%TO.P,L_10uH_1,1,1*%
%TO.N,Net-(PS_DCDC_24V5V_1-+VOUT)*%
X91250000Y-171605000D03*
%TO.P,L_10uH_1,2,2*%
%TO.N,VCC*%
X91250000Y-173895000D03*
%TD*%
D18*
%TO.P,SW_LocRem_1,1,A*%
%TO.N,Net-(SW_LocRem_1-A)*%
X135000000Y-135815000D03*
D19*
%TO.P,SW_LocRem_1,2,B*%
%TO.N,GND*%
X135000000Y-140895000D03*
%TD*%
D26*
%TO.P,R_4k7_3,1*%
%TO.N,DO0*%
X88555000Y-122610000D03*
%TO.P,R_4k7_3,2*%
%TO.N,GND*%
X86905000Y-122610000D03*
%TD*%
D27*
%TO.P,C_22uF_1,1*%
%TO.N,VCC*%
X94000000Y-175250000D03*
%TO.P,C_22uF_1,2*%
%TO.N,GND*%
X95550000Y-175250000D03*
%TD*%
D16*
%TO.P,K_TypeARel_1,1,COM*%
%TO.N,J3 24V*%
X118500000Y-165875000D03*
%TO.P,K_TypeARel_1,2,COIL_1*%
%TO.N,Net-(D_sch_4-A)*%
X124500000Y-163875000D03*
%TO.P,K_TypeARel_1,3,NO*%
%TO.N,remote DI0*%
X124500000Y-151675000D03*
%TO.P,K_TypeARel_1,5,COIL_2*%
%TO.N,VCC*%
X112500000Y-163875000D03*
%TD*%
D19*
%TO.P,SW_OnOff_2,1,1*%
%TO.N,J3 24V*%
X70000000Y-129500000D03*
%TO.P,SW_OnOff_2,2,2*%
%TO.N,local DI0*%
X70000000Y-124500000D03*
%TO.P,SW_OnOff_2,3,3*%
%TO.N,MCU 3V3*%
X70000000Y-119500000D03*
%TO.P,SW_OnOff_2,4,4*%
%TO.N,DOA*%
X70000000Y-114500000D03*
%TD*%
D15*
%TO.P,Q_NchFET_2,1,G*%
%TO.N,DO7*%
X107200000Y-204910000D03*
%TO.P,Q_NchFET_2,2,S*%
%TO.N,GND*%
X107200000Y-202990000D03*
%TO.P,Q_NchFET_2,3,D*%
%TO.N,Net-(D_sch_2-A)*%
X105000000Y-203950000D03*
%TD*%
D16*
%TO.P,K_TypeARel_2,1,COM*%
%TO.N,J3 24V*%
X99000000Y-165800000D03*
%TO.P,K_TypeARel_2,2,COIL_1*%
%TO.N,Net-(D_sch_5-A)*%
X105000000Y-163800000D03*
%TO.P,K_TypeARel_2,3,NO*%
%TO.N,remote DI1*%
X105000000Y-151600000D03*
%TO.P,K_TypeARel_2,5,COIL_2*%
%TO.N,VCC*%
X93000000Y-163800000D03*
%TD*%
%TO.P,K_TypeCRel_6,1*%
%TO.N,VFD DI2*%
X137000000Y-197450000D03*
%TO.P,K_TypeCRel_6,2*%
%TO.N,Net-(D_sch_3-A)*%
X143000000Y-195450000D03*
%TO.P,K_TypeCRel_6,3*%
%TO.N,remote DI2*%
X143000000Y-183250000D03*
%TO.P,K_TypeCRel_6,4*%
%TO.N,local DI2*%
X131000000Y-183250000D03*
%TO.P,K_TypeCRel_6,5*%
%TO.N,VCC*%
X131000000Y-195450000D03*
%TD*%
D28*
%TO.P,C_470uF_3,1,+*%
%TO.N,VCC*%
X120250000Y-135110000D03*
D29*
%TO.P,C_470uF_3,2,-*%
%TO.N,GND*%
X120250000Y-132610000D03*
%TD*%
D12*
%TO.P,D_sch_6,1,K*%
%TO.N,VCC*%
X136000000Y-172000000D03*
%TO.P,D_sch_6,2,A*%
%TO.N,Net-(D_sch_6-A)*%
X140200000Y-172000000D03*
%TD*%
D30*
%TO.N,GND*%
X124700000Y-167050000D03*
X144150000Y-167450000D03*
X129100000Y-201000000D03*
X111000000Y-166450000D03*
%TO.N,DO6*%
X125250000Y-161000000D03*
%TO.N,DO7*%
X112500000Y-174250000D03*
%TO.N,DO5*%
X120000000Y-139500000D03*
%TO.N,DO8*%
X108750000Y-169250000D03*
%TD*%
D31*
%TO.N,VCC*%
X120125000Y-166548098D02*
X119173098Y-167500000D01*
X109867500Y-204117500D02*
X113000000Y-200985000D01*
X126950000Y-173800000D02*
X128375000Y-172375000D01*
X62275000Y-86225000D02*
X62275000Y-147132767D01*
X114165000Y-135390000D02*
X119970000Y-135390000D01*
X65300000Y-82800000D02*
X65500000Y-83000000D01*
X127540000Y-205710000D02*
X128875000Y-204375000D01*
X92375000Y-193800000D02*
X94000000Y-195425000D01*
X120250000Y-135110000D02*
X122825000Y-135110000D01*
X118660000Y-205710000D02*
X127540000Y-205710000D01*
X116900000Y-203950000D02*
X118660000Y-205710000D01*
X78942233Y-163800000D02*
X93000000Y-163800000D01*
X128875000Y-204375000D02*
X131000000Y-202250000D01*
X128375000Y-172375000D02*
X132000000Y-168750000D01*
X91250000Y-173895000D02*
X92645000Y-173895000D01*
X112500000Y-168535000D02*
X112500000Y-163875000D01*
X109035000Y-172000000D02*
X108767500Y-172267500D01*
X96900000Y-172000000D02*
X98660000Y-173760000D01*
X110035000Y-203950000D02*
X109867500Y-204117500D01*
X91250000Y-173895000D02*
X95005000Y-173895000D01*
X62000000Y-82800000D02*
X65300000Y-82800000D01*
X116900000Y-203950000D02*
X110035000Y-203950000D01*
X94000000Y-195425000D02*
X94000000Y-199950000D01*
X93000000Y-163800000D02*
X93000000Y-168100000D01*
X92375000Y-176875000D02*
X92375000Y-193800000D01*
X119970000Y-135390000D02*
X120250000Y-135110000D01*
X108767500Y-172267500D02*
X112500000Y-168535000D01*
X93000000Y-168100000D02*
X96900000Y-172000000D01*
X131000000Y-202250000D02*
X131000000Y-195450000D01*
X120125000Y-141350000D02*
X120125000Y-166548098D01*
X116125000Y-167500000D02*
X112500000Y-163875000D01*
X62275000Y-147132767D02*
X78942233Y-163800000D01*
X132000000Y-168750000D02*
X132000000Y-163925000D01*
X107275000Y-173760000D02*
X108767500Y-172267500D01*
X118200000Y-173800000D02*
X126950000Y-173800000D01*
X98000000Y-203950000D02*
X99760000Y-205710000D01*
X122825000Y-135110000D02*
X124500000Y-133435000D01*
X95005000Y-173895000D02*
X96900000Y-172000000D01*
X92645000Y-173895000D02*
X94000000Y-175250000D01*
X98660000Y-173760000D02*
X107275000Y-173760000D01*
X136000000Y-172000000D02*
X128750000Y-172000000D01*
X94000000Y-175250000D02*
X92375000Y-176875000D01*
X116400000Y-172000000D02*
X109035000Y-172000000D01*
X94000000Y-199950000D02*
X98000000Y-203950000D01*
X114165000Y-135390000D02*
X120125000Y-141350000D01*
X65500000Y-83000000D02*
X62275000Y-86225000D01*
X128750000Y-172000000D02*
X128375000Y-172375000D01*
X129300000Y-203950000D02*
X128875000Y-204375000D01*
X134900000Y-203950000D02*
X129300000Y-203950000D01*
X116400000Y-172000000D02*
X118200000Y-173800000D01*
X113000000Y-200985000D02*
X113000000Y-195450000D01*
X99760000Y-205710000D02*
X108275000Y-205710000D01*
X108275000Y-205710000D02*
X109867500Y-204117500D01*
X119173098Y-167500000D02*
X116125000Y-167500000D01*
%TO.N,GND*%
X120100000Y-126550000D02*
X120100000Y-126250000D01*
X125500000Y-167850000D02*
X124700000Y-167050000D01*
X127110000Y-202990000D02*
X129100000Y-201000000D01*
X126200000Y-202990000D02*
X127110000Y-202990000D01*
X106200000Y-171040000D02*
X106200000Y-170140000D01*
D32*
X145200000Y-171040000D02*
X145200000Y-168500000D01*
D31*
X106200000Y-170140000D02*
X109890000Y-166450000D01*
X118900000Y-127750000D02*
X120100000Y-126550000D01*
X125500000Y-171080000D02*
X125500000Y-167850000D01*
X109890000Y-166450000D02*
X111000000Y-166450000D01*
X118900000Y-127750000D02*
X118900000Y-126100000D01*
D32*
X145200000Y-168500000D02*
X144150000Y-167450000D01*
D31*
%TO.N,J3 24V*%
X70250000Y-151500000D02*
X68775000Y-150025000D01*
X114800000Y-162175000D02*
X118500000Y-165875000D01*
X99000000Y-165800000D02*
X102625000Y-162175000D01*
X68775000Y-130725000D02*
X70000000Y-129500000D01*
X102625000Y-162175000D02*
X114800000Y-162175000D01*
X68775000Y-150025000D02*
X68775000Y-130725000D01*
D32*
%TO.N,DO6*%
X126375000Y-162125000D02*
X126375000Y-172125000D01*
X125250000Y-161000000D02*
X126375000Y-162125000D01*
X126375000Y-172125000D02*
X125500000Y-173000000D01*
%TO.N,DO7*%
X114425000Y-176175000D02*
X112500000Y-174250000D01*
X114425000Y-193600000D02*
X114425000Y-176175000D01*
X126425000Y-196040255D02*
X125250000Y-197215255D01*
X112409745Y-194025000D02*
X114000000Y-194025000D01*
X138185000Y-205410000D02*
X137000000Y-204225000D01*
X125250000Y-197215255D02*
X125250000Y-203960000D01*
X143425000Y-205410000D02*
X138185000Y-205410000D01*
X131590255Y-194025000D02*
X123500000Y-194025000D01*
X132425000Y-194859745D02*
X131590255Y-194025000D01*
X123500000Y-194025000D02*
X123750000Y-194025000D01*
X137000000Y-204225000D02*
X137000000Y-200615255D01*
X111575000Y-200535000D02*
X111575000Y-194859745D01*
X107200000Y-204910000D02*
X111575000Y-200535000D01*
X143925000Y-204910000D02*
X143425000Y-205410000D01*
X123750000Y-194025000D02*
X125590255Y-194025000D01*
X125250000Y-203960000D02*
X126200000Y-204910000D01*
X132425000Y-196040255D02*
X132425000Y-194859745D01*
X114000000Y-194025000D02*
X114425000Y-193600000D01*
X111575000Y-194859745D02*
X112409745Y-194025000D01*
X114000000Y-194025000D02*
X123500000Y-194025000D01*
X125590255Y-194025000D02*
X126425000Y-194859745D01*
X144200000Y-204910000D02*
X143925000Y-204910000D01*
X126425000Y-194859745D02*
X126425000Y-196040255D01*
X137000000Y-200615255D02*
X132425000Y-196040255D01*
%TO.N,DO5*%
X146075000Y-172085000D02*
X146075000Y-163575000D01*
X145200000Y-172960000D02*
X146075000Y-172085000D01*
X122000000Y-139500000D02*
X120000000Y-139500000D01*
X146075000Y-163575000D02*
X122000000Y-139500000D01*
%TO.N,DO8*%
X108750000Y-170410000D02*
X106200000Y-172960000D01*
X108750000Y-169250000D02*
X108750000Y-170410000D01*
%TO.N,DO3*%
X114165000Y-127770000D02*
X117230000Y-127770000D01*
X117230000Y-127770000D02*
X117250000Y-127750000D01*
X117250000Y-127750000D02*
X117250000Y-123750000D01*
X117250000Y-123750000D02*
X125750000Y-115250000D01*
%TO.N,DO0*%
X88375492Y-122610000D02*
X88555000Y-122610000D01*
X74485492Y-136500000D02*
X88375492Y-122610000D01*
X70250000Y-136500000D02*
X74485492Y-136500000D01*
X91225000Y-122610000D02*
X91305000Y-122690000D01*
X88555000Y-122610000D02*
X91225000Y-122610000D01*
%TO.N,MCU 3V3*%
X70250000Y-141500000D02*
X76360000Y-135390000D01*
X130750000Y-117087648D02*
X118627648Y-129210000D01*
X97485000Y-129210000D02*
X91305000Y-135390000D01*
X76360000Y-135390000D02*
X91305000Y-135390000D01*
X130750000Y-115250000D02*
X130750000Y-117087648D01*
X118627648Y-129210000D02*
X97485000Y-129210000D01*
%TO.N,DOA*%
X63250000Y-114425000D02*
X69925000Y-114425000D01*
X69925000Y-114425000D02*
X70000000Y-114500000D01*
D31*
%TO.N,Net-(PS_DCDC_24V5V_1-+VIN)*%
X63950000Y-201000000D02*
X76380000Y-188570000D01*
X76380000Y-188570000D02*
X77540000Y-188570000D01*
%TO.N,Net-(J_24Vin+GND_1-Pin_2)*%
X86550000Y-214450000D02*
X85500000Y-215500000D01*
X86550000Y-201000000D02*
X86550000Y-214450000D01*
%TO.N,Net-(PS_DCDC_24V5V_1-+VOUT)*%
X88515000Y-171605000D02*
X85160000Y-168250000D01*
X91250000Y-171605000D02*
X88515000Y-171605000D01*
%TO.N,Net-(SW_LocRem_1-A)*%
X130970000Y-131785000D02*
X135000000Y-135815000D01*
X124500000Y-131785000D02*
X130970000Y-131785000D01*
X124500000Y-131785000D02*
X123025000Y-130310000D01*
X123025000Y-130310000D02*
X114165000Y-130310000D01*
%TO.N,Net-(D_sch_1-A)*%
X121100000Y-203950000D02*
X124000000Y-203950000D01*
X124000000Y-203950000D02*
X124000000Y-196450000D01*
X124000000Y-196450000D02*
X125000000Y-195450000D01*
%TO.N,Net-(D_sch_2-A)*%
X102200000Y-203950000D02*
X105000000Y-203950000D01*
X105000000Y-196425000D02*
X106000000Y-195425000D01*
X105000000Y-203950000D02*
X105000000Y-196425000D01*
%TO.N,Net-(D_sch_3-A)*%
X142000000Y-196450000D02*
X143000000Y-195450000D01*
X139100000Y-203950000D02*
X142000000Y-203950000D01*
X142000000Y-203950000D02*
X142000000Y-196450000D01*
%TO.N,Net-(D_sch_4-A)*%
X123300000Y-172040000D02*
X123300000Y-165075000D01*
X123260000Y-172000000D02*
X123300000Y-172040000D01*
X123300000Y-165075000D02*
X124500000Y-163875000D01*
X120600000Y-172000000D02*
X123260000Y-172000000D01*
%TO.N,Net-(D_sch_5-A)*%
X101100000Y-172000000D02*
X104000000Y-172000000D01*
X104000000Y-164800000D02*
X105000000Y-163800000D01*
X104000000Y-172000000D02*
X104000000Y-164800000D01*
%TO.N,Net-(D_sch_6-A)*%
X143000000Y-164925000D02*
X144000000Y-163925000D01*
X140200000Y-172000000D02*
X143000000Y-172000000D01*
X143000000Y-172000000D02*
X143000000Y-164925000D01*
%TD*%
%TA.AperFunction,Conductor*%
%TO.N,GND*%
G36*
X129463551Y-194645185D02*
G01*
X129509306Y-194697989D01*
X129519250Y-194767147D01*
X129511073Y-194796952D01*
X129449279Y-194946135D01*
X129389547Y-195194935D01*
X129369474Y-195450000D01*
X129389547Y-195705064D01*
X129389547Y-195705067D01*
X129389548Y-195705070D01*
X129436174Y-195899278D01*
X129449279Y-195953864D01*
X129547188Y-196190239D01*
X129547190Y-196190242D01*
X129680875Y-196408396D01*
X129680878Y-196408401D01*
X129730586Y-196466601D01*
X129847044Y-196602956D01*
X130041601Y-196769123D01*
X130140290Y-196829599D01*
X130187165Y-196881411D01*
X130199500Y-196935327D01*
X130199500Y-201867060D01*
X130179815Y-201934099D01*
X130163181Y-201954741D01*
X128364711Y-203753211D01*
X127485974Y-204631946D01*
X127424651Y-204665431D01*
X127354959Y-204660447D01*
X127299026Y-204618575D01*
X127275003Y-204557517D01*
X127269091Y-204502516D01*
X127218797Y-204367671D01*
X127218793Y-204367664D01*
X127132547Y-204252455D01*
X127132544Y-204252452D01*
X127017335Y-204166206D01*
X127017328Y-204166202D01*
X126882482Y-204115908D01*
X126882483Y-204115908D01*
X126822883Y-204109501D01*
X126822881Y-204109500D01*
X126822873Y-204109500D01*
X126822865Y-204109500D01*
X126300097Y-204109500D01*
X126233058Y-204089815D01*
X126212416Y-204073181D01*
X125986319Y-203847084D01*
X125955149Y-203790000D01*
X126450000Y-203790000D01*
X126822828Y-203790000D01*
X126822844Y-203789999D01*
X126882372Y-203783598D01*
X126882379Y-203783596D01*
X127017086Y-203733354D01*
X127017093Y-203733350D01*
X127132187Y-203647190D01*
X127132190Y-203647187D01*
X127218350Y-203532093D01*
X127218354Y-203532086D01*
X127268596Y-203397379D01*
X127268598Y-203397372D01*
X127274999Y-203337844D01*
X127275000Y-203337827D01*
X127275000Y-203240000D01*
X126450000Y-203240000D01*
X126450000Y-203790000D01*
X125955149Y-203790000D01*
X125952834Y-203785761D01*
X125950000Y-203759403D01*
X125950000Y-202740000D01*
X126450000Y-202740000D01*
X127275000Y-202740000D01*
X127275000Y-202642172D01*
X127274999Y-202642155D01*
X127268598Y-202582627D01*
X127268596Y-202582620D01*
X127218354Y-202447913D01*
X127218350Y-202447906D01*
X127132190Y-202332812D01*
X127132187Y-202332809D01*
X127017093Y-202246649D01*
X127017086Y-202246645D01*
X126882379Y-202196403D01*
X126882372Y-202196401D01*
X126822844Y-202190000D01*
X126450000Y-202190000D01*
X126450000Y-202740000D01*
X125950000Y-202740000D01*
X125950000Y-202190000D01*
X125939815Y-202179815D01*
X125907461Y-202170315D01*
X125861706Y-202117511D01*
X125850500Y-202066000D01*
X125850500Y-197515351D01*
X125870185Y-197448312D01*
X125886815Y-197427674D01*
X126793713Y-196520776D01*
X126793716Y-196520775D01*
X126905520Y-196408971D01*
X126955639Y-196322159D01*
X126984577Y-196272040D01*
X127025501Y-196119312D01*
X127025501Y-195961198D01*
X127025501Y-195953603D01*
X127025500Y-195953585D01*
X127025500Y-194948805D01*
X127025501Y-194948792D01*
X127025501Y-194780689D01*
X127024440Y-194772631D01*
X127025962Y-194772430D01*
X127027404Y-194711749D01*
X127066564Y-194653885D01*
X127130791Y-194626378D01*
X127145518Y-194625500D01*
X129396512Y-194625500D01*
X129463551Y-194645185D01*
G37*
%TD.AperFunction*%
%TA.AperFunction,Conductor*%
G36*
X125702815Y-165080700D02*
G01*
X125755291Y-165126831D01*
X125774500Y-165193124D01*
X125774500Y-170204138D01*
X125754815Y-170271177D01*
X125750000Y-170277152D01*
X125750000Y-171849402D01*
X125730315Y-171916441D01*
X125713681Y-171937083D01*
X125487583Y-172163181D01*
X125426260Y-172196666D01*
X125399902Y-172199500D01*
X124877129Y-172199500D01*
X124877123Y-172199501D01*
X124817516Y-172205908D01*
X124682671Y-172256202D01*
X124682668Y-172256204D01*
X124573810Y-172337695D01*
X124508345Y-172362112D01*
X124440072Y-172347260D01*
X124390667Y-172297855D01*
X124375499Y-172238431D01*
X124375499Y-171840945D01*
X124395184Y-171773907D01*
X124447988Y-171728152D01*
X124517146Y-171718208D01*
X124573811Y-171741680D01*
X124682910Y-171823352D01*
X124682913Y-171823354D01*
X124817620Y-171873596D01*
X124817627Y-171873598D01*
X124877155Y-171879999D01*
X124877172Y-171880000D01*
X125250000Y-171880000D01*
X125250000Y-171330000D01*
X124425000Y-171330000D01*
X124388681Y-171366319D01*
X124385432Y-171363070D01*
X124352511Y-171391597D01*
X124283353Y-171401541D01*
X124226688Y-171378069D01*
X124150188Y-171320800D01*
X124108318Y-171264866D01*
X124100500Y-171221534D01*
X124100500Y-170732155D01*
X124425000Y-170732155D01*
X124425000Y-170830000D01*
X125250000Y-170830000D01*
X125250000Y-170280000D01*
X124877155Y-170280000D01*
X124817627Y-170286401D01*
X124817620Y-170286403D01*
X124682913Y-170336645D01*
X124682906Y-170336649D01*
X124567812Y-170422809D01*
X124567809Y-170422812D01*
X124481649Y-170537906D01*
X124481645Y-170537913D01*
X124431403Y-170672620D01*
X124431401Y-170672627D01*
X124425000Y-170732155D01*
X124100500Y-170732155D01*
X124100500Y-165607761D01*
X124120185Y-165540722D01*
X124172989Y-165494967D01*
X124240052Y-165485324D01*
X124240073Y-165485069D01*
X124241206Y-165485158D01*
X124242147Y-165485023D01*
X124243906Y-165485289D01*
X124244919Y-165485449D01*
X124244930Y-165485452D01*
X124500000Y-165505526D01*
X124755070Y-165485452D01*
X125003860Y-165425722D01*
X125171192Y-165356411D01*
X125240239Y-165327811D01*
X125240240Y-165327810D01*
X125240243Y-165327809D01*
X125458399Y-165194123D01*
X125569968Y-165098833D01*
X125633729Y-165070263D01*
X125702815Y-165080700D01*
G37*
%TD.AperFunction*%
%TA.AperFunction,Conductor*%
G36*
X110994617Y-162995185D02*
G01*
X111040372Y-163047989D01*
X111050316Y-163117147D01*
X111042139Y-163146952D01*
X110949279Y-163371135D01*
X110889547Y-163619935D01*
X110869474Y-163875000D01*
X110889547Y-164130064D01*
X110889547Y-164130067D01*
X110889548Y-164130070D01*
X110948178Y-164374278D01*
X110949279Y-164378864D01*
X111047188Y-164615239D01*
X111047190Y-164615242D01*
X111180875Y-164833396D01*
X111180878Y-164833401D01*
X111225499Y-164885645D01*
X111347044Y-165027956D01*
X111462812Y-165126831D01*
X111524595Y-165179599D01*
X111541601Y-165194123D01*
X111637372Y-165252811D01*
X111640290Y-165254599D01*
X111687165Y-165306411D01*
X111699500Y-165360327D01*
X111699500Y-168152059D01*
X111679815Y-168219098D01*
X111663181Y-168239740D01*
X109562181Y-170340740D01*
X109500858Y-170374225D01*
X109431166Y-170369241D01*
X109375233Y-170327369D01*
X109350816Y-170261905D01*
X109350500Y-170253059D01*
X109350500Y-169832412D01*
X109370185Y-169765373D01*
X109377555Y-169755097D01*
X109379810Y-169752267D01*
X109379816Y-169752262D01*
X109475789Y-169599522D01*
X109535368Y-169429255D01*
X109535385Y-169429105D01*
X109555565Y-169250003D01*
X109555565Y-169249996D01*
X109535369Y-169070750D01*
X109535368Y-169070745D01*
X109504840Y-168983501D01*
X109475789Y-168900478D01*
X109461277Y-168877383D01*
X109392862Y-168768501D01*
X109379816Y-168747738D01*
X109252262Y-168620184D01*
X109225794Y-168603553D01*
X109099523Y-168524211D01*
X108929254Y-168464631D01*
X108929249Y-168464630D01*
X108750004Y-168444435D01*
X108749996Y-168444435D01*
X108570750Y-168464630D01*
X108570745Y-168464631D01*
X108400476Y-168524211D01*
X108247737Y-168620184D01*
X108120184Y-168747737D01*
X108024211Y-168900476D01*
X107964631Y-169070745D01*
X107964630Y-169070750D01*
X107944435Y-169249996D01*
X107944435Y-169250003D01*
X107964630Y-169429249D01*
X107964631Y-169429254D01*
X108024211Y-169599523D01*
X108120185Y-169752263D01*
X108122445Y-169755097D01*
X108123334Y-169757275D01*
X108123889Y-169758158D01*
X108123734Y-169758255D01*
X108148855Y-169819783D01*
X108149500Y-169832412D01*
X108149500Y-170109902D01*
X108129815Y-170176941D01*
X108113181Y-170197583D01*
X107486681Y-170824083D01*
X107425358Y-170857568D01*
X107355666Y-170852584D01*
X107299733Y-170810712D01*
X107275316Y-170745248D01*
X107275000Y-170736402D01*
X107275000Y-170692172D01*
X107274999Y-170692155D01*
X107268598Y-170632627D01*
X107268596Y-170632620D01*
X107218354Y-170497913D01*
X107218350Y-170497906D01*
X107132190Y-170382812D01*
X107132187Y-170382809D01*
X107017093Y-170296649D01*
X107017086Y-170296645D01*
X106882379Y-170246403D01*
X106882372Y-170246401D01*
X106822844Y-170240000D01*
X106450000Y-170240000D01*
X106450000Y-171809402D01*
X106430315Y-171876441D01*
X106413681Y-171897083D01*
X106187582Y-172123181D01*
X106126259Y-172156666D01*
X106099901Y-172159500D01*
X105577129Y-172159500D01*
X105577123Y-172159501D01*
X105517516Y-172165908D01*
X105382671Y-172216202D01*
X105382668Y-172216204D01*
X105273810Y-172297695D01*
X105208345Y-172322112D01*
X105140072Y-172307260D01*
X105090667Y-172257855D01*
X105075499Y-172198431D01*
X105075499Y-171800945D01*
X105095184Y-171733907D01*
X105147988Y-171688152D01*
X105217146Y-171678208D01*
X105273811Y-171701680D01*
X105382910Y-171783352D01*
X105382913Y-171783354D01*
X105517620Y-171833596D01*
X105517627Y-171833598D01*
X105577155Y-171839999D01*
X105577172Y-171840000D01*
X105950000Y-171840000D01*
X105950000Y-171290000D01*
X105125000Y-171290000D01*
X105088681Y-171326319D01*
X105085432Y-171323070D01*
X105052511Y-171351597D01*
X104983353Y-171361541D01*
X104926688Y-171338069D01*
X104915909Y-171330000D01*
X104903620Y-171320800D01*
X104850188Y-171280800D01*
X104808318Y-171224866D01*
X104800500Y-171181534D01*
X104800500Y-170692155D01*
X105125000Y-170692155D01*
X105125000Y-170790000D01*
X105950000Y-170790000D01*
X105950000Y-170240000D01*
X105577155Y-170240000D01*
X105517627Y-170246401D01*
X105517620Y-170246403D01*
X105382913Y-170296645D01*
X105382906Y-170296649D01*
X105267812Y-170382809D01*
X105267809Y-170382812D01*
X105181649Y-170497906D01*
X105181645Y-170497913D01*
X105131403Y-170632620D01*
X105131401Y-170632627D01*
X105125000Y-170692155D01*
X104800500Y-170692155D01*
X104800500Y-165548967D01*
X104820185Y-165481928D01*
X104872989Y-165436173D01*
X104934226Y-165425349D01*
X105000000Y-165430526D01*
X105255070Y-165410452D01*
X105503860Y-165350722D01*
X105735922Y-165254599D01*
X105740239Y-165252811D01*
X105740240Y-165252810D01*
X105740243Y-165252809D01*
X105958399Y-165119123D01*
X106152956Y-164952956D01*
X106319123Y-164758399D01*
X106452809Y-164540243D01*
X106480998Y-164472190D01*
X106519656Y-164378860D01*
X106550722Y-164303860D01*
X106610452Y-164055070D01*
X106630526Y-163800000D01*
X106610452Y-163544930D01*
X106550722Y-163296140D01*
X106513505Y-163206290D01*
X106488927Y-163146952D01*
X106481458Y-163077483D01*
X106512733Y-163015004D01*
X106572822Y-162979352D01*
X106603488Y-162975500D01*
X110927578Y-162975500D01*
X110994617Y-162995185D01*
G37*
%TD.AperFunction*%
%TA.AperFunction,Conductor*%
G36*
X145443631Y-164955723D02*
G01*
X145473109Y-165019070D01*
X145474500Y-165037593D01*
X145474500Y-170164138D01*
X145454815Y-170231177D01*
X145450000Y-170237152D01*
X145450000Y-171809402D01*
X145430315Y-171876441D01*
X145413681Y-171897083D01*
X145187583Y-172123181D01*
X145126260Y-172156666D01*
X145099902Y-172159500D01*
X144577129Y-172159500D01*
X144577123Y-172159501D01*
X144517516Y-172165908D01*
X144382671Y-172216202D01*
X144382668Y-172216204D01*
X144273810Y-172297695D01*
X144208345Y-172322112D01*
X144140072Y-172307260D01*
X144090667Y-172257855D01*
X144075499Y-172198431D01*
X144075499Y-171800945D01*
X144095184Y-171733907D01*
X144147988Y-171688152D01*
X144217146Y-171678208D01*
X144273811Y-171701680D01*
X144382910Y-171783352D01*
X144382913Y-171783354D01*
X144517620Y-171833596D01*
X144517627Y-171833598D01*
X144577155Y-171839999D01*
X144577172Y-171840000D01*
X144950000Y-171840000D01*
X144950000Y-171290000D01*
X144125000Y-171290000D01*
X144088681Y-171326319D01*
X144085432Y-171323070D01*
X144052511Y-171351597D01*
X143983353Y-171361541D01*
X143926688Y-171338069D01*
X143915909Y-171330000D01*
X143903620Y-171320800D01*
X143850188Y-171280800D01*
X143808318Y-171224866D01*
X143800500Y-171181534D01*
X143800500Y-170692155D01*
X144125000Y-170692155D01*
X144125000Y-170790000D01*
X144950000Y-170790000D01*
X144950000Y-170240000D01*
X144577155Y-170240000D01*
X144517627Y-170246401D01*
X144517620Y-170246403D01*
X144382913Y-170296645D01*
X144382906Y-170296649D01*
X144267812Y-170382809D01*
X144267809Y-170382812D01*
X144181649Y-170497906D01*
X144181645Y-170497913D01*
X144131403Y-170632620D01*
X144131401Y-170632627D01*
X144125000Y-170692155D01*
X143800500Y-170692155D01*
X143800500Y-165673967D01*
X143820185Y-165606928D01*
X143872989Y-165561173D01*
X143934226Y-165550349D01*
X144000000Y-165555526D01*
X144255070Y-165535452D01*
X144503860Y-165475722D01*
X144635645Y-165421135D01*
X144740239Y-165377811D01*
X144740240Y-165377810D01*
X144740243Y-165377809D01*
X144958399Y-165244123D01*
X145152956Y-165077956D01*
X145256210Y-164957061D01*
X145314717Y-164918868D01*
X145384585Y-164918370D01*
X145443631Y-164955723D01*
G37*
%TD.AperFunction*%
%TA.AperFunction,Conductor*%
G36*
X122709099Y-131130185D02*
G01*
X122729741Y-131146819D01*
X123488181Y-131905259D01*
X123521666Y-131966582D01*
X123524500Y-131992940D01*
X123524500Y-132041613D01*
X123530913Y-132112192D01*
X123530913Y-132112194D01*
X123530914Y-132112196D01*
X123581522Y-132274606D01*
X123654360Y-132395095D01*
X123669530Y-132420188D01*
X123771661Y-132522319D01*
X123805146Y-132583642D01*
X123800162Y-132653334D01*
X123771661Y-132697681D01*
X123669531Y-132799810D01*
X123669530Y-132799811D01*
X123581522Y-132945393D01*
X123530913Y-133107807D01*
X123524500Y-133178386D01*
X123524500Y-133227060D01*
X123504815Y-133294099D01*
X123488181Y-133314741D01*
X122529741Y-134273181D01*
X122468418Y-134306666D01*
X122442060Y-134309500D01*
X121299751Y-134309500D01*
X121232712Y-134289815D01*
X121200485Y-134259812D01*
X121157548Y-134202457D01*
X121157546Y-134202454D01*
X121140242Y-134189500D01*
X121042335Y-134116206D01*
X121042328Y-134116202D01*
X120907482Y-134065908D01*
X120907483Y-134065908D01*
X120847883Y-134059501D01*
X120847881Y-134059500D01*
X120847873Y-134059500D01*
X120847864Y-134059500D01*
X119652129Y-134059500D01*
X119652123Y-134059501D01*
X119592516Y-134065908D01*
X119457671Y-134116202D01*
X119457664Y-134116206D01*
X119342455Y-134202452D01*
X119342452Y-134202455D01*
X119256206Y-134317664D01*
X119256202Y-134317671D01*
X119205910Y-134452513D01*
X119205909Y-134452517D01*
X119203087Y-134478758D01*
X119176351Y-134543306D01*
X119118959Y-134583154D01*
X119079799Y-134589500D01*
X115340047Y-134589500D01*
X115273008Y-134569815D01*
X115252366Y-134553181D01*
X115197213Y-134498028D01*
X115031611Y-134377713D01*
X114938369Y-134330203D01*
X114887574Y-134282229D01*
X114870779Y-134214407D01*
X114893317Y-134148273D01*
X114938371Y-134109234D01*
X115031347Y-134061861D01*
X115196894Y-133941582D01*
X115196895Y-133941582D01*
X115341582Y-133796895D01*
X115341582Y-133796894D01*
X115461859Y-133631349D01*
X115524187Y-133509023D01*
X119704528Y-133509023D01*
X119846233Y-133584766D01*
X120044165Y-133644808D01*
X120250000Y-133665080D01*
X120455834Y-133644808D01*
X120653764Y-133584766D01*
X120795470Y-133509022D01*
X120250001Y-132963553D01*
X120250000Y-132963553D01*
X119704528Y-133509023D01*
X115524187Y-133509023D01*
X115554755Y-133449029D01*
X115617990Y-133254413D01*
X115626609Y-133200000D01*
X114583012Y-133200000D01*
X114615925Y-133142993D01*
X114650000Y-133015826D01*
X114650000Y-132884174D01*
X114615925Y-132757007D01*
X114583012Y-132700000D01*
X115626609Y-132700000D01*
X115617990Y-132645586D01*
X115606427Y-132610000D01*
X119194919Y-132610000D01*
X119215191Y-132815834D01*
X119275233Y-133013766D01*
X119350975Y-133155469D01*
X119350976Y-133155469D01*
X119896447Y-132610000D01*
X119850369Y-132563922D01*
X119900000Y-132563922D01*
X119900000Y-132656078D01*
X119923852Y-132745095D01*
X119969930Y-132824905D01*
X120035095Y-132890070D01*
X120114905Y-132936148D01*
X120203922Y-132960000D01*
X120296078Y-132960000D01*
X120385095Y-132936148D01*
X120464905Y-132890070D01*
X120530070Y-132824905D01*
X120576148Y-132745095D01*
X120600000Y-132656078D01*
X120600000Y-132609999D01*
X120603553Y-132609999D01*
X120603553Y-132610000D01*
X121149022Y-133155469D01*
X121224766Y-133013764D01*
X121284808Y-132815834D01*
X121305080Y-132610000D01*
X121284808Y-132404165D01*
X121224766Y-132206233D01*
X121149023Y-132064528D01*
X120603553Y-132609999D01*
X120600000Y-132609999D01*
X120600000Y-132563922D01*
X120576148Y-132474905D01*
X120530070Y-132395095D01*
X120464905Y-132329930D01*
X120385095Y-132283852D01*
X120296078Y-132260000D01*
X120203922Y-132260000D01*
X120114905Y-132283852D01*
X120035095Y-132329930D01*
X119969930Y-132395095D01*
X119923852Y-132474905D01*
X119900000Y-132563922D01*
X119850369Y-132563922D01*
X119350976Y-132064529D01*
X119350975Y-132064529D01*
X119275234Y-132206234D01*
X119215191Y-132404166D01*
X119194919Y-132610000D01*
X115606427Y-132610000D01*
X115554755Y-132450970D01*
X115461859Y-132268650D01*
X115341582Y-132103105D01*
X115341582Y-132103104D01*
X115196895Y-131958417D01*
X115031349Y-131838140D01*
X114938370Y-131790765D01*
X114887574Y-131742790D01*
X114879695Y-131710975D01*
X119704529Y-131710975D01*
X119704529Y-131710976D01*
X120250000Y-132256447D01*
X120250001Y-132256447D01*
X120795469Y-131710976D01*
X120795469Y-131710975D01*
X120653766Y-131635233D01*
X120455834Y-131575191D01*
X120250000Y-131554919D01*
X120044166Y-131575191D01*
X119846234Y-131635234D01*
X119704529Y-131710975D01*
X114879695Y-131710975D01*
X114870779Y-131674969D01*
X114893316Y-131608835D01*
X114938370Y-131569795D01*
X114938920Y-131569515D01*
X115031610Y-131522287D01*
X115052770Y-131506913D01*
X115197213Y-131401971D01*
X115197215Y-131401968D01*
X115197219Y-131401966D01*
X115341966Y-131257219D01*
X115411425Y-131161615D01*
X115466755Y-131118949D01*
X115511744Y-131110500D01*
X122642060Y-131110500D01*
X122709099Y-131130185D01*
G37*
%TD.AperFunction*%
%TA.AperFunction,Conductor*%
G36*
X147942539Y-61920185D02*
G01*
X147988294Y-61972989D01*
X147999500Y-62024500D01*
X147999500Y-220875500D01*
X147979815Y-220942539D01*
X147927011Y-220988294D01*
X147875500Y-220999500D01*
X60124500Y-220999500D01*
X60057461Y-220979815D01*
X60011706Y-220927011D01*
X60000500Y-220875500D01*
X60000500Y-214135258D01*
X65499500Y-214135258D01*
X65499500Y-214364741D01*
X65521106Y-214528844D01*
X65529452Y-214592238D01*
X65553906Y-214683501D01*
X65588842Y-214813887D01*
X65676650Y-215025876D01*
X65676657Y-215025890D01*
X65791392Y-215224617D01*
X65931081Y-215406661D01*
X65931089Y-215406670D01*
X66093330Y-215568911D01*
X66093338Y-215568918D01*
X66275382Y-215708607D01*
X66275385Y-215708608D01*
X66275388Y-215708611D01*
X66474112Y-215823344D01*
X66474117Y-215823346D01*
X66474123Y-215823349D01*
X66565480Y-215861190D01*
X66686113Y-215911158D01*
X66907762Y-215970548D01*
X67135266Y-216000500D01*
X67135273Y-216000500D01*
X67364727Y-216000500D01*
X67364734Y-216000500D01*
X67592238Y-215970548D01*
X67813887Y-215911158D01*
X68025888Y-215823344D01*
X68224612Y-215708611D01*
X68406661Y-215568919D01*
X68406665Y-215568914D01*
X68406670Y-215568911D01*
X68568911Y-215406670D01*
X68568914Y-215406665D01*
X68568919Y-215406661D01*
X68708611Y-215224612D01*
X68823344Y-215025888D01*
X68911158Y-214813887D01*
X68970548Y-214592238D01*
X68985702Y-214477135D01*
X78944500Y-214477135D01*
X78944500Y-216522870D01*
X78944501Y-216522876D01*
X78950908Y-216582483D01*
X79001202Y-216717328D01*
X79001206Y-216717335D01*
X79087452Y-216832544D01*
X79087455Y-216832547D01*
X79202664Y-216918793D01*
X79202671Y-216918797D01*
X79337517Y-216969091D01*
X79337516Y-216969091D01*
X79344444Y-216969835D01*
X79397127Y-216975500D01*
X81442872Y-216975499D01*
X81502483Y-216969091D01*
X81637331Y-216918796D01*
X81752546Y-216832546D01*
X81838796Y-216717331D01*
X81889091Y-216582483D01*
X81895500Y-216522873D01*
X81895499Y-215499994D01*
X84019443Y-215499994D01*
X84019443Y-215500005D01*
X84039634Y-215743683D01*
X84039636Y-215743695D01*
X84099663Y-215980734D01*
X84197888Y-216204666D01*
X84331632Y-216409378D01*
X84497242Y-216589277D01*
X84497252Y-216589286D01*
X84690208Y-216739470D01*
X84690212Y-216739473D01*
X84862197Y-216832547D01*
X84905267Y-216855855D01*
X84905270Y-216855856D01*
X85136541Y-216935251D01*
X85136543Y-216935251D01*
X85136545Y-216935252D01*
X85377737Y-216975500D01*
X85377738Y-216975500D01*
X85622262Y-216975500D01*
X85622263Y-216975500D01*
X85863455Y-216935252D01*
X86094733Y-216855855D01*
X86309788Y-216739473D01*
X86502754Y-216589281D01*
X86668368Y-216409377D01*
X86802111Y-216204667D01*
X86900336Y-215980736D01*
X86960364Y-215743692D01*
X86962548Y-215717335D01*
X86980557Y-215500005D01*
X86980557Y-215499994D01*
X86960365Y-215256316D01*
X86959519Y-215251244D01*
X86960796Y-215251030D01*
X86963189Y-215187293D01*
X86993087Y-215138989D01*
X87171789Y-214960289D01*
X87259394Y-214829179D01*
X87319737Y-214683497D01*
X87350500Y-214528842D01*
X87350500Y-213477135D01*
X91739500Y-213477135D01*
X91739500Y-215522870D01*
X91739501Y-215522876D01*
X91745908Y-215582483D01*
X91796202Y-215717328D01*
X91796206Y-215717335D01*
X91882452Y-215832544D01*
X91882455Y-215832547D01*
X91997664Y-215918793D01*
X91997671Y-215918797D01*
X92132517Y-215969091D01*
X92132516Y-215969091D01*
X92139444Y-215969835D01*
X92192127Y-215975500D01*
X94237872Y-215975499D01*
X94297483Y-215969091D01*
X94432331Y-215918796D01*
X94547546Y-215832546D01*
X94633796Y-215717331D01*
X94684091Y-215582483D01*
X94690500Y-215522873D01*
X94690499Y-214499994D01*
X96734443Y-214499994D01*
X96734443Y-214500005D01*
X96754634Y-214743683D01*
X96754636Y-214743695D01*
X96814663Y-214980734D01*
X96912888Y-215204666D01*
X97046632Y-215409378D01*
X97212242Y-215589277D01*
X97212252Y-215589286D01*
X97405208Y-215739470D01*
X97405212Y-215739473D01*
X97577197Y-215832547D01*
X97620267Y-215855855D01*
X97620270Y-215855856D01*
X97851541Y-215935251D01*
X97851543Y-215935251D01*
X97851545Y-215935252D01*
X98092737Y-215975500D01*
X98092738Y-215975500D01*
X98337262Y-215975500D01*
X98337263Y-215975500D01*
X98578455Y-215935252D01*
X98809733Y-215855855D01*
X99024788Y-215739473D01*
X99217754Y-215589281D01*
X99383368Y-215409377D01*
X99517111Y-215204667D01*
X99615336Y-214980736D01*
X99675364Y-214743692D01*
X99695557Y-214500000D01*
X99695557Y-214499994D01*
X101734443Y-214499994D01*
X101734443Y-214500005D01*
X101754634Y-214743683D01*
X101754636Y-214743695D01*
X101814663Y-214980734D01*
X101912888Y-215204666D01*
X102046632Y-215409378D01*
X102212242Y-215589277D01*
X102212252Y-215589286D01*
X102405208Y-215739470D01*
X102405212Y-215739473D01*
X102577197Y-215832547D01*
X102620267Y-215855855D01*
X102620270Y-215855856D01*
X102851541Y-215935251D01*
X102851543Y-215935251D01*
X102851545Y-215935252D01*
X103092737Y-215975500D01*
X103092738Y-215975500D01*
X103337262Y-215975500D01*
X103337263Y-215975500D01*
X103578455Y-215935252D01*
X103809733Y-215855855D01*
X104024788Y-215739473D01*
X104217754Y-215589281D01*
X104383368Y-215409377D01*
X104517111Y-215204667D01*
X104615336Y-214980736D01*
X104675364Y-214743692D01*
X104695557Y-214500000D01*
X104695557Y-214499994D01*
X106734443Y-214499994D01*
X106734443Y-214500005D01*
X106754634Y-214743683D01*
X106754636Y-214743695D01*
X106814663Y-214980734D01*
X106912888Y-215204666D01*
X107046632Y-215409378D01*
X107212242Y-215589277D01*
X107212252Y-215589286D01*
X107405208Y-215739470D01*
X107405212Y-215739473D01*
X107577197Y-215832547D01*
X107620267Y-215855855D01*
X107620270Y-215855856D01*
X107851541Y-215935251D01*
X107851543Y-215935251D01*
X107851545Y-215935252D01*
X108092737Y-215975500D01*
X108092738Y-215975500D01*
X108337262Y-215975500D01*
X108337263Y-215975500D01*
X108578455Y-215935252D01*
X108809733Y-215855855D01*
X109024788Y-215739473D01*
X109217754Y-215589281D01*
X109383368Y-215409377D01*
X109517111Y-215204667D01*
X109615336Y-214980736D01*
X109675364Y-214743692D01*
X109695557Y-214500000D01*
X109695557Y-214499994D01*
X111734443Y-214499994D01*
X111734443Y-214500005D01*
X111754634Y-214743683D01*
X111754636Y-214743695D01*
X111814663Y-214980734D01*
X111912888Y-215204666D01*
X112046632Y-215409378D01*
X112212242Y-215589277D01*
X112212252Y-215589286D01*
X112405208Y-215739470D01*
X112405212Y-215739473D01*
X112577197Y-215832547D01*
X112620267Y-215855855D01*
X112620270Y-215855856D01*
X112851541Y-215935251D01*
X112851543Y-215935251D01*
X112851545Y-215935252D01*
X113092737Y-215975500D01*
X113092738Y-215975500D01*
X113337262Y-215975500D01*
X113337263Y-215975500D01*
X113578455Y-215935252D01*
X113809733Y-215855855D01*
X114024788Y-215739473D01*
X114217754Y-215589281D01*
X114383368Y-215409377D01*
X114517111Y-215204667D01*
X114615336Y-214980736D01*
X114675364Y-214743692D01*
X114695557Y-214500000D01*
X114693662Y-214477135D01*
X114675365Y-214256316D01*
X114675363Y-214256304D01*
X114626854Y-214064748D01*
X114615336Y-214019264D01*
X114517111Y-213795333D01*
X114383367Y-213590621D01*
X114278895Y-213477135D01*
X120024500Y-213477135D01*
X120024500Y-215522870D01*
X120024501Y-215522876D01*
X120030908Y-215582483D01*
X120081202Y-215717328D01*
X120081206Y-215717335D01*
X120167452Y-215832544D01*
X120167455Y-215832547D01*
X120282664Y-215918793D01*
X120282671Y-215918797D01*
X120417517Y-215969091D01*
X120417516Y-215969091D01*
X120424444Y-215969835D01*
X120477127Y-215975500D01*
X122522872Y-215975499D01*
X122582483Y-215969091D01*
X122717331Y-215918796D01*
X122832546Y-215832546D01*
X122918796Y-215717331D01*
X122969091Y-215582483D01*
X122975500Y-215522873D01*
X122975499Y-214499994D01*
X125019443Y-214499994D01*
X125019443Y-214500005D01*
X125039634Y-214743683D01*
X125039636Y-214743695D01*
X125099663Y-214980734D01*
X125197888Y-215204666D01*
X125331632Y-215409378D01*
X125497242Y-215589277D01*
X125497252Y-215589286D01*
X125690208Y-215739470D01*
X125690212Y-215739473D01*
X125862197Y-215832547D01*
X125905267Y-215855855D01*
X125905270Y-215855856D01*
X126136541Y-215935251D01*
X126136543Y-215935251D01*
X126136545Y-215935252D01*
X126377737Y-215975500D01*
X126377738Y-215975500D01*
X126622262Y-215975500D01*
X126622263Y-215975500D01*
X126863455Y-215935252D01*
X127094733Y-215855855D01*
X127309788Y-215739473D01*
X127502754Y-215589281D01*
X127668368Y-215409377D01*
X127802111Y-215204667D01*
X127900336Y-214980736D01*
X127960364Y-214743692D01*
X127980557Y-214500000D01*
X127980557Y-214499994D01*
X130019443Y-214499994D01*
X130019443Y-214500005D01*
X130039634Y-214743683D01*
X130039636Y-214743695D01*
X130099663Y-214980734D01*
X130197888Y-215204666D01*
X130331632Y-215409378D01*
X130497242Y-215589277D01*
X130497252Y-215589286D01*
X130690208Y-215739470D01*
X130690212Y-215739473D01*
X130862197Y-215832547D01*
X130905267Y-215855855D01*
X130905270Y-215855856D01*
X131136541Y-215935251D01*
X131136543Y-215935251D01*
X131136545Y-215935252D01*
X131377737Y-215975500D01*
X131377738Y-215975500D01*
X131622262Y-215975500D01*
X131622263Y-215975500D01*
X131863455Y-215935252D01*
X132094733Y-215855855D01*
X132309788Y-215739473D01*
X132502754Y-215589281D01*
X132668368Y-215409377D01*
X132802111Y-215204667D01*
X132900336Y-214980736D01*
X132960364Y-214743692D01*
X132980557Y-214500000D01*
X132980557Y-214499994D01*
X135019443Y-214499994D01*
X135019443Y-214500005D01*
X135039634Y-214743683D01*
X135039636Y-214743695D01*
X135099663Y-214980734D01*
X135197888Y-215204666D01*
X135331632Y-215409378D01*
X135497242Y-215589277D01*
X135497252Y-215589286D01*
X135690208Y-215739470D01*
X135690212Y-215739473D01*
X135862197Y-215832547D01*
X135905267Y-215855855D01*
X135905270Y-215855856D01*
X136136541Y-215935251D01*
X136136543Y-215935251D01*
X136136545Y-215935252D01*
X136377737Y-215975500D01*
X136377738Y-215975500D01*
X136622262Y-215975500D01*
X136622263Y-215975500D01*
X136863455Y-215935252D01*
X137094733Y-215855855D01*
X137309788Y-215739473D01*
X137502754Y-215589281D01*
X137668368Y-215409377D01*
X137802111Y-215204667D01*
X137900336Y-214980736D01*
X137960364Y-214743692D01*
X137980557Y-214500000D01*
X137980557Y-214499994D01*
X140019443Y-214499994D01*
X140019443Y-214500005D01*
X140039634Y-214743683D01*
X140039636Y-214743695D01*
X140099663Y-214980734D01*
X140197888Y-215204666D01*
X140331632Y-215409378D01*
X140497242Y-215589277D01*
X140497252Y-215589286D01*
X140690208Y-215739470D01*
X140690212Y-215739473D01*
X140862197Y-215832547D01*
X140905267Y-215855855D01*
X140905270Y-215855856D01*
X141136541Y-215935251D01*
X141136543Y-215935251D01*
X141136545Y-215935252D01*
X141377737Y-215975500D01*
X141377738Y-215975500D01*
X141622262Y-215975500D01*
X141622263Y-215975500D01*
X141863455Y-215935252D01*
X142094733Y-215855855D01*
X142309788Y-215739473D01*
X142502754Y-215589281D01*
X142668368Y-215409377D01*
X142802111Y-215204667D01*
X142900336Y-214980736D01*
X142960364Y-214743692D01*
X142980557Y-214500000D01*
X142978662Y-214477135D01*
X142960365Y-214256316D01*
X142960363Y-214256304D01*
X142911854Y-214064748D01*
X142900336Y-214019264D01*
X142802111Y-213795333D01*
X142668367Y-213590621D01*
X142502757Y-213410722D01*
X142502747Y-213410713D01*
X142309791Y-213260529D01*
X142309787Y-213260526D01*
X142094734Y-213144145D01*
X142094729Y-213144143D01*
X141863458Y-213064748D01*
X141660664Y-213030908D01*
X141622263Y-213024500D01*
X141377737Y-213024500D01*
X141339336Y-213030908D01*
X141136541Y-213064748D01*
X140905270Y-213144143D01*
X140905265Y-213144145D01*
X140690212Y-213260526D01*
X140690208Y-213260529D01*
X140497252Y-213410713D01*
X140497242Y-213410722D01*
X140331632Y-213590621D01*
X140197888Y-213795333D01*
X140099663Y-214019265D01*
X140039636Y-214256304D01*
X140039634Y-214256316D01*
X140019443Y-214499994D01*
X137980557Y-214499994D01*
X137978662Y-214477135D01*
X137960365Y-214256316D01*
X137960363Y-214256304D01*
X137911854Y-214064748D01*
X137900336Y-214019264D01*
X137802111Y-213795333D01*
X137668367Y-213590621D01*
X137502757Y-213410722D01*
X137502747Y-213410713D01*
X137309791Y-213260529D01*
X137309787Y-213260526D01*
X137094734Y-213144145D01*
X137094729Y-213144143D01*
X136863458Y-213064748D01*
X136660664Y-213030908D01*
X136622263Y-213024500D01*
X136377737Y-213024500D01*
X136339336Y-213030908D01*
X136136541Y-213064748D01*
X135905270Y-213144143D01*
X135905265Y-213144145D01*
X135690212Y-213260526D01*
X135690208Y-213260529D01*
X135497252Y-213410713D01*
X135497242Y-213410722D01*
X135331632Y-213590621D01*
X135197888Y-213795333D01*
X135099663Y-214019265D01*
X135039636Y-214256304D01*
X135039634Y-214256316D01*
X135019443Y-214499994D01*
X132980557Y-214499994D01*
X132978662Y-214477135D01*
X132960365Y-214256316D01*
X132960363Y-214256304D01*
X132911854Y-214064748D01*
X132900336Y-214019264D01*
X132802111Y-213795333D01*
X132668367Y-213590621D01*
X132502757Y-213410722D01*
X132502747Y-213410713D01*
X132309791Y-213260529D01*
X132309787Y-213260526D01*
X132094734Y-213144145D01*
X132094729Y-213144143D01*
X131863458Y-213064748D01*
X131660664Y-213030908D01*
X131622263Y-213024500D01*
X131377737Y-213024500D01*
X131339336Y-213030908D01*
X131136541Y-213064748D01*
X130905270Y-213144143D01*
X130905265Y-213144145D01*
X130690212Y-213260526D01*
X130690208Y-213260529D01*
X130497252Y-213410713D01*
X130497242Y-213410722D01*
X130331632Y-213590621D01*
X130197888Y-213795333D01*
X130099663Y-214019265D01*
X130039636Y-214256304D01*
X130039634Y-214256316D01*
X130019443Y-214499994D01*
X127980557Y-214499994D01*
X127978662Y-214477135D01*
X127960365Y-214256316D01*
X127960363Y-214256304D01*
X127911854Y-214064748D01*
X127900336Y-214019264D01*
X127802111Y-213795333D01*
X127668367Y-213590621D01*
X127502757Y-213410722D01*
X127502747Y-213410713D01*
X127309791Y-213260529D01*
X127309787Y-213260526D01*
X127094734Y-213144145D01*
X127094729Y-213144143D01*
X126863458Y-213064748D01*
X126660664Y-213030908D01*
X126622263Y-213024500D01*
X126377737Y-213024500D01*
X126339336Y-213030908D01*
X126136541Y-213064748D01*
X125905270Y-213144143D01*
X125905265Y-213144145D01*
X125690212Y-213260526D01*
X125690208Y-213260529D01*
X125497252Y-213410713D01*
X125497242Y-213410722D01*
X125331632Y-213590621D01*
X125197888Y-213795333D01*
X125099663Y-214019265D01*
X125039636Y-214256304D01*
X125039634Y-214256316D01*
X125019443Y-214499994D01*
X122975499Y-214499994D01*
X122975499Y-213477128D01*
X122969091Y-213417517D01*
X122966553Y-213410713D01*
X122918797Y-213282671D01*
X122918793Y-213282664D01*
X122832547Y-213167455D01*
X122832544Y-213167452D01*
X122717335Y-213081206D01*
X122717328Y-213081202D01*
X122582482Y-213030908D01*
X122582483Y-213030908D01*
X122522883Y-213024501D01*
X122522881Y-213024500D01*
X122522873Y-213024500D01*
X122522864Y-213024500D01*
X120477129Y-213024500D01*
X120477123Y-213024501D01*
X120417516Y-213030908D01*
X120282671Y-213081202D01*
X120282664Y-213081206D01*
X120167455Y-213167452D01*
X120167452Y-213167455D01*
X120081206Y-213282664D01*
X120081202Y-213282671D01*
X120030908Y-213417517D01*
X120024824Y-213474109D01*
X120024501Y-213477123D01*
X120024500Y-213477135D01*
X114278895Y-213477135D01*
X114217757Y-213410722D01*
X114217747Y-213410713D01*
X114024791Y-213260529D01*
X114024787Y-213260526D01*
X113809734Y-213144145D01*
X113809729Y-213144143D01*
X113578458Y-213064748D01*
X113375664Y-213030908D01*
X113337263Y-213024500D01*
X113092737Y-213024500D01*
X113054336Y-213030908D01*
X112851541Y-213064748D01*
X112620270Y-213144143D01*
X112620265Y-213144145D01*
X112405212Y-213260526D01*
X112405208Y-213260529D01*
X112212252Y-213410713D01*
X112212242Y-213410722D01*
X112046632Y-213590621D01*
X111912888Y-213795333D01*
X111814663Y-214019265D01*
X111754636Y-214256304D01*
X111754634Y-214256316D01*
X111734443Y-214499994D01*
X109695557Y-214499994D01*
X109693662Y-214477135D01*
X109675365Y-214256316D01*
X109675363Y-214256304D01*
X109626854Y-214064748D01*
X109615336Y-214019264D01*
X109517111Y-213795333D01*
X109383367Y-213590621D01*
X109217757Y-213410722D01*
X109217747Y-213410713D01*
X109024791Y-213260529D01*
X109024787Y-213260526D01*
X108809734Y-213144145D01*
X108809729Y-213144143D01*
X108578458Y-213064748D01*
X108375664Y-213030908D01*
X108337263Y-213024500D01*
X108092737Y-213024500D01*
X108054336Y-213030908D01*
X107851541Y-213064748D01*
X107620270Y-213144143D01*
X107620265Y-213144145D01*
X107405212Y-213260526D01*
X107405208Y-213260529D01*
X107212252Y-213410713D01*
X107212242Y-213410722D01*
X107046632Y-213590621D01*
X106912888Y-213795333D01*
X106814663Y-214019265D01*
X106754636Y-214256304D01*
X106754634Y-214256316D01*
X106734443Y-214499994D01*
X104695557Y-214499994D01*
X104693662Y-214477135D01*
X104675365Y-214256316D01*
X104675363Y-214256304D01*
X104626854Y-214064748D01*
X104615336Y-214019264D01*
X104517111Y-213795333D01*
X104383367Y-213590621D01*
X104217757Y-213410722D01*
X104217747Y-213410713D01*
X104024791Y-213260529D01*
X104024787Y-213260526D01*
X103809734Y-213144145D01*
X103809729Y-213144143D01*
X103578458Y-213064748D01*
X103375664Y-213030908D01*
X103337263Y-213024500D01*
X103092737Y-213024500D01*
X103054336Y-213030908D01*
X102851541Y-213064748D01*
X102620270Y-213144143D01*
X102620265Y-213144145D01*
X102405212Y-213260526D01*
X102405208Y-213260529D01*
X102212252Y-213410713D01*
X102212242Y-213410722D01*
X102046632Y-213590621D01*
X101912888Y-213795333D01*
X101814663Y-214019265D01*
X101754636Y-214256304D01*
X101754634Y-214256316D01*
X101734443Y-214499994D01*
X99695557Y-214499994D01*
X99693662Y-214477135D01*
X99675365Y-214256316D01*
X99675363Y-214256304D01*
X99626854Y-214064748D01*
X99615336Y-214019264D01*
X99517111Y-213795333D01*
X99383367Y-213590621D01*
X99217757Y-213410722D01*
X99217747Y-213410713D01*
X99024791Y-213260529D01*
X99024787Y-213260526D01*
X98809734Y-213144145D01*
X98809729Y-213144143D01*
X98578458Y-213064748D01*
X98375664Y-213030908D01*
X98337263Y-213024500D01*
X98092737Y-213024500D01*
X98054336Y-213030908D01*
X97851541Y-213064748D01*
X97620270Y-213144143D01*
X97620265Y-213144145D01*
X97405212Y-213260526D01*
X97405208Y-213260529D01*
X97212252Y-213410713D01*
X97212242Y-213410722D01*
X97046632Y-213590621D01*
X96912888Y-213795333D01*
X96814663Y-214019265D01*
X96754636Y-214256304D01*
X96754634Y-214256316D01*
X96734443Y-214499994D01*
X94690499Y-214499994D01*
X94690499Y-213477128D01*
X94684091Y-213417517D01*
X94681553Y-213410713D01*
X94633797Y-213282671D01*
X94633793Y-213282664D01*
X94547547Y-213167455D01*
X94547544Y-213167452D01*
X94432335Y-213081206D01*
X94432328Y-213081202D01*
X94297482Y-213030908D01*
X94297483Y-213030908D01*
X94237883Y-213024501D01*
X94237881Y-213024500D01*
X94237873Y-213024500D01*
X94237864Y-213024500D01*
X92192129Y-213024500D01*
X92192123Y-213024501D01*
X92132516Y-213030908D01*
X91997671Y-213081202D01*
X91997664Y-213081206D01*
X91882455Y-213167452D01*
X91882452Y-213167455D01*
X91796206Y-213282664D01*
X91796202Y-213282671D01*
X91745908Y-213417517D01*
X91739824Y-213474109D01*
X91739501Y-213477123D01*
X91739500Y-213477135D01*
X87350500Y-213477135D01*
X87350500Y-202485327D01*
X87370185Y-202418288D01*
X87409710Y-202379599D01*
X87508399Y-202319123D01*
X87702956Y-202152956D01*
X87869123Y-201958399D01*
X88002809Y-201740243D01*
X88100722Y-201503860D01*
X88160452Y-201255070D01*
X88180526Y-201000000D01*
X88160452Y-200744930D01*
X88100722Y-200496140D01*
X88054052Y-200383468D01*
X88002811Y-200259760D01*
X88002809Y-200259757D01*
X87956072Y-200183489D01*
X87869123Y-200041601D01*
X87869122Y-200041600D01*
X87869121Y-200041598D01*
X87809319Y-199971579D01*
X87702956Y-199847044D01*
X87596591Y-199756200D01*
X87508401Y-199680878D01*
X87508396Y-199680875D01*
X87290242Y-199547190D01*
X87290239Y-199547188D01*
X87053864Y-199449279D01*
X87053860Y-199449278D01*
X86805070Y-199389548D01*
X86805067Y-199389547D01*
X86805064Y-199389547D01*
X86550000Y-199369474D01*
X86294935Y-199389547D01*
X86294931Y-199389547D01*
X86294930Y-199389548D01*
X86182385Y-199416568D01*
X86046135Y-199449279D01*
X85809760Y-199547188D01*
X85809757Y-199547190D01*
X85591603Y-199680875D01*
X85591598Y-199680878D01*
X85397044Y-199847044D01*
X85230878Y-200041598D01*
X85230875Y-200041603D01*
X85097190Y-200259757D01*
X85097188Y-200259760D01*
X84999279Y-200496135D01*
X84999278Y-200496140D01*
X84951701Y-200694312D01*
X84939547Y-200744935D01*
X84919474Y-201000000D01*
X84939547Y-201255064D01*
X84939547Y-201255067D01*
X84939548Y-201255070D01*
X84965743Y-201364179D01*
X84999279Y-201503864D01*
X85097188Y-201740239D01*
X85097190Y-201740242D01*
X85230875Y-201958396D01*
X85230878Y-201958401D01*
X85306200Y-202046591D01*
X85397044Y-202152956D01*
X85591601Y-202319123D01*
X85690290Y-202379599D01*
X85737165Y-202431411D01*
X85749500Y-202485327D01*
X85749500Y-213900500D01*
X85729815Y-213967539D01*
X85677011Y-214013294D01*
X85625500Y-214024500D01*
X85622263Y-214024500D01*
X85377737Y-214024500D01*
X85339336Y-214030908D01*
X85136541Y-214064748D01*
X84905270Y-214144143D01*
X84905265Y-214144145D01*
X84690212Y-214260526D01*
X84690208Y-214260529D01*
X84497252Y-214410713D01*
X84497242Y-214410722D01*
X84331632Y-214590621D01*
X84197888Y-214795333D01*
X84099663Y-215019265D01*
X84039636Y-215256304D01*
X84039634Y-215256316D01*
X84019443Y-215499994D01*
X81895499Y-215499994D01*
X81895499Y-214477128D01*
X81889091Y-214417517D01*
X81886553Y-214410713D01*
X81838797Y-214282671D01*
X81838793Y-214282664D01*
X81752547Y-214167455D01*
X81752544Y-214167452D01*
X81637335Y-214081206D01*
X81637328Y-214081202D01*
X81502482Y-214030908D01*
X81502483Y-214030908D01*
X81442883Y-214024501D01*
X81442881Y-214024500D01*
X81442873Y-214024500D01*
X81442864Y-214024500D01*
X79397129Y-214024500D01*
X79397123Y-214024501D01*
X79337516Y-214030908D01*
X79202671Y-214081202D01*
X79202664Y-214081206D01*
X79087455Y-214167452D01*
X79087452Y-214167455D01*
X79001206Y-214282664D01*
X79001202Y-214282671D01*
X78950908Y-214417517D01*
X78944501Y-214477116D01*
X78944501Y-214477123D01*
X78944500Y-214477135D01*
X68985702Y-214477135D01*
X69000500Y-214364734D01*
X69000500Y-214135266D01*
X68970548Y-213907762D01*
X68911158Y-213686113D01*
X68861190Y-213565480D01*
X68823349Y-213474123D01*
X68823346Y-213474117D01*
X68823344Y-213474112D01*
X68708611Y-213275388D01*
X68708608Y-213275385D01*
X68708607Y-213275382D01*
X68568918Y-213093338D01*
X68568911Y-213093330D01*
X68406670Y-212931089D01*
X68406661Y-212931081D01*
X68224617Y-212791392D01*
X68025890Y-212676657D01*
X68025876Y-212676650D01*
X67813887Y-212588842D01*
X67592238Y-212529452D01*
X67554215Y-212524446D01*
X67364741Y-212499500D01*
X67364734Y-212499500D01*
X67135266Y-212499500D01*
X67135258Y-212499500D01*
X66918715Y-212528009D01*
X66907762Y-212529452D01*
X66814076Y-212554554D01*
X66686112Y-212588842D01*
X66474123Y-212676650D01*
X66474109Y-212676657D01*
X66275382Y-212791392D01*
X66093338Y-212931081D01*
X65931081Y-213093338D01*
X65791392Y-213275382D01*
X65676657Y-213474109D01*
X65676650Y-213474123D01*
X65588842Y-213686112D01*
X65529453Y-213907759D01*
X65529451Y-213907770D01*
X65499500Y-214135258D01*
X60000500Y-214135258D01*
X60000500Y-201000000D01*
X62319474Y-201000000D01*
X62339547Y-201255064D01*
X62339547Y-201255067D01*
X62339548Y-201255070D01*
X62365743Y-201364179D01*
X62399279Y-201503864D01*
X62497188Y-201740239D01*
X62497190Y-201740242D01*
X62630875Y-201958396D01*
X62630878Y-201958401D01*
X62706200Y-202046591D01*
X62797044Y-202152956D01*
X62906740Y-202246645D01*
X62991598Y-202319121D01*
X62991600Y-202319122D01*
X62991601Y-202319123D01*
X63090289Y-202379599D01*
X63209757Y-202452809D01*
X63209760Y-202452811D01*
X63446135Y-202550720D01*
X63446140Y-202550722D01*
X63694930Y-202610452D01*
X63950000Y-202630526D01*
X64205070Y-202610452D01*
X64453860Y-202550722D01*
X64616175Y-202483489D01*
X64690239Y-202452811D01*
X64690240Y-202452810D01*
X64690243Y-202452809D01*
X64908399Y-202319123D01*
X65102956Y-202152956D01*
X65269123Y-201958399D01*
X65402809Y-201740243D01*
X65500722Y-201503860D01*
X65560452Y-201255070D01*
X65580526Y-201000000D01*
X65560452Y-200744930D01*
X65533430Y-200632379D01*
X65536920Y-200562600D01*
X65566321Y-200515755D01*
X76340510Y-189741566D01*
X76401831Y-189708083D01*
X76471523Y-189713067D01*
X76502499Y-189729982D01*
X76528672Y-189749575D01*
X76547668Y-189763795D01*
X76547671Y-189763797D01*
X76682517Y-189814091D01*
X76682516Y-189814091D01*
X76689444Y-189814835D01*
X76742127Y-189820500D01*
X78337872Y-189820499D01*
X78397483Y-189814091D01*
X78532331Y-189763796D01*
X78647546Y-189677546D01*
X78733796Y-189562331D01*
X78784091Y-189427483D01*
X78790500Y-189367873D01*
X78790499Y-187772128D01*
X78784091Y-187712517D01*
X78783301Y-187710400D01*
X78733797Y-187577671D01*
X78733793Y-187577664D01*
X78647547Y-187462455D01*
X78647544Y-187462452D01*
X78532335Y-187376206D01*
X78532328Y-187376202D01*
X78397482Y-187325908D01*
X78397483Y-187325908D01*
X78337883Y-187319501D01*
X78337881Y-187319500D01*
X78337873Y-187319500D01*
X78337864Y-187319500D01*
X76742129Y-187319500D01*
X76742123Y-187319501D01*
X76682516Y-187325908D01*
X76547671Y-187376202D01*
X76547664Y-187376206D01*
X76432455Y-187462452D01*
X76432452Y-187462455D01*
X76346206Y-187577664D01*
X76346202Y-187577671D01*
X76296698Y-187710400D01*
X76254827Y-187766334D01*
X76204707Y-187788684D01*
X76146510Y-187800260D01*
X76146502Y-187800262D01*
X76000824Y-187860604D01*
X76000814Y-187860609D01*
X75869711Y-187948210D01*
X75869707Y-187948213D01*
X64434245Y-199383675D01*
X64372922Y-199417160D01*
X64317617Y-199416568D01*
X64205066Y-199389547D01*
X63950000Y-199369474D01*
X63694935Y-199389547D01*
X63694931Y-199389547D01*
X63694930Y-199389548D01*
X63582385Y-199416568D01*
X63446135Y-199449279D01*
X63209760Y-199547188D01*
X63209757Y-199547190D01*
X62991603Y-199680875D01*
X62991598Y-199680878D01*
X62797044Y-199847044D01*
X62630878Y-200041598D01*
X62630875Y-200041603D01*
X62497190Y-200259757D01*
X62497188Y-200259760D01*
X62399279Y-200496135D01*
X62399278Y-200496140D01*
X62351701Y-200694312D01*
X62339547Y-200744935D01*
X62319474Y-201000000D01*
X60000500Y-201000000D01*
X60000500Y-188569997D01*
X63584723Y-188569997D01*
X63584723Y-188570002D01*
X63603793Y-188787975D01*
X63603793Y-188787979D01*
X63660422Y-188999322D01*
X63660424Y-188999326D01*
X63660425Y-188999330D01*
X63706661Y-189098484D01*
X63752897Y-189197638D01*
X63752898Y-189197639D01*
X63878402Y-189376877D01*
X64033123Y-189531598D01*
X64212361Y-189657102D01*
X64410670Y-189749575D01*
X64622023Y-189806207D01*
X64804926Y-189822208D01*
X64839998Y-189825277D01*
X64840000Y-189825277D01*
X64840002Y-189825277D01*
X64868254Y-189822805D01*
X65057977Y-189806207D01*
X65269330Y-189749575D01*
X65467639Y-189657102D01*
X65646877Y-189531598D01*
X65801598Y-189376877D01*
X65927102Y-189197639D01*
X66019575Y-188999330D01*
X66076207Y-188787977D01*
X66095277Y-188570000D01*
X66095277Y-188569997D01*
X71204723Y-188569997D01*
X71204723Y-188570002D01*
X71223793Y-188787975D01*
X71223793Y-188787979D01*
X71280422Y-188999322D01*
X71280424Y-188999326D01*
X71280425Y-188999330D01*
X71326661Y-189098484D01*
X71372897Y-189197638D01*
X71372898Y-189197639D01*
X71498402Y-189376877D01*
X71653123Y-189531598D01*
X71832361Y-189657102D01*
X72030670Y-189749575D01*
X72242023Y-189806207D01*
X72424926Y-189822208D01*
X72459998Y-189825277D01*
X72460000Y-189825277D01*
X72460002Y-189825277D01*
X72488254Y-189822805D01*
X72677977Y-189806207D01*
X72889330Y-189749575D01*
X73087639Y-189657102D01*
X73266877Y-189531598D01*
X73421598Y-189376877D01*
X73547102Y-189197639D01*
X73639575Y-188999330D01*
X73696207Y-188787977D01*
X73715277Y-188570000D01*
X73696207Y-188352023D01*
X73639575Y-188140670D01*
X73547102Y-187942362D01*
X73547100Y-187942359D01*
X73547099Y-187942357D01*
X73421599Y-187763124D01*
X73368875Y-187710400D01*
X73266877Y-187608402D01*
X73087639Y-187482898D01*
X73087640Y-187482898D01*
X73087638Y-187482897D01*
X72988484Y-187436661D01*
X72889330Y-187390425D01*
X72889326Y-187390424D01*
X72889322Y-187390422D01*
X72677977Y-187333793D01*
X72460002Y-187314723D01*
X72459998Y-187314723D01*
X72332151Y-187325908D01*
X72242023Y-187333793D01*
X72242020Y-187333793D01*
X72030677Y-187390422D01*
X72030668Y-187390426D01*
X71832361Y-187482898D01*
X71832357Y-187482900D01*
X71653121Y-187608402D01*
X71498402Y-187763121D01*
X71372900Y-187942357D01*
X71372898Y-187942361D01*
X71280426Y-188140668D01*
X71280422Y-188140677D01*
X71223793Y-188352020D01*
X71223793Y-188352024D01*
X71204723Y-188569997D01*
X66095277Y-188569997D01*
X66076207Y-188352023D01*
X66019575Y-188140670D01*
X65927102Y-187942362D01*
X65927100Y-187942359D01*
X65927099Y-187942357D01*
X65801599Y-187763124D01*
X65748875Y-187710400D01*
X65646877Y-187608402D01*
X65467639Y-187482898D01*
X65467640Y-187482898D01*
X65467638Y-187482897D01*
X65368484Y-187436661D01*
X65269330Y-187390425D01*
X65269326Y-187390424D01*
X65269322Y-187390422D01*
X65057977Y-187333793D01*
X64840002Y-187314723D01*
X64839998Y-187314723D01*
X64712151Y-187325908D01*
X64622023Y-187333793D01*
X64622020Y-187333793D01*
X64410677Y-187390422D01*
X64410668Y-187390426D01*
X64212361Y-187482898D01*
X64212357Y-187482900D01*
X64033121Y-187608402D01*
X63878402Y-187763121D01*
X63752900Y-187942357D01*
X63752898Y-187942361D01*
X63660426Y-188140668D01*
X63660422Y-188140677D01*
X63603793Y-188352020D01*
X63603793Y-188352024D01*
X63584723Y-188569997D01*
X60000500Y-188569997D01*
X60000500Y-168249999D01*
X63585225Y-168249999D01*
X63585225Y-168250000D01*
X63604287Y-168467884D01*
X63604289Y-168467894D01*
X63660894Y-168679150D01*
X63660898Y-168679159D01*
X63753333Y-168877387D01*
X63796874Y-168939571D01*
X64357037Y-168379408D01*
X64374075Y-168442993D01*
X64439901Y-168557007D01*
X64532993Y-168650099D01*
X64647007Y-168715925D01*
X64710590Y-168732962D01*
X64150427Y-169293124D01*
X64212612Y-169336666D01*
X64410840Y-169429101D01*
X64410849Y-169429105D01*
X64622105Y-169485710D01*
X64622115Y-169485712D01*
X64839999Y-169504775D01*
X64840001Y-169504775D01*
X65057884Y-169485712D01*
X65057894Y-169485710D01*
X65269150Y-169429105D01*
X65269164Y-169429100D01*
X65467383Y-169336669D01*
X65467385Y-169336668D01*
X65529571Y-169293124D01*
X64969410Y-168732962D01*
X65032993Y-168715925D01*
X65147007Y-168650099D01*
X65240099Y-168557007D01*
X65305925Y-168442993D01*
X65322962Y-168379409D01*
X65883124Y-168939570D01*
X65926668Y-168877385D01*
X65926669Y-168877383D01*
X66019100Y-168679164D01*
X66019105Y-168679150D01*
X66075710Y-168467894D01*
X66075712Y-168467884D01*
X66094775Y-168250000D01*
X66094775Y-168249999D01*
X66094775Y-168249997D01*
X73744723Y-168249997D01*
X73744723Y-168250002D01*
X73746450Y-168269737D01*
X73763500Y-168464632D01*
X73763793Y-168467975D01*
X73763793Y-168467979D01*
X73820422Y-168679322D01*
X73820424Y-168679326D01*
X73820425Y-168679330D01*
X73837490Y-168715925D01*
X73912897Y-168877638D01*
X73912898Y-168877639D01*
X74038402Y-169056877D01*
X74193123Y-169211598D01*
X74372361Y-169337102D01*
X74570670Y-169429575D01*
X74782023Y-169486207D01*
X74964926Y-169502208D01*
X74999998Y-169505277D01*
X75000000Y-169505277D01*
X75000002Y-169505277D01*
X75028254Y-169502805D01*
X75217977Y-169486207D01*
X75429330Y-169429575D01*
X75627639Y-169337102D01*
X75806877Y-169211598D01*
X75961598Y-169056877D01*
X76087102Y-168877639D01*
X76179575Y-168679330D01*
X76236207Y-168467977D01*
X76253550Y-168269737D01*
X76255277Y-168250002D01*
X76255277Y-168249997D01*
X76249052Y-168178846D01*
X76236207Y-168032023D01*
X76199879Y-167896446D01*
X76179577Y-167820677D01*
X76179576Y-167820676D01*
X76179575Y-167820670D01*
X76087102Y-167622362D01*
X76087100Y-167622359D01*
X76087099Y-167622357D01*
X75961599Y-167443124D01*
X75896284Y-167377809D01*
X75806877Y-167288402D01*
X75668978Y-167191844D01*
X75627638Y-167162897D01*
X75528484Y-167116661D01*
X75429330Y-167070425D01*
X75429326Y-167070424D01*
X75429322Y-167070422D01*
X75217977Y-167013793D01*
X75000002Y-166994723D01*
X74999998Y-166994723D01*
X74854682Y-167007436D01*
X74782023Y-167013793D01*
X74782020Y-167013793D01*
X74570677Y-167070422D01*
X74570668Y-167070426D01*
X74372361Y-167162898D01*
X74372357Y-167162900D01*
X74193121Y-167288402D01*
X74038402Y-167443121D01*
X73912900Y-167622357D01*
X73912898Y-167622361D01*
X73820426Y-167820668D01*
X73820422Y-167820677D01*
X73763793Y-168032020D01*
X73763793Y-168032024D01*
X73744723Y-168249997D01*
X66094775Y-168249997D01*
X66075712Y-168032115D01*
X66075710Y-168032105D01*
X66019105Y-167820849D01*
X66019101Y-167820840D01*
X65926667Y-167622614D01*
X65926666Y-167622612D01*
X65883124Y-167560428D01*
X65883124Y-167560427D01*
X65322962Y-168120589D01*
X65305925Y-168057007D01*
X65240099Y-167942993D01*
X65147007Y-167849901D01*
X65032993Y-167784075D01*
X64969409Y-167767037D01*
X65529571Y-167206874D01*
X65467387Y-167163333D01*
X65269159Y-167070898D01*
X65269150Y-167070894D01*
X65057894Y-167014289D01*
X65057884Y-167014287D01*
X64840001Y-166995225D01*
X64839999Y-166995225D01*
X64622115Y-167014287D01*
X64622105Y-167014289D01*
X64410849Y-167070894D01*
X64410840Y-167070898D01*
X64212613Y-167163333D01*
X64150428Y-167206874D01*
X64710591Y-167767037D01*
X64647007Y-167784075D01*
X64532993Y-167849901D01*
X64439901Y-167942993D01*
X64374075Y-168057007D01*
X64357037Y-168120591D01*
X63796874Y-167560428D01*
X63753333Y-167622613D01*
X63660898Y-167820840D01*
X63660894Y-167820849D01*
X63604289Y-168032105D01*
X63604287Y-168032115D01*
X63585225Y-168249999D01*
X60000500Y-168249999D01*
X60000500Y-82526647D01*
X61024500Y-82526647D01*
X61024500Y-83073337D01*
X61024501Y-83073355D01*
X61034650Y-83172707D01*
X61034651Y-83172710D01*
X61087996Y-83333694D01*
X61088001Y-83333705D01*
X61177029Y-83478040D01*
X61177032Y-83478044D01*
X61296955Y-83597967D01*
X61296959Y-83597970D01*
X61441294Y-83686998D01*
X61441297Y-83686999D01*
X61441303Y-83687003D01*
X61602292Y-83740349D01*
X61701655Y-83750500D01*
X62298344Y-83750499D01*
X62298352Y-83750498D01*
X62298355Y-83750498D01*
X62380106Y-83742147D01*
X62397708Y-83740349D01*
X62558697Y-83687003D01*
X62669008Y-83618961D01*
X62734105Y-83600500D01*
X63468060Y-83600500D01*
X63535099Y-83620185D01*
X63580854Y-83672989D01*
X63590798Y-83742147D01*
X63561773Y-83805703D01*
X63555741Y-83812181D01*
X61764711Y-85603211D01*
X61721434Y-85646488D01*
X61653209Y-85714712D01*
X61565609Y-85845814D01*
X61565602Y-85845827D01*
X61505264Y-85991498D01*
X61505261Y-85991510D01*
X61474500Y-86146153D01*
X61474500Y-147211613D01*
X61505261Y-147366256D01*
X61505264Y-147366268D01*
X61565602Y-147511939D01*
X61565609Y-147511952D01*
X61653210Y-147643055D01*
X61653213Y-147643059D01*
X78431940Y-164421786D01*
X78431944Y-164421789D01*
X78563047Y-164509390D01*
X78563060Y-164509397D01*
X78696592Y-164564707D01*
X78708736Y-164569737D01*
X78863386Y-164600499D01*
X78863389Y-164600500D01*
X78863391Y-164600500D01*
X79021075Y-164600500D01*
X91514673Y-164600500D01*
X91581712Y-164620185D01*
X91620398Y-164659707D01*
X91642533Y-164695827D01*
X91680879Y-164758402D01*
X91817930Y-164918868D01*
X91847044Y-164952956D01*
X91967309Y-165055672D01*
X92017845Y-165098834D01*
X92041601Y-165119123D01*
X92140290Y-165179599D01*
X92187165Y-165231411D01*
X92199500Y-165285327D01*
X92199500Y-168178846D01*
X92230261Y-168333489D01*
X92230264Y-168333501D01*
X92290602Y-168479172D01*
X92290609Y-168479185D01*
X92378210Y-168610288D01*
X92378213Y-168610292D01*
X95363181Y-171595259D01*
X95396666Y-171656582D01*
X95399500Y-171682940D01*
X95399500Y-172317059D01*
X95379815Y-172384098D01*
X95363181Y-172404740D01*
X94709741Y-173058181D01*
X94648418Y-173091666D01*
X94622060Y-173094500D01*
X93380169Y-173094500D01*
X93313130Y-173074815D01*
X93267375Y-173022011D01*
X93263987Y-173013833D01*
X93257630Y-172996790D01*
X93218796Y-172892669D01*
X93167622Y-172824310D01*
X93143206Y-172758847D01*
X93158057Y-172690574D01*
X93167623Y-172675689D01*
X93184804Y-172652738D01*
X93218796Y-172607331D01*
X93269091Y-172472483D01*
X93275500Y-172412873D01*
X93275499Y-170797128D01*
X93269091Y-170737517D01*
X93268675Y-170736402D01*
X93218797Y-170602671D01*
X93218793Y-170602664D01*
X93132547Y-170487455D01*
X93132544Y-170487452D01*
X93017335Y-170401206D01*
X93017328Y-170401202D01*
X92882482Y-170350908D01*
X92882483Y-170350908D01*
X92822883Y-170344501D01*
X92822881Y-170344500D01*
X92822873Y-170344500D01*
X92822864Y-170344500D01*
X89677129Y-170344500D01*
X89677123Y-170344501D01*
X89617516Y-170350908D01*
X89482671Y-170401202D01*
X89482664Y-170401206D01*
X89367455Y-170487452D01*
X89367452Y-170487455D01*
X89281206Y-170602664D01*
X89281202Y-170602671D01*
X89236013Y-170723833D01*
X89194142Y-170779766D01*
X89128678Y-170804184D01*
X89119831Y-170804500D01*
X88897940Y-170804500D01*
X88830901Y-170784815D01*
X88810259Y-170768181D01*
X86446251Y-168404173D01*
X86412766Y-168342850D01*
X86410404Y-168305689D01*
X86415277Y-168250000D01*
X86414379Y-168239740D01*
X86409052Y-168178846D01*
X86396207Y-168032023D01*
X86359879Y-167896446D01*
X86339577Y-167820677D01*
X86339576Y-167820676D01*
X86339575Y-167820670D01*
X86247102Y-167622362D01*
X86247100Y-167622359D01*
X86247099Y-167622357D01*
X86121599Y-167443124D01*
X86056284Y-167377809D01*
X85966877Y-167288402D01*
X85828978Y-167191844D01*
X85787638Y-167162897D01*
X85688484Y-167116661D01*
X85589330Y-167070425D01*
X85589326Y-167070424D01*
X85589322Y-167070422D01*
X85377977Y-167013793D01*
X85160002Y-166994723D01*
X85159998Y-166994723D01*
X85014682Y-167007436D01*
X84942023Y-167013793D01*
X84942020Y-167013793D01*
X84730677Y-167070422D01*
X84730668Y-167070426D01*
X84532361Y-167162898D01*
X84532357Y-167162900D01*
X84353121Y-167288402D01*
X84198402Y-167443121D01*
X84072900Y-167622357D01*
X84072898Y-167622361D01*
X83980426Y-167820668D01*
X83980422Y-167820677D01*
X83923793Y-168032020D01*
X83923793Y-168032024D01*
X83904723Y-168249997D01*
X83904723Y-168250002D01*
X83906450Y-168269737D01*
X83923500Y-168464632D01*
X83923793Y-168467975D01*
X83923793Y-168467979D01*
X83980422Y-168679322D01*
X83980424Y-168679326D01*
X83980425Y-168679330D01*
X83997490Y-168715925D01*
X84072897Y-168877638D01*
X84072898Y-168877639D01*
X84198402Y-169056877D01*
X84353123Y-169211598D01*
X84532361Y-169337102D01*
X84730670Y-169429575D01*
X84942023Y-169486207D01*
X85124926Y-169502208D01*
X85159998Y-169505277D01*
X85159999Y-169505277D01*
X85159999Y-169505276D01*
X85160000Y-169505277D01*
X85215685Y-169500404D01*
X85284182Y-169514169D01*
X85314173Y-169536251D01*
X88004707Y-172226786D01*
X88004711Y-172226789D01*
X88135814Y-172314390D01*
X88135818Y-172314392D01*
X88135821Y-172314394D01*
X88281503Y-172374738D01*
X88432337Y-172404740D01*
X88436153Y-172405499D01*
X88436157Y-172405500D01*
X88436158Y-172405500D01*
X89119831Y-172405500D01*
X89186870Y-172425185D01*
X89232625Y-172477989D01*
X89236010Y-172486162D01*
X89242718Y-172504144D01*
X89281202Y-172607328D01*
X89281203Y-172607330D01*
X89332377Y-172675689D01*
X89356794Y-172741153D01*
X89341943Y-172809426D01*
X89332378Y-172824309D01*
X89330928Y-172826246D01*
X89281203Y-172892669D01*
X89281202Y-172892671D01*
X89230908Y-173027517D01*
X89224501Y-173087116D01*
X89224500Y-173087135D01*
X89224500Y-174702870D01*
X89224501Y-174702876D01*
X89230908Y-174762483D01*
X89281202Y-174897328D01*
X89281206Y-174897335D01*
X89367452Y-175012544D01*
X89367455Y-175012547D01*
X89482664Y-175098793D01*
X89482671Y-175098797D01*
X89617517Y-175149091D01*
X89617516Y-175149091D01*
X89624444Y-175149835D01*
X89677127Y-175155500D01*
X92663060Y-175155499D01*
X92730099Y-175175184D01*
X92775854Y-175227988D01*
X92785798Y-175297146D01*
X92756773Y-175360702D01*
X92750741Y-175367180D01*
X92246136Y-175871786D01*
X91864711Y-176253211D01*
X91808960Y-176308962D01*
X91753209Y-176364712D01*
X91665609Y-176495814D01*
X91665602Y-176495827D01*
X91605264Y-176641498D01*
X91605261Y-176641510D01*
X91574500Y-176796153D01*
X91574500Y-193878846D01*
X91605261Y-194033489D01*
X91605264Y-194033501D01*
X91665602Y-194179172D01*
X91665609Y-194179185D01*
X91753210Y-194310288D01*
X91753213Y-194310292D01*
X92383675Y-194940753D01*
X92417160Y-195002076D01*
X92416568Y-195057380D01*
X92389547Y-195169930D01*
X92389547Y-195169933D01*
X92369474Y-195425000D01*
X92389547Y-195680064D01*
X92389547Y-195680067D01*
X92389548Y-195680070D01*
X92442176Y-195899278D01*
X92449279Y-195928864D01*
X92547188Y-196165239D01*
X92547190Y-196165242D01*
X92680875Y-196383396D01*
X92680878Y-196383401D01*
X92751935Y-196466598D01*
X92847044Y-196577956D01*
X93041601Y-196744123D01*
X93140290Y-196804599D01*
X93187165Y-196856411D01*
X93199500Y-196910327D01*
X93199500Y-200028846D01*
X93230261Y-200183489D01*
X93230264Y-200183501D01*
X93290602Y-200329172D01*
X93290609Y-200329185D01*
X93378210Y-200460288D01*
X93378213Y-200460292D01*
X96463181Y-203545259D01*
X96496666Y-203606582D01*
X96499500Y-203632940D01*
X96499500Y-204772870D01*
X96499501Y-204772876D01*
X96505908Y-204832483D01*
X96556202Y-204967328D01*
X96556206Y-204967335D01*
X96642452Y-205082544D01*
X96642455Y-205082547D01*
X96757664Y-205168793D01*
X96757671Y-205168797D01*
X96892517Y-205219091D01*
X96892516Y-205219091D01*
X96899444Y-205219835D01*
X96952127Y-205225500D01*
X98092059Y-205225499D01*
X98159098Y-205245184D01*
X98179740Y-205261818D01*
X99138211Y-206220289D01*
X99249708Y-206331786D01*
X99249712Y-206331790D01*
X99380814Y-206419390D01*
X99380827Y-206419397D01*
X99526498Y-206479735D01*
X99526503Y-206479737D01*
X99681153Y-206510499D01*
X99681156Y-206510500D01*
X99681158Y-206510500D01*
X108353844Y-206510500D01*
X108353845Y-206510499D01*
X108508497Y-206479737D01*
X108654179Y-206419394D01*
X108785289Y-206331789D01*
X110330259Y-204786819D01*
X110391582Y-204753334D01*
X110417940Y-204750500D01*
X115289236Y-204750500D01*
X115356275Y-204770185D01*
X115402030Y-204822989D01*
X115405418Y-204831167D01*
X115456202Y-204967328D01*
X115456206Y-204967335D01*
X115542452Y-205082544D01*
X115542455Y-205082547D01*
X115657664Y-205168793D01*
X115657671Y-205168797D01*
X115792517Y-205219091D01*
X115792516Y-205219091D01*
X115799444Y-205219835D01*
X115852127Y-205225500D01*
X116992059Y-205225499D01*
X117059098Y-205245184D01*
X117079740Y-205261818D01*
X118149707Y-206331786D01*
X118149711Y-206331789D01*
X118280814Y-206419390D01*
X118280827Y-206419397D01*
X118426498Y-206479735D01*
X118426503Y-206479737D01*
X118581153Y-206510499D01*
X118581156Y-206510500D01*
X118581158Y-206510500D01*
X127618844Y-206510500D01*
X127618845Y-206510499D01*
X127773497Y-206479737D01*
X127919179Y-206419394D01*
X128050289Y-206331789D01*
X129496789Y-204885289D01*
X129595259Y-204786819D01*
X129656582Y-204753334D01*
X129682940Y-204750500D01*
X133289236Y-204750500D01*
X133356275Y-204770185D01*
X133402030Y-204822989D01*
X133405418Y-204831167D01*
X133456202Y-204967328D01*
X133456206Y-204967335D01*
X133542452Y-205082544D01*
X133542455Y-205082547D01*
X133657664Y-205168793D01*
X133657671Y-205168797D01*
X133792517Y-205219091D01*
X133792516Y-205219091D01*
X133799444Y-205219835D01*
X133852127Y-205225500D01*
X135947872Y-205225499D01*
X136007483Y-205219091D01*
X136142331Y-205168796D01*
X136257546Y-205082546D01*
X136343796Y-204967331D01*
X136394091Y-204832483D01*
X136400500Y-204772873D01*
X136400499Y-204772845D01*
X136400678Y-204769547D01*
X136401831Y-204769608D01*
X136420152Y-204707107D01*
X136472934Y-204661327D01*
X136542088Y-204651351D01*
X136605657Y-204680345D01*
X136612180Y-204686416D01*
X136638349Y-204712585D01*
X136638355Y-204712590D01*
X137700139Y-205774374D01*
X137700149Y-205774385D01*
X137704479Y-205778715D01*
X137704480Y-205778716D01*
X137816284Y-205890520D01*
X137903095Y-205940639D01*
X137903097Y-205940641D01*
X137941151Y-205962611D01*
X137953215Y-205969577D01*
X138105943Y-206010500D01*
X143338331Y-206010500D01*
X143338347Y-206010501D01*
X143345943Y-206010501D01*
X143504054Y-206010501D01*
X143504057Y-206010501D01*
X143656785Y-205969577D01*
X143706904Y-205940639D01*
X143793716Y-205890520D01*
X143905520Y-205778716D01*
X143905521Y-205778714D01*
X143912590Y-205771645D01*
X143937420Y-205746816D01*
X143998743Y-205713332D01*
X144025099Y-205710499D01*
X144822871Y-205710499D01*
X144822872Y-205710499D01*
X144882483Y-205704091D01*
X145017331Y-205653796D01*
X145132546Y-205567546D01*
X145218796Y-205452331D01*
X145269091Y-205317483D01*
X145275500Y-205257873D01*
X145275499Y-204562128D01*
X145269091Y-204502517D01*
X145218796Y-204367669D01*
X145218795Y-204367668D01*
X145218793Y-204367664D01*
X145132547Y-204252455D01*
X145132544Y-204252452D01*
X145017335Y-204166206D01*
X145017328Y-204166202D01*
X144882482Y-204115908D01*
X144882483Y-204115908D01*
X144822883Y-204109501D01*
X144822881Y-204109500D01*
X144822873Y-204109500D01*
X144822864Y-204109500D01*
X143577129Y-204109500D01*
X143577123Y-204109501D01*
X143517516Y-204115908D01*
X143382671Y-204166202D01*
X143382668Y-204166204D01*
X143273810Y-204247695D01*
X143208345Y-204272112D01*
X143140072Y-204257260D01*
X143090667Y-204207855D01*
X143075499Y-204148431D01*
X143075499Y-203750945D01*
X143095184Y-203683907D01*
X143147988Y-203638152D01*
X143217146Y-203628208D01*
X143273811Y-203651680D01*
X143382910Y-203733352D01*
X143382913Y-203733354D01*
X143517620Y-203783596D01*
X143517627Y-203783598D01*
X143577155Y-203789999D01*
X143577172Y-203790000D01*
X143950000Y-203790000D01*
X144450000Y-203790000D01*
X144822828Y-203790000D01*
X144822844Y-203789999D01*
X144882372Y-203783598D01*
X144882379Y-203783596D01*
X145017086Y-203733354D01*
X145017093Y-203733350D01*
X145132187Y-203647190D01*
X145132190Y-203647187D01*
X145218350Y-203532093D01*
X145218354Y-203532086D01*
X145268596Y-203397379D01*
X145268598Y-203397372D01*
X145274999Y-203337844D01*
X145275000Y-203337827D01*
X145275000Y-203240000D01*
X144450000Y-203240000D01*
X144450000Y-203790000D01*
X143950000Y-203790000D01*
X143950000Y-203240000D01*
X143125000Y-203240000D01*
X143088681Y-203276319D01*
X143085432Y-203273070D01*
X143052511Y-203301597D01*
X142983353Y-203311541D01*
X142926688Y-203288069D01*
X142850188Y-203230800D01*
X142808318Y-203174866D01*
X142800500Y-203131534D01*
X142800500Y-202642155D01*
X143125000Y-202642155D01*
X143125000Y-202740000D01*
X143950000Y-202740000D01*
X144450000Y-202740000D01*
X145275000Y-202740000D01*
X145275000Y-202642172D01*
X145274999Y-202642155D01*
X145268598Y-202582627D01*
X145268596Y-202582620D01*
X145218354Y-202447913D01*
X145218350Y-202447906D01*
X145132190Y-202332812D01*
X145132187Y-202332809D01*
X145017093Y-202246649D01*
X145017086Y-202246645D01*
X144882379Y-202196403D01*
X144882372Y-202196401D01*
X144822844Y-202190000D01*
X144450000Y-202190000D01*
X144450000Y-202740000D01*
X143950000Y-202740000D01*
X143950000Y-202190000D01*
X143577155Y-202190000D01*
X143517627Y-202196401D01*
X143517620Y-202196403D01*
X143382913Y-202246645D01*
X143382906Y-202246649D01*
X143267812Y-202332809D01*
X143267809Y-202332812D01*
X143181649Y-202447906D01*
X143181645Y-202447913D01*
X143131403Y-202582620D01*
X143131401Y-202582627D01*
X143125000Y-202642155D01*
X142800500Y-202642155D01*
X142800500Y-197198967D01*
X142820185Y-197131928D01*
X142872989Y-197086173D01*
X142934226Y-197075349D01*
X143000000Y-197080526D01*
X143255070Y-197060452D01*
X143503860Y-197000722D01*
X143661738Y-196935327D01*
X143740239Y-196902811D01*
X143740240Y-196902810D01*
X143740243Y-196902809D01*
X143958399Y-196769123D01*
X144152956Y-196602956D01*
X144319123Y-196408399D01*
X144452809Y-196190243D01*
X144463165Y-196165243D01*
X144512628Y-196045827D01*
X144550722Y-195953860D01*
X144610452Y-195705070D01*
X144630526Y-195450000D01*
X144610452Y-195194930D01*
X144550722Y-194946140D01*
X144540365Y-194921135D01*
X144452811Y-194709760D01*
X144452809Y-194709757D01*
X144402683Y-194627959D01*
X144319123Y-194491601D01*
X144319122Y-194491600D01*
X144319121Y-194491598D01*
X144223143Y-194379223D01*
X144152956Y-194297044D01*
X144014954Y-194179179D01*
X143958401Y-194130878D01*
X143958396Y-194130875D01*
X143740242Y-193997190D01*
X143740239Y-193997188D01*
X143503864Y-193899279D01*
X143503860Y-193899278D01*
X143255070Y-193839548D01*
X143255067Y-193839547D01*
X143255064Y-193839547D01*
X143000000Y-193819474D01*
X142744935Y-193839547D01*
X142744931Y-193839547D01*
X142744930Y-193839548D01*
X142620535Y-193869413D01*
X142496135Y-193899279D01*
X142259760Y-193997188D01*
X142259757Y-193997190D01*
X142041603Y-194130875D01*
X142041598Y-194130878D01*
X141847044Y-194297044D01*
X141680878Y-194491598D01*
X141680875Y-194491603D01*
X141547190Y-194709757D01*
X141547188Y-194709760D01*
X141449279Y-194946135D01*
X141389547Y-195194935D01*
X141369474Y-195450000D01*
X141389547Y-195705066D01*
X141416568Y-195817618D01*
X141413077Y-195887401D01*
X141383680Y-195934242D01*
X141378208Y-195939714D01*
X141290609Y-196070814D01*
X141290602Y-196070827D01*
X141230264Y-196216498D01*
X141230261Y-196216510D01*
X141199500Y-196371153D01*
X141199500Y-203025500D01*
X141179815Y-203092539D01*
X141127011Y-203138294D01*
X141075500Y-203149500D01*
X140710764Y-203149500D01*
X140643725Y-203129815D01*
X140597970Y-203077011D01*
X140594582Y-203068833D01*
X140543797Y-202932671D01*
X140543793Y-202932664D01*
X140457547Y-202817455D01*
X140457544Y-202817452D01*
X140342335Y-202731206D01*
X140342328Y-202731202D01*
X140207482Y-202680908D01*
X140207483Y-202680908D01*
X140147883Y-202674501D01*
X140147881Y-202674500D01*
X140147873Y-202674500D01*
X140147864Y-202674500D01*
X138052129Y-202674500D01*
X138052123Y-202674501D01*
X137992516Y-202680908D01*
X137857671Y-202731202D01*
X137857668Y-202731204D01*
X137798811Y-202775265D01*
X137733347Y-202799682D01*
X137665074Y-202784830D01*
X137615668Y-202735425D01*
X137600500Y-202675998D01*
X137600500Y-200704314D01*
X137600501Y-200704301D01*
X137600501Y-200536200D01*
X137600501Y-200536198D01*
X137559577Y-200383470D01*
X137513242Y-200303216D01*
X137480520Y-200246539D01*
X137368716Y-200134735D01*
X137368715Y-200134734D01*
X137364385Y-200130404D01*
X137364374Y-200130394D01*
X136463000Y-199229020D01*
X136429515Y-199167697D01*
X136434499Y-199098005D01*
X136476371Y-199042072D01*
X136541835Y-199017655D01*
X136579621Y-199020764D01*
X136744930Y-199060452D01*
X137000000Y-199080526D01*
X137255070Y-199060452D01*
X137503860Y-199000722D01*
X137622051Y-198951765D01*
X137740239Y-198902811D01*
X137740240Y-198902810D01*
X137740243Y-198902809D01*
X137958399Y-198769123D01*
X138152956Y-198602956D01*
X138319123Y-198408399D01*
X138452809Y-198190243D01*
X138463165Y-198165243D01*
X138550720Y-197953864D01*
X138550722Y-197953860D01*
X138610452Y-197705070D01*
X138630526Y-197450000D01*
X138610452Y-197194930D01*
X138550722Y-196946140D01*
X138532774Y-196902809D01*
X138452811Y-196709760D01*
X138452809Y-196709757D01*
X138319124Y-196491603D01*
X138319121Y-196491598D01*
X138248059Y-196408396D01*
X138152956Y-196297044D01*
X137998637Y-196165243D01*
X137958401Y-196130878D01*
X137958396Y-196130875D01*
X137740242Y-195997190D01*
X137740239Y-195997188D01*
X137503864Y-195899279D01*
X137454389Y-195887401D01*
X137255070Y-195839548D01*
X137255067Y-195839547D01*
X137255064Y-195839547D01*
X137000000Y-195819474D01*
X136744935Y-195839547D01*
X136744931Y-195839547D01*
X136744930Y-195839548D01*
X136659155Y-195860141D01*
X136496135Y-195899279D01*
X136259760Y-195997188D01*
X136259757Y-195997190D01*
X136041603Y-196130875D01*
X136041598Y-196130878D01*
X135847044Y-196297044D01*
X135680878Y-196491598D01*
X135680875Y-196491603D01*
X135547190Y-196709757D01*
X135547188Y-196709760D01*
X135449279Y-196946135D01*
X135389547Y-197194935D01*
X135369474Y-197450000D01*
X135389547Y-197705064D01*
X135429234Y-197870370D01*
X135425743Y-197940153D01*
X135385080Y-197996971D01*
X135320153Y-198022784D01*
X135251578Y-198009398D01*
X135220979Y-197986999D01*
X133061819Y-195827839D01*
X133028334Y-195766516D01*
X133025500Y-195740158D01*
X133025500Y-194948805D01*
X133025501Y-194948792D01*
X133025501Y-194780689D01*
X133023288Y-194772430D01*
X132984577Y-194627961D01*
X132950962Y-194569737D01*
X132905524Y-194491035D01*
X132905518Y-194491027D01*
X132077845Y-193663355D01*
X132077843Y-193663352D01*
X131958972Y-193544481D01*
X131958971Y-193544480D01*
X131872159Y-193494360D01*
X131872159Y-193494359D01*
X131872155Y-193494358D01*
X131822040Y-193465423D01*
X131669312Y-193424499D01*
X131511198Y-193424499D01*
X131503602Y-193424499D01*
X131503586Y-193424500D01*
X125676924Y-193424500D01*
X125676908Y-193424499D01*
X125669312Y-193424499D01*
X125511198Y-193424499D01*
X125503602Y-193424499D01*
X125503586Y-193424500D01*
X115149500Y-193424500D01*
X115082461Y-193404815D01*
X115036706Y-193352011D01*
X115025500Y-193300500D01*
X115025500Y-183250000D01*
X123369474Y-183250000D01*
X123389547Y-183505064D01*
X123449279Y-183753864D01*
X123547188Y-183990239D01*
X123547190Y-183990242D01*
X123680875Y-184208396D01*
X123680878Y-184208401D01*
X123756200Y-184296591D01*
X123847044Y-184402956D01*
X123971579Y-184509319D01*
X124041598Y-184569121D01*
X124041600Y-184569122D01*
X124041601Y-184569123D01*
X124218961Y-184677809D01*
X124259757Y-184702809D01*
X124259760Y-184702811D01*
X124496135Y-184800720D01*
X124496140Y-184800722D01*
X124744930Y-184860452D01*
X125000000Y-184880526D01*
X125255070Y-184860452D01*
X125503860Y-184800722D01*
X125671081Y-184731457D01*
X125740239Y-184702811D01*
X125740240Y-184702810D01*
X125740243Y-184702809D01*
X125958399Y-184569123D01*
X126152956Y-184402956D01*
X126319123Y-184208399D01*
X126452809Y-183990243D01*
X126463165Y-183965243D01*
X126550720Y-183753864D01*
X126550722Y-183753860D01*
X126610452Y-183505070D01*
X126630526Y-183250000D01*
X129369474Y-183250000D01*
X129389547Y-183505064D01*
X129449279Y-183753864D01*
X129547188Y-183990239D01*
X129547190Y-183990242D01*
X129680875Y-184208396D01*
X129680878Y-184208401D01*
X129756200Y-184296591D01*
X129847044Y-184402956D01*
X129971579Y-184509319D01*
X130041598Y-184569121D01*
X130041600Y-184569122D01*
X130041601Y-184569123D01*
X130218961Y-184677809D01*
X130259757Y-184702809D01*
X130259760Y-184702811D01*
X130496135Y-184800720D01*
X130496140Y-184800722D01*
X130744930Y-184860452D01*
X131000000Y-184880526D01*
X131255070Y-184860452D01*
X131503860Y-184800722D01*
X131671081Y-184731457D01*
X131740239Y-184702811D01*
X131740240Y-184702810D01*
X131740243Y-184702809D01*
X131958399Y-184569123D01*
X132152956Y-184402956D01*
X132319123Y-184208399D01*
X132452809Y-183990243D01*
X132463165Y-183965243D01*
X132550720Y-183753864D01*
X132550722Y-183753860D01*
X132610452Y-183505070D01*
X132630526Y-183250000D01*
X141369474Y-183250000D01*
X141389547Y-183505064D01*
X141449279Y-183753864D01*
X141547188Y-183990239D01*
X141547190Y-183990242D01*
X141680875Y-184208396D01*
X141680878Y-184208401D01*
X141756200Y-184296591D01*
X141847044Y-184402956D01*
X141971579Y-184509319D01*
X142041598Y-184569121D01*
X142041600Y-184569122D01*
X142041601Y-184569123D01*
X142218961Y-184677809D01*
X142259757Y-184702809D01*
X142259760Y-184702811D01*
X142496135Y-184800720D01*
X142496140Y-184800722D01*
X142744930Y-184860452D01*
X143000000Y-184880526D01*
X143255070Y-184860452D01*
X143503860Y-184800722D01*
X143671081Y-184731457D01*
X143740239Y-184702811D01*
X143740240Y-184702810D01*
X143740243Y-184702809D01*
X143958399Y-184569123D01*
X144152956Y-184402956D01*
X144319123Y-184208399D01*
X144452809Y-183990243D01*
X144463165Y-183965243D01*
X144550720Y-183753864D01*
X144550722Y-183753860D01*
X144610452Y-183505070D01*
X144630526Y-183250000D01*
X144610452Y-182994930D01*
X144550722Y-182746140D01*
X144540365Y-182721135D01*
X144452811Y-182509760D01*
X144452809Y-182509757D01*
X144319124Y-182291603D01*
X144319121Y-182291598D01*
X144259319Y-182221579D01*
X144152956Y-182097044D01*
X144046591Y-182006200D01*
X143958401Y-181930878D01*
X143958396Y-181930875D01*
X143740242Y-181797190D01*
X143740239Y-181797188D01*
X143503864Y-181699279D01*
X143503860Y-181699278D01*
X143255070Y-181639548D01*
X143255067Y-181639547D01*
X143255064Y-181639547D01*
X143000000Y-181619474D01*
X142744935Y-181639547D01*
X142744931Y-181639547D01*
X142744930Y-181639548D01*
X142692323Y-181652178D01*
X142496135Y-181699279D01*
X142259760Y-181797188D01*
X142259757Y-181797190D01*
X142041603Y-181930875D01*
X142041598Y-181930878D01*
X141847044Y-182097044D01*
X141680878Y-182291598D01*
X141680875Y-182291603D01*
X141547190Y-182509757D01*
X141547188Y-182509760D01*
X141449279Y-182746135D01*
X141389547Y-182994935D01*
X141369474Y-183250000D01*
X132630526Y-183250000D01*
X132610452Y-182994930D01*
X132550722Y-182746140D01*
X132540365Y-182721135D01*
X132452811Y-182509760D01*
X132452809Y-182509757D01*
X132319124Y-182291603D01*
X132319121Y-182291598D01*
X132259319Y-182221579D01*
X132152956Y-182097044D01*
X132046591Y-182006200D01*
X131958401Y-181930878D01*
X131958396Y-181930875D01*
X131740242Y-181797190D01*
X131740239Y-181797188D01*
X131503864Y-181699279D01*
X131503860Y-181699278D01*
X131255070Y-181639548D01*
X131255067Y-181639547D01*
X131255064Y-181639547D01*
X131000000Y-181619474D01*
X130744935Y-181639547D01*
X130744931Y-181639547D01*
X130744930Y-181639548D01*
X130692323Y-181652178D01*
X130496135Y-181699279D01*
X130259760Y-181797188D01*
X130259757Y-181797190D01*
X130041603Y-181930875D01*
X130041598Y-181930878D01*
X129847044Y-182097044D01*
X129680878Y-182291598D01*
X129680875Y-182291603D01*
X129547190Y-182509757D01*
X129547188Y-182509760D01*
X129449279Y-182746135D01*
X129389547Y-182994935D01*
X129369474Y-183250000D01*
X126630526Y-183250000D01*
X126610452Y-182994930D01*
X126550722Y-182746140D01*
X126540365Y-182721135D01*
X126452811Y-182509760D01*
X126452809Y-182509757D01*
X126319124Y-182291603D01*
X126319121Y-182291598D01*
X126259319Y-182221579D01*
X126152956Y-182097044D01*
X126046591Y-182006200D01*
X125958401Y-181930878D01*
X125958396Y-181930875D01*
X125740242Y-181797190D01*
X125740239Y-181797188D01*
X125503864Y-181699279D01*
X125503860Y-181699278D01*
X125255070Y-181639548D01*
X125255067Y-181639547D01*
X125255064Y-181639547D01*
X125000000Y-181619474D01*
X124744935Y-181639547D01*
X124744931Y-181639547D01*
X124744930Y-181639548D01*
X124692323Y-181652178D01*
X124496135Y-181699279D01*
X124259760Y-181797188D01*
X124259757Y-181797190D01*
X124041603Y-181930875D01*
X124041598Y-181930878D01*
X123847044Y-182097044D01*
X123680878Y-182291598D01*
X123680875Y-182291603D01*
X123547190Y-182509757D01*
X123547188Y-182509760D01*
X123449279Y-182746135D01*
X123389547Y-182994935D01*
X123369474Y-183250000D01*
X115025500Y-183250000D01*
X115025500Y-176095945D01*
X115025500Y-176095943D01*
X114988912Y-175959393D01*
X114988912Y-175959392D01*
X114988912Y-175959391D01*
X114984578Y-175943219D01*
X114984577Y-175943215D01*
X114967147Y-175913026D01*
X114943338Y-175871787D01*
X114943337Y-175871786D01*
X114905521Y-175806286D01*
X114905520Y-175806284D01*
X114793716Y-175694480D01*
X114793715Y-175694479D01*
X114789385Y-175690149D01*
X114789374Y-175690139D01*
X113330700Y-174231465D01*
X113297215Y-174170142D01*
X113295163Y-174157686D01*
X113285368Y-174070745D01*
X113225789Y-173900478D01*
X113129816Y-173747738D01*
X113002262Y-173620184D01*
X112998060Y-173617544D01*
X112849523Y-173524211D01*
X112679254Y-173464631D01*
X112679249Y-173464630D01*
X112500004Y-173444435D01*
X112499996Y-173444435D01*
X112320750Y-173464630D01*
X112320745Y-173464631D01*
X112150476Y-173524211D01*
X111997737Y-173620184D01*
X111870184Y-173747737D01*
X111774211Y-173900476D01*
X111714631Y-174070745D01*
X111714630Y-174070750D01*
X111694435Y-174249996D01*
X111694435Y-174250003D01*
X111714630Y-174429249D01*
X111714631Y-174429254D01*
X111774211Y-174599523D01*
X111870184Y-174752262D01*
X111997738Y-174879816D01*
X112150478Y-174975789D01*
X112320745Y-175035368D01*
X112407669Y-175045161D01*
X112472080Y-175072226D01*
X112481465Y-175080700D01*
X113788181Y-176387416D01*
X113821666Y-176448739D01*
X113824500Y-176475097D01*
X113824500Y-181646512D01*
X113804815Y-181713551D01*
X113752011Y-181759306D01*
X113682853Y-181769250D01*
X113653048Y-181761073D01*
X113503864Y-181699279D01*
X113503860Y-181699278D01*
X113255070Y-181639548D01*
X113255067Y-181639547D01*
X113255064Y-181639547D01*
X113000000Y-181619474D01*
X112744935Y-181639547D01*
X112744931Y-181639547D01*
X112744930Y-181639548D01*
X112692323Y-181652178D01*
X112496135Y-181699279D01*
X112259760Y-181797188D01*
X112259757Y-181797190D01*
X112041603Y-181930875D01*
X112041598Y-181930878D01*
X111847044Y-182097044D01*
X111680878Y-182291598D01*
X111680875Y-182291603D01*
X111547190Y-182509757D01*
X111547188Y-182509760D01*
X111449279Y-182746135D01*
X111389547Y-182994935D01*
X111369474Y-183250000D01*
X111389547Y-183505064D01*
X111449279Y-183753864D01*
X111547188Y-183990239D01*
X111547190Y-183990242D01*
X111680875Y-184208396D01*
X111680878Y-184208401D01*
X111756200Y-184296591D01*
X111847044Y-184402956D01*
X111971579Y-184509319D01*
X112041598Y-184569121D01*
X112041600Y-184569122D01*
X112041601Y-184569123D01*
X112218961Y-184677809D01*
X112259757Y-184702809D01*
X112259760Y-184702811D01*
X112496135Y-184800720D01*
X112496140Y-184800722D01*
X112744930Y-184860452D01*
X113000000Y-184880526D01*
X113255070Y-184860452D01*
X113503860Y-184800722D01*
X113653049Y-184738925D01*
X113722516Y-184731457D01*
X113784996Y-184762732D01*
X113820648Y-184822821D01*
X113824500Y-184853487D01*
X113824500Y-193299901D01*
X113804815Y-193366940D01*
X113788254Y-193387509D01*
X113787656Y-193388108D01*
X113726361Y-193421644D01*
X113699902Y-193424500D01*
X112496415Y-193424500D01*
X112496399Y-193424499D01*
X112488803Y-193424499D01*
X112330688Y-193424499D01*
X112260083Y-193443418D01*
X112177959Y-193465423D01*
X112177954Y-193465426D01*
X112041035Y-193544475D01*
X112041027Y-193544481D01*
X111094481Y-194491027D01*
X111049038Y-194569737D01*
X111015423Y-194627960D01*
X110974499Y-194780688D01*
X110974499Y-194780689D01*
X110974499Y-194780690D01*
X110974499Y-194948791D01*
X110974500Y-194948804D01*
X110974500Y-200234902D01*
X110954815Y-200301941D01*
X110938181Y-200322583D01*
X108486681Y-202774083D01*
X108425358Y-202807568D01*
X108355666Y-202802584D01*
X108299733Y-202760712D01*
X108275316Y-202695248D01*
X108275000Y-202686402D01*
X108275000Y-202642172D01*
X108274999Y-202642155D01*
X108268598Y-202582627D01*
X108268596Y-202582620D01*
X108218354Y-202447913D01*
X108218350Y-202447906D01*
X108132190Y-202332812D01*
X108132187Y-202332809D01*
X108017093Y-202246649D01*
X108017086Y-202246645D01*
X107882379Y-202196403D01*
X107882372Y-202196401D01*
X107822844Y-202190000D01*
X107450000Y-202190000D01*
X107450000Y-203759402D01*
X107430315Y-203826441D01*
X107413681Y-203847083D01*
X107187582Y-204073181D01*
X107126259Y-204106666D01*
X107099901Y-204109500D01*
X106577129Y-204109500D01*
X106577123Y-204109501D01*
X106517516Y-204115908D01*
X106382671Y-204166202D01*
X106382668Y-204166204D01*
X106273810Y-204247695D01*
X106208345Y-204272112D01*
X106140072Y-204257260D01*
X106090667Y-204207855D01*
X106075499Y-204148431D01*
X106075499Y-203750945D01*
X106095184Y-203683907D01*
X106147988Y-203638152D01*
X106217146Y-203628208D01*
X106273811Y-203651680D01*
X106382910Y-203733352D01*
X106382913Y-203733354D01*
X106517620Y-203783596D01*
X106517627Y-203783598D01*
X106577155Y-203789999D01*
X106577172Y-203790000D01*
X106950000Y-203790000D01*
X106950000Y-203240000D01*
X106125000Y-203240000D01*
X106088681Y-203276319D01*
X106085432Y-203273070D01*
X106052511Y-203301597D01*
X105983353Y-203311541D01*
X105926688Y-203288069D01*
X105850188Y-203230800D01*
X105808318Y-203174866D01*
X105800500Y-203131534D01*
X105800500Y-202642155D01*
X106125000Y-202642155D01*
X106125000Y-202740000D01*
X106950000Y-202740000D01*
X106950000Y-202190000D01*
X106577155Y-202190000D01*
X106517627Y-202196401D01*
X106517620Y-202196403D01*
X106382913Y-202246645D01*
X106382906Y-202246649D01*
X106267812Y-202332809D01*
X106267809Y-202332812D01*
X106181649Y-202447906D01*
X106181645Y-202447913D01*
X106131403Y-202582620D01*
X106131401Y-202582627D01*
X106125000Y-202642155D01*
X105800500Y-202642155D01*
X105800500Y-197173967D01*
X105820185Y-197106928D01*
X105872989Y-197061173D01*
X105934226Y-197050349D01*
X106000000Y-197055526D01*
X106255070Y-197035452D01*
X106503860Y-196975722D01*
X106679888Y-196902809D01*
X106740239Y-196877811D01*
X106740240Y-196877810D01*
X106740243Y-196877809D01*
X106958399Y-196744123D01*
X107152956Y-196577956D01*
X107319123Y-196383399D01*
X107452809Y-196165243D01*
X107467044Y-196130878D01*
X107522419Y-195997190D01*
X107550722Y-195928860D01*
X107610452Y-195680070D01*
X107630526Y-195425000D01*
X107610452Y-195169930D01*
X107550722Y-194921140D01*
X107492546Y-194780690D01*
X107452811Y-194684760D01*
X107452809Y-194684757D01*
X107319124Y-194466603D01*
X107319121Y-194466598D01*
X107244495Y-194379223D01*
X107152956Y-194272044D01*
X107044217Y-194179172D01*
X106958401Y-194105878D01*
X106958396Y-194105875D01*
X106740242Y-193972190D01*
X106740239Y-193972188D01*
X106503864Y-193874279D01*
X106503860Y-193874278D01*
X106255070Y-193814548D01*
X106255067Y-193814547D01*
X106255064Y-193814547D01*
X106000000Y-193794474D01*
X105744935Y-193814547D01*
X105744931Y-193814547D01*
X105744930Y-193814548D01*
X105646926Y-193838077D01*
X105496135Y-193874279D01*
X105259760Y-193972188D01*
X105259757Y-193972190D01*
X105041603Y-194105875D01*
X105041598Y-194105878D01*
X104847044Y-194272044D01*
X104680878Y-194466598D01*
X104680875Y-194466603D01*
X104547190Y-194684757D01*
X104547188Y-194684760D01*
X104449279Y-194921135D01*
X104389547Y-195169935D01*
X104369474Y-195425000D01*
X104389547Y-195680066D01*
X104416568Y-195792618D01*
X104413077Y-195862401D01*
X104383680Y-195909242D01*
X104378208Y-195914714D01*
X104290609Y-196045814D01*
X104290602Y-196045827D01*
X104230264Y-196191498D01*
X104230261Y-196191510D01*
X104199500Y-196346153D01*
X104199500Y-203025500D01*
X104179815Y-203092539D01*
X104127011Y-203138294D01*
X104075500Y-203149500D01*
X103810764Y-203149500D01*
X103743725Y-203129815D01*
X103697970Y-203077011D01*
X103694582Y-203068833D01*
X103643797Y-202932671D01*
X103643793Y-202932664D01*
X103557547Y-202817455D01*
X103557544Y-202817452D01*
X103442335Y-202731206D01*
X103442328Y-202731202D01*
X103307482Y-202680908D01*
X103307483Y-202680908D01*
X103247883Y-202674501D01*
X103247881Y-202674500D01*
X103247873Y-202674500D01*
X103247864Y-202674500D01*
X101152129Y-202674500D01*
X101152123Y-202674501D01*
X101092516Y-202680908D01*
X100957671Y-202731202D01*
X100957664Y-202731206D01*
X100842455Y-202817452D01*
X100842452Y-202817455D01*
X100756206Y-202932664D01*
X100756202Y-202932671D01*
X100705908Y-203067517D01*
X100700500Y-203117826D01*
X100699501Y-203127123D01*
X100699500Y-203127135D01*
X100699500Y-204772870D01*
X100699679Y-204776195D01*
X100698707Y-204776246D01*
X100687034Y-204840992D01*
X100639429Y-204892135D01*
X100576144Y-204909500D01*
X100142940Y-204909500D01*
X100075901Y-204889815D01*
X100055259Y-204873181D01*
X99536818Y-204354740D01*
X99503333Y-204293417D01*
X99500499Y-204267059D01*
X99500499Y-203127129D01*
X99500498Y-203127123D01*
X99500497Y-203127116D01*
X99495112Y-203077011D01*
X99494091Y-203067516D01*
X99443797Y-202932671D01*
X99443793Y-202932664D01*
X99357547Y-202817455D01*
X99357544Y-202817452D01*
X99242335Y-202731206D01*
X99242328Y-202731202D01*
X99107482Y-202680908D01*
X99107483Y-202680908D01*
X99047883Y-202674501D01*
X99047881Y-202674500D01*
X99047873Y-202674500D01*
X99047865Y-202674500D01*
X97907940Y-202674500D01*
X97840901Y-202654815D01*
X97820259Y-202638181D01*
X94836819Y-199654741D01*
X94803334Y-199593418D01*
X94800500Y-199567060D01*
X94800500Y-197425000D01*
X98369474Y-197425000D01*
X98389547Y-197680064D01*
X98449279Y-197928864D01*
X98547188Y-198165239D01*
X98547190Y-198165242D01*
X98680875Y-198383396D01*
X98680878Y-198383401D01*
X98756200Y-198471591D01*
X98847044Y-198577956D01*
X98971579Y-198684319D01*
X99041598Y-198744121D01*
X99041600Y-198744122D01*
X99041601Y-198744123D01*
X99082399Y-198769124D01*
X99259757Y-198877809D01*
X99259760Y-198877811D01*
X99496135Y-198975720D01*
X99496140Y-198975722D01*
X99744930Y-199035452D01*
X100000000Y-199055526D01*
X100255070Y-199035452D01*
X100503860Y-198975722D01*
X100679888Y-198902809D01*
X100740239Y-198877811D01*
X100740240Y-198877810D01*
X100740243Y-198877809D01*
X100958399Y-198744123D01*
X101152956Y-198577956D01*
X101319123Y-198383399D01*
X101452809Y-198165243D01*
X101550722Y-197928860D01*
X101610452Y-197680070D01*
X101630526Y-197425000D01*
X101610452Y-197169930D01*
X101550722Y-196921140D01*
X101527834Y-196865883D01*
X101452811Y-196684760D01*
X101452809Y-196684757D01*
X101319124Y-196466603D01*
X101319121Y-196466598D01*
X101216251Y-196346153D01*
X101152956Y-196272044D01*
X101027903Y-196165239D01*
X100958401Y-196105878D01*
X100958396Y-196105875D01*
X100740242Y-195972190D01*
X100740239Y-195972188D01*
X100503864Y-195874279D01*
X100454389Y-195862401D01*
X100255070Y-195814548D01*
X100255067Y-195814547D01*
X100255064Y-195814547D01*
X100000000Y-195794474D01*
X99744935Y-195814547D01*
X99744931Y-195814547D01*
X99744930Y-195814548D01*
X99689570Y-195827839D01*
X99496135Y-195874279D01*
X99259760Y-195972188D01*
X99259757Y-195972190D01*
X99041603Y-196105875D01*
X99041598Y-196105878D01*
X98847044Y-196272044D01*
X98680878Y-196466598D01*
X98680875Y-196466603D01*
X98547190Y-196684757D01*
X98547188Y-196684760D01*
X98449279Y-196921135D01*
X98389547Y-197169935D01*
X98369474Y-197425000D01*
X94800500Y-197425000D01*
X94800500Y-196910327D01*
X94820185Y-196843288D01*
X94859710Y-196804599D01*
X94958399Y-196744123D01*
X95152956Y-196577956D01*
X95319123Y-196383399D01*
X95452809Y-196165243D01*
X95467044Y-196130878D01*
X95522419Y-195997190D01*
X95550722Y-195928860D01*
X95610452Y-195680070D01*
X95630526Y-195425000D01*
X95610452Y-195169930D01*
X95550722Y-194921140D01*
X95492546Y-194780690D01*
X95452811Y-194684760D01*
X95452809Y-194684757D01*
X95319124Y-194466603D01*
X95319121Y-194466598D01*
X95244495Y-194379223D01*
X95152956Y-194272044D01*
X95044217Y-194179172D01*
X94958401Y-194105878D01*
X94958396Y-194105875D01*
X94740242Y-193972190D01*
X94740239Y-193972188D01*
X94503864Y-193874279D01*
X94503860Y-193874278D01*
X94255070Y-193814548D01*
X94255067Y-193814547D01*
X94255064Y-193814547D01*
X94000000Y-193794474D01*
X93744933Y-193814547D01*
X93744930Y-193814547D01*
X93632380Y-193841568D01*
X93562598Y-193838077D01*
X93515753Y-193808675D01*
X93211819Y-193504741D01*
X93178334Y-193443418D01*
X93175500Y-193417060D01*
X93175500Y-184828487D01*
X93195185Y-184761448D01*
X93247989Y-184715693D01*
X93317147Y-184705749D01*
X93346947Y-184713924D01*
X93496140Y-184775722D01*
X93744930Y-184835452D01*
X94000000Y-184855526D01*
X94255070Y-184835452D01*
X94503860Y-184775722D01*
X94679888Y-184702809D01*
X94740239Y-184677811D01*
X94740240Y-184677810D01*
X94740243Y-184677809D01*
X94958399Y-184544123D01*
X95152956Y-184377956D01*
X95319123Y-184183399D01*
X95452809Y-183965243D01*
X95550722Y-183728860D01*
X95610452Y-183480070D01*
X95630526Y-183225000D01*
X104369474Y-183225000D01*
X104389547Y-183480064D01*
X104449279Y-183728864D01*
X104547188Y-183965239D01*
X104547190Y-183965242D01*
X104680875Y-184183396D01*
X104680878Y-184183401D01*
X104756200Y-184271591D01*
X104847044Y-184377956D01*
X104971579Y-184484319D01*
X105041598Y-184544121D01*
X105041600Y-184544122D01*
X105041601Y-184544123D01*
X105216296Y-184651176D01*
X105259757Y-184677809D01*
X105259760Y-184677811D01*
X105461679Y-184761448D01*
X105496140Y-184775722D01*
X105744930Y-184835452D01*
X106000000Y-184855526D01*
X106255070Y-184835452D01*
X106503860Y-184775722D01*
X106679888Y-184702809D01*
X106740239Y-184677811D01*
X106740240Y-184677810D01*
X106740243Y-184677809D01*
X106958399Y-184544123D01*
X107152956Y-184377956D01*
X107319123Y-184183399D01*
X107452809Y-183965243D01*
X107550722Y-183728860D01*
X107610452Y-183480070D01*
X107630526Y-183225000D01*
X107610452Y-182969930D01*
X107550722Y-182721140D01*
X107463166Y-182509760D01*
X107452811Y-182484760D01*
X107452809Y-182484757D01*
X107319124Y-182266603D01*
X107319121Y-182266598D01*
X107259319Y-182196579D01*
X107152956Y-182072044D01*
X107046591Y-181981200D01*
X106958401Y-181905878D01*
X106958396Y-181905875D01*
X106740242Y-181772190D01*
X106740239Y-181772188D01*
X106503864Y-181674279D01*
X106503860Y-181674278D01*
X106255070Y-181614548D01*
X106255067Y-181614547D01*
X106255064Y-181614547D01*
X106000000Y-181594474D01*
X105744935Y-181614547D01*
X105744931Y-181614547D01*
X105744930Y-181614548D01*
X105640803Y-181639547D01*
X105496135Y-181674279D01*
X105259760Y-181772188D01*
X105259757Y-181772190D01*
X105041603Y-181905875D01*
X105041598Y-181905878D01*
X104847044Y-182072044D01*
X104680878Y-182266598D01*
X104680875Y-182266603D01*
X104547190Y-182484757D01*
X104547188Y-182484760D01*
X104449279Y-182721135D01*
X104389547Y-182969935D01*
X104369474Y-183225000D01*
X95630526Y-183225000D01*
X95610452Y-182969930D01*
X95550722Y-182721140D01*
X95463166Y-182509760D01*
X95452811Y-182484760D01*
X95452809Y-182484757D01*
X95319124Y-182266603D01*
X95319121Y-182266598D01*
X95259319Y-182196579D01*
X95152956Y-182072044D01*
X95046591Y-181981200D01*
X94958401Y-181905878D01*
X94958396Y-181905875D01*
X94740242Y-181772190D01*
X94740239Y-181772188D01*
X94503864Y-181674279D01*
X94503860Y-181674278D01*
X94255070Y-181614548D01*
X94255067Y-181614547D01*
X94255064Y-181614547D01*
X94000000Y-181594474D01*
X93744935Y-181614547D01*
X93744931Y-181614547D01*
X93744930Y-181614548D01*
X93640803Y-181639547D01*
X93496135Y-181674279D01*
X93346952Y-181736073D01*
X93277483Y-181743542D01*
X93215004Y-181712267D01*
X93179352Y-181652178D01*
X93175500Y-181621512D01*
X93175500Y-177257939D01*
X93195185Y-177190900D01*
X93211815Y-177170262D01*
X94120259Y-176261817D01*
X94181582Y-176228333D01*
X94207940Y-176225499D01*
X94273338Y-176225499D01*
X94273344Y-176225499D01*
X94273352Y-176225498D01*
X94273355Y-176225498D01*
X94327760Y-176219940D01*
X94372708Y-176215349D01*
X94533697Y-176162003D01*
X94678044Y-176072968D01*
X94687668Y-176063343D01*
X94748987Y-176029856D01*
X94818679Y-176034835D01*
X94863034Y-176063339D01*
X94872267Y-176072572D01*
X94872271Y-176072575D01*
X95016507Y-176161542D01*
X95016518Y-176161547D01*
X95177393Y-176214855D01*
X95276683Y-176224999D01*
X95800000Y-176224999D01*
X95823308Y-176224999D01*
X95823322Y-176224998D01*
X95922607Y-176214855D01*
X96083481Y-176161547D01*
X96083492Y-176161542D01*
X96227728Y-176072575D01*
X96227732Y-176072572D01*
X96347572Y-175952732D01*
X96347575Y-175952728D01*
X96436542Y-175808492D01*
X96436547Y-175808481D01*
X96489855Y-175647606D01*
X96499999Y-175548322D01*
X96500000Y-175548309D01*
X96500000Y-175500000D01*
X95800000Y-175500000D01*
X95800000Y-176224999D01*
X95276683Y-176224999D01*
X95300000Y-176224998D01*
X95300000Y-175124000D01*
X95319685Y-175056961D01*
X95372489Y-175011206D01*
X95424000Y-175000000D01*
X96499999Y-175000000D01*
X96499999Y-174951692D01*
X96499998Y-174951677D01*
X96489855Y-174852392D01*
X96436547Y-174691518D01*
X96436542Y-174691507D01*
X96347575Y-174547271D01*
X96347572Y-174547267D01*
X96227732Y-174427427D01*
X96227728Y-174427424D01*
X96083492Y-174338457D01*
X96083483Y-174338453D01*
X95981485Y-174304654D01*
X95924041Y-174264881D01*
X95897218Y-174200365D01*
X95909533Y-174131589D01*
X95932804Y-174099272D01*
X96720259Y-173311817D01*
X96781582Y-173278333D01*
X96807940Y-173275499D01*
X96992059Y-173275499D01*
X97059098Y-173295184D01*
X97079740Y-173311818D01*
X98038211Y-174270289D01*
X98106375Y-174338453D01*
X98149712Y-174381790D01*
X98280814Y-174469390D01*
X98280827Y-174469397D01*
X98426498Y-174529735D01*
X98426503Y-174529737D01*
X98538723Y-174552059D01*
X98581153Y-174560499D01*
X98581156Y-174560500D01*
X98581158Y-174560500D01*
X107353844Y-174560500D01*
X107353845Y-174560499D01*
X107508497Y-174529737D01*
X107654179Y-174469394D01*
X107785289Y-174381789D01*
X109330259Y-172836819D01*
X109391582Y-172803334D01*
X109417940Y-172800500D01*
X114789236Y-172800500D01*
X114856275Y-172820185D01*
X114902030Y-172872989D01*
X114905418Y-172881167D01*
X114956202Y-173017328D01*
X114956206Y-173017335D01*
X115042452Y-173132544D01*
X115042455Y-173132547D01*
X115157664Y-173218793D01*
X115157671Y-173218797D01*
X115292517Y-173269091D01*
X115292516Y-173269091D01*
X115299444Y-173269835D01*
X115352127Y-173275500D01*
X116492059Y-173275499D01*
X116559098Y-173295184D01*
X116579740Y-173311818D01*
X117578211Y-174310289D01*
X117649708Y-174381786D01*
X117689712Y-174421790D01*
X117760951Y-174469390D01*
X117820821Y-174509394D01*
X117923833Y-174552062D01*
X117966502Y-174569737D01*
X118116240Y-174599522D01*
X118121152Y-174600499D01*
X118121155Y-174600500D01*
X118121157Y-174600500D01*
X127028844Y-174600500D01*
X127028845Y-174600499D01*
X127183497Y-174569737D01*
X127329179Y-174509394D01*
X127460289Y-174421789D01*
X128875079Y-173006996D01*
X128875084Y-173006993D01*
X128885287Y-172996789D01*
X128885289Y-172996789D01*
X129045259Y-172836819D01*
X129106582Y-172803334D01*
X129132940Y-172800500D01*
X134389236Y-172800500D01*
X134456275Y-172820185D01*
X134502030Y-172872989D01*
X134505418Y-172881167D01*
X134556202Y-173017328D01*
X134556206Y-173017335D01*
X134642452Y-173132544D01*
X134642455Y-173132547D01*
X134757664Y-173218793D01*
X134757671Y-173218797D01*
X134892517Y-173269091D01*
X134892516Y-173269091D01*
X134899444Y-173269835D01*
X134952127Y-173275500D01*
X137047872Y-173275499D01*
X137107483Y-173269091D01*
X137242331Y-173218796D01*
X137357546Y-173132546D01*
X137443796Y-173017331D01*
X137494091Y-172882483D01*
X137500500Y-172822873D01*
X137500499Y-171177128D01*
X137495112Y-171127011D01*
X137494091Y-171117516D01*
X137443797Y-170982671D01*
X137443793Y-170982664D01*
X137357547Y-170867455D01*
X137357544Y-170867452D01*
X137242335Y-170781206D01*
X137242328Y-170781202D01*
X137107482Y-170730908D01*
X137107483Y-170730908D01*
X137047883Y-170724501D01*
X137047881Y-170724500D01*
X137047873Y-170724500D01*
X137047864Y-170724500D01*
X134952129Y-170724500D01*
X134952123Y-170724501D01*
X134892516Y-170730908D01*
X134757671Y-170781202D01*
X134757664Y-170781206D01*
X134642455Y-170867452D01*
X134642452Y-170867455D01*
X134556206Y-170982664D01*
X134556202Y-170982671D01*
X134505418Y-171118833D01*
X134463547Y-171174767D01*
X134398083Y-171199184D01*
X134389236Y-171199500D01*
X130981940Y-171199500D01*
X130914901Y-171179815D01*
X130869146Y-171127011D01*
X130859202Y-171057853D01*
X130888227Y-170994297D01*
X130894259Y-170987819D01*
X131720814Y-170161264D01*
X132621789Y-169260289D01*
X132632410Y-169244394D01*
X132709394Y-169129179D01*
X132769737Y-168983497D01*
X132790794Y-168877639D01*
X132800500Y-168828843D01*
X132800500Y-168671158D01*
X132800500Y-165925000D01*
X136369474Y-165925000D01*
X136389547Y-166180064D01*
X136449279Y-166428864D01*
X136547188Y-166665239D01*
X136547190Y-166665242D01*
X136680875Y-166883396D01*
X136680878Y-166883401D01*
X136718352Y-166927277D01*
X136847044Y-167077956D01*
X136946499Y-167162898D01*
X137041598Y-167244121D01*
X137041600Y-167244122D01*
X137041601Y-167244123D01*
X137215552Y-167350720D01*
X137259757Y-167377809D01*
X137259760Y-167377811D01*
X137417441Y-167443124D01*
X137496140Y-167475722D01*
X137744930Y-167535452D01*
X138000000Y-167555526D01*
X138255070Y-167535452D01*
X138503860Y-167475722D01*
X138661436Y-167410452D01*
X138740239Y-167377811D01*
X138740240Y-167377810D01*
X138740243Y-167377809D01*
X138958399Y-167244123D01*
X139152956Y-167077956D01*
X139319123Y-166883399D01*
X139452809Y-166665243D01*
X139454983Y-166659996D01*
X139550720Y-166428864D01*
X139550722Y-166428860D01*
X139610452Y-166180070D01*
X139630526Y-165925000D01*
X139610452Y-165669930D01*
X139550722Y-165421140D01*
X139526474Y-165362600D01*
X139452811Y-165184760D01*
X139452809Y-165184757D01*
X139351276Y-165019070D01*
X139319123Y-164966601D01*
X139319122Y-164966600D01*
X139319121Y-164966598D01*
X139216251Y-164846153D01*
X139152956Y-164772044D01*
X139027903Y-164665239D01*
X138958401Y-164605878D01*
X138958396Y-164605875D01*
X138740242Y-164472190D01*
X138740239Y-164472188D01*
X138503864Y-164374279D01*
X138454389Y-164362401D01*
X138255070Y-164314548D01*
X138255067Y-164314547D01*
X138255064Y-164314547D01*
X138000000Y-164294474D01*
X137744935Y-164314547D01*
X137744931Y-164314547D01*
X137744930Y-164314548D01*
X137644952Y-164338551D01*
X137496135Y-164374279D01*
X137259760Y-164472188D01*
X137259757Y-164472190D01*
X137041603Y-164605875D01*
X137041598Y-164605878D01*
X136847044Y-164772044D01*
X136680878Y-164966598D01*
X136680875Y-164966603D01*
X136547190Y-165184757D01*
X136547188Y-165184760D01*
X136449279Y-165421135D01*
X136389547Y-165669935D01*
X136369474Y-165925000D01*
X132800500Y-165925000D01*
X132800500Y-165410327D01*
X132820185Y-165343288D01*
X132859710Y-165304599D01*
X132873514Y-165296140D01*
X132958399Y-165244123D01*
X133152956Y-165077956D01*
X133319123Y-164883399D01*
X133452809Y-164665243D01*
X133460348Y-164647044D01*
X133529176Y-164480877D01*
X133550722Y-164428860D01*
X133610452Y-164180070D01*
X133630526Y-163925000D01*
X133610452Y-163669930D01*
X133550722Y-163421140D01*
X133550720Y-163421135D01*
X133452811Y-163184760D01*
X133452809Y-163184757D01*
X133376209Y-163059757D01*
X133319123Y-162966601D01*
X133319122Y-162966600D01*
X133319121Y-162966598D01*
X133231796Y-162864354D01*
X133152956Y-162772044D01*
X133006602Y-162647046D01*
X132958401Y-162605878D01*
X132958396Y-162605875D01*
X132740242Y-162472190D01*
X132740239Y-162472188D01*
X132503864Y-162374279D01*
X132501598Y-162373735D01*
X132255070Y-162314548D01*
X132255067Y-162314547D01*
X132255064Y-162314547D01*
X132000000Y-162294474D01*
X131744935Y-162314547D01*
X131744931Y-162314547D01*
X131744930Y-162314548D01*
X131649679Y-162337416D01*
X131496135Y-162374279D01*
X131259760Y-162472188D01*
X131259757Y-162472190D01*
X131041603Y-162605875D01*
X131041598Y-162605878D01*
X130847044Y-162772044D01*
X130680878Y-162966598D01*
X130680875Y-162966603D01*
X130547190Y-163184757D01*
X130547188Y-163184760D01*
X130449279Y-163421135D01*
X130449278Y-163421140D01*
X130390961Y-163664047D01*
X130389547Y-163669935D01*
X130369474Y-163925000D01*
X130389547Y-164180064D01*
X130389547Y-164180067D01*
X130389548Y-164180070D01*
X130436174Y-164374278D01*
X130449279Y-164428864D01*
X130547188Y-164665239D01*
X130547190Y-164665242D01*
X130680875Y-164883396D01*
X130680878Y-164883401D01*
X130740283Y-164952955D01*
X130847044Y-165077956D01*
X131041601Y-165244123D01*
X131126486Y-165296140D01*
X131140290Y-165304599D01*
X131187165Y-165356411D01*
X131199500Y-165410327D01*
X131199500Y-168367060D01*
X131179815Y-168434099D01*
X131163181Y-168454741D01*
X127753209Y-171864713D01*
X127142278Y-172475643D01*
X127080955Y-172509128D01*
X127011263Y-172504144D01*
X126955330Y-172462272D01*
X126930913Y-172396808D01*
X126934821Y-172355872D01*
X126975501Y-172204057D01*
X126975501Y-172045943D01*
X126975501Y-172038348D01*
X126975500Y-172038330D01*
X126975500Y-162045945D01*
X126975499Y-162045941D01*
X126947516Y-161941501D01*
X126947516Y-161941500D01*
X126934578Y-161893218D01*
X126934577Y-161893215D01*
X126878346Y-161795821D01*
X126878345Y-161795819D01*
X126855522Y-161756287D01*
X126855521Y-161756286D01*
X126855520Y-161756284D01*
X126743716Y-161644480D01*
X126743715Y-161644479D01*
X126739385Y-161640149D01*
X126739374Y-161640139D01*
X126080700Y-160981465D01*
X126047215Y-160920142D01*
X126045163Y-160907686D01*
X126035368Y-160820745D01*
X125975789Y-160650478D01*
X125879816Y-160497738D01*
X125752262Y-160370184D01*
X125599523Y-160274211D01*
X125429254Y-160214631D01*
X125429249Y-160214630D01*
X125250004Y-160194435D01*
X125249996Y-160194435D01*
X125070750Y-160214630D01*
X125070745Y-160214631D01*
X124900476Y-160274211D01*
X124747737Y-160370184D01*
X124620184Y-160497737D01*
X124524211Y-160650476D01*
X124464631Y-160820745D01*
X124464630Y-160820750D01*
X124444435Y-160999996D01*
X124444435Y-161000003D01*
X124464630Y-161179249D01*
X124464631Y-161179254D01*
X124524211Y-161349523D01*
X124559234Y-161405261D01*
X124620184Y-161502262D01*
X124747738Y-161629816D01*
X124900478Y-161725789D01*
X125070745Y-161785368D01*
X125157669Y-161795161D01*
X125222080Y-161822226D01*
X125231465Y-161830700D01*
X125738181Y-162337416D01*
X125771666Y-162398739D01*
X125774500Y-162425097D01*
X125774500Y-162556875D01*
X125754815Y-162623914D01*
X125702011Y-162669669D01*
X125632853Y-162679613D01*
X125569969Y-162651165D01*
X125458408Y-162555883D01*
X125458396Y-162555875D01*
X125240242Y-162422190D01*
X125240239Y-162422188D01*
X125003864Y-162324279D01*
X124912166Y-162302264D01*
X124755070Y-162264548D01*
X124755067Y-162264547D01*
X124755064Y-162264547D01*
X124500000Y-162244474D01*
X124244935Y-162264547D01*
X124244931Y-162264547D01*
X124244930Y-162264548D01*
X124120535Y-162294413D01*
X123996135Y-162324279D01*
X123759760Y-162422188D01*
X123759757Y-162422190D01*
X123541603Y-162555875D01*
X123541598Y-162555878D01*
X123347044Y-162722044D01*
X123180878Y-162916598D01*
X123180875Y-162916603D01*
X123047190Y-163134757D01*
X123047188Y-163134760D01*
X122949279Y-163371135D01*
X122889547Y-163619935D01*
X122869474Y-163875000D01*
X122889547Y-164130066D01*
X122916568Y-164242617D01*
X122913077Y-164312400D01*
X122883675Y-164359245D01*
X122772270Y-164470650D01*
X122772268Y-164470653D01*
X122678213Y-164564707D01*
X122678210Y-164564711D01*
X122590609Y-164695814D01*
X122590602Y-164695827D01*
X122530264Y-164841498D01*
X122530261Y-164841510D01*
X122499500Y-164996153D01*
X122499500Y-171075500D01*
X122479815Y-171142539D01*
X122427011Y-171188294D01*
X122375500Y-171199500D01*
X122210764Y-171199500D01*
X122143725Y-171179815D01*
X122097970Y-171127011D01*
X122094582Y-171118833D01*
X122043797Y-170982671D01*
X122043793Y-170982664D01*
X121957547Y-170867455D01*
X121957544Y-170867452D01*
X121842335Y-170781206D01*
X121842328Y-170781202D01*
X121707482Y-170730908D01*
X121707483Y-170730908D01*
X121647883Y-170724501D01*
X121647881Y-170724500D01*
X121647873Y-170724500D01*
X121647864Y-170724500D01*
X119552129Y-170724500D01*
X119552123Y-170724501D01*
X119492516Y-170730908D01*
X119357671Y-170781202D01*
X119357664Y-170781206D01*
X119242455Y-170867452D01*
X119242452Y-170867455D01*
X119156206Y-170982664D01*
X119156202Y-170982671D01*
X119105908Y-171117517D01*
X119099754Y-171174767D01*
X119099501Y-171177123D01*
X119099500Y-171177135D01*
X119099500Y-172822870D01*
X119099501Y-172822872D01*
X119103733Y-172862246D01*
X119091328Y-172931005D01*
X119043717Y-172982142D01*
X118980444Y-172999500D01*
X118582940Y-172999500D01*
X118515901Y-172979815D01*
X118495259Y-172963181D01*
X117936818Y-172404740D01*
X117903333Y-172343417D01*
X117900499Y-172317059D01*
X117900499Y-171177129D01*
X117900498Y-171177123D01*
X117900497Y-171177116D01*
X117895112Y-171127011D01*
X117894091Y-171117516D01*
X117843797Y-170982671D01*
X117843793Y-170982664D01*
X117757547Y-170867455D01*
X117757544Y-170867452D01*
X117642335Y-170781206D01*
X117642328Y-170781202D01*
X117507482Y-170730908D01*
X117507483Y-170730908D01*
X117447883Y-170724501D01*
X117447881Y-170724500D01*
X117447873Y-170724500D01*
X117447864Y-170724500D01*
X115352129Y-170724500D01*
X115352123Y-170724501D01*
X115292516Y-170730908D01*
X115157671Y-170781202D01*
X115157664Y-170781206D01*
X115042455Y-170867452D01*
X115042452Y-170867455D01*
X114956206Y-170982664D01*
X114956202Y-170982671D01*
X114905418Y-171118833D01*
X114863547Y-171174767D01*
X114798083Y-171199184D01*
X114789236Y-171199500D01*
X111266940Y-171199500D01*
X111199901Y-171179815D01*
X111154146Y-171127011D01*
X111144202Y-171057853D01*
X111173227Y-170994297D01*
X111179259Y-170987819D01*
X112057176Y-170109902D01*
X113121789Y-169045289D01*
X113121794Y-169045282D01*
X113133914Y-169027143D01*
X113133916Y-169027139D01*
X113192428Y-168939570D01*
X113209394Y-168914179D01*
X113269737Y-168768497D01*
X113300500Y-168613842D01*
X113300500Y-166106940D01*
X113320185Y-166039901D01*
X113372989Y-165994146D01*
X113442147Y-165984202D01*
X113505703Y-166013227D01*
X113512181Y-166019259D01*
X115503211Y-168010289D01*
X115614708Y-168121786D01*
X115614712Y-168121790D01*
X115745814Y-168209390D01*
X115745827Y-168209397D01*
X115843853Y-168250000D01*
X115891503Y-168269737D01*
X115891507Y-168269737D01*
X115891508Y-168269738D01*
X116046154Y-168300500D01*
X116046157Y-168300500D01*
X119251942Y-168300500D01*
X119251943Y-168300499D01*
X119406595Y-168269737D01*
X119552277Y-168209394D01*
X119683387Y-168121789D01*
X120746789Y-167058387D01*
X120834394Y-166927277D01*
X120894738Y-166781595D01*
X120925500Y-166626940D01*
X120925500Y-166469255D01*
X120925500Y-151675000D01*
X122869474Y-151675000D01*
X122889547Y-151930064D01*
X122949279Y-152178864D01*
X123047188Y-152415239D01*
X123047190Y-152415242D01*
X123180875Y-152633396D01*
X123180878Y-152633401D01*
X123256200Y-152721591D01*
X123347044Y-152827956D01*
X123405587Y-152877956D01*
X123541598Y-152994121D01*
X123541600Y-152994122D01*
X123541601Y-152994123D01*
X123637368Y-153052809D01*
X123759757Y-153127809D01*
X123759760Y-153127811D01*
X123959275Y-153210452D01*
X123996140Y-153225722D01*
X124244930Y-153285452D01*
X124500000Y-153305526D01*
X124755070Y-153285452D01*
X125003860Y-153225722D01*
X125122051Y-153176765D01*
X125240239Y-153127811D01*
X125240240Y-153127810D01*
X125240243Y-153127809D01*
X125458399Y-152994123D01*
X125652956Y-152827956D01*
X125819123Y-152633399D01*
X125952809Y-152415243D01*
X125955239Y-152409378D01*
X126001765Y-152297051D01*
X126050722Y-152178860D01*
X126110452Y-151930070D01*
X126130526Y-151675000D01*
X126110452Y-151419930D01*
X126050722Y-151171140D01*
X126050720Y-151171135D01*
X125952811Y-150934760D01*
X125952809Y-150934757D01*
X125819124Y-150716603D01*
X125819121Y-150716598D01*
X125755067Y-150641601D01*
X125652956Y-150522044D01*
X125546591Y-150431200D01*
X125458401Y-150355878D01*
X125458396Y-150355875D01*
X125240242Y-150222190D01*
X125240239Y-150222188D01*
X125003864Y-150124279D01*
X124963328Y-150114547D01*
X124755070Y-150064548D01*
X124755067Y-150064547D01*
X124755064Y-150064547D01*
X124500000Y-150044474D01*
X124244935Y-150064547D01*
X124244931Y-150064547D01*
X124244930Y-150064548D01*
X124120535Y-150094413D01*
X123996135Y-150124279D01*
X123759760Y-150222188D01*
X123759757Y-150222190D01*
X123541603Y-150355875D01*
X123541598Y-150355878D01*
X123347044Y-150522044D01*
X123180878Y-150716598D01*
X123180875Y-150716603D01*
X123047190Y-150934757D01*
X123047188Y-150934760D01*
X122949279Y-151171135D01*
X122889547Y-151419935D01*
X122869474Y-151675000D01*
X120925500Y-151675000D01*
X120925500Y-141271158D01*
X120925500Y-141271155D01*
X120925499Y-141271153D01*
X120922544Y-141256295D01*
X120894737Y-141116503D01*
X120854460Y-141019264D01*
X120834397Y-140970827D01*
X120834390Y-140970814D01*
X120746790Y-140839712D01*
X120738059Y-140830981D01*
X120635289Y-140728211D01*
X120326418Y-140419340D01*
X120292933Y-140358017D01*
X120297917Y-140288325D01*
X120339789Y-140232392D01*
X120348127Y-140226665D01*
X120349520Y-140225789D01*
X120349522Y-140225789D01*
X120502262Y-140129816D01*
X120502267Y-140129810D01*
X120505097Y-140127555D01*
X120507275Y-140126665D01*
X120508158Y-140126111D01*
X120508255Y-140126265D01*
X120569783Y-140101145D01*
X120582412Y-140100500D01*
X121699903Y-140100500D01*
X121766942Y-140120185D01*
X121787584Y-140136819D01*
X143766080Y-162115316D01*
X143799565Y-162176639D01*
X143794581Y-162246331D01*
X143752709Y-162302264D01*
X143707347Y-162323571D01*
X143496135Y-162374279D01*
X143259760Y-162472188D01*
X143259757Y-162472190D01*
X143041603Y-162605875D01*
X143041598Y-162605878D01*
X142847044Y-162772044D01*
X142680878Y-162966598D01*
X142680875Y-162966603D01*
X142547190Y-163184757D01*
X142547188Y-163184760D01*
X142449279Y-163421135D01*
X142449278Y-163421140D01*
X142390961Y-163664047D01*
X142389547Y-163669935D01*
X142369474Y-163925000D01*
X142389547Y-164180066D01*
X142416568Y-164292618D01*
X142413077Y-164362401D01*
X142383680Y-164409242D01*
X142378208Y-164414714D01*
X142290609Y-164545814D01*
X142290602Y-164545827D01*
X142230264Y-164691498D01*
X142230261Y-164691510D01*
X142199500Y-164846153D01*
X142199500Y-171075500D01*
X142179815Y-171142539D01*
X142127011Y-171188294D01*
X142075500Y-171199500D01*
X141810764Y-171199500D01*
X141743725Y-171179815D01*
X141697970Y-171127011D01*
X141694582Y-171118833D01*
X141643797Y-170982671D01*
X141643793Y-170982664D01*
X141557547Y-170867455D01*
X141557544Y-170867452D01*
X141442335Y-170781206D01*
X141442328Y-170781202D01*
X141307482Y-170730908D01*
X141307483Y-170730908D01*
X141247883Y-170724501D01*
X141247881Y-170724500D01*
X141247873Y-170724500D01*
X141247864Y-170724500D01*
X139152129Y-170724500D01*
X139152123Y-170724501D01*
X139092516Y-170730908D01*
X138957671Y-170781202D01*
X138957664Y-170781206D01*
X138842455Y-170867452D01*
X138842452Y-170867455D01*
X138756206Y-170982664D01*
X138756202Y-170982671D01*
X138705908Y-171117517D01*
X138699754Y-171174767D01*
X138699501Y-171177123D01*
X138699500Y-171177135D01*
X138699500Y-172822870D01*
X138699501Y-172822876D01*
X138705908Y-172882483D01*
X138756202Y-173017328D01*
X138756206Y-173017335D01*
X138842452Y-173132544D01*
X138842455Y-173132547D01*
X138957664Y-173218793D01*
X138957671Y-173218797D01*
X139092517Y-173269091D01*
X139092516Y-173269091D01*
X139099444Y-173269835D01*
X139152127Y-173275500D01*
X141247872Y-173275499D01*
X141307483Y-173269091D01*
X141442331Y-173218796D01*
X141557546Y-173132546D01*
X141643796Y-173017331D01*
X141672708Y-172939815D01*
X141694582Y-172881167D01*
X141736453Y-172825233D01*
X141801917Y-172800816D01*
X141810764Y-172800500D01*
X143093276Y-172800500D01*
X143093284Y-172800499D01*
X143622871Y-172800499D01*
X143622872Y-172800499D01*
X143682483Y-172794091D01*
X143817331Y-172743796D01*
X143926189Y-172662305D01*
X143991653Y-172637887D01*
X144059926Y-172652738D01*
X144109332Y-172702143D01*
X144124500Y-172761571D01*
X144124500Y-173307870D01*
X144124501Y-173307876D01*
X144130908Y-173367483D01*
X144181202Y-173502328D01*
X144181206Y-173502335D01*
X144267452Y-173617544D01*
X144267455Y-173617547D01*
X144382664Y-173703793D01*
X144382671Y-173703797D01*
X144517517Y-173754091D01*
X144517516Y-173754091D01*
X144524444Y-173754835D01*
X144577127Y-173760500D01*
X145822872Y-173760499D01*
X145882483Y-173754091D01*
X146017331Y-173703796D01*
X146132546Y-173617546D01*
X146218796Y-173502331D01*
X146269091Y-173367483D01*
X146275500Y-173307873D01*
X146275499Y-172785095D01*
X146295183Y-172718057D01*
X146311813Y-172697420D01*
X146433506Y-172575728D01*
X146433511Y-172575724D01*
X146443714Y-172565520D01*
X146443716Y-172565520D01*
X146555520Y-172453716D01*
X146616628Y-172347873D01*
X146634577Y-172316785D01*
X146675501Y-172164057D01*
X146675501Y-172005943D01*
X146675501Y-171998348D01*
X146675500Y-171998330D01*
X146675500Y-163664060D01*
X146675501Y-163664047D01*
X146675501Y-163495944D01*
X146655457Y-163421140D01*
X146634577Y-163343216D01*
X146607395Y-163296135D01*
X146555524Y-163206290D01*
X146555518Y-163206282D01*
X135074236Y-151725000D01*
X142369474Y-151725000D01*
X142389547Y-151980064D01*
X142389547Y-151980067D01*
X142389548Y-151980070D01*
X142443470Y-152204667D01*
X142449279Y-152228864D01*
X142547188Y-152465239D01*
X142547190Y-152465242D01*
X142680875Y-152683396D01*
X142680878Y-152683401D01*
X142740283Y-152752955D01*
X142847044Y-152877956D01*
X142961254Y-152975500D01*
X143041598Y-153044121D01*
X143041600Y-153044122D01*
X143041601Y-153044123D01*
X143055779Y-153052811D01*
X143259757Y-153177809D01*
X143259760Y-153177811D01*
X143496135Y-153275720D01*
X143496140Y-153275722D01*
X143744930Y-153335452D01*
X144000000Y-153355526D01*
X144255070Y-153335452D01*
X144503860Y-153275722D01*
X144661436Y-153210452D01*
X144740239Y-153177811D01*
X144740240Y-153177810D01*
X144740243Y-153177809D01*
X144958399Y-153044123D01*
X145152956Y-152877956D01*
X145319123Y-152683399D01*
X145452809Y-152465243D01*
X145473522Y-152415239D01*
X145550720Y-152228864D01*
X145550722Y-152228860D01*
X145610452Y-151980070D01*
X145630526Y-151725000D01*
X145610452Y-151469930D01*
X145550722Y-151221140D01*
X145537329Y-151188807D01*
X145452811Y-150984760D01*
X145452809Y-150984757D01*
X145319124Y-150766603D01*
X145319121Y-150766598D01*
X145259319Y-150696579D01*
X145152956Y-150572044D01*
X145046591Y-150481200D01*
X144958401Y-150405878D01*
X144958396Y-150405875D01*
X144740242Y-150272190D01*
X144740239Y-150272188D01*
X144503864Y-150174279D01*
X144503860Y-150174278D01*
X144255070Y-150114548D01*
X144255067Y-150114547D01*
X144255064Y-150114547D01*
X144000000Y-150094474D01*
X143744935Y-150114547D01*
X143744931Y-150114547D01*
X143744930Y-150114548D01*
X143621660Y-150144143D01*
X143496135Y-150174279D01*
X143259760Y-150272188D01*
X143259757Y-150272190D01*
X143041603Y-150405875D01*
X143041598Y-150405878D01*
X142847044Y-150572044D01*
X142680878Y-150766598D01*
X142680875Y-150766603D01*
X142547190Y-150984757D01*
X142547188Y-150984760D01*
X142449279Y-151221135D01*
X142389547Y-151469935D01*
X142369474Y-151725000D01*
X135074236Y-151725000D01*
X134538043Y-151188807D01*
X124244229Y-140894994D01*
X133519945Y-140894994D01*
X133519945Y-140895005D01*
X133540130Y-141138605D01*
X133600138Y-141375573D01*
X133698330Y-141599429D01*
X133794626Y-141746819D01*
X134398958Y-141142487D01*
X134423978Y-141202890D01*
X134495112Y-141309351D01*
X134585649Y-141399888D01*
X134692110Y-141471022D01*
X134752511Y-141496041D01*
X134147758Y-142100794D01*
X134147758Y-142100796D01*
X134190478Y-142134046D01*
X134190484Y-142134050D01*
X134405468Y-142250394D01*
X134405476Y-142250397D01*
X134636664Y-142329765D01*
X134877779Y-142370000D01*
X135122221Y-142370000D01*
X135363335Y-142329765D01*
X135594523Y-142250397D01*
X135594531Y-142250394D01*
X135809514Y-142134051D01*
X135809514Y-142134050D01*
X135852240Y-142100795D01*
X135852240Y-142100794D01*
X135247488Y-141496041D01*
X135307890Y-141471022D01*
X135414351Y-141399888D01*
X135504888Y-141309351D01*
X135576022Y-141202890D01*
X135601041Y-141142488D01*
X136205372Y-141746819D01*
X136301667Y-141599431D01*
X136301672Y-141599423D01*
X136399861Y-141375573D01*
X136459869Y-141138605D01*
X136480055Y-140895005D01*
X136480055Y-140894994D01*
X136459869Y-140651394D01*
X136399861Y-140414426D01*
X136301669Y-140190570D01*
X136205372Y-140043179D01*
X135601041Y-140647510D01*
X135576022Y-140587110D01*
X135504888Y-140480649D01*
X135414351Y-140390112D01*
X135307890Y-140318978D01*
X135247487Y-140293958D01*
X135852240Y-139689204D01*
X135852240Y-139689203D01*
X135809514Y-139655949D01*
X135594531Y-139539605D01*
X135594523Y-139539602D01*
X135363335Y-139460234D01*
X135122221Y-139420000D01*
X134877779Y-139420000D01*
X134636664Y-139460234D01*
X134405476Y-139539602D01*
X134405468Y-139539605D01*
X134190481Y-139655951D01*
X134147758Y-139689202D01*
X134147757Y-139689204D01*
X134752511Y-140293958D01*
X134692110Y-140318978D01*
X134585649Y-140390112D01*
X134495112Y-140480649D01*
X134423978Y-140587110D01*
X134398958Y-140647511D01*
X133794626Y-140043179D01*
X133698328Y-140190575D01*
X133600138Y-140414426D01*
X133540130Y-140651394D01*
X133519945Y-140894994D01*
X124244229Y-140894994D01*
X122487589Y-139138354D01*
X122487588Y-139138352D01*
X122368717Y-139019481D01*
X122368709Y-139019475D01*
X122266936Y-138960717D01*
X122266934Y-138960716D01*
X122231790Y-138940425D01*
X122231789Y-138940424D01*
X122219263Y-138937067D01*
X122079057Y-138899499D01*
X121920943Y-138899499D01*
X121913347Y-138899499D01*
X121913331Y-138899500D01*
X120582412Y-138899500D01*
X120515373Y-138879815D01*
X120505097Y-138872445D01*
X120502263Y-138870185D01*
X120502262Y-138870184D01*
X120445496Y-138834515D01*
X120349523Y-138774211D01*
X120179254Y-138714631D01*
X120179249Y-138714630D01*
X120000004Y-138694435D01*
X119999996Y-138694435D01*
X119820750Y-138714630D01*
X119820745Y-138714631D01*
X119650476Y-138774211D01*
X119497737Y-138870184D01*
X119370182Y-138997739D01*
X119273333Y-139151873D01*
X119220999Y-139198163D01*
X119151945Y-139208811D01*
X119088097Y-139180436D01*
X119080659Y-139173581D01*
X116309259Y-136402181D01*
X116275774Y-136340858D01*
X116280758Y-136271166D01*
X116322630Y-136215233D01*
X116388094Y-136190816D01*
X116396940Y-136190500D01*
X120048843Y-136190500D01*
X120187683Y-136162882D01*
X120211875Y-136160499D01*
X120847871Y-136160499D01*
X120847872Y-136160499D01*
X120907483Y-136154091D01*
X121042331Y-136103796D01*
X121157546Y-136017546D01*
X121184227Y-135981903D01*
X121200485Y-135960188D01*
X121256419Y-135918318D01*
X121299751Y-135910500D01*
X122903844Y-135910500D01*
X122903845Y-135910499D01*
X123058497Y-135879737D01*
X123204179Y-135819394D01*
X123335289Y-135731789D01*
X124695259Y-134371819D01*
X124756582Y-134338334D01*
X124782940Y-134335500D01*
X124831613Y-134335500D01*
X124831616Y-134335500D01*
X124902196Y-134329086D01*
X125064606Y-134278478D01*
X125210185Y-134190472D01*
X125330472Y-134070185D01*
X125418478Y-133924606D01*
X125469086Y-133762196D01*
X125475500Y-133691616D01*
X125475500Y-133178384D01*
X125469086Y-133107804D01*
X125418478Y-132945394D01*
X125330472Y-132799815D01*
X125330470Y-132799813D01*
X125330469Y-132799811D01*
X125327839Y-132797181D01*
X125326528Y-132794781D01*
X125325843Y-132793906D01*
X125325988Y-132793792D01*
X125294354Y-132735858D01*
X125299338Y-132666166D01*
X125341210Y-132610233D01*
X125406674Y-132585816D01*
X125415520Y-132585500D01*
X130587060Y-132585500D01*
X130654099Y-132605185D01*
X130674741Y-132621819D01*
X133488181Y-135435259D01*
X133521666Y-135496582D01*
X133524500Y-135522940D01*
X133524500Y-136837870D01*
X133524501Y-136837876D01*
X133530908Y-136897483D01*
X133581202Y-137032328D01*
X133581206Y-137032335D01*
X133667452Y-137147544D01*
X133667455Y-137147547D01*
X133782664Y-137233793D01*
X133782671Y-137233797D01*
X133917517Y-137284091D01*
X133917516Y-137284091D01*
X133924444Y-137284835D01*
X133977127Y-137290500D01*
X136022872Y-137290499D01*
X136082483Y-137284091D01*
X136217331Y-137233796D01*
X136332546Y-137147546D01*
X136418796Y-137032331D01*
X136469091Y-136897483D01*
X136475500Y-136837873D01*
X136475499Y-134792128D01*
X136469091Y-134732517D01*
X136437513Y-134647853D01*
X136418797Y-134597671D01*
X136418793Y-134597664D01*
X136332547Y-134482455D01*
X136332544Y-134482452D01*
X136217335Y-134396206D01*
X136217328Y-134396202D01*
X136082482Y-134345908D01*
X136082483Y-134345908D01*
X136022883Y-134339501D01*
X136022881Y-134339500D01*
X136022873Y-134339500D01*
X136022865Y-134339500D01*
X134707940Y-134339500D01*
X134640901Y-134319815D01*
X134620259Y-134303181D01*
X131480292Y-131163213D01*
X131480288Y-131163210D01*
X131349185Y-131075609D01*
X131349172Y-131075602D01*
X131203501Y-131015264D01*
X131203489Y-131015261D01*
X131048845Y-130984500D01*
X131048842Y-130984500D01*
X125170268Y-130984500D01*
X125106119Y-130966617D01*
X125064608Y-130941523D01*
X125064607Y-130941522D01*
X125064606Y-130941522D01*
X124902196Y-130890914D01*
X124902194Y-130890913D01*
X124902192Y-130890913D01*
X124852778Y-130886423D01*
X124831616Y-130884500D01*
X124831613Y-130884500D01*
X124782940Y-130884500D01*
X124715901Y-130864815D01*
X124695259Y-130848181D01*
X123535292Y-129688213D01*
X123535288Y-129688210D01*
X123404185Y-129600609D01*
X123404172Y-129600602D01*
X123258501Y-129540264D01*
X123258489Y-129540261D01*
X123103845Y-129509500D01*
X123103842Y-129509500D01*
X119476745Y-129509500D01*
X119409706Y-129489815D01*
X119363951Y-129437011D01*
X119354007Y-129367853D01*
X119383032Y-129304297D01*
X119389064Y-129297819D01*
X125168670Y-123518213D01*
X131230520Y-117456364D01*
X131309577Y-117319432D01*
X131350501Y-117166705D01*
X131350501Y-117008590D01*
X131350501Y-117000995D01*
X131350500Y-117000977D01*
X131350500Y-116676622D01*
X131370185Y-116609583D01*
X131415483Y-116567567D01*
X131559782Y-116489476D01*
X131559788Y-116489473D01*
X131752754Y-116339281D01*
X131918368Y-116159377D01*
X132052111Y-115954667D01*
X132150336Y-115730736D01*
X132210364Y-115493692D01*
X132214803Y-115440122D01*
X132230557Y-115250005D01*
X132230557Y-115249994D01*
X134269443Y-115249994D01*
X134269443Y-115250005D01*
X134289634Y-115493683D01*
X134289636Y-115493695D01*
X134349663Y-115730734D01*
X134447888Y-115954666D01*
X134581632Y-116159378D01*
X134747242Y-116339277D01*
X134747252Y-116339286D01*
X134940208Y-116489470D01*
X134940212Y-116489473D01*
X135140225Y-116597715D01*
X135155267Y-116605855D01*
X135155270Y-116605856D01*
X135386541Y-116685251D01*
X135386543Y-116685251D01*
X135386545Y-116685252D01*
X135627737Y-116725500D01*
X135627738Y-116725500D01*
X135872262Y-116725500D01*
X135872263Y-116725500D01*
X136113455Y-116685252D01*
X136344733Y-116605855D01*
X136559788Y-116489473D01*
X136752754Y-116339281D01*
X136918368Y-116159377D01*
X137052111Y-115954667D01*
X137150336Y-115730736D01*
X137210364Y-115493692D01*
X137214803Y-115440122D01*
X137230557Y-115250005D01*
X137230557Y-115249994D01*
X139269443Y-115249994D01*
X139269443Y-115250005D01*
X139289634Y-115493683D01*
X139289636Y-115493695D01*
X139349663Y-115730734D01*
X139447888Y-115954666D01*
X139581632Y-116159378D01*
X139747242Y-116339277D01*
X139747252Y-116339286D01*
X139940208Y-116489470D01*
X139940212Y-116489473D01*
X140140225Y-116597715D01*
X140155267Y-116605855D01*
X140155270Y-116605856D01*
X140386541Y-116685251D01*
X140386543Y-116685251D01*
X140386545Y-116685252D01*
X140627737Y-116725500D01*
X140627738Y-116725500D01*
X140872262Y-116725500D01*
X140872263Y-116725500D01*
X141113455Y-116685252D01*
X141344733Y-116605855D01*
X141559788Y-116489473D01*
X141752754Y-116339281D01*
X141918368Y-116159377D01*
X142052111Y-115954667D01*
X142150336Y-115730736D01*
X142210364Y-115493692D01*
X142214803Y-115440122D01*
X142230557Y-115250005D01*
X142230557Y-115249994D01*
X142210365Y-115006316D01*
X142210363Y-115006304D01*
X142197236Y-114954467D01*
X142150336Y-114769264D01*
X142052111Y-114545333D01*
X141918368Y-114340623D01*
X141918367Y-114340621D01*
X141752757Y-114160722D01*
X141752747Y-114160713D01*
X141559791Y-114010529D01*
X141559787Y-114010526D01*
X141344734Y-113894145D01*
X141344729Y-113894143D01*
X141113458Y-113814748D01*
X140932561Y-113784562D01*
X140872263Y-113774500D01*
X140627737Y-113774500D01*
X140579498Y-113782549D01*
X140386541Y-113814748D01*
X140155270Y-113894143D01*
X140155265Y-113894145D01*
X139940212Y-114010526D01*
X139940208Y-114010529D01*
X139747252Y-114160713D01*
X139747242Y-114160722D01*
X139581632Y-114340621D01*
X139447888Y-114545333D01*
X139349663Y-114769265D01*
X139289636Y-115006304D01*
X139289634Y-115006316D01*
X139269443Y-115249994D01*
X137230557Y-115249994D01*
X137210365Y-115006316D01*
X137210363Y-115006304D01*
X137197236Y-114954467D01*
X137150336Y-114769264D01*
X137052111Y-114545333D01*
X136918368Y-114340623D01*
X136918367Y-114340621D01*
X136752757Y-114160722D01*
X136752747Y-114160713D01*
X136559791Y-114010529D01*
X136559787Y-114010526D01*
X136344734Y-113894145D01*
X136344729Y-113894143D01*
X136113458Y-113814748D01*
X135932561Y-113784562D01*
X135872263Y-113774500D01*
X135627737Y-113774500D01*
X135579498Y-113782549D01*
X135386541Y-113814748D01*
X135155270Y-113894143D01*
X135155265Y-113894145D01*
X134940212Y-114010526D01*
X134940208Y-114010529D01*
X134747252Y-114160713D01*
X134747242Y-114160722D01*
X134581632Y-114340621D01*
X134447888Y-114545333D01*
X134349663Y-114769265D01*
X134289636Y-115006304D01*
X134289634Y-115006316D01*
X134269443Y-115249994D01*
X132230557Y-115249994D01*
X132210365Y-115006316D01*
X132210363Y-115006304D01*
X132197236Y-114954467D01*
X132150336Y-114769264D01*
X132052111Y-114545333D01*
X131918368Y-114340623D01*
X131918367Y-114340621D01*
X131752757Y-114160722D01*
X131752747Y-114160713D01*
X131559791Y-114010529D01*
X131559787Y-114010526D01*
X131344734Y-113894145D01*
X131344729Y-113894143D01*
X131113458Y-113814748D01*
X130932561Y-113784562D01*
X130872263Y-113774500D01*
X130627737Y-113774500D01*
X130579498Y-113782549D01*
X130386541Y-113814748D01*
X130155270Y-113894143D01*
X130155265Y-113894145D01*
X129940212Y-114010526D01*
X129940208Y-114010529D01*
X129747252Y-114160713D01*
X129747242Y-114160722D01*
X129581632Y-114340621D01*
X129447888Y-114545333D01*
X129349663Y-114769265D01*
X129289636Y-115006304D01*
X129289634Y-115006316D01*
X129269443Y-115249994D01*
X129269443Y-115250005D01*
X129289634Y-115493683D01*
X129289636Y-115493695D01*
X129349663Y-115730734D01*
X129447888Y-115954666D01*
X129581632Y-116159378D01*
X129747242Y-116339277D01*
X129747252Y-116339286D01*
X129908579Y-116464852D01*
X129940212Y-116489473D01*
X129940214Y-116489474D01*
X129940217Y-116489476D01*
X130084517Y-116567567D01*
X130134108Y-116616786D01*
X130149500Y-116676622D01*
X130149500Y-116787550D01*
X130129815Y-116854589D01*
X130113181Y-116875231D01*
X119877462Y-127110949D01*
X119816139Y-127144434D01*
X119746447Y-127139450D01*
X119690514Y-127097578D01*
X119683665Y-127087419D01*
X119655074Y-127040125D01*
X119655071Y-127040121D01*
X119534877Y-126919927D01*
X119389395Y-126831980D01*
X119389396Y-126831980D01*
X119227105Y-126781409D01*
X119227106Y-126781409D01*
X119156572Y-126775000D01*
X119150000Y-126775000D01*
X119150000Y-127787049D01*
X119130315Y-127854088D01*
X119113682Y-127874730D01*
X119024732Y-127963681D01*
X118963409Y-127997166D01*
X118937050Y-128000000D01*
X118774000Y-128000000D01*
X118706961Y-127980315D01*
X118661206Y-127927511D01*
X118650000Y-127876000D01*
X118650000Y-126775000D01*
X118649999Y-126774999D01*
X118643436Y-126775000D01*
X118643417Y-126775001D01*
X118572897Y-126781408D01*
X118572892Y-126781409D01*
X118410603Y-126831981D01*
X118265122Y-126919927D01*
X118265121Y-126919928D01*
X118163035Y-127022015D01*
X118101712Y-127055500D01*
X118032020Y-127050516D01*
X117987673Y-127022015D01*
X117886819Y-126921161D01*
X117853334Y-126859838D01*
X117850500Y-126833480D01*
X117850500Y-124050096D01*
X117870185Y-123983057D01*
X117886814Y-123962420D01*
X125166129Y-116683104D01*
X125227450Y-116649621D01*
X125294071Y-116653506D01*
X125386541Y-116685251D01*
X125386543Y-116685251D01*
X125386545Y-116685252D01*
X125627737Y-116725500D01*
X125627738Y-116725500D01*
X125872262Y-116725500D01*
X125872263Y-116725500D01*
X126113455Y-116685252D01*
X126344733Y-116605855D01*
X126559788Y-116489473D01*
X126752754Y-116339281D01*
X126918368Y-116159377D01*
X127052111Y-115954667D01*
X127150336Y-115730736D01*
X127210364Y-115493692D01*
X127214803Y-115440122D01*
X127230557Y-115250005D01*
X127230557Y-115249994D01*
X127210365Y-115006316D01*
X127210363Y-115006304D01*
X127197236Y-114954467D01*
X127150336Y-114769264D01*
X127052111Y-114545333D01*
X126918368Y-114340623D01*
X126918367Y-114340621D01*
X126752757Y-114160722D01*
X126752747Y-114160713D01*
X126559791Y-114010529D01*
X126559787Y-114010526D01*
X126344734Y-113894145D01*
X126344729Y-113894143D01*
X126113458Y-113814748D01*
X125932561Y-113784562D01*
X125872263Y-113774500D01*
X125627737Y-113774500D01*
X125579498Y-113782549D01*
X125386541Y-113814748D01*
X125155270Y-113894143D01*
X125155265Y-113894145D01*
X124940212Y-114010526D01*
X124940208Y-114010529D01*
X124747252Y-114160713D01*
X124747242Y-114160722D01*
X124581632Y-114340621D01*
X124447888Y-114545333D01*
X124349663Y-114769265D01*
X124289636Y-115006304D01*
X124289634Y-115006316D01*
X124269443Y-115249994D01*
X124269443Y-115250005D01*
X124289634Y-115493683D01*
X124289636Y-115493695D01*
X124346586Y-115718581D01*
X124343961Y-115788401D01*
X124314061Y-115836702D01*
X116881286Y-123269478D01*
X116769481Y-123381282D01*
X116769477Y-123381287D01*
X116752486Y-123410719D01*
X116742635Y-123427782D01*
X116690423Y-123518215D01*
X116649499Y-123670943D01*
X116649499Y-123670945D01*
X116649499Y-123839046D01*
X116649500Y-123839059D01*
X116649500Y-126833480D01*
X116629815Y-126900519D01*
X116613181Y-126921161D01*
X116494531Y-127039810D01*
X116494528Y-127039814D01*
X116452310Y-127109651D01*
X116400782Y-127156838D01*
X116346194Y-127169500D01*
X115511744Y-127169500D01*
X115444705Y-127149815D01*
X115411425Y-127118384D01*
X115341969Y-127022784D01*
X115197213Y-126878028D01*
X115031614Y-126757715D01*
X115025006Y-126754348D01*
X114938917Y-126710483D01*
X114888123Y-126662511D01*
X114871328Y-126594690D01*
X114893865Y-126528555D01*
X114938917Y-126489516D01*
X115031610Y-126442287D01*
X115052770Y-126426913D01*
X115197213Y-126321971D01*
X115197215Y-126321968D01*
X115197219Y-126321966D01*
X115341966Y-126177219D01*
X115341968Y-126177215D01*
X115341971Y-126177213D01*
X115394732Y-126104590D01*
X115462287Y-126011610D01*
X115555220Y-125829219D01*
X115618477Y-125634534D01*
X115650500Y-125432352D01*
X115650500Y-125227648D01*
X115618477Y-125025466D01*
X115603943Y-124980736D01*
X115555218Y-124830776D01*
X115510841Y-124743683D01*
X115462287Y-124648390D01*
X115454556Y-124637749D01*
X115341971Y-124482786D01*
X115197213Y-124338028D01*
X115031614Y-124217715D01*
X115025006Y-124214348D01*
X114938917Y-124170483D01*
X114888123Y-124122511D01*
X114871328Y-124054690D01*
X114893865Y-123988555D01*
X114938917Y-123949516D01*
X115031610Y-123902287D01*
X115118637Y-123839059D01*
X115197213Y-123781971D01*
X115197215Y-123781968D01*
X115197219Y-123781966D01*
X115341966Y-123637219D01*
X115341968Y-123637215D01*
X115341971Y-123637213D01*
X115428064Y-123518714D01*
X115462287Y-123471610D01*
X115555220Y-123289219D01*
X115618477Y-123094534D01*
X115650500Y-122892352D01*
X115650500Y-122687648D01*
X115618477Y-122485466D01*
X115555220Y-122290781D01*
X115555218Y-122290778D01*
X115555218Y-122290776D01*
X115512941Y-122207804D01*
X115462287Y-122108390D01*
X115416671Y-122045604D01*
X115341971Y-121942786D01*
X115197213Y-121798028D01*
X115031614Y-121677715D01*
X114960359Y-121641409D01*
X114938917Y-121630483D01*
X114888123Y-121582511D01*
X114871328Y-121514690D01*
X114893865Y-121448555D01*
X114938917Y-121409516D01*
X115031610Y-121362287D01*
X115052770Y-121346913D01*
X115197213Y-121241971D01*
X115197215Y-121241968D01*
X115197219Y-121241966D01*
X115341966Y-121097219D01*
X115341968Y-121097215D01*
X115341971Y-121097213D01*
X115430399Y-120975500D01*
X115462287Y-120931610D01*
X115555220Y-120749219D01*
X115618477Y-120554534D01*
X115650500Y-120352352D01*
X115650500Y-120147648D01*
X115618477Y-119945466D01*
X115555220Y-119750781D01*
X115555218Y-119750778D01*
X115555218Y-119750776D01*
X115521503Y-119684607D01*
X115462287Y-119568390D01*
X115412603Y-119500005D01*
X115341971Y-119402786D01*
X115197213Y-119258028D01*
X115031614Y-119137715D01*
X115025006Y-119134348D01*
X114938917Y-119090483D01*
X114888123Y-119042511D01*
X114871328Y-118974690D01*
X114893865Y-118908555D01*
X114938917Y-118869516D01*
X115031610Y-118822287D01*
X115068709Y-118795333D01*
X115197213Y-118701971D01*
X115197215Y-118701968D01*
X115197219Y-118701966D01*
X115341966Y-118557219D01*
X115341968Y-118557215D01*
X115341971Y-118557213D01*
X115448401Y-118410722D01*
X115462287Y-118391610D01*
X115555220Y-118209219D01*
X115618477Y-118014534D01*
X115650500Y-117812352D01*
X115650500Y-117607648D01*
X115618477Y-117405465D01*
X115555218Y-117210776D01*
X115521503Y-117144607D01*
X115462287Y-117028390D01*
X115442384Y-117000995D01*
X115341971Y-116862786D01*
X115197213Y-116718028D01*
X115031613Y-116597715D01*
X115031612Y-116597714D01*
X115031610Y-116597713D01*
X114870227Y-116515484D01*
X114819431Y-116467509D01*
X114802636Y-116399688D01*
X114825173Y-116333553D01*
X114879889Y-116290102D01*
X114926603Y-116280999D01*
X115684816Y-116281495D01*
X115684816Y-116281494D01*
X115684817Y-116281495D01*
X115671382Y-114980736D01*
X115613161Y-109343601D01*
X89892689Y-109350365D01*
X89876124Y-116269616D01*
X89903506Y-116319944D01*
X89898416Y-116389628D01*
X89881567Y-116420428D01*
X89846206Y-116467664D01*
X89846202Y-116467671D01*
X89795908Y-116602517D01*
X89790427Y-116653506D01*
X89789501Y-116662123D01*
X89789500Y-116662135D01*
X89789500Y-118757870D01*
X89789501Y-118757876D01*
X89795908Y-118817483D01*
X89846202Y-118952328D01*
X89846206Y-118952335D01*
X89932452Y-119067544D01*
X89932455Y-119067547D01*
X90047664Y-119153793D01*
X90047673Y-119153798D01*
X90084914Y-119167688D01*
X90140848Y-119209559D01*
X90165266Y-119275023D01*
X90150415Y-119343296D01*
X90129265Y-119371550D01*
X90098027Y-119402787D01*
X89977715Y-119568386D01*
X89884781Y-119750776D01*
X89821522Y-119945465D01*
X89789500Y-120147648D01*
X89789500Y-120352351D01*
X89821522Y-120554534D01*
X89884781Y-120749223D01*
X89977715Y-120931613D01*
X90098028Y-121097213D01*
X90242786Y-121241971D01*
X90397749Y-121354556D01*
X90408390Y-121362287D01*
X90499840Y-121408883D01*
X90501080Y-121409515D01*
X90551876Y-121457490D01*
X90568671Y-121525311D01*
X90546134Y-121591446D01*
X90501080Y-121630485D01*
X90408386Y-121677715D01*
X90242786Y-121798028D01*
X90098032Y-121942782D01*
X90098028Y-121942787D01*
X90086696Y-121958385D01*
X90031366Y-122001051D01*
X89986378Y-122009500D01*
X89446715Y-122009500D01*
X89379676Y-121989815D01*
X89340598Y-121949650D01*
X89310472Y-121899815D01*
X89310470Y-121899813D01*
X89310469Y-121899811D01*
X89190188Y-121779530D01*
X89044606Y-121691522D01*
X89000290Y-121677713D01*
X88882196Y-121640914D01*
X88882194Y-121640913D01*
X88882192Y-121640913D01*
X88832778Y-121636423D01*
X88811616Y-121634500D01*
X88298384Y-121634500D01*
X88279145Y-121636248D01*
X88227807Y-121640913D01*
X88065393Y-121691522D01*
X87919811Y-121779530D01*
X87919810Y-121779531D01*
X87817327Y-121882015D01*
X87756004Y-121915500D01*
X87686312Y-121910516D01*
X87641965Y-121882015D01*
X87539877Y-121779927D01*
X87394395Y-121691980D01*
X87394396Y-121691980D01*
X87232105Y-121641409D01*
X87232106Y-121641409D01*
X87161572Y-121635000D01*
X87155000Y-121635000D01*
X87155000Y-122736000D01*
X87135315Y-122803039D01*
X87082511Y-122848794D01*
X87031000Y-122860000D01*
X86005001Y-122860000D01*
X86005001Y-122941582D01*
X86011408Y-123012102D01*
X86011409Y-123012107D01*
X86061981Y-123174396D01*
X86149927Y-123319877D01*
X86270122Y-123440072D01*
X86400212Y-123518714D01*
X86447399Y-123570242D01*
X86459238Y-123639101D01*
X86431969Y-123703430D01*
X86423743Y-123712512D01*
X74273076Y-135863181D01*
X74211753Y-135896666D01*
X74185395Y-135899500D01*
X71678816Y-135899500D01*
X71611777Y-135879815D01*
X71566022Y-135827011D01*
X71565260Y-135825309D01*
X71552112Y-135795334D01*
X71418367Y-135590621D01*
X71252757Y-135410722D01*
X71252747Y-135410713D01*
X71059791Y-135260529D01*
X71059787Y-135260526D01*
X70844734Y-135144145D01*
X70844729Y-135144143D01*
X70613458Y-135064748D01*
X70432561Y-135034562D01*
X70372263Y-135024500D01*
X70127737Y-135024500D01*
X70093281Y-135030249D01*
X69886539Y-135064748D01*
X69739762Y-135115137D01*
X69669964Y-135118287D01*
X69609543Y-135083200D01*
X69577682Y-135021018D01*
X69575500Y-134997856D01*
X69575500Y-131107940D01*
X69595185Y-131040901D01*
X69611819Y-131020259D01*
X69643072Y-130989006D01*
X69704395Y-130955521D01*
X69751163Y-130954378D01*
X69877737Y-130975500D01*
X69877738Y-130975500D01*
X70122262Y-130975500D01*
X70122263Y-130975500D01*
X70363455Y-130935252D01*
X70594733Y-130855855D01*
X70809788Y-130739473D01*
X71002754Y-130589281D01*
X71168368Y-130409377D01*
X71302111Y-130204667D01*
X71400336Y-129980736D01*
X71460364Y-129743692D01*
X71461632Y-129728390D01*
X71480557Y-129500005D01*
X71480557Y-129499994D01*
X71460365Y-129256316D01*
X71460363Y-129256304D01*
X71446741Y-129202511D01*
X71400336Y-129019264D01*
X71302111Y-128795333D01*
X71226343Y-128679361D01*
X71168367Y-128590621D01*
X71002757Y-128410722D01*
X71002747Y-128410713D01*
X70809791Y-128260529D01*
X70809787Y-128260526D01*
X70594734Y-128144145D01*
X70594729Y-128144143D01*
X70363458Y-128064748D01*
X70182561Y-128034562D01*
X70122263Y-128024500D01*
X69877737Y-128024500D01*
X69829498Y-128032549D01*
X69636541Y-128064748D01*
X69405270Y-128144143D01*
X69405265Y-128144145D01*
X69190212Y-128260526D01*
X69190208Y-128260529D01*
X68997252Y-128410713D01*
X68997242Y-128410722D01*
X68831632Y-128590621D01*
X68697888Y-128795333D01*
X68599663Y-129019265D01*
X68539636Y-129256304D01*
X68539634Y-129256316D01*
X68519443Y-129499994D01*
X68519443Y-129500005D01*
X68539635Y-129743690D01*
X68540480Y-129748753D01*
X68539205Y-129748965D01*
X68536805Y-129812718D01*
X68506908Y-129861012D01*
X68264711Y-130103211D01*
X68208960Y-130158962D01*
X68153209Y-130214712D01*
X68065609Y-130345814D01*
X68065602Y-130345827D01*
X68005264Y-130491498D01*
X68005261Y-130491510D01*
X67974500Y-130646153D01*
X67974500Y-150103846D01*
X68005261Y-150258489D01*
X68005264Y-150258501D01*
X68065602Y-150404172D01*
X68065609Y-150404185D01*
X68153210Y-150535288D01*
X68153213Y-150535292D01*
X68756908Y-151138986D01*
X68790393Y-151200309D01*
X68789538Y-151251089D01*
X68790480Y-151251247D01*
X68789635Y-151256309D01*
X68769443Y-151499994D01*
X68769443Y-151500005D01*
X68789634Y-151743683D01*
X68789636Y-151743695D01*
X68849663Y-151980734D01*
X68947888Y-152204666D01*
X69081632Y-152409378D01*
X69247242Y-152589277D01*
X69247252Y-152589286D01*
X69368168Y-152683399D01*
X69440212Y-152739473D01*
X69655267Y-152855855D01*
X69655270Y-152855856D01*
X69886541Y-152935251D01*
X69886543Y-152935251D01*
X69886545Y-152935252D01*
X70127737Y-152975500D01*
X70127738Y-152975500D01*
X70372262Y-152975500D01*
X70372263Y-152975500D01*
X70613455Y-152935252D01*
X70844733Y-152855855D01*
X71059788Y-152739473D01*
X71252754Y-152589281D01*
X71418368Y-152409377D01*
X71552111Y-152204667D01*
X71650336Y-151980736D01*
X71710364Y-151743692D01*
X71722271Y-151600000D01*
X103369474Y-151600000D01*
X103389547Y-151855064D01*
X103449279Y-152103864D01*
X103547188Y-152340239D01*
X103547190Y-152340242D01*
X103680875Y-152558396D01*
X103680878Y-152558401D01*
X103744930Y-152633396D01*
X103847044Y-152752956D01*
X103934857Y-152827955D01*
X104041598Y-152919121D01*
X104041603Y-152919124D01*
X104259757Y-153052809D01*
X104259760Y-153052811D01*
X104496135Y-153150720D01*
X104496140Y-153150722D01*
X104744930Y-153210452D01*
X105000000Y-153230526D01*
X105255070Y-153210452D01*
X105503860Y-153150722D01*
X105622051Y-153101765D01*
X105740239Y-153052811D01*
X105740240Y-153052810D01*
X105740243Y-153052809D01*
X105958399Y-152919123D01*
X106152956Y-152752956D01*
X106319123Y-152558399D01*
X106452809Y-152340243D01*
X106550722Y-152103860D01*
X106610452Y-151855070D01*
X106630526Y-151600000D01*
X106610452Y-151344930D01*
X106550722Y-151096140D01*
X106550720Y-151096135D01*
X106452811Y-150859760D01*
X106452809Y-150859757D01*
X106319124Y-150641603D01*
X106319121Y-150641598D01*
X106259319Y-150571579D01*
X106152956Y-150447044D01*
X106046211Y-150355875D01*
X105958401Y-150280878D01*
X105958396Y-150280875D01*
X105740242Y-150147190D01*
X105740239Y-150147188D01*
X105503864Y-150049279D01*
X105503860Y-150049278D01*
X105255070Y-149989548D01*
X105255067Y-149989547D01*
X105255064Y-149989547D01*
X105000000Y-149969474D01*
X104744935Y-149989547D01*
X104744931Y-149989547D01*
X104744930Y-149989548D01*
X104620535Y-150019413D01*
X104496135Y-150049279D01*
X104259760Y-150147188D01*
X104259757Y-150147190D01*
X104041603Y-150280875D01*
X104041598Y-150280878D01*
X103847044Y-150447044D01*
X103680878Y-150641598D01*
X103680875Y-150641603D01*
X103547190Y-150859757D01*
X103547188Y-150859760D01*
X103449279Y-151096135D01*
X103389547Y-151344935D01*
X103369474Y-151600000D01*
X71722271Y-151600000D01*
X71730557Y-151500000D01*
X71728065Y-151469930D01*
X71710365Y-151256316D01*
X71710363Y-151256304D01*
X71650336Y-151019265D01*
X71635199Y-150984757D01*
X71552111Y-150795333D01*
X71533338Y-150766598D01*
X71418367Y-150590621D01*
X71252757Y-150410722D01*
X71252747Y-150410713D01*
X71059791Y-150260529D01*
X71059787Y-150260526D01*
X70844734Y-150144145D01*
X70844729Y-150144143D01*
X70613458Y-150064748D01*
X70432561Y-150034562D01*
X70372263Y-150024500D01*
X70127737Y-150024500D01*
X70001161Y-150045621D01*
X69931796Y-150037239D01*
X69893071Y-150010993D01*
X69611819Y-149729741D01*
X69578334Y-149668418D01*
X69575500Y-149642060D01*
X69575500Y-148002143D01*
X69595185Y-147935104D01*
X69647989Y-147889349D01*
X69717147Y-147879405D01*
X69739760Y-147884861D01*
X69752833Y-147889349D01*
X69886541Y-147935251D01*
X69886543Y-147935251D01*
X69886545Y-147935252D01*
X70127737Y-147975500D01*
X70127738Y-147975500D01*
X70372262Y-147975500D01*
X70372263Y-147975500D01*
X70613455Y-147935252D01*
X70844733Y-147855855D01*
X71059788Y-147739473D01*
X71252754Y-147589281D01*
X71418368Y-147409377D01*
X71552111Y-147204667D01*
X71650336Y-146980736D01*
X71710364Y-146743692D01*
X71730557Y-146500000D01*
X71710364Y-146256308D01*
X71650336Y-146019264D01*
X71552111Y-145795333D01*
X71418368Y-145590623D01*
X71418367Y-145590621D01*
X71252757Y-145410722D01*
X71252747Y-145410713D01*
X71059791Y-145260529D01*
X71059787Y-145260526D01*
X70844734Y-145144145D01*
X70844729Y-145144143D01*
X70613458Y-145064748D01*
X70432561Y-145034562D01*
X70372263Y-145024500D01*
X70127737Y-145024500D01*
X70093281Y-145030249D01*
X69886539Y-145064748D01*
X69739762Y-145115137D01*
X69669964Y-145118287D01*
X69609543Y-145083200D01*
X69577682Y-145021018D01*
X69575500Y-144997856D01*
X69575500Y-143002143D01*
X69595185Y-142935104D01*
X69647989Y-142889349D01*
X69717147Y-142879405D01*
X69739760Y-142884861D01*
X69752833Y-142889349D01*
X69886541Y-142935251D01*
X69886543Y-142935251D01*
X69886545Y-142935252D01*
X70127737Y-142975500D01*
X70127738Y-142975500D01*
X70372262Y-142975500D01*
X70372263Y-142975500D01*
X70613455Y-142935252D01*
X70844733Y-142855855D01*
X71059788Y-142739473D01*
X71252754Y-142589281D01*
X71418368Y-142409377D01*
X71552111Y-142204667D01*
X71650336Y-141980736D01*
X71710364Y-141743692D01*
X71715511Y-141681578D01*
X71730557Y-141500005D01*
X71730557Y-141499994D01*
X71710365Y-141256316D01*
X71710364Y-141256312D01*
X71710364Y-141256308D01*
X71653413Y-141031415D01*
X71656037Y-140961598D01*
X71685935Y-140913298D01*
X76572416Y-136026819D01*
X76633739Y-135993334D01*
X76660097Y-135990500D01*
X89809445Y-135990500D01*
X89876484Y-136010185D01*
X89919930Y-136058205D01*
X89972051Y-136160498D01*
X89977715Y-136171613D01*
X90098028Y-136337213D01*
X90242786Y-136481971D01*
X90397749Y-136594556D01*
X90408390Y-136602287D01*
X90524607Y-136661503D01*
X90590776Y-136695218D01*
X90590778Y-136695218D01*
X90590781Y-136695220D01*
X90695137Y-136729127D01*
X90785465Y-136758477D01*
X90886557Y-136774488D01*
X90987648Y-136790500D01*
X90987649Y-136790500D01*
X91592351Y-136790500D01*
X91592352Y-136790500D01*
X91794534Y-136758477D01*
X91989219Y-136695220D01*
X92171610Y-136602287D01*
X92264590Y-136534732D01*
X92337213Y-136481971D01*
X92337215Y-136481968D01*
X92337219Y-136481966D01*
X92481966Y-136337219D01*
X92481968Y-136337215D01*
X92481971Y-136337213D01*
X92570593Y-136215233D01*
X92602287Y-136171610D01*
X92695220Y-135989219D01*
X92758477Y-135794534D01*
X92790500Y-135592352D01*
X92790500Y-135387648D01*
X92770366Y-135260526D01*
X92758477Y-135185465D01*
X92719253Y-135064748D01*
X92695220Y-134990781D01*
X92695217Y-134990777D01*
X92695217Y-134990774D01*
X92688269Y-134977138D01*
X92675372Y-134908469D01*
X92701648Y-134843728D01*
X92711063Y-134833170D01*
X97697416Y-129846819D01*
X97758739Y-129813334D01*
X97785097Y-129810500D01*
X112606692Y-129810500D01*
X112673731Y-129830185D01*
X112719486Y-129882989D01*
X112729430Y-129952147D01*
X112724623Y-129972814D01*
X112715194Y-130001834D01*
X112681522Y-130105465D01*
X112649500Y-130307648D01*
X112649500Y-130512351D01*
X112681522Y-130714534D01*
X112744781Y-130909223D01*
X112837715Y-131091613D01*
X112958028Y-131257213D01*
X113102786Y-131401971D01*
X113257749Y-131514556D01*
X113268390Y-131522287D01*
X113332434Y-131554919D01*
X113361629Y-131569795D01*
X113412425Y-131617770D01*
X113429220Y-131685591D01*
X113406682Y-131751726D01*
X113361629Y-131790765D01*
X113268650Y-131838140D01*
X113103105Y-131958417D01*
X113103104Y-131958417D01*
X112958417Y-132103104D01*
X112958417Y-132103105D01*
X112838140Y-132268650D01*
X112745244Y-132450970D01*
X112682009Y-132645586D01*
X112673391Y-132700000D01*
X113716988Y-132700000D01*
X113684075Y-132757007D01*
X113650000Y-132884174D01*
X113650000Y-133015826D01*
X113684075Y-133142993D01*
X113716988Y-133200000D01*
X112673391Y-133200000D01*
X112682009Y-133254413D01*
X112745244Y-133449029D01*
X112838140Y-133631349D01*
X112958417Y-133796894D01*
X112958417Y-133796895D01*
X113103104Y-133941582D01*
X113268652Y-134061861D01*
X113361628Y-134109234D01*
X113412425Y-134157208D01*
X113429220Y-134225029D01*
X113406683Y-134291164D01*
X113361630Y-134330203D01*
X113268388Y-134377713D01*
X113102786Y-134498028D01*
X112958028Y-134642786D01*
X112837715Y-134808386D01*
X112744781Y-134990776D01*
X112681522Y-135185465D01*
X112649500Y-135387648D01*
X112649500Y-135592351D01*
X112681522Y-135794534D01*
X112744781Y-135989223D01*
X112779930Y-136058205D01*
X112832051Y-136160498D01*
X112837715Y-136171613D01*
X112958028Y-136337213D01*
X113102786Y-136481971D01*
X113257749Y-136594556D01*
X113268390Y-136602287D01*
X113384607Y-136661503D01*
X113450776Y-136695218D01*
X113450778Y-136695218D01*
X113450781Y-136695220D01*
X113555137Y-136729127D01*
X113645465Y-136758477D01*
X113746557Y-136774488D01*
X113847648Y-136790500D01*
X114382060Y-136790500D01*
X114449099Y-136810185D01*
X114469741Y-136826819D01*
X119288181Y-141645259D01*
X119321666Y-141706582D01*
X119324500Y-141732940D01*
X119324500Y-164271512D01*
X119304815Y-164338551D01*
X119252011Y-164384306D01*
X119182853Y-164394250D01*
X119153048Y-164386073D01*
X119003864Y-164324279D01*
X118944980Y-164310142D01*
X118755070Y-164264548D01*
X118755067Y-164264547D01*
X118755064Y-164264547D01*
X118500000Y-164244474D01*
X118244933Y-164264547D01*
X118244930Y-164264547D01*
X118132380Y-164291568D01*
X118062598Y-164288077D01*
X118015753Y-164258675D01*
X115310292Y-161553213D01*
X115310288Y-161553210D01*
X115179185Y-161465609D01*
X115179172Y-161465602D01*
X115033501Y-161405264D01*
X115033489Y-161405261D01*
X114878845Y-161374500D01*
X114878842Y-161374500D01*
X102703842Y-161374500D01*
X102546157Y-161374500D01*
X102546155Y-161374500D01*
X102391508Y-161405261D01*
X102391498Y-161405264D01*
X102245827Y-161465602D01*
X102245815Y-161465609D01*
X102157680Y-161524500D01*
X102157679Y-161524501D01*
X102114708Y-161553212D01*
X99484245Y-164183675D01*
X99422922Y-164217160D01*
X99367617Y-164216568D01*
X99255066Y-164189547D01*
X99000000Y-164169474D01*
X98744935Y-164189547D01*
X98744931Y-164189547D01*
X98744930Y-164189548D01*
X98632385Y-164216568D01*
X98496135Y-164249279D01*
X98259760Y-164347188D01*
X98259757Y-164347190D01*
X98041603Y-164480875D01*
X98041598Y-164480878D01*
X97847044Y-164647044D01*
X97680878Y-164841598D01*
X97680875Y-164841603D01*
X97547190Y-165059757D01*
X97547188Y-165059760D01*
X97449279Y-165296135D01*
X97436174Y-165350720D01*
X97391824Y-165535452D01*
X97389547Y-165544935D01*
X97369474Y-165800000D01*
X97389547Y-166055064D01*
X97449279Y-166303864D01*
X97547188Y-166540239D01*
X97547190Y-166540242D01*
X97680875Y-166758396D01*
X97680878Y-166758401D01*
X97700681Y-166781587D01*
X97847044Y-166952956D01*
X97918854Y-167014287D01*
X98041598Y-167119121D01*
X98041600Y-167119122D01*
X98041601Y-167119123D01*
X98184798Y-167206874D01*
X98259757Y-167252809D01*
X98259760Y-167252811D01*
X98496135Y-167350720D01*
X98496140Y-167350722D01*
X98744930Y-167410452D01*
X99000000Y-167430526D01*
X99255070Y-167410452D01*
X99503860Y-167350722D01*
X99622051Y-167301765D01*
X99740239Y-167252811D01*
X99740240Y-167252810D01*
X99740243Y-167252809D01*
X99958399Y-167119123D01*
X100152956Y-166952956D01*
X100319123Y-166758399D01*
X100452809Y-166540243D01*
X100457861Y-166528048D01*
X100550720Y-166303864D01*
X100550722Y-166303860D01*
X100610452Y-166055070D01*
X100630526Y-165800000D01*
X100610452Y-165544930D01*
X100583430Y-165432379D01*
X100586920Y-165362600D01*
X100616321Y-165315755D01*
X102920259Y-163011819D01*
X102981582Y-162978334D01*
X103007940Y-162975500D01*
X103396512Y-162975500D01*
X103463551Y-162995185D01*
X103509306Y-163047989D01*
X103519250Y-163117147D01*
X103511073Y-163146952D01*
X103449279Y-163296135D01*
X103389547Y-163544935D01*
X103369474Y-163800000D01*
X103389547Y-164055066D01*
X103416568Y-164167618D01*
X103413077Y-164237401D01*
X103383680Y-164284242D01*
X103378208Y-164289714D01*
X103290609Y-164420814D01*
X103290602Y-164420827D01*
X103230264Y-164566498D01*
X103230261Y-164566510D01*
X103199500Y-164721153D01*
X103199500Y-171075500D01*
X103179815Y-171142539D01*
X103127011Y-171188294D01*
X103075500Y-171199500D01*
X102710764Y-171199500D01*
X102643725Y-171179815D01*
X102597970Y-171127011D01*
X102594582Y-171118833D01*
X102543797Y-170982671D01*
X102543793Y-170982664D01*
X102457547Y-170867455D01*
X102457544Y-170867452D01*
X102342335Y-170781206D01*
X102342328Y-170781202D01*
X102207482Y-170730908D01*
X102207483Y-170730908D01*
X102147883Y-170724501D01*
X102147881Y-170724500D01*
X102147873Y-170724500D01*
X102147864Y-170724500D01*
X100052129Y-170724500D01*
X100052123Y-170724501D01*
X99992516Y-170730908D01*
X99857671Y-170781202D01*
X99857664Y-170781206D01*
X99742455Y-170867452D01*
X99742452Y-170867455D01*
X99656206Y-170982664D01*
X99656202Y-170982671D01*
X99605908Y-171117517D01*
X99599754Y-171174767D01*
X99599501Y-171177123D01*
X99599500Y-171177135D01*
X99599500Y-172822870D01*
X99599679Y-172826195D01*
X99598707Y-172826246D01*
X99587034Y-172890992D01*
X99539429Y-172942135D01*
X99476144Y-172959500D01*
X99042940Y-172959500D01*
X98975901Y-172939815D01*
X98955259Y-172923181D01*
X98436818Y-172404740D01*
X98403333Y-172343417D01*
X98400499Y-172317059D01*
X98400499Y-171177129D01*
X98400498Y-171177123D01*
X98400497Y-171177116D01*
X98395112Y-171127011D01*
X98394091Y-171117516D01*
X98343797Y-170982671D01*
X98343793Y-170982664D01*
X98257547Y-170867455D01*
X98257544Y-170867452D01*
X98142335Y-170781206D01*
X98142328Y-170781202D01*
X98007482Y-170730908D01*
X98007483Y-170730908D01*
X97947883Y-170724501D01*
X97947881Y-170724500D01*
X97947873Y-170724500D01*
X97947865Y-170724500D01*
X96807940Y-170724500D01*
X96740901Y-170704815D01*
X96720259Y-170688181D01*
X93836819Y-167804741D01*
X93803334Y-167743418D01*
X93800500Y-167717060D01*
X93800500Y-165285327D01*
X93820185Y-165218288D01*
X93859710Y-165179599D01*
X93958399Y-165119123D01*
X94152956Y-164952956D01*
X94319123Y-164758399D01*
X94452809Y-164540243D01*
X94480998Y-164472190D01*
X94519656Y-164378860D01*
X94550722Y-164303860D01*
X94610452Y-164055070D01*
X94630526Y-163800000D01*
X94610452Y-163544930D01*
X94550722Y-163296140D01*
X94513505Y-163206290D01*
X94452811Y-163059760D01*
X94452809Y-163059757D01*
X94423433Y-163011819D01*
X94319123Y-162841601D01*
X94319122Y-162841600D01*
X94319121Y-162841598D01*
X94180772Y-162679613D01*
X94152956Y-162647044D01*
X94046211Y-162555875D01*
X93958401Y-162480878D01*
X93958396Y-162480875D01*
X93740242Y-162347190D01*
X93740239Y-162347188D01*
X93503864Y-162249279D01*
X93483850Y-162244474D01*
X93255070Y-162189548D01*
X93255067Y-162189547D01*
X93255064Y-162189547D01*
X93000000Y-162169474D01*
X92744935Y-162189547D01*
X92744931Y-162189547D01*
X92744930Y-162189548D01*
X92620535Y-162219413D01*
X92496135Y-162249279D01*
X92259760Y-162347188D01*
X92259757Y-162347190D01*
X92041603Y-162480875D01*
X92041598Y-162480878D01*
X91847041Y-162647046D01*
X91680879Y-162841597D01*
X91666934Y-162864354D01*
X91620398Y-162940291D01*
X91568589Y-162987165D01*
X91514673Y-162999500D01*
X79325173Y-162999500D01*
X79258134Y-162979815D01*
X79237492Y-162963181D01*
X74241797Y-157967486D01*
X80299500Y-157967486D01*
X80299500Y-158262513D01*
X80331571Y-158506113D01*
X80338007Y-158554993D01*
X80338008Y-158554995D01*
X80414361Y-158839951D01*
X80414364Y-158839961D01*
X80527254Y-159112500D01*
X80527258Y-159112510D01*
X80674761Y-159367993D01*
X80854352Y-159602040D01*
X80854358Y-159602047D01*
X81062952Y-159810641D01*
X81062959Y-159810647D01*
X81297006Y-159990238D01*
X81552489Y-160137741D01*
X81552490Y-160137741D01*
X81552493Y-160137743D01*
X81825048Y-160250639D01*
X82110007Y-160326993D01*
X82402494Y-160365500D01*
X82402501Y-160365500D01*
X82697499Y-160365500D01*
X82697506Y-160365500D01*
X82989993Y-160326993D01*
X83274952Y-160250639D01*
X83547507Y-160137743D01*
X83802994Y-159990238D01*
X84037042Y-159810646D01*
X84245646Y-159602042D01*
X84425238Y-159367994D01*
X84572743Y-159112507D01*
X84685639Y-158839952D01*
X84761993Y-158554993D01*
X84800500Y-158262506D01*
X84800500Y-157967494D01*
X84761993Y-157675007D01*
X84685639Y-157390048D01*
X84572743Y-157117493D01*
X84425238Y-156862006D01*
X84245646Y-156627958D01*
X84245641Y-156627952D01*
X84037047Y-156419358D01*
X84037040Y-156419352D01*
X83802993Y-156239761D01*
X83547510Y-156092258D01*
X83547500Y-156092254D01*
X83274961Y-155979364D01*
X83274954Y-155979362D01*
X83274952Y-155979361D01*
X82989993Y-155903007D01*
X82941113Y-155896571D01*
X82697513Y-155864500D01*
X82697506Y-155864500D01*
X82402494Y-155864500D01*
X82402486Y-155864500D01*
X82124085Y-155901153D01*
X82110007Y-155903007D01*
X81825048Y-155979361D01*
X81825038Y-155979364D01*
X81552499Y-156092254D01*
X81552489Y-156092258D01*
X81297006Y-156239761D01*
X81062959Y-156419352D01*
X81062952Y-156419358D01*
X80854358Y-156627952D01*
X80854352Y-156627959D01*
X80674761Y-156862006D01*
X80527258Y-157117489D01*
X80527254Y-157117499D01*
X80414364Y-157390038D01*
X80414361Y-157390048D01*
X80338008Y-157675004D01*
X80338006Y-157675015D01*
X80299500Y-157967486D01*
X74241797Y-157967486D01*
X63111819Y-146837508D01*
X63078334Y-146776185D01*
X63075500Y-146749827D01*
X63075500Y-124499994D01*
X68519443Y-124499994D01*
X68519443Y-124500005D01*
X68539634Y-124743683D01*
X68539636Y-124743695D01*
X68599663Y-124980734D01*
X68697888Y-125204666D01*
X68831632Y-125409378D01*
X68997242Y-125589277D01*
X68997246Y-125589281D01*
X69190212Y-125739473D01*
X69405267Y-125855855D01*
X69405270Y-125855856D01*
X69636541Y-125935251D01*
X69636543Y-125935251D01*
X69636545Y-125935252D01*
X69877737Y-125975500D01*
X69877738Y-125975500D01*
X70122262Y-125975500D01*
X70122263Y-125975500D01*
X70363455Y-125935252D01*
X70594733Y-125855855D01*
X70809788Y-125739473D01*
X71002754Y-125589281D01*
X71168368Y-125409377D01*
X71302111Y-125204667D01*
X71400336Y-124980736D01*
X71460364Y-124743692D01*
X71468261Y-124648390D01*
X71480557Y-124500005D01*
X71480557Y-124499994D01*
X71460365Y-124256316D01*
X71460363Y-124256304D01*
X71450590Y-124217713D01*
X71400336Y-124019264D01*
X71302111Y-123795333D01*
X71220845Y-123670945D01*
X71168367Y-123590621D01*
X71002757Y-123410722D01*
X71002747Y-123410713D01*
X70809791Y-123260529D01*
X70809787Y-123260526D01*
X70594734Y-123144145D01*
X70594729Y-123144143D01*
X70363458Y-123064748D01*
X70182561Y-123034562D01*
X70122263Y-123024500D01*
X69877737Y-123024500D01*
X69829498Y-123032549D01*
X69636541Y-123064748D01*
X69405270Y-123144143D01*
X69405265Y-123144145D01*
X69190212Y-123260526D01*
X69190208Y-123260529D01*
X68997252Y-123410713D01*
X68997242Y-123410722D01*
X68831632Y-123590621D01*
X68697888Y-123795333D01*
X68599663Y-124019265D01*
X68539636Y-124256304D01*
X68539634Y-124256316D01*
X68519443Y-124499994D01*
X63075500Y-124499994D01*
X63075500Y-122278427D01*
X86005000Y-122278427D01*
X86005000Y-122360000D01*
X86655000Y-122360000D01*
X86655000Y-121635000D01*
X86654999Y-121634999D01*
X86648436Y-121635000D01*
X86648417Y-121635001D01*
X86577897Y-121641408D01*
X86577892Y-121641409D01*
X86415603Y-121691981D01*
X86270122Y-121779927D01*
X86149927Y-121900122D01*
X86061980Y-122045604D01*
X86011409Y-122207893D01*
X86005000Y-122278427D01*
X63075500Y-122278427D01*
X63075500Y-119499994D01*
X68519443Y-119499994D01*
X68519443Y-119500005D01*
X68539634Y-119743683D01*
X68539636Y-119743695D01*
X68599663Y-119980734D01*
X68697888Y-120204666D01*
X68831632Y-120409378D01*
X68965259Y-120554534D01*
X68997246Y-120589281D01*
X69190212Y-120739473D01*
X69405267Y-120855855D01*
X69405270Y-120855856D01*
X69636541Y-120935251D01*
X69636543Y-120935251D01*
X69636545Y-120935252D01*
X69877737Y-120975500D01*
X69877738Y-120975500D01*
X70122262Y-120975500D01*
X70122263Y-120975500D01*
X70363455Y-120935252D01*
X70594733Y-120855855D01*
X70809788Y-120739473D01*
X71002754Y-120589281D01*
X71168368Y-120409377D01*
X71302111Y-120204667D01*
X71400336Y-119980736D01*
X71460364Y-119743692D01*
X71474890Y-119568390D01*
X71480557Y-119500005D01*
X71480557Y-119499994D01*
X71460365Y-119256316D01*
X71460363Y-119256304D01*
X71448764Y-119210500D01*
X71400336Y-119019264D01*
X71302111Y-118795333D01*
X71168368Y-118590623D01*
X71168367Y-118590621D01*
X71002757Y-118410722D01*
X71002747Y-118410713D01*
X70809791Y-118260529D01*
X70809787Y-118260526D01*
X70594734Y-118144145D01*
X70594729Y-118144143D01*
X70363458Y-118064748D01*
X70182561Y-118034562D01*
X70122263Y-118024500D01*
X69877737Y-118024500D01*
X69829498Y-118032549D01*
X69636541Y-118064748D01*
X69405270Y-118144143D01*
X69405265Y-118144145D01*
X69190212Y-118260526D01*
X69190208Y-118260529D01*
X68997252Y-118410713D01*
X68997242Y-118410722D01*
X68831632Y-118590621D01*
X68697888Y-118795333D01*
X68599663Y-119019265D01*
X68539636Y-119256304D01*
X68539634Y-119256316D01*
X68519443Y-119499994D01*
X63075500Y-119499994D01*
X63075500Y-116974999D01*
X63500000Y-116974999D01*
X63581581Y-116974999D01*
X63652102Y-116968591D01*
X63652107Y-116968590D01*
X63814396Y-116918018D01*
X63959877Y-116830072D01*
X64080072Y-116709877D01*
X64168019Y-116564395D01*
X64218590Y-116402106D01*
X64225000Y-116331572D01*
X64225000Y-116325000D01*
X63500000Y-116325000D01*
X63500000Y-116974999D01*
X63075500Y-116974999D01*
X63075500Y-115949000D01*
X63095185Y-115881961D01*
X63147989Y-115836206D01*
X63199500Y-115825000D01*
X64224999Y-115825000D01*
X64224999Y-115818417D01*
X64218591Y-115747897D01*
X64218590Y-115747892D01*
X64168018Y-115585603D01*
X64080072Y-115440122D01*
X63977984Y-115338034D01*
X63944499Y-115276711D01*
X63949483Y-115207019D01*
X63977983Y-115162673D01*
X64042668Y-115097989D01*
X64078840Y-115061818D01*
X64140163Y-115028334D01*
X64166520Y-115025500D01*
X68538286Y-115025500D01*
X68605325Y-115045185D01*
X68651080Y-115097989D01*
X68651842Y-115099690D01*
X68697888Y-115204666D01*
X68831632Y-115409378D01*
X68993860Y-115585603D01*
X68997246Y-115589281D01*
X69190212Y-115739473D01*
X69405267Y-115855855D01*
X69405270Y-115855856D01*
X69636541Y-115935251D01*
X69636543Y-115935251D01*
X69636545Y-115935252D01*
X69877737Y-115975500D01*
X69877738Y-115975500D01*
X70122262Y-115975500D01*
X70122263Y-115975500D01*
X70363455Y-115935252D01*
X70594733Y-115855855D01*
X70809788Y-115739473D01*
X71002754Y-115589281D01*
X71168368Y-115409377D01*
X71302111Y-115204667D01*
X71400336Y-114980736D01*
X71460364Y-114743692D01*
X71468498Y-114645528D01*
X79799500Y-114645528D01*
X79799500Y-114954471D01*
X79834086Y-115261437D01*
X79834089Y-115261455D01*
X79902831Y-115562635D01*
X79902835Y-115562647D01*
X80004862Y-115854222D01*
X80004868Y-115854236D01*
X80138903Y-116132562D01*
X80138905Y-116132565D01*
X80303265Y-116394143D01*
X80439037Y-116564395D01*
X80490057Y-116628373D01*
X80495880Y-116635674D01*
X80714326Y-116854120D01*
X80955857Y-117046735D01*
X81217435Y-117211095D01*
X81495771Y-117345135D01*
X81495777Y-117345137D01*
X81787352Y-117447164D01*
X81787364Y-117447168D01*
X82088548Y-117515911D01*
X82088554Y-117515911D01*
X82088562Y-117515913D01*
X82293206Y-117538970D01*
X82395529Y-117550499D01*
X82395532Y-117550500D01*
X82395535Y-117550500D01*
X82704468Y-117550500D01*
X82704469Y-117550499D01*
X82861356Y-117532822D01*
X83011437Y-117515913D01*
X83011442Y-117515912D01*
X83011452Y-117515911D01*
X83312636Y-117447168D01*
X83604229Y-117345135D01*
X83882565Y-117211095D01*
X84144143Y-117046735D01*
X84385674Y-116854120D01*
X84604120Y-116635674D01*
X84796735Y-116394143D01*
X84961095Y-116132565D01*
X85095135Y-115854229D01*
X85197168Y-115562636D01*
X85265911Y-115261452D01*
X85267202Y-115250000D01*
X85300499Y-114954471D01*
X85300500Y-114954467D01*
X85300500Y-114645532D01*
X85300499Y-114645528D01*
X85265913Y-114338562D01*
X85265910Y-114338544D01*
X85197168Y-114037364D01*
X85197164Y-114037352D01*
X85115795Y-113804815D01*
X85095135Y-113745771D01*
X84961095Y-113467435D01*
X84796735Y-113205857D01*
X84604120Y-112964326D01*
X84385674Y-112745880D01*
X84144143Y-112553265D01*
X83882565Y-112388905D01*
X83882562Y-112388903D01*
X83604236Y-112254868D01*
X83604222Y-112254862D01*
X83312647Y-112152835D01*
X83312635Y-112152831D01*
X83011455Y-112084089D01*
X83011437Y-112084086D01*
X82704471Y-112049500D01*
X82704465Y-112049500D01*
X82395535Y-112049500D01*
X82395528Y-112049500D01*
X82088562Y-112084086D01*
X82088544Y-112084089D01*
X81787364Y-112152831D01*
X81787352Y-112152835D01*
X81495777Y-112254862D01*
X81495763Y-112254868D01*
X81217437Y-112388903D01*
X80955858Y-112553264D01*
X80714326Y-112745879D01*
X80495879Y-112964326D01*
X80303264Y-113205858D01*
X80138903Y-113467437D01*
X80004868Y-113745763D01*
X80004862Y-113745777D01*
X79902835Y-114037352D01*
X79902831Y-114037364D01*
X79834089Y-114338544D01*
X79834086Y-114338562D01*
X79799500Y-114645528D01*
X71468498Y-114645528D01*
X71480557Y-114500000D01*
X71467350Y-114340621D01*
X71460365Y-114256316D01*
X71460363Y-114256304D01*
X71436156Y-114160713D01*
X71400336Y-114019264D01*
X71302111Y-113795333D01*
X71269731Y-113745771D01*
X71168367Y-113590621D01*
X71002757Y-113410722D01*
X71002747Y-113410713D01*
X70809791Y-113260529D01*
X70809787Y-113260526D01*
X70594734Y-113144145D01*
X70594729Y-113144143D01*
X70363458Y-113064748D01*
X70182561Y-113034562D01*
X70122263Y-113024500D01*
X69877737Y-113024500D01*
X69829498Y-113032549D01*
X69636541Y-113064748D01*
X69405270Y-113144143D01*
X69405265Y-113144145D01*
X69190212Y-113260526D01*
X69190208Y-113260529D01*
X68997252Y-113410713D01*
X68997242Y-113410722D01*
X68831632Y-113590621D01*
X68715536Y-113768321D01*
X68662389Y-113813678D01*
X68611727Y-113824500D01*
X64166520Y-113824500D01*
X64099481Y-113804815D01*
X64078839Y-113788181D01*
X63960188Y-113669530D01*
X63829657Y-113590621D01*
X63814606Y-113581522D01*
X63652196Y-113530914D01*
X63652194Y-113530913D01*
X63652192Y-113530913D01*
X63602778Y-113526423D01*
X63581616Y-113524500D01*
X63581613Y-113524500D01*
X63199500Y-113524500D01*
X63132461Y-113504815D01*
X63086706Y-113452011D01*
X63075500Y-113400500D01*
X63075500Y-86607939D01*
X63095185Y-86540900D01*
X63111814Y-86520262D01*
X63952104Y-85679972D01*
X64013427Y-85646488D01*
X64083119Y-85651472D01*
X64139052Y-85693344D01*
X64163313Y-85756846D01*
X64164936Y-85775403D01*
X64164938Y-85775413D01*
X64226094Y-86003655D01*
X64226096Y-86003659D01*
X64226097Y-86003663D01*
X64292544Y-86146158D01*
X64325965Y-86217830D01*
X64325967Y-86217834D01*
X64461501Y-86411395D01*
X64461506Y-86411402D01*
X64628597Y-86578493D01*
X64628603Y-86578498D01*
X64814158Y-86708425D01*
X64857783Y-86763002D01*
X64864977Y-86832500D01*
X64833454Y-86894855D01*
X64814158Y-86911575D01*
X64628597Y-87041505D01*
X64461505Y-87208597D01*
X64325965Y-87402169D01*
X64325964Y-87402171D01*
X64226098Y-87616335D01*
X64226094Y-87616344D01*
X64164938Y-87844586D01*
X64164936Y-87844596D01*
X64144341Y-88079999D01*
X64144341Y-88080000D01*
X64164936Y-88315403D01*
X64164938Y-88315413D01*
X64226094Y-88543655D01*
X64226096Y-88543659D01*
X64226097Y-88543663D01*
X64325965Y-88757830D01*
X64325967Y-88757834D01*
X64434281Y-88912521D01*
X64461505Y-88951401D01*
X64628599Y-89118495D01*
X64725384Y-89186265D01*
X64822165Y-89254032D01*
X64822167Y-89254033D01*
X64822170Y-89254035D01*
X65036337Y-89353903D01*
X65264592Y-89415063D01*
X65452918Y-89431539D01*
X65499999Y-89435659D01*
X65500000Y-89435659D01*
X65500001Y-89435659D01*
X65539234Y-89432226D01*
X65735408Y-89415063D01*
X65963663Y-89353903D01*
X66177830Y-89254035D01*
X66371401Y-89118495D01*
X66538495Y-88951401D01*
X66674035Y-88757830D01*
X66773903Y-88543663D01*
X66835063Y-88315408D01*
X66855659Y-88080000D01*
X66835063Y-87844592D01*
X66773903Y-87616337D01*
X66674035Y-87402171D01*
X66538495Y-87208599D01*
X66538494Y-87208597D01*
X66371402Y-87041506D01*
X66371396Y-87041501D01*
X66185842Y-86911575D01*
X66142217Y-86856998D01*
X66135023Y-86787500D01*
X66166546Y-86725145D01*
X66185842Y-86708425D01*
X66208026Y-86692891D01*
X66371401Y-86578495D01*
X66538495Y-86411401D01*
X66674035Y-86217830D01*
X66773903Y-86003663D01*
X66835063Y-85775408D01*
X66855659Y-85540000D01*
X66835063Y-85304592D01*
X66773903Y-85076337D01*
X66674035Y-84862171D01*
X66538495Y-84668599D01*
X66538494Y-84668597D01*
X66371402Y-84501506D01*
X66371396Y-84501501D01*
X66185842Y-84371575D01*
X66142217Y-84316998D01*
X66135023Y-84247500D01*
X66166546Y-84185145D01*
X66185842Y-84168425D01*
X66208026Y-84152891D01*
X66371401Y-84038495D01*
X66538495Y-83871401D01*
X66674035Y-83677830D01*
X66773903Y-83463663D01*
X66835063Y-83235408D01*
X66855659Y-83000000D01*
X66835063Y-82764592D01*
X66773903Y-82536337D01*
X66674035Y-82322171D01*
X66634917Y-82266305D01*
X66538496Y-82128600D01*
X66477876Y-82067980D01*
X66416179Y-82006283D01*
X66382696Y-81944963D01*
X66387680Y-81875271D01*
X66429551Y-81819337D01*
X66460529Y-81802422D01*
X66592086Y-81753354D01*
X66592093Y-81753350D01*
X66707187Y-81667190D01*
X66707190Y-81667187D01*
X66793350Y-81552093D01*
X66793354Y-81552086D01*
X66843596Y-81417379D01*
X66843598Y-81417372D01*
X66849999Y-81357844D01*
X66850000Y-81357827D01*
X66850000Y-80710000D01*
X65933012Y-80710000D01*
X65965925Y-80652993D01*
X66000000Y-80525826D01*
X66000000Y-80394174D01*
X65965925Y-80267007D01*
X65933012Y-80210000D01*
X66850000Y-80210000D01*
X66850000Y-79562172D01*
X66849999Y-79562155D01*
X66843598Y-79502627D01*
X66843596Y-79502620D01*
X66793354Y-79367913D01*
X66793350Y-79367906D01*
X66707190Y-79252812D01*
X66707187Y-79252809D01*
X66592093Y-79166649D01*
X66592086Y-79166645D01*
X66457379Y-79116403D01*
X66457372Y-79116401D01*
X66397844Y-79110000D01*
X65750000Y-79110000D01*
X65750000Y-80026988D01*
X65692993Y-79994075D01*
X65565826Y-79960000D01*
X65434174Y-79960000D01*
X65307007Y-79994075D01*
X65250000Y-80026988D01*
X65250000Y-79110000D01*
X64602155Y-79110000D01*
X64542627Y-79116401D01*
X64542620Y-79116403D01*
X64407913Y-79166645D01*
X64407906Y-79166649D01*
X64292812Y-79252809D01*
X64292809Y-79252812D01*
X64206649Y-79367906D01*
X64206645Y-79367913D01*
X64156403Y-79502620D01*
X64156401Y-79502627D01*
X64150000Y-79562155D01*
X64150000Y-80210000D01*
X65066988Y-80210000D01*
X65034075Y-80267007D01*
X65000000Y-80394174D01*
X65000000Y-80525826D01*
X65034075Y-80652993D01*
X65066988Y-80710000D01*
X64150000Y-80710000D01*
X64150000Y-81357844D01*
X64156401Y-81417372D01*
X64156403Y-81417379D01*
X64206645Y-81552086D01*
X64206649Y-81552093D01*
X64292809Y-81667187D01*
X64292812Y-81667190D01*
X64407906Y-81753350D01*
X64407913Y-81753354D01*
X64423903Y-81759318D01*
X64479837Y-81801189D01*
X64504254Y-81866653D01*
X64489403Y-81934926D01*
X64439998Y-81984332D01*
X64380570Y-81999500D01*
X63000481Y-81999500D01*
X62933442Y-81979815D01*
X62887687Y-81927011D01*
X62877743Y-81857853D01*
X62894943Y-81810402D01*
X62911544Y-81783487D01*
X62911547Y-81783481D01*
X62964855Y-81622606D01*
X62974999Y-81523322D01*
X62975000Y-81523309D01*
X62975000Y-81500000D01*
X61025001Y-81500000D01*
X61025001Y-81523322D01*
X61035144Y-81622607D01*
X61088452Y-81783481D01*
X61088457Y-81783492D01*
X61177424Y-81927728D01*
X61177427Y-81927732D01*
X61186660Y-81936965D01*
X61220145Y-81998288D01*
X61215161Y-82067980D01*
X61186663Y-82112324D01*
X61177033Y-82121953D01*
X61177029Y-82121959D01*
X61088001Y-82266294D01*
X61087996Y-82266305D01*
X61034651Y-82427290D01*
X61024500Y-82526647D01*
X60000500Y-82526647D01*
X60000500Y-80976677D01*
X61025000Y-80976677D01*
X61025000Y-81000000D01*
X61750000Y-81000000D01*
X62250000Y-81000000D01*
X62974999Y-81000000D01*
X62974999Y-80976692D01*
X62974998Y-80976677D01*
X62964855Y-80877392D01*
X62911547Y-80716518D01*
X62911542Y-80716507D01*
X62822575Y-80572271D01*
X62822572Y-80572267D01*
X62702732Y-80452427D01*
X62702728Y-80452424D01*
X62558492Y-80363457D01*
X62558481Y-80363452D01*
X62397606Y-80310144D01*
X62298322Y-80300000D01*
X62250000Y-80300000D01*
X62250000Y-81000000D01*
X61750000Y-81000000D01*
X61750000Y-80300000D01*
X61749999Y-80299999D01*
X61701693Y-80300000D01*
X61701675Y-80300001D01*
X61602392Y-80310144D01*
X61441518Y-80363452D01*
X61441507Y-80363457D01*
X61297271Y-80452424D01*
X61297267Y-80452427D01*
X61177427Y-80572267D01*
X61177424Y-80572271D01*
X61088457Y-80716507D01*
X61088452Y-80716518D01*
X61035144Y-80877393D01*
X61025000Y-80976677D01*
X60000500Y-80976677D01*
X60000500Y-66560258D01*
X63654500Y-66560258D01*
X63654500Y-66789741D01*
X63679446Y-66979215D01*
X63684452Y-67017238D01*
X63684453Y-67017240D01*
X63743842Y-67238887D01*
X63831650Y-67450876D01*
X63831657Y-67450890D01*
X63946392Y-67649617D01*
X64086081Y-67831661D01*
X64086089Y-67831670D01*
X64248330Y-67993911D01*
X64248338Y-67993918D01*
X64430382Y-68133607D01*
X64430385Y-68133608D01*
X64430388Y-68133611D01*
X64629112Y-68248344D01*
X64629117Y-68248346D01*
X64629123Y-68248349D01*
X64720480Y-68286190D01*
X64841113Y-68336158D01*
X65062762Y-68395548D01*
X65290266Y-68425500D01*
X65290273Y-68425500D01*
X65519727Y-68425500D01*
X65519734Y-68425500D01*
X65747238Y-68395548D01*
X65968887Y-68336158D01*
X66180888Y-68248344D01*
X66379612Y-68133611D01*
X66561661Y-67993919D01*
X66561665Y-67993914D01*
X66561670Y-67993911D01*
X66723911Y-67831670D01*
X66723914Y-67831665D01*
X66723919Y-67831661D01*
X66863611Y-67649612D01*
X66978344Y-67450888D01*
X67066158Y-67238887D01*
X67125548Y-67017238D01*
X67155500Y-66789734D01*
X67155500Y-66560266D01*
X67155499Y-66560258D01*
X141124500Y-66560258D01*
X141124500Y-66789741D01*
X141149446Y-66979215D01*
X141154452Y-67017238D01*
X141154453Y-67017240D01*
X141213842Y-67238887D01*
X141301650Y-67450876D01*
X141301657Y-67450890D01*
X141416392Y-67649617D01*
X141556081Y-67831661D01*
X141556089Y-67831670D01*
X141718330Y-67993911D01*
X141718338Y-67993918D01*
X141900382Y-68133607D01*
X141900385Y-68133608D01*
X141900388Y-68133611D01*
X142099112Y-68248344D01*
X142099117Y-68248346D01*
X142099123Y-68248349D01*
X142190480Y-68286190D01*
X142311113Y-68336158D01*
X142532762Y-68395548D01*
X142760266Y-68425500D01*
X142760273Y-68425500D01*
X142989727Y-68425500D01*
X142989734Y-68425500D01*
X143217238Y-68395548D01*
X143438887Y-68336158D01*
X143650888Y-68248344D01*
X143849612Y-68133611D01*
X144031661Y-67993919D01*
X144031665Y-67993914D01*
X144031670Y-67993911D01*
X144193911Y-67831670D01*
X144193914Y-67831665D01*
X144193919Y-67831661D01*
X144333611Y-67649612D01*
X144448344Y-67450888D01*
X144536158Y-67238887D01*
X144595548Y-67017238D01*
X144625500Y-66789734D01*
X144625500Y-66560266D01*
X144595548Y-66332762D01*
X144536158Y-66111113D01*
X144448344Y-65899112D01*
X144333611Y-65700388D01*
X144333608Y-65700385D01*
X144333607Y-65700382D01*
X144193918Y-65518338D01*
X144193911Y-65518330D01*
X144031670Y-65356089D01*
X144031661Y-65356081D01*
X143849617Y-65216392D01*
X143650890Y-65101657D01*
X143650876Y-65101650D01*
X143438887Y-65013842D01*
X143217238Y-64954452D01*
X143179215Y-64949446D01*
X142989741Y-64924500D01*
X142989734Y-64924500D01*
X142760266Y-64924500D01*
X142760258Y-64924500D01*
X142543715Y-64953009D01*
X142532762Y-64954452D01*
X142439076Y-64979554D01*
X142311112Y-65013842D01*
X142099123Y-65101650D01*
X142099109Y-65101657D01*
X141900382Y-65216392D01*
X141718338Y-65356081D01*
X141556081Y-65518338D01*
X141416392Y-65700382D01*
X141301657Y-65899109D01*
X141301650Y-65899123D01*
X141213842Y-66111112D01*
X141154453Y-66332759D01*
X141154451Y-66332770D01*
X141124500Y-66560258D01*
X67155499Y-66560258D01*
X67125548Y-66332762D01*
X67066158Y-66111113D01*
X66978344Y-65899112D01*
X66863611Y-65700388D01*
X66863608Y-65700385D01*
X66863607Y-65700382D01*
X66723918Y-65518338D01*
X66723911Y-65518330D01*
X66561670Y-65356089D01*
X66561661Y-65356081D01*
X66379617Y-65216392D01*
X66180890Y-65101657D01*
X66180876Y-65101650D01*
X65968887Y-65013842D01*
X65747238Y-64954452D01*
X65709215Y-64949446D01*
X65519741Y-64924500D01*
X65519734Y-64924500D01*
X65290266Y-64924500D01*
X65290258Y-64924500D01*
X65073715Y-64953009D01*
X65062762Y-64954452D01*
X64969076Y-64979554D01*
X64841112Y-65013842D01*
X64629123Y-65101650D01*
X64629109Y-65101657D01*
X64430382Y-65216392D01*
X64248338Y-65356081D01*
X64086081Y-65518338D01*
X63946392Y-65700382D01*
X63831657Y-65899109D01*
X63831650Y-65899123D01*
X63743842Y-66111112D01*
X63684453Y-66332759D01*
X63684451Y-66332770D01*
X63654500Y-66560258D01*
X60000500Y-66560258D01*
X60000500Y-62024500D01*
X60020185Y-61957461D01*
X60072989Y-61911706D01*
X60124500Y-61900500D01*
X147875500Y-61900500D01*
X147942539Y-61920185D01*
G37*
%TD.AperFunction*%
%TD*%
M02*
