M48
; DRILL file {KiCad 8.0.6} date 2024-11-25T21:27:08+0100
; FORMAT={-:-/ absolute / metric / decimal}
; #@! TF.CreationDate,2024-11-25T21:27:08+01:00
; #@! TF.GenerationSoftware,Kicad,Pcbnew,8.0.6
; #@! TF.FileFunction,Plated,1,2,PTH
FMAT,2
METRIC
; #@! TA.AperFunction,Plated,PTH,ViaDrill
T1C0.300
; #@! TA.AperFunction,Plated,PTH,ComponentDrill
T2C0.700
; #@! TA.AperFunction,Plated,PTH,ComponentDrill
T3C1.000
; #@! TA.AperFunction,Plated,PTH,ComponentDrill
T4C1.300
; #@! TA.AperFunction,Plated,PTH,ComponentDrill
T5C1.500
%
G90
G05
T1
X108.75Y-169.25
X111.0Y-166.45
X112.5Y-174.25
X120.0Y-139.5
X124.7Y-167.05
X125.25Y-161.0
X129.1Y-201.0
X144.15Y-167.45
T2
X120.25Y-132.61
X120.25Y-135.11
T3
X64.84Y-168.25
X64.84Y-188.57
X65.5Y-80.46
X65.5Y-83.0
X65.5Y-85.54
X65.5Y-88.08
X72.46Y-188.57
X75.0Y-168.25
X77.54Y-188.57
X85.16Y-168.25
X91.29Y-117.71
X91.29Y-120.25
X91.29Y-122.79
X91.29Y-125.33
X91.29Y-127.87
X91.29Y-130.41
X91.29Y-132.95
X91.29Y-135.49
X114.15Y-117.71
X114.15Y-120.25
X114.15Y-122.79
X114.15Y-125.33
X114.15Y-127.87
X114.15Y-130.41
X114.15Y-132.95
X114.15Y-135.49
T4
X70.0Y-114.5
X70.0Y-119.5
X70.0Y-124.5
X70.0Y-129.5
X70.25Y-136.5
X70.25Y-141.5
X70.25Y-146.5
X70.25Y-151.5
X80.42Y-215.5
X85.5Y-215.5
X93.215Y-214.5
X98.215Y-214.5
X103.215Y-214.5
X108.215Y-214.5
X113.215Y-214.5
X121.5Y-214.5
X125.75Y-115.25
X126.5Y-214.5
X130.75Y-115.25
X131.5Y-214.5
X135.0Y-135.815
X135.0Y-140.895
X135.75Y-115.25
X136.5Y-214.5
X140.75Y-115.25
X141.5Y-214.5
T5
X63.95Y-201.0
X86.55Y-201.0
X93.0Y-163.8
X94.0Y-183.225
X94.0Y-195.425
X99.0Y-165.8
X100.0Y-197.425
X105.0Y-151.6
X105.0Y-163.8
X106.0Y-183.225
X106.0Y-195.425
X112.5Y-163.875
X113.0Y-183.25
X113.0Y-195.45
X118.5Y-165.875
X119.0Y-197.45
X124.5Y-151.675
X124.5Y-163.875
X125.0Y-183.25
X125.0Y-195.45
X131.0Y-183.25
X131.0Y-195.45
X132.0Y-163.925
X137.0Y-197.45
X138.0Y-165.925
X143.0Y-183.25
X143.0Y-195.45
X144.0Y-151.725
X144.0Y-163.925
M30
